<?xml version="1.0" encoding="UTF-8" standalone="no"?>
<svg
   id="svg"
   version="1.1"
   width="400"
   height="400"
   viewBox="0, 0, 400,400"
   sodipodi:docname="accessible.svg"
   inkscape:export-filename="accessible.png"
   inkscape:export-xdpi="96"
   inkscape:export-ydpi="96"
   inkscape:version="1.4 (86a8ad7, 2024-10-11)"
   xmlns:inkscape="http://www.inkscape.org/namespaces/inkscape"
   xmlns:sodipodi="http://sodipodi.sourceforge.net/DTD/sodipodi-0.dtd"
   xmlns="http://www.w3.org/2000/svg"
   xmlns:svg="http://www.w3.org/2000/svg">
  <defs
     id="defs1" />
  <sodipodi:namedview
     id="namedview1"
     pagecolor="#ffffff"
     bordercolor="#000000"
     borderopacity="0.25"
     inkscape:showpageshadow="2"
     inkscape:pageopacity="0.0"
     inkscape:pagecheckerboard="0"
     inkscape:deskcolor="#d1d1d1"
     inkscape:zoom="1.615"
     inkscape:cx="200.3096"
     inkscape:cy="200"
     inkscape:window-width="1440"
     inkscape:window-height="890"
     inkscape:window-x="-6"
     inkscape:window-y="-6"
     inkscape:window-maximized="1"
     inkscape:current-layer="svgg" />
  <g
     id="svgg">
    <path
       id="path1"
       d="m 41.354,29.812 c -3.641,1.758 -5.816,3.954 -7.562,7.631 L 32.4,40.377 v 162.67 162.669 l 1.396,2.902 c 1.324,2.754 4.95,6.982 5.986,6.982 0.233,0 1.323,0.495 2.421,1.1 l 1.997,1.1 H 207 369.8 l 2.771,-1.39 c 3.518,-1.764 6.075,-4.321 7.839,-7.839 L 381.8,365.8 V 203 40.2 l -1.1,-1.997 c -0.605,-1.098 -1.1,-2.188 -1.1,-2.421 0,-1.036 -4.228,-4.662 -6.982,-5.986 L 369.716,28.4 206.958,28.418 44.2,28.437 41.354,29.812 M 256.73,56.007 c 3.138,0.293 4.033,0.542 5.641,1.575 1.052,0.674 2.793,1.489 3.871,1.811 5.799,1.729 13.707,10.659 14.539,16.418 0.866,5.995 0.26,14.352 -1.174,16.189 -0.43,0.55 -1.422,1.939 -2.206,3.086 -2.077,3.04 -5.579,6.388 -7.926,7.578 -1.126,0.57 -2.684,1.547 -3.461,2.17 -1.098,0.88 -2.218,1.268 -5.014,1.734 -1.98,0.33 -4.915,1.067 -6.522,1.637 -5.128,1.821 -10.74,1.667 -15.678,-0.429 -1.21,-0.514 -3.458,-1.118 -4.995,-1.343 -2.175,-0.319 -3.285,-0.745 -5,-1.921 -1.213,-0.832 -2.853,-1.841 -3.646,-2.243 -2.607,-1.323 -7.665,-6.706 -8.914,-9.486 -1.234,-2.747 -2.726,-10.046 -2.447,-11.969 1.409,-9.696 3.655,-13.307 12.35,-19.848 1.292,-0.971 2.642,-1.766 3,-1.766 0.359,0 2.092,-0.716 3.852,-1.592 4.55,-2.262 11.551,-2.735 23.73,-1.601 M 245,62.266 c -0.44,0.117 -2,0.735 -3.467,1.374 -1.467,0.638 -3.15,1.16 -3.74,1.16 -1.337,0 -3.226,0.882 -4.793,2.237 -0.66,0.571 -1.65,1.274 -2.2,1.561 -1.946,1.018 -4.687,4.369 -5.421,6.628 -0.389,1.196 -0.948,2.853 -1.243,3.682 -0.958,2.695 -0.784,3.962 1.408,10.292 0.856,2.47 5.666,7.371 7.796,7.944 0.847,0.227 2.534,1.098 3.748,1.935 l 2.209,1.521 h 8.051 c 7.731,0 8.124,-0.038 9.852,-0.959 0.99,-0.528 2.857,-1.494 4.15,-2.147 2.283,-1.154 4.138,-2.834 7.85,-7.11 l 1.8,-2.074 0.13,-5.769 c 0.137,-6.119 -0.241,-7.551 -2.671,-10.119 -0.362,-0.383 -0.959,-1.253 -1.326,-1.934 -0.367,-0.681 -1.357,-1.582 -2.2,-2.003 -0.843,-0.422 -2.602,-1.423 -3.909,-2.226 -1.308,-0.802 -2.787,-1.459 -3.289,-1.459 -0.502,0 -2.372,-0.533 -4.156,-1.184 -3.196,-1.166 -7.015,-1.767 -8.579,-1.35 m -10.428,55.724 c 3.049,0.321 3.867,0.574 5.6,1.731 1.115,0.745 2.814,1.576 3.774,1.847 1.772,0.499 3.869,1.909 7.927,5.332 2.149,1.813 3.555,3.556 6.017,7.46 0.61,0.968 1.686,2.534 2.391,3.478 0.704,0.945 1.641,2.424 2.081,3.287 0.44,0.862 1.234,2.087 1.764,2.722 0.531,0.634 1.33,1.873 1.777,2.753 0.446,0.88 1.211,1.96 1.698,2.4 0.488,0.44 1.405,1.827 2.04,3.083 0.634,1.255 1.694,2.899 2.356,3.652 0.662,0.754 1.203,1.504 1.203,1.667 0,0.163 0.784,1.399 1.743,2.747 0.959,1.348 2.033,3.017 2.388,3.708 0.464,0.904 1.633,1.796 4.157,3.172 l 3.512,1.914 7.8,0.327 c 4.29,0.181 12.66,0.492 18.6,0.693 13.057,0.441 22.232,2.01 25.4,4.344 5.716,4.21 7.219,6.819 7.17,12.443 -0.038,4.282 -0.458,5.461 -2.95,8.288 -2.264,2.569 -3.02,3.865 -3.02,5.179 0,0.959 -1.675,2.583 -2.664,2.583 -0.306,0 -1.821,0.637 -3.368,1.416 -1.546,0.779 -4.107,1.702 -5.69,2.051 -1.583,0.349 -3.238,0.95 -3.678,1.334 -1.109,0.969 -2.286,1.539 -5.051,2.447 -1.308,0.429 -2.713,1.116 -3.123,1.526 -0.41,0.41 -1.779,1.046 -3.042,1.413 -2.211,0.643 -3.815,1.459 -4.897,2.493 -0.496,0.473 -3.009,1.313 -3.942,1.318 -0.25,0.001 -1.33,0.603 -2.4,1.338 -1.07,0.735 -2.935,1.657 -4.145,2.05 -1.21,0.393 -2.74,1.112 -3.4,1.598 -0.66,0.486 -2.491,1.374 -4.069,1.973 -5.17,1.963 -5.244,6.053 -0.141,7.777 3.381,1.141 7.226,4.61 10.106,9.117 1.947,3.047 3.104,12.914 2.058,17.549 -0.7,3.104 -0.813,8.676 -1.162,57.4 -0.206,28.822 -0.27,29.871 -1.937,32.187 -0.47,0.653 -1.215,2.016 -1.655,3.03 -1.08,2.487 -4.51,6.244 -6.724,7.365 -0.994,0.503 -2.318,1.273 -2.942,1.711 -2.524,1.772 -8.921,3.111 -14.734,3.086 -6.416,-0.029 -14.755,-1.603 -16.047,-3.031 -0.378,-0.417 -1.439,-1.135 -2.359,-1.594 -0.92,-0.46 -3.522,-2.593 -5.781,-4.742 -4.571,-4.346 -3.772,-4.097 -8.613,-2.684 -2.662,0.777 -3.301,1.069 -5.273,2.408 -1.243,0.843 -2.324,1.191 -4.2,1.352 -1.853,0.159 -3.191,0.584 -5.015,1.592 -2.053,1.135 -3.265,1.477 -6.932,1.957 -2.612,0.343 -5.46,0.997 -6.912,1.59 -7.042,2.875 -53.937,2.871 -59.9,-0.005 -1.81,-0.874 -4.105,-1.371 -9.368,-2.032 -1.1,-0.138 -2.99,-0.805 -4.2,-1.482 -1.297,-0.726 -3.382,-1.437 -5.08,-1.733 -1.988,-0.346 -3.599,-0.945 -5.2,-1.932 -1.276,-0.787 -3.164,-1.589 -4.195,-1.781 -1.032,-0.192 -2.401,-0.791 -3.042,-1.331 -0.642,-0.54 -2.318,-1.399 -3.725,-1.91 -1.407,-0.51 -3.149,-1.444 -3.872,-2.074 -0.723,-0.631 -1.542,-1.147 -1.822,-1.147 -0.279,0 -1.658,-0.81 -3.064,-1.8 -1.406,-0.99 -2.726,-1.8 -2.933,-1.8 -0.457,0 -6.114,-4.232 -7.348,-5.497 -0.484,-0.497 -1.061,-0.903 -1.28,-0.903 -1.056,0 -15.584,-15.114 -16.753,-17.429 -0.659,-1.304 -1.598,-2.731 -2.085,-3.171 -0.488,-0.44 -1.331,-1.674 -1.873,-2.742 -0.541,-1.069 -1.512,-2.671 -2.156,-3.561 -0.645,-0.889 -1.172,-1.826 -1.172,-2.082 0,-0.256 -0.731,-1.678 -1.625,-3.16 -0.953,-1.58 -1.842,-3.72 -2.15,-5.174 -0.289,-1.365 -1.178,-3.741 -1.975,-5.281 -1.4,-2.706 -1.469,-3.042 -2.048,-10 -0.33,-3.96 -0.87,-8.084 -1.201,-9.164 -0.77,-2.516 -0.763,-4.676 0.023,-6.549 0.67,-1.598 1.341,-7.687 1.363,-12.368 0.012,-2.588 0.18,-3.198 1.657,-6 1.041,-1.975 1.766,-3.987 1.979,-5.485 0.239,-1.686 0.739,-2.952 1.741,-4.408 0.774,-1.123 1.69,-2.848 2.037,-3.834 0.347,-0.986 1.168,-2.461 1.824,-3.28 0.656,-0.818 1.526,-2.258 1.934,-3.2 0.407,-0.941 1.311,-2.342 2.008,-3.112 0.696,-0.77 1.544,-1.916 1.884,-2.546 2.071,-3.845 13.659,-15.825 17.661,-18.259 1.493,-0.908 1.658,-1.176 2.016,-3.272 0.322,-1.884 2.774,-4.151 6.672,-6.171 1.1,-0.57 2.54,-1.531 3.2,-2.135 0.66,-0.604 1.996,-1.406 2.968,-1.782 0.972,-0.376 2.502,-1.196 3.4,-1.824 0.898,-0.627 2.658,-1.429 3.912,-1.781 1.253,-0.352 2.391,-0.821 2.527,-1.041 0.423,-0.685 3.274,-1.972 5.359,-2.419 2.195,-0.471 4.343,-2.421 5.367,-4.872 1.54,-3.685 0.051,-29.498 -1.702,-29.498 -0.149,0 -1.331,-0.945 -2.627,-2.1 l -2.355,-2.1 -13.824,-0.2 c -12.316,-0.178 -13.969,-0.278 -15.142,-0.919 -2.92,-1.594 -2.614,-3.993 0.726,-5.685 l 2.038,-1.033 14.277,0.16 c 13.439,0.151 14.499,0.217 18.087,1.119 5.048,1.269 8.063,3.655 9.032,7.147 0.337,1.216 0.87,2.89 1.185,3.719 0.447,1.179 0.572,3.989 0.572,12.881 0,12.26 0.114,13.036 2.058,14.041 2.7,1.396 5.886,-0.892 8.393,-6.03 0.644,-1.32 1.751,-3.14 2.46,-4.045 0.709,-0.905 1.604,-2.165 1.989,-2.8 2.076,-3.425 4.407,-6.284 10.3,-12.635 6.975,-7.516 11.766,-11.982 16.546,-15.423 0.69,-0.496 1.436,-1.126 1.658,-1.4 0.74,-0.91 5.181,-4.561 6.196,-5.092 0.55,-0.289 1.81,-1.138 2.8,-1.888 4.645,-3.519 6.254,-4.536 8.153,-5.149 1.126,-0.363 2.942,-1.225 4.035,-1.914 1.56,-0.984 2.593,-1.305 4.8,-1.489 4.676,-0.392 19.375,-0.376 23.184,0.025 M 217,124.58 c -1.1,0.281 -2.81,0.892 -3.8,1.357 -0.99,0.465 -2.16,0.851 -2.6,0.858 -0.883,0.014 -3.718,1.585 -6.8,3.768 -1.1,0.779 -3,2.101 -4.223,2.937 -2.388,1.633 -5.193,3.821 -7.803,6.088 -2.805,2.435 -5.44,4.6 -5.968,4.905 -0.466,0.268 -5.929,5.777 -10.806,10.898 -3.245,3.407 -6.292,7.186 -8.744,10.845 -0.75,1.119 -1.822,2.494 -2.382,3.054 -0.56,0.56 -1.222,1.775 -1.471,2.7 -0.25,0.926 -1.124,2.431 -1.944,3.346 -0.879,0.982 -1.68,2.414 -1.954,3.494 -0.255,1.006 -1.097,2.769 -1.87,3.918 -0.773,1.149 -1.504,2.756 -1.624,3.57 -0.254,1.723 -0.901,3.665 -2.417,7.258 -0.958,2.271 -1.149,3.483 -1.603,10.2 -0.297,4.405 -0.782,8.469 -1.149,9.624 -0.843,2.663 -0.804,4.547 0.157,7.525 0.439,1.361 0.896,3.304 1.016,4.317 0.157,1.333 0.709,2.519 2.001,4.293 0.981,1.349 1.784,2.613 1.784,2.81 0,1.003 6.778,6.413 8.069,6.441 0.369,0.008 1.495,0.644 2.504,1.414 1.601,1.222 2.354,1.478 5.921,2.014 2.248,0.338 5.261,1.036 6.696,1.551 3.062,1.1 4.26,1.311 10.41,1.833 3.201,0.271 5.755,0.765 8.4,1.623 2.779,0.903 5.362,1.384 9.614,1.792 4.097,0.393 6.578,0.846 8.4,1.531 2.716,1.021 6.313,1.639 11.986,2.059 2.319,0.171 4.086,0.562 5.556,1.228 1.186,0.537 3.252,1.26 4.591,1.607 5.086,1.318 12.55,7.427 13.959,11.426 0.342,0.97 0.529,11.365 0.683,37.951 l 0.211,36.616 1.708,3.431 c 1.772,3.559 4.1,6.112 8.287,9.086 3.537,2.512 13.659,2.679 16.808,0.277 0.776,-0.592 2.172,-1.422 3.104,-1.846 2.476,-1.126 3.272,-1.906 4.668,-4.579 0.69,-1.32 1.61,-2.961 2.045,-3.646 0.767,-1.209 0.804,-2.463 1.207,-41.8 0.39,-38.09 0.463,-40.739 1.194,-43.602 2.582,-10.106 -1.885,-19.509 -10.221,-21.517 -1.1,-0.265 -2.63,-0.891 -3.4,-1.391 -1.588,-1.031 -4.479,-1.844 -6.558,-1.844 -0.859,0 -2.555,-0.606 -4.371,-1.563 -2.237,-1.178 -3.644,-1.63 -5.719,-1.839 -1.75,-0.176 -3.699,-0.719 -5.352,-1.49 -3.272,-1.525 -4.362,-1.85 -7.629,-2.274 -1.508,-0.196 -3.725,-0.869 -5.2,-1.58 -1.477,-0.712 -4.076,-1.501 -6.107,-1.855 -3.388,-0.59 -5.549,-1.365 -6.046,-2.169 -0.127,-0.207 -1.264,-0.584 -2.525,-0.837 -2.528,-0.508 -4.208,-1.472 -6.836,-3.923 l -1.743,-1.626 0.143,-4.728 c 0.138,-4.557 0.19,-4.8 1.443,-6.691 0.715,-1.079 1.3,-2.455 1.3,-3.058 0,-1.854 1.39,-5.685 2.739,-7.546 0.705,-0.973 1.548,-2.681 1.873,-3.795 0.326,-1.115 0.906,-2.489 1.29,-3.054 0.384,-0.566 1.303,-1.949 2.042,-3.074 3.83,-5.831 13.243,-4.356 17.894,2.805 2.809,4.326 5.408,7.002 8.835,9.095 l 3.467,2.119 12.422,-0.083 c 8.989,-0.061 13.177,-0.243 15.156,-0.659 1.911,-0.402 5.466,-0.576 11.808,-0.579 7.339,-0.004 9.456,-0.131 11.074,-0.663 1.386,-0.457 4.272,-0.746 9.4,-0.942 8.472,-0.324 8.377,-0.299 11.335,-3.057 3.788,-3.532 3.687,-6.263 -0.364,-9.885 l -2.629,-2.35 -9.871,-0.203 c -8.361,-0.172 -10.164,-0.317 -11.786,-0.949 -1.456,-0.568 -2.989,-0.749 -6.4,-0.757 -2.467,-0.005 -5.205,-0.195 -6.085,-0.423 -0.88,-0.228 -4.75,-0.58 -8.6,-0.783 -8.399,-0.444 -9.271,-0.633 -11.793,-2.558 -2.028,-1.548 -6.207,-5.994 -6.207,-6.603 0,-0.191 -0.658,-1.129 -1.461,-2.085 -0.804,-0.956 -1.885,-2.656 -2.402,-3.777 -0.517,-1.122 -1.319,-2.382 -1.782,-2.8 -0.464,-0.419 -1.354,-1.773 -1.979,-3.011 -0.625,-1.237 -1.384,-2.344 -1.686,-2.46 -0.302,-0.116 -1.208,-1.464 -2.013,-2.996 -0.805,-1.531 -1.749,-3.022 -2.099,-3.312 -0.35,-0.291 -1.007,-1.261 -1.46,-2.155 -0.453,-0.895 -1.438,-2.311 -2.189,-3.148 -0.75,-0.836 -1.531,-1.959 -1.735,-2.495 -0.429,-1.128 -5.122,-7.384 -5.539,-7.384 -0.153,0 -1.534,-0.809 -3.067,-1.798 -1.533,-0.988 -3.418,-1.913 -4.188,-2.054 -0.77,-0.141 -2.57,-0.669 -4,-1.174 -5.073,-1.789 -10.871,-2.251 -15,-1.194 m -79.8,63.077 c -0.77,0.47 -2.547,1.094 -3.948,1.388 -1.402,0.293 -3.382,1.066 -4.4,1.717 -1.019,0.651 -2.712,1.398 -3.764,1.661 -1.051,0.263 -2.455,0.985 -3.119,1.606 -0.664,0.62 -2.234,1.508 -3.488,1.973 -2.623,0.971 -3.659,2.064 -3.672,3.869 -0.01,1.411 -0.662,2.228 -2.547,3.194 -0.694,0.356 -1.352,0.784 -1.462,0.951 -0.11,0.168 -1.206,0.998 -2.435,1.844 -6.929,4.773 -14.132,11.314 -18.171,16.502 -1.097,1.409 -2.759,3.407 -3.694,4.441 -0.935,1.034 -1.7,2.058 -1.7,2.276 0,0.217 -0.9,1.677 -2,3.243 -1.1,1.567 -2,3.179 -2,3.584 0,0.404 -0.731,1.861 -1.626,3.237 -1.08,1.662 -1.811,3.392 -2.18,5.155 -0.306,1.459 -0.906,3.128 -1.335,3.708 -1.456,1.969 -2.083,4.73 -2.308,10.155 -0.144,3.459 -0.491,6.202 -1.023,8.074 l -0.806,2.836 0.804,2.964 c 0.521,1.925 0.875,4.789 1.007,8.165 0.214,5.471 0.803,8.144 2.238,10.16 0.477,0.669 1.024,2.167 1.215,3.329 0.472,2.864 0.966,4.035 2.612,6.19 0.771,1.01 1.402,2.182 1.402,2.605 0,0.967 0.592,2.103 2.094,4.02 0.649,0.827 1.478,2.104 1.843,2.838 0.364,0.734 1.242,2.037 1.95,2.896 0.707,0.859 1.697,2.134 2.2,2.833 3.164,4.403 13.682,14.306 19.18,18.058 3.843,2.622 6.32,4.193 7.902,5.011 0.787,0.407 2.362,1.352 3.499,2.1 1.137,0.748 2.307,1.364 2.6,1.369 0.833,0.014 3.635,1.402 4.653,2.304 0.507,0.45 1.857,1.035 3,1.3 1.143,0.266 3.519,1.166 5.279,2 1.994,0.945 4.105,1.618 5.6,1.787 1.49,0.168 3.158,0.699 4.4,1.401 2.236,1.265 5.539,1.99 9.173,2.016 2.689,0.02 3.495,0.173 10.427,1.98 l 4.8,1.252 12.4,-0.194 c 12.399,-0.195 14.198,-0.379 18,-1.848 1.221,-0.471 3.887,-0.925 6.848,-1.166 3.989,-0.324 5.478,-0.639 8.4,-1.779 1.954,-0.761 4.542,-1.509 5.752,-1.661 2.073,-0.26 2.916,-0.588 5.95,-2.311 0.688,-0.391 2.195,-0.889 3.35,-1.107 1.193,-0.225 2.837,-0.924 3.806,-1.619 0.939,-0.672 2.632,-1.524 3.763,-1.893 3.499,-1.142 3.673,-1.609 4.009,-10.794 0.375,-10.246 -0.421,-13.008 -3.526,-12.23 -1.036,0.26 -4.852,2.656 -5.352,3.361 -0.11,0.155 -1.28,0.819 -2.6,1.474 -1.32,0.656 -3.03,1.58 -3.8,2.054 -0.77,0.473 -1.76,0.862 -2.2,0.863 -0.44,0.001 -2.338,0.795 -4.218,1.763 -2.353,1.211 -4.162,1.847 -5.8,2.039 -1.363,0.159 -2.981,0.66 -3.782,1.171 -2.179,1.389 -3.854,1.831 -8.6,2.275 -2.42,0.226 -5.75,0.668 -7.4,0.982 -1.65,0.314 -3.923,0.571 -5.051,0.571 -1.128,0 -2.748,0.301 -3.6,0.668 -2.061,0.889 -9.188,0.866 -11.699,-0.038 -0.963,-0.346 -2.404,-0.63 -3.203,-0.63 -0.799,0 -2.081,-0.181 -2.85,-0.402 -0.768,-0.221 -4.147,-0.678 -7.508,-1.014 -6.408,-0.642 -7.172,-0.819 -10.089,-2.349 -0.99,-0.519 -3.052,-1.156 -4.582,-1.415 -1.838,-0.312 -3.534,-0.929 -5,-1.82 -1.22,-0.741 -3.016,-1.555 -3.99,-1.809 -0.975,-0.253 -2.325,-0.875 -3,-1.382 -0.676,-0.506 -2.34,-1.477 -3.699,-2.156 -1.359,-0.679 -2.586,-1.422 -2.727,-1.65 -0.141,-0.228 -0.864,-0.669 -1.605,-0.979 -0.742,-0.309 -2.125,-1.26 -3.073,-2.113 -0.948,-0.852 -2.203,-1.849 -2.789,-2.216 -1.63,-1.022 -8.088,-7.285 -8.711,-8.45 -0.304,-0.567 -0.873,-1.134 -1.266,-1.258 -0.393,-0.125 -1.271,-1.073 -1.952,-2.107 -0.681,-1.034 -1.815,-2.711 -2.522,-3.728 -0.706,-1.016 -1.592,-2.366 -1.969,-3 -0.377,-0.633 -1.053,-1.602 -1.503,-2.152 -0.45,-0.55 -1.015,-2.122 -1.256,-3.492 -0.273,-1.549 -0.97,-3.366 -1.844,-4.8 -1.915,-3.147 -2.221,-6.255 -2.041,-20.708 l 0.145,-11.6 1.853,-4 c 1.018,-2.2 1.967,-4.673 2.109,-5.496 0.155,-0.901 0.873,-2.208 1.809,-3.289 0.854,-0.986 1.679,-2.203 1.834,-2.704 1.451,-4.689 16.113,-19.025 22.379,-21.882 1.32,-0.602 2.643,-1.389 2.94,-1.75 0.297,-0.361 1.497,-1.095 2.667,-1.631 2.38,-1.089 6.44,-3.755 7.462,-4.899 0.758,-0.85 1.531,-6.664 1.531,-11.522 0,-1.652 0.299,-4.363 0.663,-6.023 1.062,-4.83 -1.075,-6.58 -5.063,-4.147 m 100.6,4.029 c -2.661,1.537 -5,5.007 -5,7.42 0,2.441 -0.697,4.343 -2.36,6.444 -3.43,4.33 -1.591,7.95 4.585,9.025 1.774,0.309 4.294,1.092 5.6,1.741 1.35,0.67 3.67,1.377 5.375,1.639 1.771,0.271 3.93,0.941 5.27,1.634 1.31,0.677 3.683,1.42 5.61,1.757 1.837,0.32 4.415,1.08 5.73,1.688 3.401,1.574 5.837,1.55 8.19,-0.082 0.99,-0.686 2.43,-1.383 3.2,-1.548 1.724,-0.37 3.29,-1.148 3.978,-1.978 0.286,-0.344 1.926,-1.058 3.644,-1.585 1.718,-0.528 3.533,-1.34 4.032,-1.806 0.5,-0.465 2.05,-1.188 3.444,-1.607 2.28,-0.684 4.07,-1.744 7.191,-4.259 1.256,-1.012 1.028,-2.792 -0.427,-3.346 -0.522,-0.198 -7.789,-0.185 -16.889,0.031 -8.785,0.208 -16.783,0.397 -17.773,0.42 -2.535,0.058 -10.381,-1.171 -11.155,-1.748 -2.274,-1.694 -4.445,-4.19 -4.447,-5.111 -0.005,-2.239 -0.856,-3.885 -3.367,-6.515 -2.663,-2.789 -3.077,-2.996 -4.431,-2.214 m -102.759,31.371 c -2.42,0.743 -3.12,1.182 -7.7,4.829 -2.012,1.603 -3.812,2.919 -4,2.925 -0.187,0.006 -0.791,0.659 -1.341,1.452 -0.55,0.792 -1.468,1.912 -2.039,2.489 -0.572,0.576 -1.591,1.868 -2.266,2.871 -0.675,1.003 -1.526,2.071 -1.89,2.373 -0.365,0.303 -1.032,1.283 -1.482,2.177 -0.451,0.895 -1.393,2.347 -2.093,3.227 -0.7,0.88 -1.503,2.41 -1.784,3.4 -0.28,0.99 -0.912,2.43 -1.405,3.2 -2.41,3.77 -3.107,10.723 -2.455,24.495 l 0.298,6.294 1.513,2.509 c 0.832,1.38 1.743,3.318 2.025,4.306 0.282,0.988 1.173,2.696 1.981,3.796 0.808,1.1 1.712,2.63 2.01,3.4 0.544,1.41 2.434,3.858 5.387,6.98 0.88,0.93 2.163,2.311 2.851,3.069 0.688,0.758 2.298,2.182 3.578,3.164 1.28,0.983 2.787,2.211 3.349,2.729 0.562,0.518 1.864,1.369 2.894,1.892 1.029,0.523 1.993,1.147 2.141,1.387 0.149,0.241 1.601,1.044 3.229,1.785 1.627,0.742 2.958,1.5 2.958,1.685 0,0.585 2.133,1.591 3.964,1.87 0.97,0.148 2.77,0.888 4,1.645 1.668,1.026 2.998,1.481 5.236,1.794 1.65,0.23 4.89,1.07 7.2,1.867 l 4.2,1.449 11.4,0.192 c 14.141,0.237 19.581,-0.193 23.798,-1.882 1.688,-0.676 4.192,-1.317 5.705,-1.462 1.941,-0.185 3.369,-0.621 5.097,-1.558 1.32,-0.716 3.39,-1.624 4.6,-2.018 1.21,-0.393 2.83,-1.216 3.6,-1.828 0.77,-0.611 2.244,-1.321 3.277,-1.578 1.032,-0.256 2.562,-1.041 3.4,-1.745 0.837,-0.705 2.333,-1.751 3.323,-2.327 2.159,-1.255 10.627,-9.215 11.407,-10.723 0.703,-1.361 0.964,-31.974 0.286,-33.587 -0.707,-1.679 -5.564,-5.864 -8.739,-7.527 -0.466,-0.244 -2.536,-0.648 -4.6,-0.898 -2.097,-0.253 -4.764,-0.878 -6.042,-1.415 -2.975,-1.248 -6.365,-1.315 -7.616,-0.149 -0.478,0.446 -2.032,1.17 -3.453,1.608 -1.42,0.439 -3.387,1.331 -4.37,1.982 -0.984,0.651 -2.437,1.301 -3.23,1.444 -0.794,0.142 -2.433,0.863 -3.643,1.6 -1.21,0.738 -3.187,1.634 -4.394,1.992 -1.206,0.357 -2.686,1.064 -3.287,1.57 -0.602,0.506 -2.045,1.224 -3.207,1.595 -1.161,0.371 -3.102,1.265 -4.312,1.987 -4.94,2.946 -12.26,2.496 -11.457,-0.705 0.467,-1.859 5.016,-5.624 7.822,-6.473 1.387,-0.42 2.946,-1.098 3.465,-1.506 0.52,-0.409 2.705,-1.654 4.857,-2.767 2.152,-1.113 4.39,-2.279 4.973,-2.59 3.625,-1.937 2.316,-4.279 -2.766,-4.951 -1.819,-0.24 -4.069,-0.709 -5,-1.042 -3.274,-1.168 -8.221,-2.161 -12.536,-2.515 -3.485,-0.285 -4.764,-0.57 -6.387,-1.418 -1.116,-0.584 -3.431,-1.412 -5.145,-1.841 -1.892,-0.472 -3.758,-1.25 -4.75,-1.98 -0.898,-0.66 -1.824,-1.201 -2.058,-1.201 -0.233,0 -1.411,-0.81 -2.618,-1.8 -1.207,-0.99 -2.318,-1.8 -2.47,-1.8 -0.243,0 -3.704,-3.956 -6.523,-7.458 -1.376,-1.709 -2.076,-3.512 -2.409,-6.204 -0.565,-4.558 -1.937,-5.438 -6.357,-4.081"
       stroke="none"
       fill="#dadada"
       fill-rule="evenodd"
       sodipodi:nodetypes="ccccccsccccccccccscccccccccccccsccccccccsccccsccccccccsccccccsccsccccccccccccccssccccccccsscsccscccsssccsccscccccccscsccccccccccccssscsccccsccccccccccsccccscssscccccscccccccsccsccscccccccccccssccccccscccssccccccsscccccccccscccccscccccscsccccsccccccsscccccccccccccccsccscssccccscccccscsccccccccccccssscsccccsccccccscccccssccccccccccccccccccccsccsccccssccscccccccsscccccsccscccccccccsccscccscccccccccccccccccccccccsccsccsccsccssccscscccsccccccsccccccccccccccccccccccccscccccccsssccc"
       style="fill:#ffffff;fill-opacity:1" />
    <path
       id="path0"
       d="m 84.603516,15.306641 c -17.333041,0.04214 -34.669167,-0.01025 -52,0.183593 -0.882539,0.431922 -0.904269,1.728307 -1.897866,1.988421 -0.745351,0.321257 -1.13803,1.060521 -1.602134,1.677595 -1.336605,0.008 -3.050902,0.17152 -3.650658,1.586238 -0.254675,0.789555 -1.326874,0.754579 -1.673841,1.511606 -0.563668,0.800337 -0.571206,1.807094 -0.626673,2.743953 -0.837318,0.610027 -1.600779,1.322351 -2.024796,2.288326 -0.42043,0.357099 -1.175431,0.217853 -1.727157,0.379643 0,116.887374 0,233.774744 0,350.662104 0.635647,0.1195 1.346495,0.27695 1.875078,0.60481 0.382501,0.94049 1.241812,1.5163 1.896406,2.25066 -0.0135,1.29892 0.303155,2.88852 1.664375,3.41514 0.689453,0.26428 0.665407,1.22632 1.335625,1.56533 0.810039,0.61298 1.857595,0.63022 2.826172,0.6836 0.610027,0.83731 1.322351,1.60077 2.288326,2.02479 0.357099,0.42043 0.217853,1.17543 0.379643,1.72716 116.887374,0 233.774744,0 350.662104,0 0.1195,-0.63565 0.27695,-1.3465 0.60481,-1.87508 0.94049,-0.3825 1.5163,-1.24181 2.25066,-1.89641 1.29892,0.0135 2.88852,-0.30315 3.41514,-1.66437 0.26428,-0.68945 1.22632,-0.66541 1.56533,-1.33563 0.61298,-0.81003 0.63022,-1.85759 0.6836,-2.82617 0.83731,-0.61002 1.60077,-1.32235 2.02479,-2.28832 0.42043,-0.3571 1.17543,-0.21786 1.72716,-0.37965 0,-116.88737 0,-233.77474 0,-350.662105 -0.63565,-0.119497 -1.3465,-0.276947 -1.87508,-0.604803 -0.3825,-0.940495 -1.24181,-1.516305 -1.89641,-2.250666 0.0135,-1.298916 -0.30315,-2.888517 -1.66437,-3.415132 -0.68945,-0.264284 -0.66541,-1.226321 -1.33563,-1.565336 -0.81003,-0.612977 -1.85759,-0.630223 -2.82617,-0.683594 -0.61002,-0.837318 -1.32235,-1.600779 -2.28832,-2.024796 -0.35699,-0.419807 -0.21762,-1.17415 -0.37965,-1.725204 -99.24348,-0.05634 -198.48696,-0.140816 -297.730464,-0.0957 z m 284.656254,15.09375 c 3.12094,1.383864 6.16776,3.165545 8.35156,5.847656 0.52568,1.666645 1.58658,3.115364 2.18945,4.732812 0,108.115101 0,216.230211 0,324.345311 -1.47378,3.21658 -3.35263,6.48219 -6.48437,8.33985 -1.36243,0.86347 -2.81199,1.65116 -4.3461,2.13476 -108.0845,0 -216.16901,0 -324.253513,0 -1.535322,-0.91195 -3.174266,-1.65173 -4.777733,-2.41051 -2.491365,-2.24765 -4.328498,-5.18459 -5.538673,-8.28324 0,-108.09167 0,-216.18333 0,-324.274999 1.374676,-3.056206 2.893763,-6.356664 5.902343,-8.130859 1.479093,-0.917213 3.047376,-1.752083 4.707422,-2.263672 108.083204,-0.01229 216.166404,-0.02485 324.249614,-0.03711 z M 246.26172,53.484375 c -2.09004,0.03452 -4.2613,0.135258 -6.24731,0.273335 -2.38394,0.181368 -4.82844,0.452987 -6.96949,1.601665 -1.70016,0.836777 -3.41719,1.667178 -5.23247,2.216633 -2.93821,1.520088 -5.39464,3.786841 -7.90034,5.91032 -3.2755,2.994056 -5.87202,6.833924 -6.91588,11.184934 -0.63115,2.421746 -1.21635,4.908619 -1.18373,7.422488 0.28637,3.725551 1.14194,7.403732 2.36951,10.92614 1.34763,3.165291 3.81006,5.673823 6.19926,8.07873 1.56202,1.53356 3.39812,2.7387 5.30747,3.78929 2.20046,1.38295 4.36491,3.0766 7.03617,3.37525 2.20941,0.37697 4.39938,0.89911 6.45546,1.8077 5.20215,1.90108 11.03978,1.80303 16.23965,-0.0555 2.7448,-0.98533 5.64526,-1.35244 8.47263,-2.00953 1.50555,-0.30936 2.79537,-1.15466 4.0079,-2.05592 2.11158,-1.38749 4.44089,-2.47025 6.28304,-4.2376 2.96169,-2.666524 5.30028,-5.936304 7.46289,-9.259145 1.05364,-2.21321 1.17354,-4.722664 1.42188,-7.123047 0.19215,-3.587032 0.16895,-7.224757 -0.50471,-10.762592 -0.95496,-3.746727 -3.26331,-6.982699 -5.75537,-9.870485 -2.39483,-2.657189 -5.15894,-5.090297 -8.42351,-6.611063 -1.63141,-0.683732 -3.33829,-1.191397 -4.84655,-2.139574 -1.5915,-0.962663 -3.40254,-1.410334 -5.21884,-1.714299 -3.9733,-0.729887 -8.02931,-0.808567 -12.05766,-0.74769 z m 1.22851,10.673828 c 3.50786,0.23209 6.61976,2.085207 10.04883,2.685547 2.28186,0.713599 4.13061,2.316069 6.28101,3.312231 0.87303,0.434739 1.51839,1.152453 1.98071,1.998316 0.59858,1.048682 1.4766,1.879651 2.21099,2.820017 1.32481,1.841883 1.07324,4.210107 1.13764,6.351857 -0.0143,2.076707 -0.10606,4.152077 -0.1416,6.228517 -2.8138,3.119202 -5.40005,6.69815 -9.30533,8.535211 -1.51296,0.765459 -3.00313,1.634377 -4.57992,2.236899 -2.55301,0.431262 -5.1536,0.184167 -7.72881,0.266555 -2.48932,0.0019 -4.97865,0.0053 -7.46797,0.0063 -2.058,-1.531611 -4.31577,-2.789788 -6.69618,-3.732551 -2.30217,-1.621743 -4.37328,-3.68725 -5.69825,-6.185974 -0.75214,-1.84787 -1.32112,-3.773684 -1.80391,-5.706324 -0.32278,-1.488617 0.0405,-3.003291 0.63282,-4.371238 0.67325,-2.173164 1.4038,-4.420741 2.99848,-6.113547 1.41103,-1.805391 3.58255,-2.70459 5.27189,-4.192101 1.16466,-0.96743 2.6157,-1.565199 4.13304,-1.618186 1.03345,-0.192125 1.98774,-0.579926 2.86977,-0.937906 1.8561,-0.759936 3.80109,-1.597827 5.85679,-1.583579 z M 220.69922,115.5293 c -4.06638,0.13661 -8.17689,0.10791 -12.21043,0.86355 -2.50227,0.784 -4.52478,2.5413 -7.06952,3.25075 -4.30253,1.74071 -7.57468,5.1828 -11.53941,7.50087 -2.52103,1.7507 -4.74546,3.87738 -7.03419,5.90692 -7.3933,5.39677 -13.66007,12.13083 -19.81438,18.85935 -2.64971,2.97999 -5.31441,5.97272 -7.44201,9.35988 -1.77543,2.74297 -3.90035,5.27658 -5.26116,8.27235 -0.84979,1.67307 -1.97531,3.20901 -3.45747,4.37612 -0.79021,0.71252 -1.58043,1.42503 -2.37065,2.13755 -0.27813,-3.5473 -0.54247,-7.09822 -0.48529,-10.65936 -0.095,-5.29383 0.16818,-10.61133 -0.39694,-15.88416 -0.4508,-2.03448 -1.24323,-3.97585 -1.82576,-5.97166 -1.44913,-3.58857 -4.93633,-5.90816 -8.53086,-6.99138 -5.47008,-1.83197 -11.31402,-1.3932 -16.98919,-1.58623 -5.96483,-0.0822 -11.93007,-0.1312 -17.895007,-0.20604 -2.182215,1.1441 -4.813103,2.10184 -5.93789,4.48252 -0.932711,2.00636 0.125715,4.43616 1.931148,5.55553 2.418855,1.6329 5.556002,1.24115 8.250689,1.42526 7.21689,0.21938 14.43779,0.23596 21.65644,0.36872 1.46876,1.30974 2.931,2.62833 4.48633,3.83594 0.96195,4.55363 1.19591,9.22128 1.45234,13.85668 0.12431,4.29819 0.39785,8.63345 -0.24531,12.90504 -0.66482,2.29364 -2.78241,3.94882 -5.10263,4.31971 -2.02116,0.54786 -3.92035,1.50542 -5.59386,2.74688 -1.91309,0.63468 -3.87283,1.21056 -5.56327,2.35138 -1.54954,0.97783 -3.21414,1.73963 -4.85742,2.53711 -1.64096,0.93304 -2.97425,2.31255 -4.6701,3.16169 -2.71217,1.53025 -5.61619,3.16531 -7.196691,5.96787 -0.547878,0.92592 -0.72048,1.99722 -0.861729,3.04622 -4.624335,2.96659 -8.366076,7.04485 -12.181047,10.94487 -2.745019,2.88013 -5.380782,5.89759 -7.486967,9.28357 -1.18156,1.60316 -2.572778,3.0696 -3.398546,4.90768 -0.741851,1.53771 -1.726596,2.92992 -2.697112,4.32677 -1.07685,1.72775 -1.580108,3.7396 -2.747283,5.41845 -0.990471,1.56382 -2.013928,3.23586 -2.228953,5.06617 -0.367696,2.14077 -1.122053,4.19481 -2.212466,6.07189 -0.951466,1.83236 -1.698603,3.84372 -1.568437,5.94093 -0.128372,3.91094 -0.238416,7.8673 -1.139345,11.69006 -0.963879,2.37896 -1.080313,5.05146 -0.379018,7.51676 1.315043,5.23956 1.159941,10.69934 2.038879,16.00795 0.455087,3.00276 2.534367,5.43837 3.166369,8.39426 0.623622,2.65364 1.737841,5.16865 3.199817,7.46346 0.792451,1.53114 1.316568,3.21381 2.434239,4.55955 1.446752,2.10035 2.384775,4.53259 4.125438,6.42922 1.320764,1.57389 2.040633,3.58206 3.517143,5.04482 4.56729,5.26393 9.382679,10.32577 14.537297,15.01689 1.119042,0.70718 2.227215,1.43102 3.185301,2.35239 2.52416,2.09928 5.150761,4.11252 8.078881,5.61962 1.69956,1.09461 3.30247,2.37614 5.20442,3.12244 1.61693,1.26552 3.4272,2.29402 5.34824,3.03933 1.90242,0.56664 3.40098,1.92672 5.17686,2.74779 1.9777,0.57777 4.005,1.12232 5.74022,2.28191 1.86549,1.10232 3.95782,1.71792 6.07805,2.09545 1.87712,0.3972 3.62544,1.20313 5.31561,2.08436 3.47031,1.50515 7.37108,1.18033 10.92649,2.38263 1.35374,0.42576 2.6329,1.06567 4.04976,1.27958 3.26892,0.68184 6.54989,0.82521 9.83608,1.07722 0.65891,0.0298 1.63469,0.0903 2.41853,0.12665 8.04391,0.39957 16.10058,0.46361 24.18876,0.25258 2.5136,-0.0727 5.25653,-0.16816 7.85858,-0.29888 2.00513,-0.0874 3.94891,-0.23336 5.88953,-0.39659 3.2002,-0.31062 6.43562,-0.65677 9.47726,-1.75723 4.02383,-1.43953 8.5404,-0.98186 12.39546,-2.95738 1.79282,-1.05117 3.79109,-1.83283 5.89298,-1.85587 2.02399,-0.23561 3.86069,-1.21055 5.48985,-2.38473 2.11157,-1.18405 4.52884,-1.60027 6.81679,-2.31449 3.44717,3.13186 6.64791,6.647 10.76172,8.92968 1.16041,1.03444 2.52934,1.80113 4.03385,2.20253 3.4131,1.01991 6.97037,1.49014 10.51127,1.7958 5.91139,0.4018 12.00534,-0.0585 17.55644,-2.24804 1.9463,-0.94656 3.75162,-2.15637 5.62867,-3.2274 2.44202,-1.66425 4.40358,-3.9671 5.98742,-6.44122 0.90456,-1.68467 1.71403,-3.42301 2.78869,-5.01003 1.15952,-2.20692 1.05267,-4.78297 1.28061,-7.19968 0.0721,-1.34384 0.11507,-2.62022 0.13378,-4.02258 0.4074,-24.22555 0.24187,-48.45916 0.84684,-72.68141 0.0623,-2.3738 0.37688,-4.72834 0.76815,-7.06626 0.35062,-3.11632 0.12728,-6.26435 -0.28182,-9.36342 -0.0824,-0.48429 -0.17085,-1.32405 -0.30656,-1.93999 -0.51213,-2.81177 -1.39251,-5.64808 -3.25589,-7.87593 -2.71106,-3.64169 -6.19647,-6.92403 -10.57696,-8.39178 -1.42097,-0.55642 -2.84195,-1.11284 -4.26293,-1.66926 3.61325,-1.46924 7.36167,-2.70019 10.66015,-4.83203 2.47762,-1.02454 5.07021,-1.89802 7.22071,-3.54687 1.70404,-0.94027 3.80299,-0.87222 5.4089,-2.04499 1.00156,-0.68947 1.94143,-1.48708 3.1296,-1.84494 1.88358,-0.75846 3.98578,-1.16123 5.54378,-2.54603 2.49849,-1.30389 5.45351,-1.71145 7.65209,-3.566 1.84293,-1.08765 4.04926,-1.17402 6.00781,-1.9707 2.37983,-0.8628 4.58319,-2.1776 7.0254,-2.86523 1.73893,-0.78146 3.12809,-2.45439 3.33885,-4.37871 0.31923,-1.45838 1.49198,-2.52328 2.38067,-3.66584 1.44693,-1.56654 2.77034,-3.35624 3.16276,-5.50204 0.48723,-2.42713 0.4275,-4.94406 0.16822,-7.39481 -0.35687,-2.76015 -1.64992,-5.36777 -3.65597,-7.30118 -1.75472,-1.79054 -3.72609,-3.43539 -5.97726,-4.55836 -2.0595,-0.94882 -4.27162,-1.51147 -6.49149,-1.93734 -0.395,-0.0625 -1.15751,-0.20802 -1.69841,-0.29474 -10.58114,-1.73094 -21.33973,-1.49061 -32.01541,-2.04956 -3.46518,-0.1417 -6.93036,-0.28375 -10.39556,-0.42524 -2.12145,-1.26447 -4.51873,-2.16763 -6.31857,-3.89928 -1.47733,-2.49544 -3.26902,-4.78858 -4.69983,-7.31059 -0.9514,-1.3114 -2.03951,-2.53008 -2.78049,-3.98674 -0.8828,-1.61982 -1.78243,-3.25061 -3.06244,-4.59635 -1.2343,-1.60262 -2.01695,-3.50908 -3.33808,-5.04884 -1.42621,-2.10777 -2.53544,-4.42104 -4.13229,-6.41386 -1.19695,-1.71837 -2.27853,-3.45964 -3.43733,-5.13111 -1.47862,-2.22255 -3.30495,-4.19354 -5.39475,-5.85305 -2.02749,-1.65151 -4.06758,-3.36045 -6.42997,-4.51408 -1.49223,-0.6274 -3.05242,-1.09923 -4.41336,-2.00098 -1.34511,-0.83024 -2.85196,-1.32191 -4.40754,-1.56258 -5.40578,-1.0565 -10.94906,-1.0971 -16.43691,-1.11808 z m 1.79101,10.49023 c 4.53708,-0.12265 8.75783,1.76752 13.06326,2.89792 2.32402,0.75984 4.27465,2.28744 6.36201,3.51107 0.94135,0.57772 1.47333,1.62139 2.19785,2.43372 1.43261,1.79303 2.6168,3.76301 3.80353,5.71838 1.27696,1.6797 2.70124,3.27703 3.60934,5.19987 1.0897,1.54713 2.36575,2.98302 3.12808,4.73709 0.72129,1.38595 1.63759,2.66759 2.73424,3.77645 1.07858,1.72245 1.89139,3.63082 3.33021,5.10245 1.20683,1.63247 1.83727,3.61314 3.1189,5.20087 1.01448,1.24762 1.86871,2.60752 2.75489,3.94243 1.714,2.18859 3.72525,4.13864 5.82738,5.95045 1.79346,1.45267 3.98331,2.45291 6.30831,2.574 5.55165,0.64854 11.18114,0.51159 16.6952,1.49961 2.52003,0.285 4.94361,0.13853 7.49279,0.31379 1.63711,-0.0259 3.14768,0.61927 4.70698,1.01429 2.8471,0.43662 5.74615,0.46928 8.62289,0.56316 3.50622,0.0718 7.01708,0.0906 10.51922,0.24818 0.62125,-0.01 1.15753,0.16764 1.54521,0.67104 1.49204,1.26914 3.07306,2.57275 3.81806,4.44707 0.47548,0.55315 -0.27993,1.075 -0.46401,1.61149 -0.86326,1.43763 -2.17572,2.55555 -3.49269,3.56323 -1.58571,0.94676 -3.51434,0.67374 -5.27455,0.87712 -4.60984,0.23394 -9.29016,0.15111 -13.78795,1.33968 -3.11152,0.53947 -6.28439,0.28026 -9.425,0.3856 -2.93716,0.007 -6.05738,0.012 -8.87774,0.21401 -2.56086,0.16261 -5.07449,0.74053 -7.64513,0.78653 -6.25139,0.29242 -12.51373,0.21471 -18.77034,0.2904 -1.25362,-0.0273 -2.54593,0.0874 -3.7759,-0.0266 -3.33216,-1.93091 -6.6751,-4.07855 -8.96321,-7.25034 -1.96546,-2.55384 -3.53181,-5.52545 -6.25753,-7.38401 -3.61189,-2.67955 -8.65097,-3.88828 -12.89357,-2.02725 -2.2398,0.978 -3.92844,2.86139 -5.13202,4.9427 -1.27402,1.77611 -2.28578,3.74137 -2.86113,5.85408 -0.91717,2.28022 -2.59716,4.1706 -3.37375,6.51918 -0.68776,1.65707 -1.00765,3.44123 -1.25605,5.19861 -0.81968,1.85854 -2.40012,3.47697 -2.40304,5.61402 -0.29506,3.11683 -0.25545,6.15513 -0.37731,9.28147 0.82356,0.98034 1.85263,1.7883 2.77733,2.67936 2.17087,1.98432 4.74434,3.70409 7.71681,4.11947 1.0378,0.13706 1.84106,0.81172 2.69524,1.33794 1.03196,0.549 2.16524,0.87135 3.2989,1.13471 0.66737,0.15312 1.63533,0.33719 2.42463,0.50618 2.59333,0.42445 5.01501,1.45933 7.42903,2.44996 3.09539,1.22293 6.60409,0.93917 9.5908,2.49609 2.34564,1.07129 4.78345,2.04471 7.37804,2.25575 1.8329,0.20287 3.58888,0.81972 5.17554,1.75101 1.93078,0.96237 4.01026,1.78611 6.20118,1.75 2.16543,0.22135 4.09373,1.29024 5.97757,2.29309 2.4531,0.92169 5.22424,1.3737 7.15986,3.29559 3.78381,3.3939 5.12214,8.83944 4.47088,13.75516 -0.33663,2.4707 -1.08556,4.88496 -1.10226,7.39615 -0.28033,4.41985 -0.25547,8.81627 -0.35744,13.27325 -0.33124,21.02007 -0.34048,42.04559 -0.83508,63.06265 -0.0967,1.42957 0.0132,2.96598 -0.58431,4.28955 -1.22964,1.80806 -1.93192,3.95688 -3.35617,5.6295 -1.33066,1.32662 -3.25591,1.74095 -4.74235,2.85305 -1.2399,0.92497 -2.6817,1.53573 -4.21725,1.74072 -2.74185,0.436 -5.55957,0.25055 -8.28259,-0.22543 -1.93177,-0.39484 -3.63549,-1.44928 -5.09591,-2.74014 -2.64547,-2.13248 -4.81158,-4.8701 -6.1493,-8.00141 -0.67201,-1.10463 -1.05178,-2.38532 -0.88222,-3.68188 -0.16983,-22.38567 -0.14701,-44.77399 -0.57252,-67.15687 -0.0745,-1.90698 -0.0231,-3.85692 -0.47388,-5.71853 -1.16155,-3.1433 -3.75414,-5.44556 -6.22048,-7.58521 -3.06458,-2.56628 -6.64682,-4.55138 -10.54319,-5.50854 -2.35858,-0.7858 -4.60568,-1.97498 -7.11386,-2.23404 -3.2207,-0.44946 -6.47383,-0.45846 -9.69324,-1.15467 -2.89282,-0.57135 -5.60948,-1.85043 -8.55994,-2.16722 -4.56982,-0.65265 -9.26862,-0.76726 -13.6588,-2.33623 -3.98428,-1.30476 -8.19012,-1.53024 -12.33063,-1.93844 -2.29187,-0.18828 -4.49657,-0.84237 -6.67075,-1.55483 -1.46555,-0.47415 -3.15537,-0.88571 -4.77765,-1.1632 -1.83687,-0.37631 -3.77914,-0.4711 -5.50959,-1.21504 -1.53372,-0.90804 -2.89385,-2.17283 -4.66601,-2.60547 -1.44686,-0.71846 -2.68767,-1.79291 -3.96159,-2.77561 -1.23396,-0.99786 -2.42919,-2.12118 -3.04898,-3.61475 -1.22108,-1.83861 -2.87993,-3.57836 -3.07285,-5.89016 -0.35897,-2.3883 -1.37252,-4.63859 -1.65149,-7.03618 -0.1192,-2.17958 0.8669,-4.21003 1.03709,-6.3614 0.12737,-0.83316 0.25071,-1.99109 0.34989,-2.95279 0.39249,-3.90728 0.42022,-7.86251 1.13308,-11.73044 0.72007,-2.65073 2.12596,-5.0614 2.7635,-7.74179 0.39346,-1.35257 0.53354,-2.79707 1.33692,-3.99331 0.96668,-1.71557 2.087,-3.38039 2.56995,-5.31538 0.45939,-1.44829 1.48001,-2.58608 2.38605,-3.76269 0.90375,-1.25369 1.38216,-2.74617 1.99422,-4.13611 1.03237,-1.45046 2.29445,-2.72273 3.2177,-4.25328 3.26125,-4.75717 7.06124,-9.11959 11.13444,-13.19533 2.78246,-2.83859 5.47537,-5.78665 8.50237,-8.36716 4.63709,-3.61375 8.87328,-7.74731 13.81707,-10.96069 2.84874,-1.94526 5.60214,-4.09905 8.72114,-5.59262 1.49608,-0.41836 3.00316,-0.81327 4.39696,-1.51681 2.48785,-1.03712 5.17907,-1.48128 7.86671,-1.47733 z m -82.30078,65.96485 c -0.99278,5.15824 -0.26331,10.50728 -1.57848,15.62103 -0.0767,0.79575 -0.98671,1.08726 -1.50573,1.59931 -2.28181,1.75968 -4.92933,2.93563 -7.41306,4.36071 -1.2354,0.94257 -2.50844,1.84294 -3.94777,2.45062 -3.88728,2.08702 -7.23083,5.02681 -10.49946,7.95559 -3.76581,3.46988 -7.37251,7.14987 -10.46761,11.23734 -0.97456,1.33719 -1.71215,2.82665 -2.44726,4.29688 -1.18795,1.69326 -2.768167,3.21547 -3.226314,5.30808 -0.924039,3.46747 -2.771295,6.57589 -4.086188,9.89309 -0.04583,8.23207 -0.358721,16.46692 -0.04297,24.69727 0.02127,0.35231 0.05232,1.13978 0.104473,1.66221 0.225438,2.83258 0.966607,5.67066 2.55297,8.05688 1.156557,2.11941 1.165347,4.53947 2.192167,6.68911 1.093561,1.81607 2.382281,3.50675 3.508411,5.30328 1.4594,2.10025 2.76167,4.33129 4.43465,6.27006 0.79284,0.74022 1.75271,1.29418 2.32313,2.24633 2.10299,2.54009 4.57394,4.74674 7.00774,6.96037 1.84127,1.48349 3.73405,2.90285 5.54912,4.41812 1.02665,0.82998 2.25034,1.35942 3.35497,2.05335 2.20453,1.71955 4.91233,2.63153 7.15575,4.29643 2.00984,1.23044 4.42066,1.56777 6.41337,2.83839 1.95216,1.18764 4.13765,1.91109 6.38171,2.29762 1.73797,0.31145 3.37608,0.97934 4.92465,1.81092 3.29079,1.55027 6.99699,1.52119 10.53357,1.98799 2.71976,0.25616 5.41552,0.71593 8.10158,1.18872 1.62109,0.12881 3.24248,0.33491 4.78452,0.86806 3.40414,0.75586 6.94836,0.67982 10.38974,0.25308 1.64885,-0.35834 3.23792,-1.02574 4.95154,-1.01733 1.50142,-0.10119 2.93921,-0.18079 4.46495,-0.49716 3.86064,-0.67458 7.77123,-0.98977 11.65159,-1.51018 2.15665,-0.3476 4.25365,-1.10388 6.08294,-2.3002 2.1524,-0.86332 4.56942,-0.77911 6.66518,-1.81734 2.40594,-1.04814 4.6846,-2.45249 7.27401,-3.0216 2.13721,-0.89477 4.03269,-2.2671 6.15797,-3.19179 1.44663,-0.6622 2.60628,-1.75812 3.89477,-2.65782 1.19413,-0.77881 2.38939,-1.55589 3.58398,-2.33399 0.2461,3.57782 0.47673,7.16403 0.26734,10.75039 -0.13801,2.82627 -0.10795,5.67991 -0.7506,8.45308 -0.32517,0.3741 -1.08032,0.36446 -1.57338,0.58755 -2.135,0.65916 -3.98792,1.95069 -5.93164,2.99805 -2.14868,0.84722 -4.56376,1.02568 -6.49646,2.38202 -1.62444,0.95166 -3.42906,1.60044 -5.31147,1.75025 -3.70521,0.73646 -7.04594,2.68751 -10.86019,3.02654 -3.55181,0.45999 -7.22975,0.47872 -10.58997,1.86732 -1.66085,0.59765 -3.53502,0.93785 -5.19134,0.99996 -5.12404,0.39626 -10.27018,0.31116 -15.40496,0.44658 -2.7868,0.003 -5.58271,0.19421 -8.36382,0.0152 -4.40304,-1.05071 -8.7282,-2.54516 -13.24528,-3.03552 -2.79393,-0.15591 -5.67366,-0.0688 -8.32122,-1.12617 -1.7857,-0.59727 -3.34061,-1.78778 -5.23873,-2.05863 -2.15438,-0.39326 -4.32852,-0.81717 -6.30159,-1.80882 -2.21646,-0.98114 -4.45967,-1.92176 -6.81755,-2.50563 -1.59274,-0.62981 -2.81817,-1.91419 -4.42336,-2.53265 -1.31019,-0.6373 -2.80475,-0.84323 -3.98821,-1.73321 -3.10144,-1.9508 -6.36503,-3.63109 -9.38716,-5.70833 -5.61121,-3.67124 -10.59892,-8.2016 -15.355236,-12.90547 -2.586122,-2.52509 -4.971361,-5.24679 -7.119468,-8.15386 -1.30705,-1.59582 -2.419466,-3.32902 -3.429688,-5.12468 -1.03588,-1.70117 -2.737538,-3.13169 -2.933792,-5.23144 -0.772789,-2.40423 -3.057806,-4.05916 -3.527145,-6.59864 -0.507822,-2.01276 -0.71557,-4.18958 -1.996094,-5.9043 -1.493549,-2.39494 -1.520086,-5.30244 -1.74637,-8.02547 -0.174822,-3.47948 -0.321727,-7.0254 -1.350569,-10.39796 -0.1851,-0.87088 -0.564337,-1.77441 -0.117383,-2.62547 1.258895,-4.05617 1.360586,-8.3316 1.612179,-12.5354 0.154488,-2.51411 0.733941,-5.0705 2.222266,-7.14871 1.243962,-2.54074 1.285001,-5.56595 2.971576,-7.91511 0.975494,-1.47625 1.7809,-3.06788 2.324316,-4.75052 1.245853,-2.17283 2.814255,-4.15102 3.968131,-6.3756 2.524405,-2.92368 4.876446,-5.99435 7.456975,-8.86852 4.96694,-5.44403 10.795922,-10.00896 16.798682,-14.24755 1.0855,-0.94214 2.37844,-1.57826 3.55356,-2.38508 1.27628,-0.95604 2.12524,-2.50458 1.97615,-4.12477 -0.23137,-0.76877 0.44756,-0.94501 1.01373,-1.19464 1.84313,-0.90701 3.85297,-1.54539 5.41832,-2.93059 1.03201,-0.81962 2.27726,-1.2607 3.53516,-1.58398 2.33043,-0.8879 4.36863,-2.46909 6.84634,-2.97636 1.89585,-0.43132 3.71246,-1.11631 5.46841,-1.94454 0.59365,-0.25814 1.1873,-0.51628 1.78095,-0.77442 -0.22201,1.22722 -0.44401,2.45443 -0.66602,3.68165 z m 99.96875,2.65234 c 1.48245,1.56402 3.28195,3.22633 3.42679,5.51739 0.013,1.69274 1.17945,3.0676 2.25255,4.26304 1.08692,1.05517 2.14528,2.20257 3.46673,2.96254 1.73783,0.75628 3.66931,0.871 5.50823,1.25898 3.31166,0.56185 6.67875,0.73541 10.03135,0.55093 7.62112,-0.14915 15.24584,-0.43795 22.86557,-0.45729 1.84491,0.36527 3.68982,0.73054 5.53472,1.09581 -1.74172,0.93849 -3.43967,1.97925 -5.20861,2.85413 -1.73408,0.46884 -3.20577,1.53633 -4.74598,2.40015 -2.35582,1.07902 -5.12909,1.39472 -7.07666,3.23791 -1.631,1.21576 -3.82909,1.14724 -5.47953,2.33784 -1.27915,0.76509 -2.63338,1.7513 -4.20602,1.48638 -2.2241,-0.21926 -4.10159,-1.59758 -6.26761,-2.05706 -2.81058,-0.73712 -5.75105,-1.09983 -8.37545,-2.42287 -1.97834,-0.91327 -4.091,-1.45509 -6.23192,-1.821 -1.8798,-0.34712 -3.6519,-1.06656 -5.38088,-1.85727 -2.21514,-0.87338 -4.57609,-1.26156 -6.85959,-1.88937 -1.16197,-0.28175 -2.06514,-1.07649 -2.79682,-1.98461 -0.33725,-0.43856 0.29856,-1.06686 0.37126,-1.58501 0.74493,-1.77425 2.31126,-3.06347 2.94524,-4.90175 0.77409,-1.84274 0.94212,-3.86387 0.90241,-5.84239 1.14938,-1.6291 2.52465,-3.07759 3.78907,-4.61523 0.51172,0.48958 1.02343,0.97917 1.53515,1.46875 z m -101.89648,30.14453 c 0.57379,0.23429 0.82732,0.69184 0.87305,1.29297 0.5221,2.62944 0.82134,5.446 2.49085,7.65425 1.83057,2.53159 3.96321,4.82805 5.98745,7.20344 1.33813,1.5595 3.19936,2.5013 4.72862,3.84611 0.92409,0.78564 2.00036,1.34392 3.07533,1.87781 1.49968,1.00407 3.06562,1.92922 4.81989,2.41017 2.46776,0.76422 5.00231,1.39698 7.29142,2.62798 3.58612,1.36516 7.51275,1.00458 11.21941,1.81906 3.1302,0.48711 6.12597,1.54846 9.18248,2.33405 2.06908,0.40058 4.13763,0.80396 6.2065,1.20564 -4.0142,2.09858 -8.07033,4.12422 -11.93945,6.48633 -2.11448,0.82194 -4.34351,1.49975 -6.12713,2.96147 -2.05635,1.48937 -4.17361,3.2352 -5.0767,5.68487 -0.47777,1.84351 0.65205,3.89757 2.4684,4.48296 2.88425,1.1945 6.15336,0.68907 9.04234,-0.2216 2.35244,-0.82038 4.38791,-2.33196 6.7601,-3.10581 1.5581,-0.58891 3.10362,-1.27396 4.42227,-2.30266 2.17014,-1.06491 4.58349,-1.58506 6.62847,-2.9123 1.48785,-0.88244 3.1014,-1.52565 4.76759,-1.96897 2.29988,-0.98909 4.33918,-2.56895 6.80326,-3.17464 1.55873,-0.4838 2.97413,-1.3535 4.37991,-2.12396 2.33402,-0.36106 4.53476,0.63436 6.68778,1.36571 2.69927,0.77168 5.39485,0.90507 8.13821,1.53015 1.33276,0.34812 2.43836,1.28084 3.55155,2.06502 1.71835,1.41524 3.63417,2.7265 4.77856,4.68656 0.41644,7.18766 0.24382,14.39189 0.1662,21.58655 -0.0824,3.21966 -0.13005,6.44908 -0.38886,9.65759 -0.3008,1.41268 -1.63047,2.20863 -2.50367,3.25384 -2.42035,2.40497 -4.92312,4.74861 -7.63394,6.82185 -1.61416,1.10347 -3.25537,2.18108 -4.79403,3.38134 -1.82807,1.01075 -4.00644,1.28579 -5.66244,2.62178 -1.40461,1.00376 -3.01851,1.62526 -4.63864,2.17891 -1.97012,0.77591 -3.79227,1.92387 -5.80386,2.57866 -2.27852,0.53552 -4.661,0.61672 -6.8588,1.48509 -2.42004,0.85919 -4.87825,1.7094 -7.46309,1.86802 -5.41511,0.52866 -10.86879,0.43909 -16.30299,0.37677 -3.86717,-0.0997 -7.74176,-0.0545 -11.60417,-0.24985 -1.46428,-0.2245 -2.79367,-0.94439 -4.21961,-1.33102 -2.94673,-0.97662 -5.9657,-1.73774 -9.03625,-2.19828 -2.1477,-0.55522 -3.90455,-2.03679 -6.00612,-2.72781 -1.60765,-0.5738 -3.61049,-0.51416 -4.74192,-2.00071 -2.07282,-1.58804 -4.75678,-2.16095 -6.75,-3.88281 -1.81922,-1.18062 -3.85596,-2.06857 -5.40005,-3.63346 -2.45602,-1.97483 -5.00481,-3.87737 -7.04144,-6.30634 -2.2941,-2.49965 -4.81882,-4.89028 -6.43997,-7.90595 -0.81035,-1.86525 -2.07545,-3.46768 -3.12245,-5.19331 -0.99209,-1.95711 -1.54075,-4.11568 -2.71257,-5.98807 -0.49463,-0.95638 -1.16029,-1.84989 -1.60846,-2.81104 -0.30479,-7.02054 -0.81101,-14.06849 -0.21989,-21.08725 0.27381,-2.90391 0.76703,-5.88291 2.35363,-8.39128 1.15028,-1.96056 1.48155,-4.3229 2.93143,-6.12275 0.90211,-1.27509 1.77108,-2.49519 2.47852,-3.9336 0.99876,-1.47784 2.30392,-2.71968 3.25521,-4.23506 1.27289,-1.78442 2.8699,-3.30333 4.13494,-5.09204 0.9556,-1.19154 2.40889,-1.78891 3.53717,-2.79055 3.14124,-2.40014 6.25877,-5.11146 10.15276,-6.17531 0.26106,0.17382 0.52213,0.34765 0.7832,0.52148 z" />
  </g>
</svg>
