<?xml version="1.0" encoding="UTF-8" standalone="no"?>
<svg
   id="svg"
   version="1.1"
   width="400"
   height="400"
   viewBox="0, 0, 400,400"
   sodipodi:docname="biking.svg"
   inkscape:version="1.4 (86a8ad7, 2024-10-11)"
   xmlns:inkscape="http://www.inkscape.org/namespaces/inkscape"
   xmlns:sodipodi="http://sodipodi.sourceforge.net/DTD/sodipodi-0.dtd"
   xmlns="http://www.w3.org/2000/svg"
   xmlns:svg="http://www.w3.org/2000/svg">
  <defs
     id="defs1" />
  <sodipodi:namedview
     id="namedview1"
     pagecolor="#ffffff"
     bordercolor="#000000"
     borderopacity="0.25"
     inkscape:showpageshadow="2"
     inkscape:pageopacity="0.0"
     inkscape:pagecheckerboard="0"
     inkscape:deskcolor="#d1d1d1"
     inkscape:zoom="1.615"
     inkscape:cx="199.6904"
     inkscape:cy="200"
     inkscape:window-width="1440"
     inkscape:window-height="890"
     inkscape:window-x="-6"
     inkscape:window-y="-6"
     inkscape:window-maximized="1"
     inkscape:current-layer="svgg" />
  <g
     id="svgg">
    <path
       id="path1"
       d="M44.400 22.371 C 38.907 22.888,34.312 26.209,31.692 31.555 L 30.200 34.600 30.088 194.000 C 29.975 353.496,30.027 360.480,31.345 361.942 C 31.671 362.304,32.057 363.079,32.203 363.665 C 32.633 365.385,36.374 368.878,39.429 370.410 L 42.200 371.800 205.008 371.800 L 367.817 371.800 370.520 370.469 C 373.960 368.776,376.776 365.960,378.469 362.520 L 379.800 359.817 379.800 197.008 L 379.800 34.200 378.410 31.429 C 376.878 28.374,373.385 24.633,371.665 24.203 C 371.079 24.057,370.306 23.673,369.947 23.349 C 369.563 23.004,367.828 22.606,365.747 22.387 C 361.839 21.976,48.762 21.960,44.400 22.371 M284.769 79.231 C 287.610 82.072,283.987 87.667,278.653 88.676 C 277.069 88.975,276.161 89.433,274.373 90.834 C 273.588 91.449,272.058 92.171,270.973 92.438 C 269.888 92.705,268.355 93.427,267.567 94.043 C 266.779 94.658,265.069 95.556,263.767 96.040 C 262.465 96.523,260.928 97.297,260.350 97.759 C 259.773 98.222,258.751 98.899,258.079 99.265 C 255.849 100.478,255.629 104.086,257.550 107.934 C 257.953 108.740,258.497 110.279,258.760 111.354 C 259.023 112.428,259.575 113.967,259.986 114.772 C 260.397 115.578,260.860 116.949,261.015 117.819 C 261.170 118.688,261.794 120.750,262.403 122.400 C 264.477 128.022,266.196 133.047,268.973 141.600 C 270.622 146.679,271.933 150.329,272.453 151.286 C 272.726 151.789,273.353 153.640,273.846 155.400 C 275.013 159.566,276.279 163.355,277.254 165.600 C 277.684 166.590,278.369 168.702,278.776 170.294 C 280.689 177.764,283.988 178.929,291.762 174.879 L 294.600 173.400 306.229 173.400 L 317.858 173.400 319.429 174.413 C 321.666 175.855,322.895 176.332,325.137 176.629 C 326.294 176.783,327.497 177.245,328.053 177.749 C 329.540 179.096,330.900 179.871,332.336 180.186 C 333.064 180.346,334.527 181.224,335.586 182.138 C 336.646 183.052,338.693 184.761,340.136 185.935 C 350.159 194.095,360.241 209.087,364.388 222.000 C 364.565 222.550,365.176 224.440,365.747 226.200 C 366.317 227.960,367.058 230.840,367.393 232.600 C 367.728 234.360,368.373 236.970,368.825 238.400 C 370.771 244.553,370.776 275.446,368.833 281.600 C 368.381 283.030,367.732 285.730,367.390 287.600 C 367.049 289.470,366.326 292.127,365.784 293.504 C 365.243 294.882,364.800 296.331,364.800 296.726 C 364.800 297.120,364.368 298.333,363.841 299.421 C 363.313 300.510,362.655 302.120,362.379 303.000 C 361.748 305.013,357.036 314.173,355.758 315.873 C 355.231 316.574,354.800 317.244,354.800 317.364 C 354.800 318.331,348.865 325.563,344.619 329.769 C 338.068 336.258,337.482 336.799,336.996 336.804 C 336.778 336.807,335.533 337.609,334.230 338.588 C 332.926 339.567,331.314 340.487,330.648 340.633 C 329.981 340.780,328.582 341.487,327.538 342.205 C 326.293 343.061,324.566 343.749,322.520 344.202 C 320.804 344.582,318.410 345.395,317.200 346.007 C 313.096 348.085,298.373 348.013,294.180 345.894 C 293.091 345.344,290.808 344.585,289.107 344.208 C 287.095 343.762,285.428 343.099,284.340 342.311 C 283.420 341.644,282.022 340.921,281.234 340.703 C 280.445 340.486,279.170 339.815,278.400 339.212 C 277.630 338.609,276.279 337.665,275.397 337.114 C 271.547 334.708,264.520 327.816,261.064 323.055 C 255.720 315.693,253.102 311.631,252.588 309.907 C 252.440 309.408,252.001 308.446,251.613 307.768 C 249.462 304.012,245.773 293.783,245.159 289.877 C 244.945 288.515,244.334 286.230,243.801 284.800 C 242.042 280.080,240.735 261.129,241.567 252.400 C 241.808 249.870,242.207 245.460,242.454 242.600 C 242.730 239.404,243.199 236.644,243.670 235.438 C 244.092 234.359,244.697 232.238,245.016 230.725 C 245.709 227.428,248.107 220.143,249.210 217.981 C 249.644 217.129,250.000 216.234,250.000 215.991 C 250.000 215.313,252.817 209.604,254.077 207.728 C 254.695 206.808,255.200 205.957,255.200 205.836 C 255.200 205.501,257.898 201.343,260.155 198.200 C 262.883 194.401,265.542 191.507,269.676 187.838 C 274.532 183.527,275.714 180.659,274.224 176.800 C 272.479 172.279,270.637 167.037,269.937 164.600 C 269.495 163.060,268.800 161.080,268.392 160.200 C 267.985 159.320,267.524 157.895,267.369 157.033 C 267.035 155.183,264.676 149.934,263.774 149.031 C 262.497 147.754,261.143 149.063,258.843 153.800 C 257.026 157.540,247.879 176.236,242.795 186.600 C 240.852 190.560,238.989 194.430,238.653 195.200 C 238.318 195.970,237.777 197.050,237.451 197.600 C 237.125 198.150,234.623 203.190,231.892 208.800 C 229.160 214.410,225.510 221.880,223.779 225.400 C 220.081 232.924,220.003 233.541,222.178 238.011 C 222.973 239.645,223.971 242.065,224.396 243.391 C 224.820 244.716,225.486 246.610,225.875 247.600 C 226.484 249.149,226.584 250.795,226.591 259.400 L 226.600 269.400 225.265 273.200 C 221.972 282.577,216.004 290.253,210.373 292.355 C 209.618 292.637,208.550 293.131,208.000 293.453 C 203.543 296.061,199.169 296.338,195.183 294.264 C 193.982 293.639,192.190 292.853,191.200 292.518 C 187.715 291.335,181.898 285.528,179.664 281.000 C 177.043 275.689,176.000 273.285,176.000 272.558 C 176.000 268.315,174.204 264.800,172.036 264.800 C 170.583 264.800,169.753 266.514,169.036 271.000 C 168.719 272.980,168.284 275.410,168.069 276.400 C 167.854 277.390,167.551 279.638,167.396 281.396 C 167.241 283.153,166.672 285.816,166.132 287.314 C 165.592 288.811,164.974 291.130,164.758 292.466 C 164.543 293.803,164.036 295.550,163.632 296.348 C 163.228 297.147,162.766 298.430,162.605 299.200 C 162.445 299.970,161.977 301.230,161.566 302.000 C 161.156 302.770,160.126 305.026,159.277 307.014 C 158.428 309.002,157.074 311.661,156.267 312.922 C 155.460 314.184,154.800 315.301,154.800 315.407 C 154.800 315.854,147.850 325.318,145.915 327.506 C 141.523 332.472,132.004 340.000,129.293 340.651 C 128.692 340.795,127.383 341.505,126.385 342.228 C 125.242 343.056,123.542 343.781,121.793 344.187 C 120.266 344.541,118.094 345.282,116.967 345.834 C 112.441 348.048,97.499 348.139,92.974 345.980 C 91.640 345.344,89.300 344.539,87.774 344.192 C 86.123 343.816,84.190 343.021,83.000 342.229 C 81.900 341.496,80.468 340.772,79.817 340.620 C 79.166 340.468,77.574 339.546,76.277 338.572 C 74.981 337.597,73.727 336.800,73.490 336.800 C 71.204 336.800,57.162 320.409,53.272 313.200 C 52.501 311.770,51.633 310.321,51.345 309.980 C 50.330 308.780,45.644 296.745,44.809 293.194 C 44.525 291.987,44.028 290.478,43.705 289.841 C 43.382 289.203,42.944 287.403,42.732 285.841 C 42.520 284.278,41.863 281.200,41.273 279.000 L 40.200 275.000 40.206 259.800 C 40.212 245.138,40.243 244.508,41.103 242.000 C 41.592 240.570,42.202 237.780,42.458 235.800 C 42.714 233.820,43.244 231.446,43.636 230.526 C 44.029 229.605,44.567 227.715,44.834 226.326 C 45.100 224.936,45.629 223.170,46.009 222.400 C 46.389 221.630,47.452 219.129,48.370 216.842 C 53.478 204.123,64.247 189.669,73.075 183.682 C 74.437 182.759,75.668 181.813,75.812 181.581 C 75.956 181.348,77.045 180.728,78.232 180.203 C 79.419 179.678,80.977 178.801,81.695 178.255 C 82.413 177.708,84.254 176.971,85.788 176.616 C 87.324 176.260,89.474 175.394,90.578 174.685 L 92.580 173.400 102.411 173.265 C 113.322 173.115,115.461 173.359,119.389 175.195 C 121.431 176.150,125.020 177.200,126.241 177.200 C 126.313 177.200,126.963 177.703,127.686 178.318 C 128.409 178.933,129.810 179.780,130.800 180.199 C 131.790 180.619,133.259 181.511,134.066 182.181 C 140.973 187.926,140.749 188.065,149.514 172.600 C 150.512 170.840,152.827 166.868,154.659 163.774 C 159.308 155.922,159.709 154.017,157.652 149.573 C 156.760 147.647,154.650 141.715,153.800 138.745 C 151.477 130.634,149.196 128.176,145.113 129.389 C 143.025 130.009,138.304 130.201,136.081 129.756 C 126.524 127.845,124.604 105.564,133.481 99.600 L 136.160 97.800 142.130 97.670 C 146.967 97.565,148.490 97.671,150.150 98.229 C 151.880 98.809,153.946 98.923,163.400 98.958 L 174.600 99.000 177.000 100.200 C 181.594 102.497,182.938 105.430,182.955 113.200 C 182.979 124.070,180.446 126.537,168.800 126.986 C 157.982 127.404,157.107 128.432,160.221 137.063 C 161.002 139.228,161.919 141.900,162.259 143.000 C 163.071 145.627,164.671 148.740,165.884 150.051 C 166.941 151.194,166.656 151.206,171.587 149.816 C 172.790 149.477,174.860 149.194,176.187 149.186 C 179.626 149.166,184.221 148.245,186.916 147.036 C 188.840 146.172,190.214 145.927,195.042 145.584 C 199.962 145.234,201.315 144.987,203.871 143.972 C 206.019 143.119,208.060 142.662,210.945 142.391 C 217.269 141.796,218.393 141.576,221.600 140.311 C 223.974 139.374,225.601 139.051,229.400 138.765 C 234.592 138.374,235.369 138.224,240.200 136.682 C 242.076 136.083,244.889 135.557,247.000 135.411 C 252.926 135.002,254.587 134.549,255.980 132.962 C 257.601 131.115,257.768 127.882,256.383 125.166 C 255.977 124.371,255.366 122.517,255.025 121.045 C 254.683 119.573,254.126 117.830,253.785 117.171 C 251.575 112.897,248.665 101.870,248.926 98.758 C 249.253 94.860,251.957 91.851,256.255 90.601 C 257.480 90.245,259.408 89.345,260.541 88.600 C 261.673 87.855,263.140 87.119,263.800 86.963 C 264.460 86.808,265.731 86.161,266.625 85.526 C 267.519 84.892,269.348 84.040,270.690 83.633 C 272.031 83.227,273.750 82.421,274.510 81.842 C 275.269 81.263,276.770 80.490,277.845 80.125 C 278.920 79.760,280.340 79.133,281.000 78.732 C 282.665 77.720,283.349 77.811,284.769 79.231 M136.561 107.096 C 133.747 109.910,133.568 115.402,136.168 119.154 C 137.775 121.473,138.959 121.829,143.188 121.266 C 145.115 121.010,148.071 120.800,149.758 120.800 C 151.713 120.800,153.365 120.564,154.313 120.150 C 155.207 119.759,157.794 119.360,160.800 119.148 C 177.093 118.003,176.200 118.321,176.200 113.658 C 176.200 110.648,175.091 108.575,172.879 107.450 C 171.211 106.602,137.385 106.272,136.561 107.096 M250.800 143.460 C 249.590 143.718,246.523 144.112,243.984 144.336 C 240.412 144.650,238.658 145.024,236.225 145.990 C 233.654 147.011,232.200 147.302,228.241 147.585 C 222.833 147.972,220.254 148.492,217.600 149.729 C 216.325 150.324,214.576 150.648,211.600 150.841 C 206.703 151.159,204.089 151.695,200.686 153.078 C 198.744 153.867,197.051 154.159,192.661 154.465 C 188.736 154.738,186.494 155.092,185.049 155.668 C 181.528 157.069,179.501 157.575,176.400 157.826 C 170.116 158.335,168.294 161.055,170.847 166.119 C 171.313 167.044,172.013 168.880,172.403 170.200 C 173.084 172.509,173.831 174.471,175.828 179.200 C 176.339 180.410,176.973 182.120,177.236 183.000 C 177.499 183.880,178.603 186.760,179.688 189.400 C 180.773 192.040,182.082 195.370,182.596 196.800 C 183.109 198.230,183.983 200.570,184.537 202.000 C 185.091 203.430,185.977 205.770,186.505 207.200 C 187.034 208.630,187.838 210.521,188.291 211.402 C 188.745 212.283,189.329 213.792,189.588 214.755 C 189.847 215.718,190.474 217.427,190.980 218.553 C 191.486 219.679,192.112 221.260,192.371 222.067 C 193.131 224.442,194.303 224.942,198.365 224.624 C 203.486 224.224,208.535 224.943,210.927 226.415 C 214.058 228.341,215.365 227.489,218.006 221.800 C 220.052 217.390,229.627 197.754,231.756 193.600 C 232.715 191.730,233.776 189.660,234.114 189.000 C 234.801 187.659,239.057 178.881,244.005 168.600 C 245.805 164.860,248.880 158.547,250.839 154.570 C 255.535 145.037,255.526 142.450,250.800 143.460 M159.458 169.684 C 158.609 171.068,157.349 173.170,156.658 174.355 C 155.023 177.156,154.758 177.585,153.787 179.008 C 153.340 179.664,152.662 180.830,152.282 181.600 C 151.901 182.370,150.944 184.170,150.155 185.600 C 147.355 190.674,147.196 191.079,147.461 192.472 C 147.801 194.258,148.592 195.773,150.556 198.402 C 153.987 202.996,156.873 207.825,158.922 212.400 C 159.266 213.170,160.115 215.060,160.808 216.600 C 162.570 220.515,163.985 224.550,164.664 227.591 C 164.983 229.016,165.604 230.996,166.044 231.991 C 166.485 232.986,167.027 235.240,167.249 237.000 C 168.117 243.892,169.796 253.123,170.438 254.527 C 170.829 255.382,171.151 255.600,171.776 255.432 C 172.229 255.310,172.731 255.208,172.892 255.205 C 173.509 255.194,174.882 251.787,175.608 248.467 C 176.842 242.829,180.057 236.212,183.351 232.529 C 186.316 229.215,186.796 226.415,185.157 222.000 C 184.708 220.790,183.994 218.810,183.571 217.600 C 183.148 216.390,182.459 214.770,182.038 214.000 C 181.618 213.230,181.060 211.796,180.798 210.813 C 180.536 209.830,180.003 208.300,179.612 207.413 C 178.646 205.221,176.374 199.369,174.792 195.000 C 174.075 193.020,173.045 190.427,172.504 189.239 C 171.963 188.050,171.251 186.160,170.922 185.039 C 170.593 183.917,169.981 182.439,169.562 181.753 C 169.143 181.067,168.800 180.282,168.800 180.008 C 168.800 179.735,168.191 177.956,167.447 176.056 C 166.703 174.155,165.798 171.790,165.437 170.800 C 163.974 166.794,161.511 166.334,159.458 169.684 M92.703 182.433 C 91.880 182.627,90.506 183.228,89.650 183.768 C 88.795 184.308,87.039 185.055,85.748 185.428 C 84.456 185.801,82.822 186.611,82.116 187.227 C 81.410 187.843,80.240 188.628,79.516 188.972 C 78.792 189.316,77.412 190.318,76.449 191.199 C 75.487 192.079,74.519 192.800,74.300 192.800 C 73.788 192.800,67.445 199.190,65.400 201.765 C 63.902 203.652,61.438 207.157,58.628 211.400 C 55.269 216.472,49.170 232.317,48.629 237.381 C 48.489 238.690,47.975 241.030,47.487 242.581 C 46.122 246.919,46.165 274.873,47.543 278.600 C 48.031 279.920,48.542 282.080,48.679 283.400 C 48.816 284.720,49.420 286.970,50.020 288.400 C 50.621 289.830,51.243 291.630,51.404 292.400 C 51.883 294.697,56.493 305.161,58.630 308.800 C 60.694 312.315,63.240 315.958,65.008 317.924 C 65.993 319.020,66.800 320.031,66.800 320.170 C 66.800 320.508,74.906 328.400,75.253 328.400 C 75.402 328.400,76.276 329.028,77.195 329.796 C 78.114 330.563,79.629 331.529,80.562 331.942 C 81.495 332.355,83.017 333.242,83.944 333.914 C 84.871 334.585,86.388 335.257,87.315 335.407 C 88.242 335.557,89.969 336.197,91.153 336.830 C 94.401 338.566,96.846 338.878,106.028 338.731 L 114.255 338.600 116.828 337.245 C 118.242 336.500,120.461 335.642,121.757 335.337 C 123.197 334.998,124.623 334.336,125.421 333.636 C 126.139 333.005,127.641 332.185,128.758 331.814 C 129.876 331.443,131.107 330.736,131.495 330.244 C 131.883 329.751,132.740 329.011,133.400 328.600 C 136.601 326.602,146.662 315.592,148.890 311.649 C 152.469 305.315,155.257 299.726,155.999 297.400 C 156.280 296.520,156.938 294.944,157.463 293.898 C 157.987 292.851,158.530 291.141,158.670 290.098 C 158.810 289.054,159.345 287.074,159.860 285.698 C 160.374 284.321,160.912 281.891,161.055 280.298 C 161.199 278.704,161.669 276.320,162.100 275.000 C 164.358 268.089,163.316 264.730,158.888 264.647 C 155.010 264.573,153.345 268.006,152.664 277.478 C 152.514 279.573,152.080 281.595,151.465 283.078 C 150.935 284.355,150.375 286.105,150.220 286.967 C 149.683 289.957,145.373 299.621,143.160 302.800 C 142.624 303.570,141.112 305.722,139.801 307.583 C 136.579 312.155,130.605 317.956,126.952 320.060 C 126.098 320.551,124.923 321.342,124.339 321.818 C 123.756 322.293,122.341 322.989,121.196 323.363 C 120.051 323.738,118.414 324.486,117.559 325.026 C 115.054 326.607,112.693 326.890,103.274 326.735 L 94.600 326.593 92.000 325.138 C 90.570 324.337,88.385 323.394,87.143 323.043 C 85.902 322.691,84.780 322.125,84.649 321.785 C 84.519 321.445,83.693 320.844,82.813 320.450 C 80.464 319.399,74.675 314.207,71.159 310.000 C 68.304 306.583,63.258 298.568,62.598 296.400 C 62.430 295.850,61.777 294.303,61.146 292.961 C 60.516 291.620,60.000 290.306,60.000 290.041 C 60.000 289.776,59.480 288.174,58.844 286.480 C 58.208 284.786,57.488 282.087,57.242 280.482 C 56.997 278.877,56.392 276.447,55.898 275.082 C 54.516 271.263,54.535 247.831,55.923 244.351 C 56.416 243.114,57.083 240.602,57.405 238.769 C 57.955 235.644,58.508 233.892,60.488 229.000 C 60.933 227.900,61.693 225.920,62.176 224.600 C 63.268 221.616,65.282 218.482,71.484 210.114 C 73.483 207.418,80.353 200.800,81.153 200.800 C 81.351 200.800,82.371 200.091,83.419 199.225 C 84.589 198.258,86.082 197.468,87.286 197.179 C 88.364 196.921,89.731 196.317,90.323 195.839 C 92.409 194.154,93.557 193.932,101.400 193.705 C 111.548 193.411,116.500 193.987,119.125 195.768 C 120.156 196.468,121.810 197.271,122.800 197.553 C 123.790 197.835,125.293 198.614,126.140 199.284 C 130.139 202.447,133.687 201.263,134.651 196.447 C 135.122 194.089,132.128 189.963,128.954 188.596 C 128.319 188.323,127.260 187.624,126.600 187.043 C 125.940 186.463,124.410 185.687,123.200 185.320 C 121.990 184.953,120.459 184.260,119.798 183.781 C 117.510 182.121,98.117 181.157,92.703 182.433 M294.273 182.371 C 288.873 183.473,285.279 186.855,285.799 190.343 C 286.588 195.634,288.433 197.170,291.829 195.364 C 296.967 192.632,317.124 192.830,320.219 195.643 C 320.670 196.052,322.070 196.742,323.330 197.176 C 324.591 197.610,326.382 198.565,327.311 199.299 C 328.240 200.033,329.484 200.875,330.075 201.171 C 330.666 201.466,332.772 203.349,334.755 205.354 C 338.210 208.847,339.393 210.238,341.600 213.400 C 342.150 214.188,343.090 215.474,343.690 216.258 C 345.199 218.233,349.531 226.822,350.266 229.298 C 350.599 230.420,351.118 231.713,351.418 232.171 C 351.718 232.629,352.226 234.443,352.547 236.202 C 352.867 237.961,353.538 240.480,354.038 241.800 C 355.453 245.540,355.450 274.476,354.033 278.200 C 353.532 279.520,352.795 282.040,352.396 283.800 C 349.473 296.695,341.685 309.110,330.628 318.500 C 329.398 319.545,328.202 320.400,327.972 320.400 C 327.742 320.400,326.889 320.920,326.077 321.556 C 325.264 322.192,323.880 322.932,323.000 323.201 C 322.120 323.469,320.230 324.344,318.800 325.145 L 316.200 326.600 306.000 326.600 L 295.800 326.600 293.200 325.145 C 291.770 324.344,289.880 323.467,289.000 323.195 C 288.120 322.923,286.860 322.299,286.200 321.808 C 285.540 321.317,284.218 320.517,283.261 320.030 C 280.262 318.502,271.718 309.524,268.729 304.758 C 265.389 299.433,262.000 292.989,262.000 291.965 C 262.000 291.527,261.655 290.492,261.234 289.666 C 260.812 288.840,260.108 286.732,259.669 284.982 C 259.230 283.232,258.591 281.051,258.250 280.136 C 257.643 278.511,257.257 274.935,256.343 262.471 C 255.960 257.250,255.987 255.828,256.523 252.871 C 256.869 250.962,257.263 247.525,257.399 245.234 C 257.578 242.205,257.900 240.457,258.578 238.834 C 259.090 237.605,259.644 235.790,259.807 234.800 C 260.337 231.589,263.169 224.996,266.828 218.455 C 269.010 214.555,273.498 208.642,276.434 205.800 C 281.145 201.240,281.816 199.113,279.930 194.726 C 277.675 189.483,272.016 193.911,261.091 209.469 C 257.817 214.131,252.850 225.472,251.310 231.800 C 250.989 233.120,250.293 235.606,249.763 237.325 C 249.162 239.275,248.796 241.455,248.790 243.125 C 248.785 244.596,248.600 246.520,248.378 247.400 C 248.014 248.844,247.759 250.749,246.941 258.136 C 246.695 260.361,246.926 262.699,248.225 271.126 C 248.541 273.175,248.800 275.879,248.800 277.135 C 248.800 278.390,249.168 280.673,249.617 282.209 C 250.066 283.744,250.699 286.080,251.023 287.400 C 254.486 301.494,268.295 323.750,276.124 327.856 C 276.742 328.180,277.926 329.058,278.756 329.808 C 279.585 330.557,281.149 331.548,282.232 332.011 C 283.314 332.473,284.650 333.280,285.200 333.803 C 285.750 334.326,287.078 334.950,288.152 335.190 C 289.226 335.430,291.476 336.296,293.152 337.113 L 296.200 338.600 305.600 338.600 L 315.000 338.600 318.394 337.090 C 320.261 336.259,322.511 335.473,323.394 335.343 C 324.277 335.213,325.658 334.593,326.462 333.965 C 327.266 333.337,328.908 332.388,330.111 331.857 C 331.313 331.325,332.424 330.685,332.578 330.436 C 332.732 330.186,333.868 329.236,335.103 328.324 C 338.490 325.821,338.575 325.740,342.982 320.779 C 350.180 312.677,355.742 303.304,358.279 295.000 C 358.615 293.900,359.316 292.010,359.837 290.800 C 360.358 289.590,360.968 287.520,361.192 286.200 C 361.416 284.880,361.967 282.540,362.416 281.000 C 362.956 279.149,363.366 276.030,363.626 271.800 C 363.842 268.280,364.194 264.536,364.409 263.480 C 364.900 261.068,364.894 258.270,364.394 256.200 C 364.182 255.320,363.831 251.720,363.616 248.200 C 363.357 243.979,362.947 240.847,362.409 239.000 C 361.961 237.460,361.389 235.030,361.139 233.600 C 360.889 232.170,360.333 230.190,359.903 229.200 C 359.473 228.210,358.885 226.680,358.596 225.800 C 356.019 217.943,349.628 206.963,343.696 200.200 C 340.822 196.923,336.784 192.800,336.449 192.800 C 336.258 192.800,334.976 191.900,333.600 190.800 C 332.224 189.700,330.883 188.800,330.621 188.800 C 330.359 188.800,329.429 188.188,328.555 187.440 C 327.682 186.692,326.074 185.815,324.983 185.491 C 323.893 185.166,321.842 184.293,320.427 183.550 L 317.854 182.200 306.827 182.130 C 300.762 182.091,295.113 182.200,294.273 182.371 M100.600 201.663 C 99.280 202.094,96.965 202.554,95.455 202.685 C 93.225 202.879,92.345 203.174,90.767 204.260 C 89.698 204.996,88.053 205.903,87.112 206.276 C 83.834 207.576,76.273 214.719,73.096 219.517 C 70.169 223.937,66.400 230.952,66.400 231.978 C 66.400 232.223,65.956 233.480,65.413 234.770 C 64.870 236.060,64.061 238.710,63.616 240.658 C 63.172 242.606,62.504 245.190,62.133 246.400 C 61.572 248.229,61.453 250.487,61.429 259.800 L 61.400 271.000 62.945 277.000 C 63.795 280.300,64.808 283.630,65.196 284.400 C 65.585 285.170,66.034 286.430,66.195 287.200 C 67.574 293.792,77.671 307.600,84.149 311.753 C 85.277 312.476,86.437 313.356,86.728 313.708 C 87.018 314.060,87.763 314.460,88.385 314.597 C 89.006 314.733,90.310 315.350,91.284 315.967 C 94.518 318.018,95.539 318.189,104.600 318.189 C 113.527 318.189,114.770 317.992,117.200 316.200 C 117.931 315.660,119.454 314.950,120.583 314.622 C 121.713 314.294,123.079 313.552,123.619 312.974 C 124.158 312.395,125.230 311.592,126.000 311.189 C 131.144 308.497,141.009 294.318,143.803 285.600 C 144.191 284.390,144.758 282.906,145.064 282.301 C 145.369 281.697,145.882 279.267,146.204 276.901 C 146.525 274.536,147.053 271.880,147.376 271.000 C 149.553 265.082,148.554 264.600,134.126 264.600 L 123.252 264.600 122.072 265.731 C 121.298 266.473,120.802 267.434,120.629 268.531 C 119.869 273.350,114.158 280.954,110.528 281.978 C 105.083 283.515,98.671 282.651,95.659 279.974 C 94.636 279.065,93.440 278.001,93.000 277.610 C 90.174 275.098,87.200 266.337,87.200 260.520 C 87.199 245.475,96.843 234.754,107.754 237.672 C 110.647 238.446,111.250 237.852,116.372 229.200 C 117.870 226.670,119.794 223.321,120.648 221.757 C 121.502 220.194,123.074 217.500,124.143 215.773 C 126.909 211.298,126.306 207.784,122.540 206.440 C 121.693 206.138,120.042 205.260,118.872 204.488 C 117.169 203.365,116.051 202.981,113.272 202.565 C 111.362 202.279,109.012 201.764,108.050 201.422 C 105.788 200.618,103.584 200.689,100.600 201.663 M302.000 201.545 C 300.790 201.966,298.720 202.439,297.400 202.596 C 292.077 203.228,291.327 204.860,293.166 211.802 C 294.280 216.007,296.737 223.327,297.386 224.378 C 297.556 224.652,298.024 226.197,298.428 227.811 C 300.153 234.714,301.820 236.663,306.430 237.162 C 310.918 237.648,314.296 239.040,316.260 241.212 C 319.035 244.279,320.186 246.282,322.227 251.600 C 323.306 254.408,322.993 266.840,321.771 269.750 C 317.658 279.544,313.898 282.605,306.000 282.594 C 298.405 282.583,295.190 280.218,290.530 271.217 L 289.400 269.033 289.400 260.215 L 289.400 251.397 290.951 248.398 C 291.805 246.749,292.952 244.546,293.501 243.502 C 295.074 240.512,294.885 237.777,292.650 231.200 C 291.641 228.230,290.423 224.630,289.943 223.200 C 289.463 221.770,288.663 219.610,288.165 218.400 C 287.668 217.190,287.141 215.546,286.995 214.747 C 286.616 212.679,285.397 210.865,284.182 210.560 C 280.308 209.587,269.206 225.612,265.748 237.169 C 262.913 246.641,261.497 262.499,262.946 268.557 C 263.268 269.901,263.648 272.313,263.791 273.918 C 264.045 276.753,265.188 281.106,266.859 285.600 C 269.036 291.454,269.689 293.002,270.415 294.021 C 270.847 294.627,271.200 295.245,271.200 295.394 C 271.200 295.836,275.859 302.470,277.384 304.200 C 279.549 306.655,283.764 310.798,284.099 310.799 C 284.263 310.799,285.073 311.405,285.899 312.145 C 287.480 313.563,289.611 314.800,290.472 314.800 C 290.754 314.800,292.014 315.435,293.272 316.212 C 298.146 319.220,314.704 319.222,318.781 316.214 C 319.522 315.667,320.775 315.011,321.565 314.755 C 327.337 312.888,338.085 301.452,342.009 293.002 C 344.822 286.944,345.188 285.867,348.168 274.897 C 349.395 270.380,348.939 245.934,347.558 242.200 C 346.989 240.660,346.390 238.688,346.228 237.818 C 345.640 234.666,341.434 225.540,338.568 221.200 C 334.698 215.339,326.682 207.414,323.503 206.306 C 322.786 206.057,321.137 205.166,319.838 204.326 C 317.945 203.103,317.098 202.800,315.574 202.800 C 314.527 202.800,312.530 202.438,311.136 201.997 C 307.277 200.774,304.593 200.641,302.000 201.545 M140.000 203.259 C 137.447 206.453,137.514 209.108,140.241 212.813 C 143.718 217.536,149.274 228.440,150.052 232.067 C 150.302 233.233,150.939 235.338,151.468 236.743 C 152.016 238.197,152.579 240.870,152.777 242.949 C 153.631 251.915,155.338 256.000,158.232 256.000 C 162.494 256.000,163.910 252.580,162.206 246.400 C 161.873 245.190,161.405 242.490,161.167 240.400 C 160.929 238.310,160.327 235.430,159.829 234.000 C 159.330 232.570,158.791 230.695,158.631 229.833 C 157.747 225.094,150.262 209.634,147.339 206.513 C 147.086 206.243,146.498 205.405,146.032 204.652 C 144.245 201.760,141.673 201.166,140.000 203.259 M131.784 217.251 C 131.335 217.469,130.656 218.312,130.274 219.124 C 129.893 219.936,129.042 221.500,128.383 222.600 C 126.773 225.289,124.013 230.051,122.867 232.118 C 122.353 233.043,121.697 234.070,121.408 234.400 C 118.129 238.143,117.292 242.835,119.172 246.940 C 119.817 248.348,120.471 250.197,120.624 251.050 C 121.463 255.706,122.299 256.000,134.701 256.000 C 148.064 256.000,148.553 255.777,147.386 250.200 C 147.081 248.743,146.633 246.076,146.390 244.275 C 145.498 237.647,141.812 228.349,137.153 220.973 C 134.794 217.237,133.565 216.385,131.784 217.251 M198.620 232.368 C 198.494 232.571,197.127 233.062,195.582 233.461 C 189.771 234.957,183.957 241.885,182.218 249.384 C 181.878 250.853,181.414 252.399,181.189 252.820 C 177.282 260.121,184.334 279.770,192.400 284.059 C 193.610 284.702,195.207 285.612,195.949 286.080 C 198.843 287.906,204.790 287.161,208.238 284.541 C 208.919 284.023,209.703 283.600,209.981 283.600 C 211.518 283.600,216.721 276.507,218.765 271.626 L 220.200 268.200 220.200 259.200 L 220.200 250.200 217.881 245.464 C 214.421 238.398,210.600 234.678,205.179 233.099 C 201.307 231.971,199.022 231.716,198.620 232.368 M100.266 246.613 C 98.982 247.595,97.715 248.534,97.451 248.699 C 96.016 249.596,93.458 256.972,93.449 260.237 C 93.428 267.785,99.456 275.332,105.000 274.698 C 116.659 273.364,119.680 255.111,109.596 246.924 C 105.994 243.999,103.779 243.925,100.266 246.613 M301.264 246.729 C 293.604 252.379,292.841 267.961,299.998 272.590 C 308.520 278.102,316.600 271.872,316.600 259.789 L 316.600 254.978 315.004 251.833 C 313.784 249.431,313.029 248.452,311.804 247.685 C 310.922 247.133,309.691 246.258,309.069 245.741 C 307.088 244.092,304.372 244.436,301.264 246.729 "
       stroke="none"
       fill="#dadada"
       fill-rule="evenodd"
       style="fill:#ffffff;fill-opacity:1" />
    <path
       id="path0"
       d="m 82.601562,9.3066406 c -16.888434,0.036462 -33.777628,0.00483 -50.665451,0.1445969 -0.604266,0.1248341 -1.467421,-0.2548832 -1.780427,0.4408613 -0.342107,0.4097632 -0.655854,0.8527362 -0.78459,1.3793852 -0.999841,0.152333 -1.841116,0.944221 -2.06836,1.927735 -1.343395,-0.03571 -3.03046,0.0019 -3.75139,1.357524 -0.183926,0.494394 -0.321546,0.866337 -0.905533,0.938084 -1.324327,0.64695 -1.50499,2.254315 -1.44545,3.563745 0.04839,0.49886 -0.775289,0.354582 -1.017019,0.75021 -0.498624,0.375197 -0.812469,0.977819 -0.917717,1.589656 -0.621687,0.0896 -1.243499,0.178319 -1.865234,0.267578 0,116.889324 0,233.778644 0,350.667964 0.618304,0.0974 1.265603,0.16456 1.867187,0.2793 0.149139,1.00787 0.941644,1.85077 1.931641,2.08203 -0.03563,1.34396 0.0012,3.03199 1.357524,3.75335 0.494394,0.18392 0.866337,0.32154 0.938084,0.90553 0.64695,1.32433 2.254315,1.50499 3.563745,1.44545 0.49886,-0.0484 0.354582,0.77529 0.75021,1.01702 0.375197,0.49862 0.977819,0.81247 1.589656,0.91772 0.0896,0.62168 0.178319,1.24349 0.267578,1.86523 116.889324,0 233.778644,0 350.667964,0 0.0974,-0.61831 0.16456,-1.2656 0.2793,-1.86719 1.00787,-0.14914 1.85077,-0.94164 2.08203,-1.93164 1.34396,0.0356 3.03199,-0.001 3.75335,-1.35752 0.18392,-0.4944 0.32154,-0.86634 0.90553,-0.93809 1.32433,-0.64695 1.50499,-2.25431 1.44545,-3.56374 -0.0484,-0.49886 0.77529,-0.35458 1.01702,-0.75021 0.49862,-0.3752 0.81247,-0.97782 0.91772,-1.58966 0.62168,-0.0896 1.24349,-0.17832 1.86523,-0.26758 0,-116.88932 0,-233.77864 0,-350.667964 -0.61831,-0.09734 -1.2656,-0.16456 -1.86719,-0.279297 -0.14914,-1.00787 -0.94164,-1.850767 -1.93164,-2.082031 0.0356,-1.343955 -0.001,-3.031983 -1.35752,-3.753344 -0.4944,-0.183926 -0.86634,-0.321546 -0.93809,-0.905533 -0.64695,-1.324327 -2.25431,-1.50499 -3.56374,-1.44545 -0.49886,0.04839 -0.35458,-0.775289 -0.75021,-1.017019 -0.3752,-0.498624 -0.97782,-0.812469 -1.58966,-0.917717 -0.0896,-0.621043 -0.17833,-1.242196 -0.26758,-1.8632812 C 293.52422,9.3610462 206.71446,9.2738412 119.90469,9.2894831 107.47031,9.2952023 95.035938,9.3009214 82.601562,9.3066406 Z M 263.50195,24.09375 c 33.04308,0.05718 66.0867,0.01529 99.12922,0.234018 2.08116,0.01417 4.23553,-0.01161 6.21258,0.701529 1.02646,0.883533 2.50267,0.923591 3.46841,1.887296 2.25706,1.941631 3.96978,4.445189 5.18496,7.150517 0.5626,0.858925 0.20224,1.936558 0.30366,2.904765 0,107.458595 0,214.917185 0,322.375785 -1.10434,2.34741 -2.27699,4.73622 -4.20882,6.52708 -1.74525,1.78659 -4.0216,2.86692 -6.2443,3.92604 -108.22526,0 -216.45052,0 -324.675785,0 -2.168077,-1.03095 -4.322554,-2.15444 -6.091708,-3.80735 -1.090714,-1.02634 -2.32633,-2.08382 -2.695401,-3.5989 -0.249305,-0.89025 -1.09724,-1.50527 -1.097573,-2.46455 -0.460197,-4.6711 -0.407442,-9.37505 -0.516272,-14.06344 -0.248309,-22.38104 -0.198854,-44.76413 -0.219308,-67.14623 0.01209,-81.21798 0.100033,-162.43593 0.147606,-243.653904 0.611528,-1.216874 1.141183,-2.399193 1.763672,-3.533203 2.043391,-3.750104 5.819174,-6.608942 10.110921,-7.110566 3.537843,-0.203518 7.091027,-0.100389 10.635068,-0.159193 34.818391,-0.155264 69.63729,-0.147012 104.45596,-0.179233 34.77905,-0.01993 69.55807,-0.0082 104.33711,0.0095 z m 19.15039,52.162109 c -1.88447,-0.06951 -3.33028,1.32609 -5.06103,1.831221 -1.75292,0.56954 -3.36253,1.485655 -4.87471,2.522756 -1.95289,1.08471 -4.20894,1.462577 -6.13776,2.607057 -1.28374,0.749926 -2.49312,1.680141 -3.96476,2.03452 -2.31413,0.902991 -4.2312,2.602269 -6.62525,3.334012 -3.46932,0.936226 -6.73745,3.189786 -8.18805,6.566919 -0.9582,2.094581 -1.06824,4.465053 -0.64022,6.704456 0.8247,4.88395 2.16567,9.68741 3.97041,14.29966 0.68407,1.54593 1.4377,3.07059 1.79031,4.73797 0.48409,2.05162 1.11458,4.07285 2.02208,5.97862 0.63665,1.77863 0.59007,4.22727 -1.15039,5.36718 -1.82236,0.90915 -3.93202,0.8749 -5.91502,1.09631 -3.51362,0.1834 -6.97643,0.92726 -10.30014,2.06746 -3.54976,1.23764 -7.33931,1.20157 -11.03045,1.62291 -2.48927,0.22414 -4.85082,1.06774 -7.15975,1.97302 -4.59219,1.56983 -9.59865,0.96804 -14.22408,2.41173 -2.10377,0.6509 -4.11936,1.65351 -6.34847,1.82282 -3.74538,0.50737 -7.61155,0.30447 -11.25891,1.40638 -1.77878,0.69842 -3.54872,1.44756 -5.43701,1.81031 -2.36082,0.56265 -4.7857,0.72559 -7.20312,0.79492 -2.42561,0.13496 -4.73397,0.91223 -7.06748,1.51385 -0.55268,0.27623 -0.76821,-0.51353 -1.08358,-0.83151 -1.78296,-2.61005 -2.62624,-5.67799 -3.63789,-8.63253 -0.85473,-2.65731 -2.06531,-5.23456 -2.4591,-8.0166 -0.11599,-0.59461 0.0851,-1.27549 0.75334,-1.40738 2.56386,-0.83288 5.30891,-0.73433 7.97074,-0.91046 3.63652,-0.21021 7.47979,-0.42469 10.69404,-2.32019 2.66667,-1.55096 4.0676,-4.55436 4.48783,-7.51233 0.50842,-3.48622 0.47817,-7.04393 0.14716,-10.54546 -0.29492,-3.12274 -1.43127,-6.35486 -3.96857,-8.35558 -1.68755,-1.402989 -3.75022,-2.220721 -5.67829,-3.225947 -7.03749,-0.06758 -14.07887,0.04502 -21.11328,-0.201172 -1.42717,-0.0317 -2.82486,-0.311693 -4.17728,-0.754041 -3.15053,-0.673253 -6.40011,-0.339552 -9.59531,-0.335186 -1.57428,0.07125 -3.19418,-0.0034 -4.74015,0.1586 -2.12802,1.474678 -4.51936,2.731541 -6.01947,4.921606 -2.97406,4.13028 -3.82136,9.41343 -3.62928,14.40178 0.26097,4.62652 1.39878,9.43777 4.38882,13.09347 1.71418,2.12514 4.30432,3.53426 7.0519,3.63384 3.06323,0.19065 6.18026,0.0324 9.15063,-0.775 1.3321,-0.34173 2.41581,0.73635 3.01154,1.80142 1.90662,3.30981 2.54351,7.13686 3.86719,10.68359 0.94351,2.79886 2.02088,5.54989 3.17875,8.26522 0.75459,1.76261 0.26378,3.71752 -0.53265,5.36924 -1.88533,3.9675 -4.32617,7.63629 -6.47484,11.46128 -2.58285,4.34386 -4.87577,8.86722 -7.71257,13.0554 -0.57448,0.71347 -1.08937,1.64582 -1.98799,1.96605 -1.46157,-0.46094 -2.54361,-1.66105 -3.74384,-2.5641 -1.55323,-1.41113 -3.42376,-2.38564 -5.30455,-3.27472 -1.44061,-0.67557 -2.47118,-1.94881 -3.86957,-2.68462 -2.11979,-0.10605 -4.14936,-0.87292 -6.10939,-1.63656 -1.62751,-0.7463 -3.50935,-1.54533 -5.3962,-1.85501 -4.47025,-0.73777 -9.02389,-0.45287 -13.53381,-0.45919 -3.267468,0.0448 -6.534934,0.0896 -9.802401,0.13435 -1.761707,1.15555 -3.526571,2.3626 -5.574219,2.95508 -2.24927,0.60002 -4.574749,1.21223 -6.453125,2.6582 -1.751706,1.18567 -3.900257,1.70931 -5.513672,3.09766 -1.677226,1.52735 -3.715396,2.60962 -5.410992,4.12503 -6.086375,5.1612 -11.053654,11.51582 -15.372211,18.19333 -3.163134,4.93761 -5.845328,10.18052 -7.957618,15.65174 -0.921435,2.31123 -2.145338,4.51615 -2.638609,6.97814 -0.363353,1.93472 -0.913214,3.82532 -1.606743,5.66473 -0.796307,2.59838 -0.947836,5.32432 -1.543124,7.96516 -0.157899,0.68989 -0.382425,1.67086 -0.636851,2.45806 -1.213524,3.19536 -0.934118,6.67098 -1.044789,10.02045 -0.0399,8.02922 -0.01972,16.0586 -0.0293,24.08789 1.105922,4.02096 2.192581,8.05899 2.773437,12.19531 0.2428,1.43322 0.708357,2.80724 1.281794,4.13689 0.698445,2.23005 1.22884,4.51355 2.07315,6.69878 1.489502,4.0758 2.973442,8.1725 4.904291,12.06378 0.960837,1.47759 1.873067,2.99002 2.703656,4.54782 3.112752,5.14655 6.919564,9.83353 10.801893,14.41286 2.59017,2.935 5.162484,5.93384 8.225451,8.39183 0.689566,0.6057 1.570879,0.8658 2.371265,1.25112 2.082394,1.37645 4.027898,3.08541 6.478016,3.77953 1.781972,0.83344 3.341193,2.10069 5.235183,2.70668 2.08802,0.74186 4.298014,1.10765 6.331413,2.01604 3.288894,1.59516 7.014728,1.84072 10.607862,2.0265 4.49497,0.13789 9.05345,0.0133 13.44788,-1.02048 1.97438,-0.47319 3.73165,-1.55766 5.70611,-2.0426 2.4246,-0.56832 4.85759,-1.34728 6.85937,-2.88242 0.93727,-0.70643 2.06686,-1.00355 3.12306,-1.46328 3.7037,-1.96535 6.95548,-4.66443 10.15515,-7.34772 3.13149,-2.68979 6.12823,-5.57349 8.55552,-8.92884 2.28734,-3.05962 4.64511,-6.08104 6.67605,-9.31914 0.84005,-1.73953 2.05694,-3.28102 2.87161,-5.04211 1.34048,-2.53258 2.37995,-5.26293 3.58737,-7.77234 0.86081,-1.55348 1.42013,-3.24035 1.85627,-4.95393 0.60064,-1.55557 1.34889,-3.06441 1.66521,-4.71795 0.40838,-2.3562 1.03508,-4.67818 1.82448,-6.9423 0.84747,-2.72731 1.07368,-5.58051 1.40966,-8.40011 0.4735,-2.87236 1.04299,-5.72912 1.50898,-8.60389 0.22254,-1.08137 0.42368,-2.20033 0.94634,-3.18261 1.37026,1.28634 1.66976,3.30804 1.80341,5.09997 -0.0566,2.01694 1.05716,3.80369 1.81173,5.60581 1.41292,2.93857 2.69907,5.98869 4.8029,8.52008 2.45759,3.05613 5.29256,5.93449 8.77325,7.81046 1.74153,0.75343 3.53813,1.38831 5.21583,2.28893 3.78884,1.94524 8.4104,1.83465 12.24888,0.0853 1.6533,-0.74137 3.18468,-1.74092 4.9104,-2.3246 4.51282,-2.07288 7.86322,-5.98387 10.53516,-10.0625 2.53456,-3.88269 4.32173,-8.18995 5.76566,-12.5807 0.30518,-0.85118 0.6896,-1.6889 0.55215,-2.61539 -0.0475,-6.00326 0.0965,-12.01125 -0.14789,-18.01094 -0.0499,-1.68273 -0.43958,-3.32973 -1.10862,-4.87182 -0.72285,-1.96364 -1.26998,-3.91842 -2.11821,-5.87832 -0.73107,-1.97275 -1.92521,-3.76673 -2.44036,-5.81524 -0.23269,-1.8442 0.82085,-3.52436 1.49788,-5.16656 4.76047,-9.76452 9.49936,-19.5406 14.33533,-29.26806 1.70254,-3.09786 3.06652,-6.36444 4.66467,-9.51618 5.98248,-12.23132 11.96297,-24.464 17.95888,-36.68855 0.44571,-0.8481 0.90254,-1.6974 1.48192,-2.46324 1.09225,2.05626 2.10725,4.18903 2.69531,6.44922 0.18844,0.9491 0.55725,2.13928 0.97241,3.125 1.38097,3.17905 2.12477,6.58308 3.35429,9.81911 0.90401,2.67936 1.99252,5.29559 2.89072,7.9748 0.61108,1.84272 -0.29551,3.74749 -1.49484,5.12778 -2.10977,2.4799 -4.7609,4.42008 -6.9843,6.79315 -4.04883,4.12192 -7.31577,8.92951 -10.34214,13.82865 -0.49574,1.02632 -1.05074,2.01403 -1.70278,2.95456 -1.49599,2.57358 -2.90428,5.22224 -3.95507,8.01093 -0.32093,1.51629 -1.2541,2.81595 -1.71572,4.29286 -1.55529,4.11072 -2.82844,8.32772 -3.79946,12.61352 -0.51746,2.02881 -1.39672,3.95842 -1.6448,6.05453 -0.68351,4.49549 -0.88726,9.04652 -1.3677,13.56575 -0.57861,6.49316 -0.28095,13.02949 0.15801,19.52196 0.36605,4.43844 0.7271,8.91047 1.79353,13.24561 0.73309,2.20338 1.43228,4.42829 1.77926,6.73195 1.15995,4.89086 2.91136,9.62664 4.86977,14.24901 0.69522,1.79567 1.79494,3.40178 2.47397,5.2002 0.57601,1.67933 1.66899,3.33667 2.64454,4.89258 2.42017,3.64514 4.90646,7.25499 7.60156,10.70313 3.55004,4.2368 7.46581,8.20218 11.85305,11.5748 1.64904,1.16865 3.36627,2.2384 4.972,3.46908 1.13543,0.81367 2.46904,1.24015 3.74885,1.75067 1.54019,0.76358 2.86222,1.93967 4.53772,2.43564 2.40909,0.84198 4.99124,1.1665 7.29658,2.31278 2.97016,1.30618 6.2757,1.51169 9.47266,1.72252 4.36452,0.172 8.79837,0.1221 13.07246,-0.86858 1.84349,-0.44241 3.46674,-1.49102 5.31034,-1.94712 0.52854,-0.1635 0.94057,-0.27613 1.55293,-0.42443 2.36196,-0.48778 4.63795,-1.39593 6.61114,-2.79294 1.28191,-0.82851 2.84363,-1.03756 4.10171,-1.91683 1.49364,-0.81239 2.72402,-2.06279 4.25181,-2.79606 1.47338,-0.55818 2.46725,-1.88866 3.62294,-2.90207 3.68837,-3.59193 7.38778,-7.18796 10.65644,-11.1752 1.6242,-1.98672 3.36356,-3.9302 4.56632,-6.21179 0.40456,-1.07078 1.29903,-1.88122 1.78738,-2.92114 2.10713,-3.71542 4.10882,-7.50605 5.76789,-11.44447 0.67621,-2.30437 2.01348,-4.35688 2.60098,-6.68713 0.29769,-2.0321 1.33887,-3.86196 1.79418,-5.86055 0.88045,-3.15675 1.28572,-6.42816 2.28799,-9.55499 0.9179,-3.72721 1.02452,-7.59394 1.25023,-11.40968 0.34464,-8.83452 0.33455,-17.69719 -0.35331,-26.5153 -0.21779,-2.57902 -0.56355,-5.16032 -1.38457,-7.62461 -0.94874,-3.62161 -1.51568,-7.33957 -2.70926,-10.8976 -1.34957,-4.30843 -2.76897,-8.61088 -4.76661,-12.67077 -4.15608,-8.6293 -9.5996,-16.66726 -16.22387,-23.59399 -3.12947,-3.32521 -6.79404,-6.06787 -10.25611,-9.02485 -1.29325,-1.03053 -2.7729,-1.82547 -4.38671,-2.20703 -1.76678,-0.63646 -2.84555,-2.39518 -4.68665,-2.88688 -1.76119,-0.61841 -3.74139,-0.49963 -5.36764,-1.5239 -1.23633,-0.65006 -2.36045,-1.55841 -3.58478,-2.18102 -8.07864,0 -16.15729,0 -24.23593,0 -2.84638,1.39343 -5.5842,3.24395 -8.77142,3.74005 -1.23712,0.24574 -2.52299,-0.35234 -3.11921,-1.46661 -1.41098,-2.33904 -1.66111,-5.13167 -2.65875,-7.64041 -1.16083,-2.87378 -2.22691,-5.78802 -3.08816,-8.76819 -0.804,-2.68231 -1.46793,-5.42642 -2.70426,-7.95273 -2.56534,-6.84792 -4.59944,-13.88032 -7.04746,-20.77004 -1.19357,-3.67341 -2.77576,-7.22384 -3.71395,-10.97656 -0.37017,-2.33816 -1.73955,-4.33789 -2.28439,-6.62289 -0.42432,-1.81205 -1.20483,-3.50241 -1.93744,-5.19984 -0.46155,-1.39614 -0.91248,-3.10684 -0.0773,-4.44629 0.89797,-0.70146 1.96665,-1.19164 2.84375,-1.939458 1.98075,-1.312603 4.37413,-1.809738 6.35742,-3.128906 1.24149,-0.925833 2.61676,-1.685785 4.14258,-2.019532 1.71222,-0.528067 3.23601,-1.491893 4.63086,-2.595703 1.19799,-0.965684 2.82857,-0.870212 4.11591,-1.651896 2.18202,-1.196814 4.33567,-2.549718 6.07988,-4.341713 2.03822,-2.445278 1.38965,-6.476082 -1.16649,-8.313031 -0.87712,-0.659246 -1.95766,-1.048845 -3.0586,-1.050782 z M 147.98828,108.62305 c 6.46427,-0.005 12.94703,0.0668 19.35772,0.33421 1.61597,0.10795 3.2716,0.0835 4.85441,0.40237 1.72426,0.92608 2.08582,3.0593 2.00154,4.84153 -0.051,0.50302 0.11786,1.14144 -0.10429,1.57228 -1.35272,0.4796 -2.80907,0.5289 -4.22266,0.69922 -0.64253,0.0548 -1.60206,0.13951 -2.36981,0.19514 -4.20994,0.38253 -8.54687,0.37937 -12.73371,1.25603 -1.23029,0.36262 -2.44194,0.83501 -3.74804,0.83594 -3.17353,0.0346 -6.34048,0.27892 -9.48828,0.68164 -1.15309,0.0986 -2.61313,0.24086 -3.32637,-0.89627 -2.05779,-2.54459 -2.57484,-6.43933 -0.83676,-9.28254 0.2732,-0.65513 1.12087,-0.32664 1.67645,-0.45847 2.97689,-0.15331 5.9597,-0.1602 8.9398,-0.18108 z m 104.23438,36.6875 c 0.42769,0.54991 -0.0664,1.36183 -0.26563,1.96484 -2.22777,5.38025 -4.99826,10.51287 -7.48312,15.77499 -4.26686,8.73071 -8.39629,17.52981 -12.74641,26.21987 -4.99391,9.73598 -9.71578,19.60777 -14.48119,29.45687 -1.11073,2.16259 -1.89649,4.55717 -3.5081,6.41615 -0.44556,0.50265 -1.10221,-0.12966 -1.55416,-0.3117 -3.09024,-1.83101 -6.78401,-2.18701 -10.30238,-2.30863 -2.17447,-0.12422 -4.34758,0.33318 -6.51461,0.10895 -1.05853,-0.0743 -1.05371,-1.36454 -1.42046,-2.10612 -0.9184,-2.39942 -2.05894,-4.71751 -2.71027,-7.21327 -0.84244,-2.43154 -2.14883,-4.67004 -2.96867,-7.11291 -1.67992,-4.38893 -3.30226,-8.79997 -4.97891,-13.1896 -1.62811,-4.15443 -3.41568,-8.25084 -4.79461,-12.49827 -1.06132,-2.81944 -2.33974,-5.55271 -3.35937,-8.38867 -0.25004,-0.70657 -0.58629,-1.70207 -0.82813,-2.53516 -0.55299,-1.94217 -1.41223,-3.77046 -2.21641,-5.61399 -0.37215,-0.98182 -0.7051,-2.43385 0.3943,-3.08556 2.20808,-1.30984 4.89418,-0.92657 7.31385,-1.49612 2.42751,-0.41254 4.67977,-1.43902 7.00826,-2.18324 4.93602,-1.13412 10.23555,-0.36748 14.97079,-2.40976 3.52826,-1.50883 7.39112,-1.80409 11.17367,-2.05685 2.20398,-0.15794 4.40665,-0.58911 6.39265,-1.59003 5.31047,-2.09745 11.26406,-0.93503 16.6003,-2.91621 2.20331,-0.92463 4.51924,-1.58492 6.90819,-1.77924 3.05223,-0.27796 6.10284,-0.61775 9.12069,-1.14724 0.0832,-0.0105 0.16648,-0.002 0.24973,9e-4 z m -89.95704,24.33984 c 1.25493,0.88108 1.46142,2.55445 2.05854,3.86562 0.92419,2.52066 2.05667,4.98611 2.70384,7.59298 0.59174,1.43989 1.50059,2.74074 1.89884,4.2653 1.07509,3.53704 2.79904,6.8269 3.99113,10.32298 1.67622,4.62947 3.48458,9.21032 5.3471,13.76647 0.68741,2.05113 1.22117,4.17097 2.30329,6.06556 1.17629,2.61898 2.02752,5.36897 3.01679,8.0606 0.68694,1.94634 0.74932,4.23702 -0.48142,5.98824 -1.15655,1.67765 -2.64627,3.10506 -3.69263,4.86769 -2.93155,4.52664 -4.9587,9.63935 -6.07525,14.89057 -0.34509,1.25417 -0.74518,2.49712 -1.28312,3.68313 -1.37546,-5.77441 -2.17245,-11.66636 -3.01564,-17.53552 -0.30279,-1.85412 -0.8636,-3.64997 -1.57175,-5.38569 -0.89142,-2.65638 -1.34847,-5.43974 -2.34475,-8.06553 -1.49171,-4.29467 -3.43542,-8.41409 -5.35568,-12.52897 -2.33875,-4.78583 -5.3023,-9.2329 -8.47004,-13.50141 -0.90181,-1.34096 -1.88077,-2.82656 -1.89448,-4.49069 0.83806,-2.20228 2.16027,-4.18479 3.22769,-6.2801 1.16566,-2.17733 2.23749,-4.41261 3.69014,-6.42068 1.67313,-2.65513 3.19188,-5.49604 4.83684,-8.06578 0.33597,-0.32004 0.59285,-1.29438 1.06018,-1.12836 z m -54.14843,14.19141 c 2.89785,0.0848 5.85781,0.0161 8.67969,0.76758 1.5523,0.41725 2.71589,1.51008 4.22656,2.04687 1.70973,0.65942 3.57195,1.11527 4.92773,2.43359 1.37555,1.13024 3.19214,1.57248 4.42969,2.88868 1.06613,1.1113 2.17603,2.42975 2.31445,4.02148 -0.24591,1.2189 -0.76118,2.86771 -2.20312,3.04102 -2.03492,0.0213 -3.34032,-1.80729 -5.08399,-2.56055 -1.55353,-0.81129 -3.32095,-1.13815 -4.78906,-2.13086 -3.12325,-2.17356 -7.06392,-2.42694 -10.74291,-2.63753 -4.82912,-0.17169 -9.66922,-0.0414 -14.489387,0.27763 -2.244875,0.14227 -4.549463,0.72266 -6.267702,2.25248 -1.523049,1.04144 -3.481276,1.08555 -5.021239,2.10997 -1.557049,0.78435 -2.699401,2.20916 -4.309655,2.88053 -2.326032,1.60355 -4.28582,3.67584 -6.294444,5.64897 -1.956085,1.92979 -3.713309,4.04516 -5.280782,6.30092 -2.58761,3.62608 -5.354378,7.17943 -7.288999,11.21374 -1.132331,2.72026 -2.110998,5.50444 -3.23111,8.2312 -1.141352,2.78991 -1.95127,5.71979 -2.430091,8.68133 -0.2848,1.31934 -0.604488,2.57355 -1.04993,3.90404 -0.931096,2.47105 -0.920016,5.16396 -1.125344,7.76422 -0.315673,6.87591 -0.329039,13.77918 0.218991,20.64373 0.137198,1.78334 0.439018,3.55488 1.06065,5.23658 0.835746,2.778 1.062242,5.69689 1.982651,8.45378 0.594704,1.9739 1.442299,3.87121 1.893276,5.88436 0.834826,2.26599 2.001644,4.39598 2.786323,6.68209 1.758707,3.67412 4.028871,7.07982 6.338245,10.42646 3.077382,4.40385 6.957376,8.19364 11.086018,11.60603 1.292049,1.06785 2.699571,1.98444 4.202549,2.72267 0.550207,0.45448 0.942386,1.12292 1.644493,1.41301 1.662673,0.8892 3.5644,1.19197 5.231783,2.08231 1.595029,0.71311 3.061071,1.73467 4.629962,2.45936 5.733518,0.0402 11.470852,0.32178 17.202742,0.0902 2.63479,-0.11477 5.33843,-0.60987 7.55079,-2.13085 2.27409,-1.29624 5.00452,-1.70219 7.0344,-3.43979 1.80127,-1.27887 3.78331,-2.29843 5.45071,-3.76671 4.39939,-3.64383 8.31003,-7.89165 11.47361,-12.65352 1.59893,-2.19748 3.1302,-4.45216 4.30254,-6.91161 1.86441,-3.79639 3.66088,-7.65994 4.85006,-11.72837 0.45065,-2.67413 1.88348,-5.05812 2.28907,-7.74313 0.52968,-3.17485 0.48071,-6.4317 1.26367,-9.56937 0.39497,-1.41023 0.75287,-3.13113 2.13476,-3.9004 0.97753,-0.31072 2.2356,-0.2964 3.04688,0.4004 0.79415,1.18975 0.46372,2.73883 0.25554,4.06286 -0.49048,2.36806 -1.41876,4.63064 -1.71886,7.04278 -0.30972,2.4248 -0.59028,4.88371 -1.49826,7.17561 -0.63066,1.7494 -0.97431,3.57752 -1.35092,5.39062 -0.60048,2.12416 -1.82043,4.0085 -2.44066,6.12962 -0.62982,1.72389 -1.52882,3.53293 -2.28395,5.07741 -1.63669,3.18572 -3.2632,6.38814 -5.13967,9.43953 -2.97606,4.17781 -6.47263,7.9591 -10.04978,11.62492 -1.5773,1.5755 -3.20569,3.11676 -5.06784,4.35206 -0.95453,0.67563 -1.57311,1.76732 -2.73099,2.14794 -1.83649,0.62302 -3.57803,1.52709 -5.07268,2.7697 -1.66031,0.9824 -3.61036,1.12295 -5.35034,1.93366 -1.62355,0.5899 -3.10958,1.52985 -4.66525,2.22792 -4.80676,0.0435 -9.61499,0.24161 -14.421498,0.098 -0.476718,-0.0286 -1.305222,-0.0631 -1.913829,-0.12834 -2.044849,-0.13365 -4.012874,-0.78979 -5.787342,-1.79939 -1.443823,-0.72827 -3.005432,-1.16039 -4.564943,-1.54483 -1.812871,-0.66398 -3.230092,-2.05778 -4.993372,-2.83161 -1.863445,-0.7802 -3.407306,-2.09487 -4.995257,-3.30649 -1.674571,-1.01358 -2.958186,-2.54174 -4.401146,-3.84813 -1.3848,-1.40327 -2.890793,-2.72 -4.125361,-4.25215 -1.359934,-1.91116 -3.078305,-3.54362 -4.379133,-5.50407 -2.484863,-3.43545 -4.651866,-7.09978 -6.373176,-10.97741 -1.5346,-3.35719 -3.087765,-6.72347 -4.25137,-10.23053 -0.392479,-1.72242 -1.154161,-3.59026 -1.832133,-5.32629 -0.710501,-1.81251 -0.909595,-3.75079 -1.249754,-5.65021 -0.327736,-1.89703 -1.209554,-3.6604 -1.306366,-5.60024 -0.596448,-6.50321 -0.597225,-13.046 -0.52998,-19.57121 0.105151,-4.11806 0.12892,-8.26048 0.734761,-12.34236 0.59552,-2.23615 1.199869,-4.50837 1.445694,-6.79751 0.38895,-2.12904 1.052368,-4.19642 1.712161,-6.25407 0.233269,-0.65996 0.540274,-1.61806 0.826216,-2.39073 0.520843,-1.46447 1.047859,-2.87609 1.640656,-4.37041 1.608984,-3.95508 3.215072,-7.95259 5.485294,-11.58364 2.409548,-3.54382 4.725796,-7.17334 7.495099,-10.4521 2.299978,-2.53286 4.654204,-5.03192 7.226563,-7.29101 2.105263,-1.02882 3.511766,-3.09902 5.666015,-4.07032 1.658099,-0.83439 2.901027,-2.32713 4.685531,-2.93144 1.867771,-0.61005 3.738427,-1.26059 5.438795,-2.26137 2.830219,-0.8729 5.824609,-1.00878 8.758137,-1.27195 2.821748,-0.19493 5.650498,-0.28019 8.478868,-0.27742 z m 194.55273,0.26758 c 4.89456,0.0235 9.78907,0.0568 14.6836,0.0859 2.46835,1.35032 5.01166,2.57921 7.6914,3.44922 1.82199,0.66966 3.03808,2.31924 4.82617,3.03711 1.25384,0.55642 2.26021,1.58334 3.37748,2.37669 0.84114,0.72267 1.85252,1.21559 2.71108,1.89353 4.28439,4.15191 8.12735,8.75758 11.5544,13.63844 4.03522,5.76313 7.35954,12.0557 9.50932,18.76701 0.78226,2.06029 1.71312,4.0804 2.08299,6.27069 0.42497,2.5605 1.20507,5.04149 1.75353,7.57304 0.96177,5.53948 0.70702,11.22121 1.80586,16.74128 0.31191,2.20528 -0.095,4.40503 -0.42747,6.57916 -0.32753,2.8547 -0.52623,5.87799 -0.70898,8.64649 -0.21984,2.9769 -0.55988,5.96307 -1.45236,8.82304 -0.75349,2.81145 -1.02401,5.76233 -2.24682,8.4355 -1.36308,3.23035 -2.16696,6.66983 -3.68916,9.83809 -3.59029,7.96756 -8.80024,15.10791 -14.72041,21.49933 -1.6057,1.89409 -3.47678,3.53512 -5.51039,4.95482 -1.0546,0.76251 -2.05103,1.6189 -3.00556,2.48914 -1.98997,1.05154 -4.09581,1.92556 -5.88116,3.32727 -1.34995,0.94016 -3.05742,0.93473 -4.53736,1.57124 -2.05797,0.69224 -4.00249,1.71542 -6.01186,2.49321 -5.93802,0 -11.87604,0 -17.81406,0 -2.82871,-1.41986 -5.70606,-2.80174 -8.78674,-3.5807 -1.33319,-0.44722 -2.23723,-1.60943 -3.51028,-2.18353 -1.38951,-0.71491 -2.83021,-1.29628 -4.06256,-2.34134 -1.24013,-1.13414 -2.68546,-2.12635 -4.16972,-2.9706 -3.611,-2.66771 -6.3504,-6.30206 -8.9742,-9.89813 -1.89413,-2.6665 -3.6494,-5.42982 -5.29143,-8.25812 -0.63185,-1.11024 -1.38288,-2.42399 -2.01889,-3.6382 -3.11155,-5.86202 -5.80965,-11.99873 -7.31817,-18.48338 -0.77598,-2.94013 -1.81242,-5.87242 -1.75391,-8.95508 -0.28235,-5.5631 -1.73945,-11.00383 -1.915,-16.57448 0.0916,-2.32153 0.47487,-4.66785 0.70677,-6.91944 0.20698,-2.01359 0.54008,-4.00907 0.95545,-5.98802 0.37767,-2.50721 0.10617,-5.08292 0.78706,-7.54932 0.7981,-2.82292 1.62466,-5.63894 2.34993,-8.48216 0.60845,-2.08246 1.37786,-4.20489 2.13318,-6.12859 1.91147,-4.74256 3.97893,-9.46574 6.76266,-13.77002 3.35911,-4.72921 6.73144,-9.50554 10.85438,-13.61117 1.16251,-1.04174 2.34246,-2.26634 3.90772,-2.63842 0.5487,0.0257 0.67702,0.80202 0.90009,1.19197 0.65311,1.46844 1.07075,3.28118 0.10616,4.71862 -1.57739,2.55141 -4.07152,4.33494 -5.91443,6.67565 -3.46968,4.12167 -6.60733,8.55071 -9.00663,13.38634 -2.10114,4.13386 -4.15662,8.34638 -5.35232,12.84467 -0.32762,1.95763 -0.99194,3.83023 -1.70403,5.67524 -0.84182,2.52575 -0.8624,5.30214 -1.08353,7.83758 -0.0585,0.51215 -0.14402,1.38058 -0.21289,2.0293 -0.30845,3.06867 -1.14014,6.09309 -0.94994,9.19988 0.23877,5.2473 0.70448,10.48309 1.15777,15.71553 0.27639,2.7198 0.48191,5.49242 1.49048,8.06116 0.96293,3.11815 1.56312,6.3699 3.01295,9.31796 0.33847,0.9027 0.34466,1.89717 0.81509,2.76222 1.92402,4.24855 4.28422,8.29005 6.76367,12.23494 2.8358,4.1436 6.26751,7.84932 9.84239,11.36174 1.87203,1.78827 3.80973,3.57647 6.16164,4.71494 1.6125,0.97093 3.12254,2.16135 4.95328,2.71137 2.46898,0.87284 4.69503,2.2828 6.98314,3.53159 7.14713,0 14.29427,0 21.4414,0 2.53509,-1.42195 5.05161,-2.92497 7.82227,-3.84766 1.45122,-0.58333 2.65348,-1.59481 3.95898,-2.42187 1.43755,-0.49165 2.52733,-1.6492 3.70989,-2.56151 3.82848,-3.18999 7.2827,-6.82041 10.24446,-10.82962 3.04418,-4.10804 5.82892,-8.43955 8.0105,-13.06981 1.85932,-4.37316 3.27261,-8.92525 4.37167,-13.54486 0.49133,-2.06144 1.46825,-3.99817 1.61663,-6.13622 0.65989,-6.43039 0.64823,-12.90838 0.62523,-19.36617 -0.10446,-4.724 -0.11988,-9.47336 -0.78699,-14.15925 -0.32374,-1.74048 -1.07147,-3.37126 -1.40935,-5.11319 -0.56671,-2.35709 -0.81266,-4.8537 -2.03648,-6.99269 -0.70027,-1.82298 -1.25817,-3.7042 -2.14799,-5.45209 -1.58944,-3.34364 -3.19967,-6.70212 -5.23585,-9.8009 -0.78359,-1.06554 -1.50319,-2.03226 -2.23125,-3.05768 -2.80112,-4.15806 -6.35235,-7.73977 -10.02148,-11.1289 -1.011,-0.99534 -2.21736,-1.72848 -3.41002,-2.47591 -1.82146,-1.4046 -3.77888,-2.67357 -5.9733,-3.41261 -1.11038,-0.3686 -2.1329,-0.94105 -3.06344,-1.63863 -2.53362,-1.33939 -5.464,-1.58518 -8.26722,-1.89663 -5.6793,-0.44593 -11.43367,-0.40643 -17.06345,0.52909 -1.8866,0.29886 -3.71327,0.89582 -5.40636,1.77661 -0.46784,0.29707 -0.97475,0.16993 -1.14052,-0.38815 -0.69805,-1.46885 -1.44204,-3.10468 -1.18055,-4.76699 0.4778,-1.63389 2.20699,-2.37301 3.57681,-3.13143 1.80137,-1.05819 3.87947,-1.47952 5.94984,-1.51935 1.81105,-0.0885 3.62466,-0.0678 5.43719,-0.0838 z m -197.30273,18.77539 c 1.63011,0.12717 3.12267,0.8843 4.73506,1.12771 2.58711,0.64809 5.47999,0.52555 7.71611,2.17697 1.48944,0.97846 3.09221,1.76667 4.73633,2.44141 1.19662,0.52764 1.53077,1.97475 1.18554,3.14062 -0.60476,2.36705 -2.24444,4.27043 -3.35785,6.40325 -2.96913,5.21964 -5.8656,10.49017 -9.13422,15.53147 -0.5772,0.7761 -1.07741,1.70718 -1.93175,2.20396 -1.3609,-0.16093 -2.68646,-0.64629 -4.07444,-0.6797 -4.92218,-0.40057 -9.784996,1.88939 -13.062977,5.49485 -4.625563,4.98361 -6.730642,11.86001 -6.954672,18.55668 -0.178182,4.86369 1.051888,9.68737 2.873335,14.16528 1.031415,2.41942 2.340659,4.82475 4.468757,6.45393 1.508402,1.39116 3.062116,2.81795 5.027424,3.52741 4.394043,1.68635 9.360673,1.68368 13.847173,0.35395 2.90671,-1.14598 5.02903,-3.61103 6.89663,-6.02002 1.92482,-2.65993 3.65478,-5.59581 4.25806,-8.8641 0.0834,-0.87056 0.77108,-1.85497 1.56094,-2.29883 6.11079,0.0478 12.22735,-0.12412 18.33359,0.16601 1.26117,0.12638 2.59914,0.13219 3.75586,0.70118 -0.10842,1.68443 -1.04109,3.18699 -1.27809,4.85573 -0.70274,3.04422 -0.80932,6.21459 -1.7473,9.20286 -1.14664,2.5335 -1.7815,5.27032 -3.06109,7.75019 -2.18777,4.5566 -4.90091,8.85155 -7.94477,12.88262 -0.28274,0.37087 -0.66052,0.85685 -0.99591,1.26931 -1.86561,2.2368 -3.75311,4.58873 -6.3023,6.07639 -1.21358,0.62634 -2.17593,1.61083 -3.23108,2.44532 -1.44323,0.8519 -3.15383,1.10059 -4.59314,1.97458 -1.29048,0.71274 -2.41952,1.82547 -3.96608,1.94847 -3.49034,0.44639 -7.024,0.27363 -10.53452,0.30939 -2.59671,-0.0704 -5.266098,0.11217 -7.786571,-0.62418 -2.10531,-0.80207 -3.83583,-2.43064 -6.070864,-2.93639 -0.76684,-0.26032 -1.192894,-1.03598 -1.889574,-1.42976 -1.768612,-1.22093 -3.567471,-2.41768 -5.081682,-3.95965 -4.325132,-4.25185 -8.00931,-9.14969 -11.029358,-14.40439 -1.252439,-2.19369 -2.300709,-4.51966 -2.83908,-6.99655 -0.539332,-1.67853 -1.376724,-3.24649 -1.796256,-4.96809 -0.992548,-3.37806 -1.865316,-6.79914 -2.697767,-10.2146 0.05912,-6.77241 -0.06593,-13.54898 0.182327,-20.31813 0.02499,-1.65521 0.38143,-3.2691 0.884866,-4.83856 1.010631,-3.74192 1.698141,-7.59391 3.273629,-11.15933 0.525986,-1.19749 0.635543,-2.52443 1.294792,-3.66823 1.897028,-3.81363 3.996202,-7.54294 6.432384,-11.03984 1.20372,-1.62823 2.70357,-3.2992 4.015719,-4.65326 2.451143,-2.44958 4.974053,-4.91696 7.991786,-6.66191 1.923119,-0.77409 3.659517,-1.91569 5.410528,-3.00511 1.609375,-0.77945 3.468229,-0.54742 5.173844,-0.97395 2.469237,-0.33941 4.770697,-1.60936 7.306657,-1.44496 z m 200.65234,0.0879 c 2.96384,0.1428 5.6732,1.57487 8.63079,1.77431 1.11268,0.0567 2.28973,0.0299 3.23483,0.72861 1.7728,1.1212 3.58467,2.19616 5.52871,2.99128 2.64227,1.61039 4.84932,3.8264 7.02169,6.0058 0.40665,0.42567 1.04774,1.08759 1.52519,1.62571 2.8589,3.10896 5.41724,6.51676 7.31092,10.30428 1.86373,3.63513 3.66821,7.33602 4.86506,11.25165 0.35629,1.75917 0.98647,3.6732 1.61328,5.46289 0.70219,3.51093 0.77103,7.11205 0.95915,10.67805 0.20256,5.97477 0.30608,12.11221 -0.13225,18.14642 -0.0685,1.00004 -0.24707,2.31446 -0.60378,3.40199 -1.4281,5.1582 -2.7079,10.40244 -5.05484,15.24158 -2.46503,5.7456 -6.39298,10.72999 -10.68771,15.2184 -2.57229,2.56634 -5.26877,5.14349 -8.55994,6.76169 -1.56521,0.54743 -3.0598,1.28674 -4.41538,2.24491 -2.5625,1.19422 -5.45203,1.3853 -8.23406,1.58868 -4.30879,0.17189 -8.70229,0.0403 -12.87861,-1.12547 -2.04692,-0.54665 -3.62926,-2.22937 -5.75391,-2.53516 -2.02779,-0.80082 -3.42174,-2.56213 -5.24805,-3.67187 -1.43174,-1.07049 -2.63896,-2.43448 -3.91617,-3.68777 -1.97235,-1.93136 -3.6912,-4.09346 -5.25948,-6.3609 -0.99493,-1.45714 -2.11003,-2.86114 -2.91809,-4.4279 -0.57961,-1.30863 -1.58042,-2.39202 -2.03321,-3.76953 -2.11667,-5.39947 -4.35426,-10.84162 -5.18164,-16.61914 -0.19738,-2.48808 -0.70489,-4.93247 -1.17304,-7.37791 -0.58553,-4.92176 -0.18559,-9.89872 0.30618,-14.8112 0.43685,-3.85963 1.0796,-7.84484 1.96452,-11.53745 1.60152,-6.77549 4.8758,-13.02984 8.62998,-18.84485 2.06207,-3.03829 4.20848,-6.11859 7.08814,-8.44371 0.36902,-0.17195 0.84084,-0.79336 1.2311,-0.52394 1.24871,1.32657 1.15158,3.27621 1.83663,4.87381 1.09544,2.913 2.22432,5.81559 3.17237,8.78242 1.20151,3.78794 2.76289,7.48654 3.48537,11.40876 0.3713,1.82179 0.0909,3.75254 -0.8992,5.33939 -1.36145,2.61287 -2.72459,5.22443 -4.07369,7.84367 0,6.20312 0,12.40625 0,18.60937 2.23812,4.24884 4.30808,8.82518 8.06836,11.97461 2.77033,2.32871 6.47484,3.08647 10.01053,3.09403 3.21441,0.0309 6.70953,-0.0116 9.4172,-1.99247 2.11118,-1.58443 3.90812,-3.57023 5.48243,-5.67968 1.48759,-2.1759 2.53375,-4.62448 3.47446,-7.07409 0.87439,-3.41155 0.94212,-6.96881 1.0293,-10.47183 -0.0307,-2.74187 0.0278,-5.54437 -0.69378,-8.211 -1.39704,-3.79831 -3.06744,-7.60073 -5.84956,-10.60679 -2.55957,-3.25365 -6.69801,-4.69351 -10.66797,-5.24821 -1.7775,-0.21694 -3.89585,-0.33945 -5.00586,-1.9746 -1.97255,-2.90664 -2.13861,-6.56132 -3.44326,-9.74968 -1.31922,-2.88959 -2.19189,-5.96252 -3.16821,-8.98042 -0.7494,-2.67317 -1.71625,-5.35173 -1.78841,-8.15213 -0.0811,-0.75004 0.48877,-1.31671 1.19141,-1.44727 1.85915,-0.48681 3.79575,-0.54544 5.64445,-1.10957 1.61868,-0.44248 3.19853,-1.09049 4.91805,-0.91777 z m -163.82812,0.95312 c 1.64252,0.37375 2.2351,2.15729 3.1923,3.33717 2.21538,2.589 3.73405,5.67639 5.31645,8.67144 2.17209,4.34541 4.2973,8.74933 5.75492,13.39373 0.44918,2.19398 1.16122,4.31765 1.8164,6.45508 1.03203,3.90433 1.07718,7.99355 2.18949,11.88126 0.37594,1.74706 0.80991,3.71534 -0.0118,5.39999 -0.52348,0.85106 -1.7663,1.11182 -2.65625,0.80469 -1.24336,-1.09136 -1.56321,-2.84096 -2.00391,-4.36133 -1.0209,-4.15312 -0.85959,-8.51487 -2.16176,-12.60931 -0.73281,-2.0423 -1.37285,-4.1216 -1.8773,-6.22467 -1.5234,-4.52244 -3.77222,-8.75996 -6.06198,-12.93259 -1.2955,-2.34137 -2.75017,-4.58912 -4.2725,-6.7865 -1.10237,-1.93772 -1.48375,-4.57803 -0.20953,-6.52386 0.22572,-0.30665 0.58057,-0.58517 0.98542,-0.5051 z m -9.35157,14.9961 c 1.33065,0.76661 2.08561,2.21372 2.93929,3.44053 3.0011,4.92976 5.25558,10.28986 7.06467,15.76099 0.93098,2.77313 1.51479,5.64468 1.88255,8.54317 0.27204,2.12035 0.86797,4.19135 1.06762,6.31819 0.10049,0.63401 -0.83238,0.51644 -1.22561,0.6754 -3.80179,0.47868 -7.64824,0.29122 -11.47109,0.33696 -2.88308,-0.0612 -5.80619,0.0786 -8.64914,-0.48122 -0.81937,-0.0981 -1.48858,-0.69662 -1.57932,-1.53491 -0.37984,-2.19557 -1.15171,-4.29341 -2.0673,-6.31828 -1.35987,-3.27108 -0.34846,-7.12318 1.92992,-9.7229 1.57883,-1.95671 2.59824,-4.26417 3.88516,-6.36514 1.91235,-3.38799 4.02905,-6.66342 5.76622,-10.14694 0.13268,-0.18004 0.25841,-0.39491 0.45703,-0.50585 z m 67.20508,15.10156 c 2.31206,0.2992 4.61175,0.8771 6.75391,1.80664 4.1874,1.90103 6.93031,5.86555 8.94688,9.8458 0.82252,1.69003 1.72108,3.37288 2.45351,5.08818 0,5.67761 0,11.35521 0,17.03282 -1.14382,2.86867 -2.39522,5.71005 -4.12987,8.27867 -1.3272,1.97449 -2.66786,4.00649 -4.48927,5.56312 -1.81942,0.3888 -3.04718,1.9966 -4.80972,2.54848 -2.30471,0.85964 -4.96777,1.3052 -7.33091,0.42162 -1.60836,-0.94515 -3.25585,-1.83207 -4.86378,-2.77852 -3.0505,-2.19244 -5.19001,-5.42319 -6.85103,-8.74127 -1.79386,-3.60446 -2.53916,-7.60769 -3.16882,-11.55093 -0.2955,-2.50401 -0.61974,-5.16135 0.2977,-7.57516 1.18433,-2.48501 1.34117,-5.32287 2.53969,-7.80875 1.79277,-4.03675 4.64245,-7.78761 8.57587,-9.92489 1.84774,-1.0126 4.08404,-1.12103 5.87662,-2.21363 l 0.0999,0.004 z m -95.22461,12.64062 c 1.73622,0.18981 3.10338,1.46002 4.36426,2.56427 4.79661,4.61509 5.85694,12.4777 2.78868,18.32216 -1.49591,2.92811 -4.536,5.21091 -7.90684,5.17412 -2.6821,-0.2998 -4.733477,-2.41061 -6.164635,-4.54725 -2.022879,-3.1236 -3.061529,-7.0804 -2.030598,-10.737 0.629018,-2.44347 1.354936,-4.92677 2.710854,-7.07513 1.702299,-1.14471 3.193789,-2.65569 5.095319,-3.47881 0.36058,-0.14807 0.75163,-0.23803 1.14296,-0.22236 z m 201.83203,0.17383 c 1.17188,0.12349 1.89568,1.19109 2.87557,1.73186 1.06402,0.70239 2.22062,1.36933 2.80844,2.5616 0.81963,1.43443 1.60107,2.92694 2.26326,4.42373 -0.0146,3.74511 0.25244,7.63091 -1.18415,11.18097 -1.03359,2.78489 -3.28171,5.45551 -6.38812,5.82645 -2.38794,0.26026 -4.82318,-0.69198 -6.63255,-2.2159 -2.06226,-2.17914 -2.7933,-5.2565 -3.13246,-8.15471 -0.33491,-3.68447 0.0167,-7.66383 2.10486,-10.82275 1.55944,-2.2119 3.85327,-4.18418 6.62129,-4.5335 0.2211,-0.0182 0.44292,-0.0178 0.66386,0.002 z" />
  </g>
</svg>
