<?xml version="1.0" encoding="UTF-8" standalone="no"?>
<svg
   id="svg"
   version="1.1"
   width="400"
   height="400"
   viewBox="0, 0, 400,400"
   sodipodi:docname="birding.svg"
   inkscape:version="1.4 (86a8ad7, 2024-10-11)"
   xmlns:inkscape="http://www.inkscape.org/namespaces/inkscape"
   xmlns:sodipodi="http://sodipodi.sourceforge.net/DTD/sodipodi-0.dtd"
   xmlns="http://www.w3.org/2000/svg"
   xmlns:svg="http://www.w3.org/2000/svg">
  <defs
     id="defs1" />
  <sodipodi:namedview
     id="namedview1"
     pagecolor="#ffffff"
     bordercolor="#000000"
     borderopacity="0.25"
     inkscape:showpageshadow="2"
     inkscape:pageopacity="0.0"
     inkscape:pagecheckerboard="0"
     inkscape:deskcolor="#d1d1d1"
     inkscape:zoom="1.615"
     inkscape:cx="199.6904"
     inkscape:cy="200"
     inkscape:window-width="1440"
     inkscape:window-height="890"
     inkscape:window-x="-6"
     inkscape:window-y="-6"
     inkscape:window-maximized="1"
     inkscape:current-layer="svgg" />
  <g
     id="svgg">
    <path
       id="path1"
       d="M34.400 20.371 C 28.907 20.888,24.312 24.209,21.692 29.555 L 20.200 32.600 20.091 192.800 C 19.979 357.503,20.003 360.260,21.567 362.249 C 22.025 362.831,22.400 363.612,22.400 363.984 C 22.400 365.154,26.631 369.005,29.495 370.443 L 32.200 371.800 190.008 371.800 L 347.817 371.800 350.520 370.469 C 353.960 368.776,356.776 365.960,358.469 362.520 L 359.800 359.817 359.800 196.008 L 359.800 32.200 358.443 29.495 C 357.005 26.631,353.154 22.400,351.984 22.400 C 351.612 22.400,350.832 22.026,350.251 21.569 C 349.463 20.949,348.253 20.646,345.497 20.379 C 341.399 19.983,38.610 19.974,34.400 20.371 M135.108 50.448 C 144.746 53.093,146.422 55.145,147.209 65.264 C 147.677 71.290,147.212 79.627,146.310 81.352 C 145.638 82.635,141.893 86.381,141.025 86.637 C 140.019 86.933,137.438 88.643,135.949 90.000 C 131.702 93.869,133.900 104.932,139.091 105.818 C 142.010 106.316,143.649 106.849,144.334 107.521 C 144.715 107.894,146.027 108.949,147.250 109.866 C 148.474 110.782,149.664 112.042,149.896 112.666 C 151.483 116.939,151.945 119.277,152.095 123.800 C 152.309 130.261,153.435 132.311,157.235 133.163 C 159.969 133.776,222.811 133.760,224.158 133.146 C 225.617 132.482,226.318 130.124,226.527 125.180 C 226.674 121.717,226.884 120.604,227.698 118.980 C 228.243 117.891,228.991 116.100,229.359 115.000 C 230.913 110.360,234.537 107.041,238.978 106.192 C 244.521 105.131,245.835 103.663,246.268 98.051 C 246.744 91.874,244.859 88.868,239.213 86.805 C 233.759 84.811,232.567 81.066,232.882 66.903 C 233.151 54.813,234.400 53.080,244.600 50.642 L 249.000 49.590 271.310 49.595 C 292.199 49.600,293.758 49.648,295.783 50.360 C 296.973 50.778,298.724 51.248,299.673 51.403 C 302.779 51.910,304.275 53.243,307.677 58.533 C 310.405 62.777,310.496 76.506,307.820 80.200 C 307.342 80.860,306.729 81.940,306.457 82.600 C 305.619 84.634,304.601 85.529,301.533 86.927 C 296.454 89.242,295.808 90.588,296.084 98.289 C 296.322 104.896,297.143 105.995,301.846 106.002 C 304.522 106.006,306.473 106.810,308.974 108.940 C 314.354 113.523,316.190 119.890,316.603 135.400 C 316.744 140.680,317.035 145.803,317.250 146.783 C 317.465 147.764,317.813 149.924,318.022 151.583 C 318.232 153.243,318.660 155.410,318.972 156.400 C 319.347 157.587,319.689 161.947,319.978 169.200 C 320.390 179.570,320.755 182.799,322.213 189.000 C 322.535 190.371,322.956 195.771,323.195 201.600 C 323.601 211.493,323.977 214.827,325.588 222.800 C 326.148 225.569,326.424 229.149,326.605 236.000 C 326.746 241.309,327.108 246.793,327.435 248.600 C 327.755 250.360,328.122 252.700,328.252 253.800 C 328.382 254.900,328.815 256.970,329.214 258.400 C 329.782 260.437,329.995 263.166,330.196 271.000 C 330.338 276.500,330.631 281.900,330.848 283.000 C 331.065 284.100,331.392 286.080,331.575 287.400 C 331.758 288.720,332.126 290.340,332.393 291.000 C 332.659 291.660,332.972 294.090,333.088 296.400 C 333.409 302.830,334.405 304.116,340.535 306.009 C 343.076 306.794,344.641 308.144,348.235 312.651 C 350.652 315.682,350.600 315.384,350.600 326.200 L 350.600 336.200 349.516 338.044 C 347.789 340.981,345.241 344.001,344.075 344.493 C 343.484 344.743,342.104 345.679,341.010 346.573 L 339.019 348.200 282.805 348.200 L 226.592 348.200 223.284 346.078 C 218.555 343.045,217.061 341.327,213.647 335.000 C 212.562 332.987,212.495 319.483,213.561 317.600 C 213.998 316.830,214.916 315.033,215.603 313.606 C 217.099 310.496,220.389 307.359,223.308 306.258 C 226.835 304.928,226.600 307.843,226.600 265.400 C 226.600 225.953,226.610 226.169,224.771 225.185 C 224.327 224.947,210.855 224.800,189.501 224.800 L 154.950 224.800 153.826 225.973 C 152.069 227.807,152.036 228.533,152.022 265.000 C 152.007 305.722,151.838 304.111,156.329 306.050 C 159.194 307.287,162.704 310.663,163.968 313.400 C 165.076 315.797,165.881 316.495,168.093 316.975 C 170.040 317.397,170.400 318.807,170.400 326.000 C 170.400 333.269,170.009 334.800,168.151 334.800 C 166.554 334.800,164.999 336.157,164.433 338.046 C 163.942 339.686,159.842 344.799,159.017 344.800 C 158.807 344.800,157.547 345.565,156.217 346.500 L 153.800 348.200 97.563 348.200 L 41.326 348.200 39.563 346.757 C 38.593 345.964,37.057 344.936,36.149 344.474 C 34.106 343.434,30.554 339.260,30.022 337.275 C 27.519 327.933,27.577 322.307,30.256 314.553 C 31.236 311.720,36.338 307.014,39.565 305.968 C 45.626 304.004,46.524 302.773,46.820 296.019 C 46.942 293.258,47.361 289.380,47.752 287.400 C 48.142 285.420,48.714 282.540,49.022 281.000 C 49.330 279.460,49.781 273.340,50.023 267.400 C 50.377 258.763,50.619 256.114,51.233 254.172 C 51.655 252.836,52.000 251.306,52.000 250.772 C 52.001 250.237,52.278 248.473,52.616 246.851 C 53.010 244.960,53.348 240.067,53.556 233.209 C 53.735 227.327,53.997 222.329,54.138 222.101 C 55.014 220.683,56.388 209.346,56.816 200.000 C 57.077 194.319,57.543 188.648,57.869 187.200 C 58.192 185.770,58.623 183.250,58.828 181.600 C 59.033 179.950,59.372 177.430,59.582 176.000 C 59.791 174.570,60.084 169.170,60.233 164.000 C 60.422 157.471,60.679 154.111,61.076 153.000 C 61.391 152.120,61.812 150.230,62.013 148.800 C 62.213 147.370,62.559 145.390,62.782 144.400 C 63.005 143.410,63.293 138.280,63.423 133.000 C 63.691 122.144,63.936 120.345,65.609 116.985 C 66.262 115.673,66.798 114.381,66.798 114.114 C 66.802 112.896,68.314 110.831,70.574 108.960 C 73.105 106.862,74.502 106.341,79.092 105.782 C 83.277 105.272,84.141 103.535,83.936 96.046 L 83.800 91.107 82.000 89.507 C 81.010 88.628,79.105 87.390,77.766 86.756 C 75.571 85.718,75.108 85.267,73.066 82.178 L 70.800 78.752 70.800 69.654 L 70.800 60.555 72.751 57.578 C 75.545 53.313,76.476 52.579,81.031 51.051 L 85.000 49.720 108.508 49.660 C 131.323 49.602,132.108 49.625,135.108 50.448 M84.200 57.469 C 79.377 58.571,79.000 59.435,79.000 69.400 C 79.000 79.003,79.198 79.540,83.400 81.377 L 86.200 82.600 109.550 82.455 L 132.900 82.310 134.990 81.353 C 138.859 79.582,139.773 77.269,139.789 69.200 C 139.802 62.926,138.673 59.413,136.214 58.067 C 135.046 57.428,86.810 56.874,84.200 57.469 M244.854 57.620 C 242.958 58.004,242.734 58.220,240.498 61.800 L 239.000 64.200 238.877 69.400 L 238.755 74.600 240.328 77.000 C 242.336 80.063,242.946 80.591,245.832 81.762 L 248.200 82.723 271.200 82.652 L 294.200 82.581 297.000 81.191 C 300.901 79.253,300.974 79.054,301.116 70.000 C 301.253 61.308,300.801 59.701,297.800 58.200 C 296.046 57.323,248.864 56.806,244.854 57.620 M94.736 90.491 C 92.782 90.818,91.233 92.338,91.160 94.000 C 90.906 99.757,92.145 104.191,94.281 105.164 C 95.831 105.870,122.539 105.757,123.920 105.038 C 128.255 102.782,129.323 91.706,125.314 90.581 C 123.893 90.183,97.047 90.103,94.736 90.491 M256.044 90.465 C 253.040 90.999,252.800 91.457,252.800 96.634 L 252.800 101.144 254.756 103.272 L 256.712 105.400 270.894 105.514 C 288.472 105.656,287.537 106.124,287.583 97.150 C 287.606 92.437,287.327 91.286,285.990 90.595 C 284.765 89.961,259.488 89.852,256.044 90.465 M79.209 112.438 C 77.784 112.718,76.934 113.274,75.045 115.163 L 72.671 117.537 72.360 122.869 C 72.189 125.801,71.771 129.190,71.430 130.400 C 71.089 131.610,70.807 133.321,70.805 134.203 C 70.802 135.084,70.605 136.434,70.366 137.203 C 69.644 139.529,68.834 149.413,68.816 156.113 C 68.805 160.575,68.636 162.817,68.242 163.761 C 67.021 166.684,65.600 179.826,65.600 188.201 C 65.600 191.060,65.301 194.370,64.798 197.080 C 64.357 199.456,63.726 202.840,63.395 204.600 C 63.063 206.370,62.619 212.448,62.401 218.200 C 62.155 224.691,61.785 229.502,61.418 231.000 C 61.094 232.320,60.818 234.120,60.805 235.000 C 60.792 235.880,60.411 237.950,59.959 239.600 C 59.265 242.134,59.107 244.153,58.946 252.600 C 58.791 260.688,58.614 263.097,58.017 265.200 C 56.717 269.784,55.946 276.642,55.594 286.747 C 55.406 292.166,55.080 297.159,54.870 297.842 C 54.294 299.721,54.738 301.174,56.154 302.037 C 58.016 303.172,140.934 303.232,143.200 302.099 C 145.179 301.111,145.101 302.574,145.150 265.800 C 145.207 223.328,145.442 225.489,140.682 224.843 C 138.078 224.490,136.577 223.557,135.400 221.558 C 134.363 219.797,134.118 138.622,135.144 136.705 C 135.710 135.647,135.859 135.555,139.800 133.835 C 144.819 131.644,145.004 131.340,144.988 125.271 C 144.967 117.649,142.424 113.137,137.709 112.362 C 135.093 111.931,81.439 112.002,79.209 112.438 M242.074 112.380 C 240.671 112.608,239.891 113.117,237.913 115.095 L 235.479 117.529 235.125 121.864 C 234.458 130.032,235.204 131.827,240.251 134.200 C 242.123 135.080,243.957 136.134,244.327 136.542 C 245.018 137.304,245.641 214.982,244.993 219.510 C 244.672 221.752,242.246 224.266,240.083 224.598 C 234.646 225.433,235.081 221.980,235.062 264.456 L 235.046 300.427 236.132 301.514 L 237.218 302.600 279.618 302.705 C 326.066 302.821,324.054 302.918,324.656 300.519 C 325.026 299.045,324.487 281.987,323.970 278.800 C 323.737 277.370,323.388 274.850,323.193 273.200 C 322.998 271.550,322.560 269.216,322.219 268.013 C 321.879 266.810,321.600 264.334,321.600 262.511 C 321.600 260.688,321.405 256.003,321.168 252.098 C 320.778 245.708,320.352 242.629,318.580 233.400 C 318.284 231.860,318.031 228.890,318.017 226.800 C 317.951 216.493,317.052 207.746,315.378 201.106 C 315.060 199.844,314.800 197.234,314.801 195.306 C 314.803 189.302,313.966 177.120,313.369 174.475 C 313.056 173.087,312.800 171.264,312.800 170.425 C 312.800 169.587,312.513 168.113,312.163 167.150 C 311.686 165.841,311.430 162.728,311.147 154.800 C 310.880 147.333,310.530 142.900,309.963 139.800 C 309.520 137.380,308.898 133.960,308.580 132.200 C 308.261 130.440,307.997 127.560,307.993 125.800 C 307.970 117.440,305.747 113.445,300.567 112.462 C 297.873 111.950,245.175 111.877,242.074 112.380 M144.794 141.168 C 144.021 141.319,142.806 141.787,142.094 142.208 L 140.800 142.972 140.800 178.593 L 140.800 214.214 141.811 215.703 C 143.778 218.597,140.294 218.401,189.480 218.394 C 239.100 218.388,235.102 218.657,237.000 215.191 L 238.200 213.000 238.200 178.118 C 238.200 138.921,238.506 142.814,235.313 141.379 C 233.936 140.760,147.898 140.559,144.794 141.168 M47.050 310.641 C 46.363 310.897,44.740 311.486,43.444 311.951 C 37.904 313.937,35.009 319.415,35.262 327.432 L 35.401 331.864 37.101 334.394 C 38.035 335.786,38.800 337.068,38.800 337.243 C 38.800 337.418,39.655 338.143,40.700 338.854 C 41.745 339.565,42.696 340.287,42.814 340.458 C 43.876 342.000,43.868 342.000,97.519 342.000 L 149.065 342.000 152.713 339.572 C 155.211 337.910,156.747 336.563,157.581 335.303 L 158.800 333.463 158.800 326.357 C 158.800 318.336,158.715 317.975,156.124 314.973 C 154.192 312.736,152.372 311.778,148.074 310.738 C 145.361 310.082,48.807 309.989,47.050 310.641 M233.800 310.267 C 231.418 310.804,226.913 312.199,226.346 312.576 C 220.022 316.778,218.327 328.043,222.770 336.344 C 223.169 337.089,227.097 339.998,229.728 341.497 C 230.412 341.886,241.701 341.972,282.200 341.897 L 333.800 341.800 337.200 339.868 C 348.182 333.630,347.328 316.354,335.800 311.540 L 332.600 310.203 283.600 310.145 C 256.650 310.113,234.240 310.168,233.800 310.267 "
       stroke="none"
       fill="#dadada"
       fill-rule="evenodd"
       style="fill:#ffffff;fill-opacity:1" />
    <path
       id="path0"
       d="M 71.132812,7.3066406 C 54.724203,7.3433623 38.314795,7.3110177 21.906825,7.451595 21.31031,7.5729609 20.461696,7.201976 20.155684,7.8920988 19.813577,8.3018625 19.49983,8.744835 19.371094,9.2714844 c -0.999841,0.1523322 -1.841116,0.9442206 -2.06836,1.9277346 -1.343395,-0.03571 -3.03046,0.0019 -3.75139,1.357524 -0.183926,0.494394 -0.321546,0.866337 -0.905533,0.938084 -1.324327,0.64695 -1.50499,2.254315 -1.44545,3.563745 0.04839,0.49886 -0.775289,0.354582 -1.017019,0.75021 -0.4986244,0.375197 -0.8124694,0.977819 -0.917717,1.589656 -0.6216868,0.0896 -1.243499,0.178319 -1.8652344,0.267578 0,117.555994 0,235.111974 0,352.667964 0.6183048,0.0974 1.2656037,0.16456 1.8671875,0.2793 0.149139,1.00787 0.9416439,1.85077 1.9316409,2.08203 -0.03563,1.34396 0.0012,3.03199 1.357524,3.75335 0.494394,0.18392 0.866337,0.32154 0.938084,0.90553 0.64695,1.32433 2.254315,1.50499 3.563745,1.44545 0.49886,-0.0484 0.354582,0.77529 0.75021,1.01702 0.375197,0.49862 0.977819,0.81247 1.589656,0.91772 0.0896,0.62168 0.178319,1.24349 0.267578,1.86523 113.555994,0 227.111974,0 340.667964,0 0.0974,-0.61831 0.16456,-1.2656 0.2793,-1.86719 1.00787,-0.14914 1.85077,-0.94164 2.08203,-1.93164 1.34396,0.0356 3.03199,-0.001 3.75335,-1.35752 0.18392,-0.4944 0.32154,-0.86634 0.90553,-0.93809 1.32433,-0.64695 1.50499,-2.25431 1.44545,-3.56374 -0.0484,-0.49886 0.77529,-0.35458 1.01702,-0.75021 0.49862,-0.3752 0.81247,-0.97782 0.91772,-1.58966 0.62168,-0.0896 1.24349,-0.17832 1.86523,-0.26758 0,-117.55599 0,-235.11197 0,-352.667964 -0.61831,-0.09734 -1.2656,-0.16456 -1.86719,-0.279297 -0.14914,-1.00787 -0.94164,-1.850767 -1.93164,-2.082031 0.0356,-1.343955 -0.001,-3.031983 -1.35752,-3.753344 -0.4944,-0.183926 -0.86634,-0.321546 -0.93809,-0.905533 -0.64695,-1.324327 -2.25431,-1.50499 -3.56374,-1.44545 -0.49886,0.04839 -0.35458,-0.775289 -0.75021,-1.017019 -0.3752,-0.4986244 -0.97782,-0.8124694 -1.58966,-0.917717 -0.0896,-0.6210426 -0.17833,-1.2421958 -0.26758,-1.8632812 C 275.80469,7.3611827 191.2754,7.2730887 106.7461,7.2897746 94.875001,7.2953966 83.003907,7.3010186 71.132812,7.3066406 Z M 246.37109,22.097656 c 31.96404,0.05507 63.92859,0.01606 95.89212,0.222094 2.22188,0.04939 4.54499,-0.07401 6.64695,0.752516 0.83111,0.664261 1.8206,1.124811 2.83593,1.378906 1.97864,1.598504 3.60565,3.635808 4.85844,5.843931 0.3812,0.860745 0.9701,1.67744 1.19625,2.576772 0,108.825265 0,217.650525 0,326.475785 -1.10434,2.34741 -2.27699,4.73622 -4.20882,6.52708 -1.74525,1.78659 -4.0216,2.86692 -6.2443,3.92604 -104.89193,0 -209.78386,0 -314.675785,0 -2.04095,-0.96216 -4.050271,-2.03248 -5.742139,-3.54792 -0.92243,-0.80551 -1.877645,-1.62335 -2.558642,-2.64739 -0.134402,-1.07299 -0.825721,-1.95149 -1.351086,-2.84771 -0.501718,-2.44567 -0.448603,-4.96643 -0.578602,-7.45112 -0.311665,-12.50814 -0.297289,-25.17491 -0.351139,-37.74492 -0.08375,-50.11961 3.49e-4,-100.23933 0.02009,-150.35898 0.02962,-44.04544 0.05924,-88.090889 0.08886,-132.136334 0.611528,-1.216874 1.141183,-2.399193 1.763672,-3.533203 2.043391,-3.750104 5.819174,-6.608942 10.110921,-7.110566 3.523651,-0.202091 7.062656,-0.0992 10.592488,-0.157895 33.679468,-0.149909 67.35943,-0.143349 101.03917,-0.174345 33.55522,-0.01742 67.11041,-0.0075 100.66562,0.0073 z m 2.16407,25.546875 c -3.98324,1.036747 -8.17085,1.639911 -11.82253,3.642849 -2.42385,1.339908 -4.27999,3.669061 -5.1013,6.304417 -0.64799,3.755982 -0.68222,7.586035 -0.7988,11.3869 -0.0172,3.421845 -0.13955,6.872861 0.36199,10.26732 0.69596,4.173803 3.48802,8.137861 7.58729,9.529276 2.18528,0.79575 4.52404,2.125807 5.19131,4.523535 0.64936,2.373919 0.38681,4.898573 -0.0499,7.285972 -0.1953,1.26706 -1.01828,2.4252 -2.26654,2.82536 -2.10103,0.82017 -4.44211,0.86405 -6.45199,1.95279 -3.87082,1.82852 -6.66258,5.47602 -7.91018,9.52163 -0.77896,2.33464 -2.28607,4.42306 -2.50307,6.92987 -0.40033,2.98861 -0.0572,6.1124 -1.09765,8.99024 -0.16311,0.7254 -1.15798,0.37971 -1.58822,0.50359 -8.2363,0.25308 -16.67118,0.26089 -24.98793,0.29052 -12.23758,0.0121 -24.47789,0.0462 -36.71256,-0.25441 -1.70404,-0.0873 -3.7442,0.10611 -5.01128,-1.27727 -1.11093,-1.60362 -1.08938,-3.67129 -1.24445,-5.54456 -0.0815,-3.55809 -0.43694,-7.14833 -1.64655,-10.51881 -0.45497,-1.38863 -0.87309,-2.85747 -1.98012,-3.8877 -1.57126,-1.69175 -3.57583,-2.89147 -5.2742,-4.44222 -1.8604,-1.26454 -4.17643,-1.4215 -6.28907,-1.98047 -1.82018,-0.99203 -2.56722,-3.14263 -2.99609,-5.052735 -0.41233,-2.314331 -0.41976,-5.002155 1.12109,-6.923828 1.52929,-1.434711 3.29074,-2.658047 5.22266,-3.476563 1.9633,-1.347476 3.60465,-3.125255 5.12026,-4.949278 1.45878,-1.751435 1.44211,-4.16359 1.69006,-6.312945 0.36748,-5.344342 0.35307,-10.729456 -0.20164,-16.060184 -0.20554,-1.937733 -0.53528,-3.974333 -1.83811,-5.511258 -1.64561,-2.096789 -3.62024,-4.043808 -6.03482,-5.226121 -3.0466,-1.169206 -6.21087,-2.135809 -9.49165,-2.295686 -6.40093,-0.377102 -12.81833,-0.203155 -19.2269,-0.233442 -9.21082,0.02113 -18.421621,0.0481 -27.632435,0.06938 -2.873771,1.049839 -5.909857,1.74376 -8.59375,3.251953 -3.012948,1.797205 -4.599838,5.06506 -6.533076,7.851493 -0.386665,0.60252 -0.923766,1.158981 -0.744268,1.930538 0,6.19961 0,12.399219 0,18.598829 1.626593,2.343313 3.024435,4.860288 4.884766,7.03125 1.564464,1.746503 3.95937,2.284852 5.777344,3.693359 0.853591,0.566025 1.596714,1.27291 2.361328,1.949219 0.01397,3.22675 0.402203,6.491162 -0.151916,9.691516 -0.11259,0.90429 -0.713234,1.7476 -1.666444,1.86903 -2.85904,0.51807 -5.919241,0.62243 -8.458749,2.20423 -2.352265,1.50973 -4.54221,3.42043 -5.987318,5.83902 -0.49321,0.75063 -0.640823,1.64145 -0.854091,2.48514 -0.913409,2.1876 -2.163383,4.2735 -2.512144,6.65772 -0.678243,4.01759 -0.611349,8.1116 -0.769729,12.17131 -0.138606,3.6364 -0.175224,7.372 -0.599816,11.02201 -0.659401,2.98605 -0.841014,6.07416 -1.810735,8.98873 -0.638979,3.51793 -0.610858,7.11545 -0.76933,10.67767 -0.173482,4.24615 -0.228602,8.50881 -0.731271,12.73199 -0.516607,3.70157 -0.924911,7.42218 -1.717972,11.07877 -0.793027,5.90251 -0.859008,11.86899 -1.30447,17.80161 -0.30071,3.84976 -0.687803,7.84571 -1.258651,11.72423 -0.253238,1.65474 -0.503001,3.33112 -1.095704,4.8962 -0.499916,5.26686 -0.48835,10.56847 -0.750589,15.85072 -0.178937,3.55131 -0.319763,7.12532 -1.079803,10.61057 -0.300376,1.65958 -0.313996,3.36719 -0.901152,4.96883 -1.038766,3.45126 -0.993503,7.09879 -1.231529,10.66404 -0.229425,5.14426 -0.41501,10.21063 -0.936657,15.31177 -0.518126,3.91071 -1.650563,7.72329 -2.007684,11.66063 -0.403006,2.89782 -0.301944,5.84315 -0.76233,8.73187 -0.156739,1.35202 -0.96754,2.60531 -2.251555,3.13037 -1.98804,1.01711 -4.276546,1.35835 -6.113887,2.68652 -2.813821,1.87588 -5.403105,4.2329 -7.149056,7.15497 -0.944707,1.79833 -1.377764,3.81604 -1.902532,5.7656 -1.252436,5.06369 -1.022079,10.38427 0.09655,15.44883 0.534459,2.19706 0.81028,4.55433 2.165957,6.43881 1.730303,2.50616 3.810952,4.92064 6.5645,6.32471 1.706029,1.01927 3.199142,2.33715 4.737166,3.58446 37.940104,0 75.880209,0 113.820309,0 1.74241,-1.1573 3.37234,-2.53365 5.23243,-3.48438 1.64229,-0.67127 2.69017,-2.21985 3.8158,-3.51799 1.2595,-1.59225 2.47558,-3.26738 3.13146,-5.20662 0.39135,-0.8071 1.22804,-1.32117 2.12695,-1.2207 1.72497,-0.15264 2.93016,-1.7041 3.20851,-3.32238 0.60481,-3.14625 0.40874,-6.37611 0.43481,-9.56271 -0.0929,-2.27676 0.0371,-4.69708 -0.99097,-6.7946 -0.65576,-1.34637 -2.10398,-1.98401 -3.50586,-2.23046 -1.55313,-0.33029 -1.86426,-2.09392 -2.60648,-3.24728 -1.8296,-2.97551 -4.47503,-5.47144 -7.55758,-7.11601 -0.84554,-0.48727 -1.77237,-0.57851 -2.45704,-1.28416 -0.69646,-1.31532 -0.70721,-2.86234 -0.8789,-4.31154 -0.029,-0.38236 -0.0801,-1.05723 -0.0991,-1.52467 -0.20595,-4.02931 -0.22421,-8.26624 -0.25082,-12.38269 -0.0221,-15.07297 -0.0462,-30.14648 0.0607,-45.21916 0.0944,-3.68857 -9e-4,-7.40367 0.52925,-11.06339 0.0478,-0.81116 0.6323,-1.37858 1.17599,-1.9097 20.05201,0.0268 40.10477,-0.0745 60.15616,0.11557 2.6729,0.0401 5.34717,0.0617 8.01767,0.18717 0.52393,2.66718 0.41202,5.41203 0.52051,8.11744 0.1726,14.32564 0.0735,28.65303 0.10614,42.97943 -0.0224,6.9821 0.0474,13.96713 -0.20087,20.94609 -0.0219,0.45033 -0.085,1.50136 -0.11523,1.91211 -0.12172,0.97846 -0.11457,2.04921 -0.54492,2.93555 -3.92125,1.17465 -7.12491,4.11052 -9.27516,7.52378 -1.01964,1.82055 -1.88621,3.72544 -2.86742,5.56606 -0.75937,2.49018 -0.70033,5.13849 -0.79688,7.7168 0.0122,3.34723 -0.0132,6.73811 0.67546,10.02801 0.4488,1.56763 1.45421,2.90361 2.21712,4.32941 1.65761,2.88522 3.85839,5.48096 6.63425,7.34489 1.85194,1.29208 3.78377,2.46487 5.6763,3.69613 37.90885,0 75.81771,0 113.72656,0 1.88015,-1.51624 3.6874,-3.17004 5.85196,-4.275 2.13504,-1.61211 3.70424,-3.84982 5.15957,-6.06498 0.63022,-1.0599 1.34143,-2.11563 1.85566,-3.21705 -0.034,-6.0258 0.0765,-12.05412 -0.0755,-18.07821 -0.0454,-2.17352 -0.46863,-4.44319 -1.92253,-6.1421 -2.21341,-2.69685 -4.28752,-5.7035 -7.38672,-7.45899 -2.20687,-1.21921 -5.00063,-1.3273 -6.87695,-3.13281 -1.13086,-1.44887 -1.0637,-3.41448 -1.23078,-5.15777 -0.1468,-2.44485 -0.29114,-4.9309 -1.10179,-7.26124 -0.54335,-2.26717 -0.72943,-4.53667 -1.20068,-6.84997 -0.12908,-0.95707 -0.16294,-1.66971 -0.23236,-2.63359 -0.40566,-6.04164 -0.32147,-12.046 -0.78437,-18.08359 -0.15364,-3.03534 -1.34038,-5.88581 -1.63254,-8.90159 -0.40645,-2.96279 -1.05557,-5.89492 -1.1682,-8.8929 -0.55095,-6.837 -0.2219,-13.72731 -1.23522,-20.52795 -0.96492,-4.90976 -1.90584,-9.84104 -2.18094,-14.84764 -0.46927,-6.53938 -0.43187,-13.1232 -1.31745,-19.62731 -0.61981,-2.81885 -1.28336,-5.82942 -1.5602,-8.5895 -0.83596,-7.70126 -0.59313,-15.4811 -1.51578,-23.17355 -0.27357,-1.69377 -0.83714,-3.33013 -1.03747,-5.04125 -0.27747,-2.19114 -0.66487,-4.36668 -1.01719,-6.54469 -0.63931,-7.25684 -0.34181,-14.58096 -1.41313,-21.80264 -0.6081,-4.07344 -1.33483,-8.2339 -3.22887,-11.93404 -1.53222,-2.75685 -4.07982,-4.84249 -6.81949,-6.33228 -2.0703,-1.13102 -4.41792,-1.72476 -6.77901,-1.65469 -0.85156,-0.0442 -2.07325,-0.0857 -2.26921,-1.13917 -0.61788,-2.43187 -0.52548,-4.977352 -0.57687,-7.468661 0.071,-1.721081 -0.0371,-3.821611 1.45585,-5.008637 2.35943,-1.752938 5.53757,-2.310545 7.45794,-4.673025 1.15852,-1.357572 1.54968,-3.170952 2.65838,-4.567249 1.57452,-2.619936 1.86487,-5.763788 2.09548,-8.749148 0.19209,-4.253857 0.001,-8.610159 -1.30763,-12.691376 -0.73181,-2.168579 -2.20564,-3.973618 -3.51997,-5.812369 -1.52147,-2.06621 -3.62605,-3.843395 -6.21428,-4.311521 -1.72281,-0.254714 -3.51804,-0.868637 -5.22656,-1.382812 -2.93001,-0.596734 -5.94565,-0.43794 -8.91871,-0.528028 -12.58414,-0.08561 -25.16881,-0.03159 -37.75317,-0.05205 -0.0762,0.01823 -0.15234,0.03646 -0.22851,0.05469 z M 97.183594,59.214844 c 10.243186,0.02485 20.486696,0.138895 30.726566,0.40625 2.47681,0.08651 5.05946,0.122253 7.56836,0.34375 1.53051,1.20617 1.82393,3.309929 2.09528,5.121484 0.32906,3.26243 0.29332,6.572649 -0.10114,9.827734 -0.204,1.634907 -0.85409,3.405127 -2.43912,4.162381 -0.85985,0.466135 -1.76389,0.909963 -2.67455,1.236679 -15.24987,0.09488 -30.49974,0.189721 -45.749615,0.284534 -1.556896,-0.765708 -3.295429,-1.237842 -4.683594,-2.302734 -0.838625,-1.012987 -0.712663,-2.451061 -0.848333,-3.686463 -0.09103,-3.788393 -0.164307,-7.588588 0.08912,-11.371917 0.156613,-1.101997 0.116136,-2.634649 1.306091,-3.16623 1.505355,-0.694874 3.170192,-0.762076 4.799203,-0.775237 3.303439,-0.0721 6.607645,-0.07848 9.911735,-0.08023 z m 165.722656,0 c 8.77728,0.02645 17.65911,0.138831 26.36719,0.408203 1.96307,0.06909 3.94638,0.157822 5.76758,0.261719 1.04398,0.09835 2.22889,-0.0162 3.0039,0.83789 0.98976,1.104016 0.88918,2.726401 1.03711,4.113282 0.11861,3.107761 0.0162,6.218715 -0.0625,9.326171 -0.034,0.568278 -0.068,1.467459 -0.16625,2.15679 -0.0696,0.913637 -0.35374,1.933696 -1.28903,2.312318 -1.28267,0.697418 -2.60496,1.385489 -3.93573,1.951126 -15.01354,0.04726 -30.02708,0.09336 -45.04063,0.13836 -1.85696,-0.862614 -4.12418,-1.279659 -5.36914,-3.0625 -0.8702,-1.174413 -1.64232,-2.416925 -2.44922,-3.634765 0.0722,-3.076825 0.14447,-6.153648 0.2168,-9.230469 1.09068,-1.626731 1.9672,-3.422799 3.26862,-4.893976 1.30296,-0.587939 2.8107,-0.407401 4.20865,-0.529485 4.81256,-0.149536 9.62818,-0.156086 14.44265,-0.154664 z m 6.35742,32.84375 c 5.21959,0.03266 10.44997,-0.01544 15.65764,0.377412 0.57541,-0.08994 0.4251,0.728523 0.54213,1.077523 0.19068,2.59648 0.14001,5.210437 0.0561,7.810861 -0.0362,0.70493 -0.12939,1.67571 -1.00453,1.78852 -2.63416,0.61324 -5.37254,0.39858 -8.05676,0.44789 -6.28682,-0.0549 -12.5737,-0.10222 -18.86055,-0.1526 -0.93195,-1.01463 -1.86427,-2.02893 -2.79688,-3.04297 0.0614,-2.439827 -0.14575,-4.901693 0.17833,-7.326107 0.11209,-0.581895 0.95298,-0.426996 1.3998,-0.601623 4.27724,-0.405069 8.59204,-0.327896 12.88476,-0.378906 z m -158.90429,0.183594 c 4.59038,0.03739 9.23186,0.02816 13.75502,0.232061 0.42777,-0.0055 0.93541,-0.01877 1.09575,0.487355 0.92589,1.988747 0.65357,4.314612 0.15305,6.384563 -0.42277,1.418773 -0.98342,3.016863 -2.28703,3.841333 -4.76058,0.43421 -9.55118,0.39041 -14.32773,0.44787 -3.67704,0.009 -7.40504,-0.0154 -11.006011,-0.1494 -0.921411,-0.0782 -1.889373,-0.0265 -2.779538,-0.24183 -1.175014,-1.29797 -1.418134,-3.15346 -1.666511,-4.823491 -0.158185,-1.534464 -0.264714,-3.106052 -0.06982,-4.635493 0.531678,-1.239589 2.027136,-1.438948 3.217372,-1.405446 4.636326,-0.155346 9.277066,-0.131256 13.915446,-0.137522 z M 271.4668,114.04102 c 9.36676,0.0559 18.73809,-0.003 28.09996,0.33931 2.22466,0.0687 4.37325,1.44872 5.19283,3.54977 1.62299,3.71559 0.98764,7.84967 1.46867,11.76851 0.57198,5.217 2.04388,10.30422 2.39569,15.55144 0.60194,6.70966 0.44328,13.46795 1.15352,20.16793 0.13389,1.88363 1.12086,3.60497 1.04089,5.51757 0.17694,2.51831 0.91469,4.95631 1.05717,7.48043 0.36998,3.84993 0.60879,7.71114 0.78853,11.57425 0.0406,1.198 0.10212,2.6491 0.1229,3.94546 -0.0242,3.09202 0.1859,6.20786 1.01469,9.19934 0.8233,3.71016 1.32128,7.48487 1.66515,11.26731 0.0893,1.08725 0.20069,2.52343 0.26684,3.6218 0.20462,3.26424 0.25894,6.39187 0.29956,9.65555 0.07,3.04505 0.50716,6.06364 1.13947,9.03955 0.90047,4.73089 1.66642,9.61917 1.93052,14.48006 0.27195,4.0921 0.4511,8.34614 0.53077,12.51471 0.0684,2.1125 0.45996,4.19196 0.98719,6.23257 0.66153,3.25758 0.92999,6.57879 1.46088,9.85811 0.36831,4.11142 0.49004,8.28893 0.61152,12.35016 0.0363,2.68135 0.18937,5.37531 -0.0158,8.05023 -3.03326,0.5153 -6.13186,0.40195 -9.19762,0.4981 -15.18603,0.11181 -30.37272,-0.0147 -45.55898,-0.0272 -9.95743,-0.0248 -19.91487,-0.0496 -29.8723,-0.0744 -0.35086,-0.49363 -1.17763,-0.79026 -1.00173,-1.50195 0.0242,-19.2738 -0.0118,-38.54772 0.0385,-57.82144 0.0819,-4.27206 -0.023,-8.5687 0.53935,-12.81333 0.14926,-0.52413 0.13671,-1.22569 0.55078,-1.59961 1.60709,-0.23791 3.32499,-0.27714 4.70524,-1.25715 2.45456,-1.53521 4.29158,-4.27294 4.19608,-7.23866 0.25265,-8.38319 0.17398,-16.77303 0.17683,-25.15925 -0.0745,-16.82635 -0.17947,-33.65444 -0.59256,-50.47636 -0.11292,-2.23168 -0.0296,-4.49358 -0.39094,-6.70081 -0.30331,-1.15055 -1.54254,-1.63782 -2.45988,-2.24003 -1.85933,-1.15883 -4.07191,-1.76137 -5.69922,-3.27149 -1.3655,-1.45597 -1.16647,-3.62774 -1.17347,-5.47358 0.0796,-2.24097 0.30428,-4.38295 0.47425,-6.62407 1.37519,-1.28045 2.56211,-2.80542 4.16016,-3.82031 1.30816,-0.50765 2.76291,-0.26661 4.13587,-0.391 8.5848,-0.1837 17.17239,-0.16025 25.75866,-0.1715 z m -163.14844,0.0332 c 9.45576,0.0269 18.91449,-0.0426 28.36744,0.21811 2.24013,-0.0416 4.18091,1.57814 5.00757,3.58403 1.47108,3.37278 1.37248,7.15726 1.20897,10.75841 -0.0203,0.85223 -0.36979,1.7206 -1.20117,2.07421 -2.2908,1.31241 -4.88387,1.97865 -7.07812,3.47852 -1.09249,0.84585 -1.65901,2.20388 -1.64649,3.57031 -0.3958,6.99526 -0.36687,14.00697 -0.44802,21.0113 -0.0848,17.5012 -0.0479,35.00512 0.32854,52.503 0.1144,3.4534 0.10019,6.9223 0.4991,10.35745 0.28899,1.35498 1.31881,2.43735 2.32351,3.33528 1.75004,1.48762 4.09449,1.8084 6.29082,2.07122 0.45593,0.25235 0.40304,0.9857 0.56855,1.4405 0.2348,1.35357 0.33042,2.77682 0.39479,4.04275 0.14203,2.80316 0.17511,5.84127 0.20683,8.74254 0.0612,15.22652 -0.002,30.45338 -0.038,45.67994 -0.076,4.20354 0.0352,8.42455 -0.40344,12.61094 0.0816,0.66098 -0.41522,0.78264 -0.96875,0.74805 -6.17045,0.39368 -12.35697,0.39665 -18.56667,0.50287 -18.23654,0.17422 -36.47666,0.17528 -54.711383,-0.15894 -3.861659,-0.1092 -7.624657,-0.10955 -11.468042,-0.46893 -0.794314,-0.75398 -0.02004,-1.85504 -0.02236,-2.75732 0.633539,-6.32394 0.57851,-12.78612 1.082908,-19.06104 0.106034,-1.40488 0.242249,-2.88405 0.390625,-4.2168 0.334733,-3.20357 0.921464,-6.37702 1.770382,-9.48305 0.703574,-3.86772 0.601056,-7.82231 0.733521,-11.73709 0.136149,-3.79165 0.01353,-7.61741 0.624109,-11.37308 0.545908,-2.38151 1.226941,-4.75784 1.296963,-7.21688 0.256434,-2.0973 0.861988,-4.1388 0.966226,-6.25829 0.695032,-7.69937 0.531952,-15.46401 1.54044,-23.13668 0.903151,-5.05485 2.115109,-10.08954 2.205029,-15.24869 0.03535,-3.37736 0.124807,-6.77929 0.386683,-10.08826 0.304988,-3.97167 0.686433,-7.8055 1.348257,-11.74382 0.212565,-1.46446 0.6339,-2.88197 1.068591,-4.28865 0.665786,-3.74334 0.306229,-7.57037 0.530643,-11.34958 0.205833,-4.58643 0.44898,-9.19056 1.209611,-13.72351 0.438496,-1.5745 0.704927,-3.24682 0.723784,-4.82908 0.245677,-2.07533 0.94288,-4.06755 1.105526,-6.1581 0.383447,-3.01715 0.486717,-6.05882 0.677735,-9.0918 1.391262,-1.27985 2.566568,-2.86829 4.242528,-3.79194 1.284031,-0.45298 2.690814,-0.2316 4.029228,-0.34305 8.473307,-0.16533 16.948952,-0.17326 25.423557,-0.20485 z m 94.4668,28.76367 c 9.78465,0.0336 19.57251,-0.0658 29.35436,0.20344 1.14362,0.0508 2.31637,0.0457 3.37123,0.54503 0.38411,0.24541 0.23962,0.93706 0.37146,1.3515 0.11745,1.09043 0.16835,2.18463 0.19821,3.18563 0.21157,8.472 0.0938,16.94833 0.12159,25.42221 -0.006,12.98086 -0.001,25.96172 -0.003,38.94258 -0.55481,0.99396 -1.09317,1.99891 -1.59375,3.01953 -1.74217,0.62715 -3.64955,0.54855 -5.477,0.68474 -9.74441,0.29503 -19.49542,0.16583 -29.24292,0.20324 -15.08269,-0.0276 -30.16602,0.0654 -45.24825,-0.0708 -3.28323,-0.0952 -6.59642,-0.007 -9.84755,-0.53387 -0.47872,-0.0312 -0.85797,-0.27372 -1.02083,-0.73114 -0.35646,-0.71763 -1.15556,-1.28173 -0.96814,-2.15839 0,-22.92942 0,-45.85885 0,-68.78828 1.49681,-1.01441 3.40404,-0.80282 5.12048,-0.97845 6.0752,-0.22779 12.31461,-0.20283 18.47131,-0.24527 12.13082,-0.0384 24.26172,-0.0442 36.39259,-0.0517 z m 61.72851,169.29883 c 22.56187,0.002 45.1237,0.0423 67.68555,0.0664 2.36548,0.98503 4.89039,1.8519 6.71422,3.74318 5.32373,5.18784 5.39888,14.6635 0.18758,19.95584 -1.61912,1.73604 -3.8211,2.70685 -5.82954,3.89864 -29.09566,0.0376 -58.19141,0.15461 -87.28708,0.0953 -5.13247,-0.0572 -10.2725,0.0228 -15.39816,-0.27307 -1.64405,-0.83644 -3.15213,-1.98713 -4.63962,-3.09347 -0.73958,-0.59488 -1.61585,-1.12868 -1.88901,-2.09959 -2.25163,-4.97809 -2.45299,-10.97966 -0.12206,-15.96708 0.84589,-1.67822 2.00796,-3.32049 3.66567,-4.26421 1.73676,-0.6466 3.62107,-1.19407 5.30177,-1.64445 1.60946,-0.54267 3.32912,-0.25223 4.9949,-0.35215 8.87187,-0.0494 17.7438,-0.0559 26.61578,-0.0654 z m -176.515623,0.0605 c 18.464213,0.0167 36.930223,0.002 55.392063,0.33226 1.46957,0.0578 2.88388,0.0222 4.37273,0.1947 2.47209,0.58841 5.10444,1.38177 6.75518,3.4528 0.99934,1.11632 2.06184,2.34518 2.11213,3.92634 0.3009,3.71095 0.11719,7.44232 0.17063,11.16186 -0.0384,0.78713 0.19736,1.65685 -0.44186,2.263 -1.63201,2.67808 -4.53212,4.13854 -7.02103,5.88711 -0.50162,0.38685 -1.01727,0.72729 -1.67891,0.58466 -28.79256,-0.0177 -57.585275,0.0419 -86.37773,-0.0469 -5.219781,-0.079 -10.453128,0.0148 -15.659324,-0.41548 -0.55534,-0.0756 -1.191451,-0.0518 -1.49302,-0.60405 -1.115332,-1.03898 -2.531728,-1.7316 -3.613893,-2.78531 -0.896575,-1.76026 -2.168389,-3.33342 -3.137293,-5.02362 -0.0511,-2.66063 -0.298771,-5.18551 0.08007,-7.84025 0.425362,-3.43114 1.988215,-7.01165 5.135529,-8.75087 1.599367,-0.84435 3.362927,-1.34731 5.055099,-1.95666 3.976684,-0.2026 8.032343,-0.19501 12.075663,-0.25371 9.424324,-0.095 18.849242,-0.11059 28.273967,-0.1259 z" />
  </g>
</svg>
