<?xml version="1.0" encoding="UTF-8" standalone="no"?>
<svg
   id="svg"
   version="1.1"
   width="400"
   height="400"
   viewBox="0, 0, 400,400"
   sodipodi:docname="boats.svg"
   inkscape:version="1.4 (86a8ad7, 2024-10-11)"
   xmlns:inkscape="http://www.inkscape.org/namespaces/inkscape"
   xmlns:sodipodi="http://sodipodi.sourceforge.net/DTD/sodipodi-0.dtd"
   xmlns="http://www.w3.org/2000/svg"
   xmlns:svg="http://www.w3.org/2000/svg">
  <defs
     id="defs1" />
  <sodipodi:namedview
     id="namedview1"
     pagecolor="#ffffff"
     bordercolor="#000000"
     borderopacity="0.25"
     inkscape:showpageshadow="2"
     inkscape:pageopacity="0.0"
     inkscape:pagecheckerboard="0"
     inkscape:deskcolor="#d1d1d1"
     inkscape:zoom="1.615"
     inkscape:cx="199.6904"
     inkscape:cy="200"
     inkscape:window-width="1440"
     inkscape:window-height="890"
     inkscape:window-x="-6"
     inkscape:window-y="-6"
     inkscape:window-maximized="1"
     inkscape:current-layer="svgg" />
  <g
     id="svgg">
    <path
       id="path0"
       d="M 67.777344,5.3066406 C 50.503488,5.343019 33.228897,5.3116504 15.955635,5.4509947 15.414975,5.57984 14.632788,5.2348276 14.27965,5.7316753 13.906743,6.2004112 13.510345,6.6732798 13.371094,7.2714844 12.371253,7.4238166 11.529978,8.2157051 11.302734,9.1992188 9.9593391,9.163509 8.2722741,9.2011619 7.5513442,10.556743 7.3674184,11.051137 7.2297984,11.42308 6.645811,11.494827 c -1.3243271,0.64695 -1.50499,2.254315 -1.4454496,3.563745 0.048392,0.49886 -0.7752897,0.354582 -1.0170195,0.75021 -0.4986243,0.375197 -0.8124693,0.977819 -0.9177169,1.589656 -0.6216868,0.0896 -1.243499,0.178319 -1.8652344,0.267578 0,118.889324 0,237.778644 0,356.667964 0.6183048,0.0974 1.2656037,0.16456 1.8671875,0.2793 0.149139,1.00787 0.9416443,1.85077 1.9316407,2.08203 -0.035627,1.34396 0.00124,3.03199 1.3575239,3.75335 0.4943942,0.18392 0.8663374,0.32154 0.9380845,0.90553 0.6469494,1.32433 2.2543148,1.50499 3.5637448,1.44545 0.49886,-0.0484 0.354582,0.77529 0.75021,1.01702 0.375197,0.49862 0.977819,0.81247 1.589656,0.91772 0.08959,0.62168 0.178319,1.24349 0.267578,1.86523 119.555994,0 239.111974,0 358.667964,0 0.0974,-0.61831 0.16456,-1.2656 0.2793,-1.86719 1.00787,-0.14914 1.85077,-0.94164 2.08203,-1.93164 1.34396,0.0356 3.03199,-0.001 3.75335,-1.35752 0.18392,-0.4944 0.32154,-0.86634 0.90553,-0.93809 1.32433,-0.64695 1.50499,-2.25431 1.44545,-3.56374 -0.0484,-0.49886 0.77529,-0.35458 1.01702,-0.75021 0.49862,-0.3752 0.81247,-0.97782 0.91772,-1.58966 0.62168,-0.0896 1.24349,-0.17832 1.86523,-0.26758 0,-118.88932 0,-237.77864 0,-356.667964 -0.61831,-0.09734 -1.2656,-0.16456 -1.86719,-0.279297 -0.14914,-1.00787 -0.94164,-1.850767 -1.93164,-2.082031 0.0356,-1.343955 -0.001,-3.031983 -1.35752,-3.753344 -0.4944,-0.183926 -0.86634,-0.321546 -0.93809,-0.905533 -0.64695,-1.3243271 -2.25431,-1.50499 -3.56374,-1.4454496 -0.49886,0.048392 -0.35458,-0.7752897 -0.75021,-1.0170195 C 373.81602,7.6847176 373.2134,7.3708726 372.60156,7.265625 372.51197,6.6439382 372.42324,6.022126 372.33398,5.4003906 281.97331,5.364026 191.61264,5.2674048 101.25196,5.2915907 90.093752,5.2966073 78.935548,5.301624 67.777344,5.3066406 Z M 252.9707,20.09375 c 33.85623,0.0571 67.71298,0.0154 101.56868,0.233711 2.11125,0.01683 4.29783,-0.02238 6.30437,0.701836 1.02646,0.883533 2.50267,0.923591 3.46841,1.887296 2.25706,1.941631 3.96978,4.445189 5.18496,7.150517 0.5626,0.858925 0.20224,1.936558 0.30366,2.904765 0,47.978776 0,95.957555 0,143.936325 -1.44556,-2.02598 -3.83883,-3.14718 -6.26732,-3.41958 -2.98416,-0.38936 -6.00941,-0.17334 -8.9959,-0.56434 -2.24796,-0.21142 -4.77986,-0.54194 -7.01373,-0.85335 -3.09623,-0.4536 -6.20654,-0.91816 -9.20938,-1.81312 -2.49056,-0.39297 -5.02713,-0.21718 -7.52929,-0.51758 -6.13749,-0.5835 -12.27679,-1.30209 -18.31161,-2.58307 -6.16735,-1.17354 -12.45831,-1.32791 -18.6894,-1.96072 -2.93206,-0.41089 -5.88838,-0.83 -8.72563,-1.69297 -1.88672,-0.68374 -3.93986,-0.68909 -5.91819,-0.88857 -6.01723,-0.43625 -12.17298,-0.99221 -18.14198,-2.23351 -2.13774,-0.40376 -4.128,-1.42419 -6.32852,-1.51909 -2.06184,-0.0579 -4.27832,-0.17871 -5.98038,-1.49511 -1.92522,-1.40561 -4.17535,-2.36133 -5.87091,-4.06844 -0.998,-1.0356 -2.33148,-1.60364 -3.3736,-2.58089 -6.07116,-5.20575 -12.04579,-10.52624 -18.20727,-15.62555 -0.94577,-0.82874 -2.06906,-1.4207 -3.03845,-2.20754 -1.70284,-2.03673 -4.26508,-3.07898 -6.1029,-4.97334 -1.56851,-1.33329 -3.69043,-1.78769 -5.18048,-3.23573 -2.50404,-2.02249 -5.82596,-2.54498 -8.4217,-4.41203 -2.96692,-1.63422 -6.38493,-2.09638 -9.48492,-3.40836 -3.97481,-1.73818 -8.39242,-1.60225 -12.60615,-2.25107 -1.95416,-0.33535 -3.93476,-0.54714 -5.91755,-0.66664 -1.51575,-0.24974 -2.83896,-1.14201 -4.38441,-1.28696 -4.90846,-0.74787 -9.90368,-0.74751 -14.85364,-0.52435 -2.68528,0.14406 -5.3932,0.40972 -7.94352,1.31223 -4.37369,1.18523 -8.94613,1.20122 -13.44262,1.39742 -6.06867,0.17206 -12.30837,0.21952 -18.44336,0.34765 -3.27911,0.12998 -6.58922,0.0617 -9.83443,0.6035 -2.432326,0.68593 -5.051091,0.61353 -7.483638,0.71368 -4.326659,0.1403 -8.686516,-0.0528 -12.981034,0.58006 -1.726124,0.38 -3.450579,0.81963 -5.23094,0.84926 -3.472717,0.15514 -6.979495,-0.01 -10.414728,0.61676 -0.761212,0.0789 -1.466002,0.10137 -2.125544,0.1426 -4.296076,0.18266 -8.762147,0.086 -13.134765,0.10743 -1.747816,1.85525 -3.787192,3.60471 -4.624941,6.09849 -1.557395,4.183 -0.599228,8.81351 1.03705,12.81947 1.327968,3.08194 2.962497,6.02575 4.652344,8.92188 2.124246,3.63543 5.145453,6.61342 8.24587,9.41498 1.383255,1.30137 2.844226,2.55414 4.034073,4.01967 0.858393,0.734 2.058709,0.80899 2.962712,1.48256 1.925583,1.16882 3.793377,2.55154 6.046247,3.01787 3.243377,0.74427 6.707832,1.03762 9.596816,2.83339 2.036951,0.95751 4.368496,1.12426 6.302671,2.33166 1.549821,0.87262 2.949271,2.06809 4.638374,2.65542 2.119214,1.58963 4.014062,3.48798 5.681554,5.54387 1.407909,2.11615 1.789079,4.74189 1.912009,7.23414 0.0234,0.64829 0.009,1.39278 -0.0204,1.89882 -0.16846,3.03642 -0.936836,6.14535 -2.853001,8.57152 -1.030857,1.47514 -1.935753,3.16109 -1.830078,5.01758 -0.06233,1.43387 -1.66466,1.83323 -2.628806,2.54215 -1.401664,0.8566 -2.497816,2.28356 -4.209085,2.54965 -3.354462,0.74916 -6.873792,0.56512 -10.179701,1.54612 -1.438673,0.48809 -3.002928,0.21878 -4.484361,0.50661 -2.713874,0.39925 -5.407856,1.05122 -8.169484,1.00425 -4.259828,0.10355 -8.55518,0.65748 -12.602719,2.02753 -1.200688,0.41013 -2.36764,1.02005 -3.207168,1.98335 -1.653386,0.94677 -3.332436,1.89724 -4.690774,3.26033 -3.424101,3.21555 -5.741663,7.43626 -7.25824,11.84449 -0.566653,1.54092 -1.513896,2.9304 -1.781458,4.57642 -0.630084,2.9784 -1.089809,5.99247 -1.717462,8.97306 -0.80246,3.64703 -1.208533,7.36977 -1.285933,11.10239 -0.219506,5.29782 -0.108458,10.61082 -0.513738,15.89978 -0.14876,0.84363 -0.07307,1.88209 -0.685134,2.54325 -1.333761,0.54002 -2.765003,0.87084 -3.983213,1.67815 -3.962537,2.42641 -7.244213,5.82031 -10.145456,9.41501 -0.760179,0.96135 -1.485649,1.95122 -2.150628,2.98106 -0.124743,-58.43024 -0.09206,-116.86068 -0.101562,-175.29102 0,-26.24479 0,-52.489582 0,-78.734374 0.611528,-1.216874 1.141183,-2.399193 1.763672,-3.533203 2.043391,-3.750104 5.819174,-6.608942 10.110921,-7.110566 3.501101,-0.202362 7.017621,-0.09917 10.52492,-0.157214 35.365522,-0.157119 70.731558,-0.147091 106.097358,-0.180827 36.09155,-0.01993 72.18306,-0.0092 108.27461,0.0092 z m -98.71875,108.41016 c 6.37802,0.025 12.7636,-0.0246 19.13329,0.33919 3.11915,0.29973 6.36227,0.32527 9.29582,1.55139 2.30372,1.21057 4.87153,1.73654 7.40791,2.19905 2.00324,0.39694 3.57647,1.78595 5.45326,2.50543 1.13667,0.61692 2.55233,0.73025 3.5105,1.64517 0.41924,0.47428 -0.4083,0.91732 -0.75,1.12109 -1.70415,0.82899 -3.65741,0.37362 -5.46052,0.77834 -1.82957,0.29381 -3.60097,0.94156 -5.47538,0.94118 -4.87723,0.0925 -9.81296,0.74079 -14.62269,0.99923 -3.39081,0.28224 -6.85842,0.17065 -10.16211,1.0879 -2.46952,0.89601 -4.90197,1.90721 -7.44553,2.58823 -2.0286,0.60378 -3.98767,1.48758 -5.66031,2.79833 -1.66785,1.08756 -3.50082,1.92537 -5.00549,3.25601 -4.51992,3.79821 -8.08468,8.626 -10.976,13.74438 -1.89711,3.51268 -3.66679,7.26851 -3.92706,11.31067 -0.14998,3.26999 1.70095,6.85973 4.96361,7.86292 1.73772,0.55174 3.55385,0.002 5.32803,0.023 5.36823,-0.34352 10.77323,-0.22866 16.11233,-0.94201 1.37615,-0.2854 2.73531,-0.70049 4.1573,-0.70211 1.79102,0.001 3.59913,-0.14222 5.31132,-0.68755 4.70071,-0.66584 9.45837,-0.79404 14.19258,-1.08784 6.26473,-0.315 12.64139,-0.50478 18.87026,-1.56638 3.57271,-0.58151 7.14069,-1.23413 10.76172,-1.43578 5.98226,-0.45114 12.02507,-0.65823 18.08576,-1.00477 2.90363,-0.21433 5.84489,-0.28377 8.69578,-0.9134 2.18899,-0.70226 4.52584,-0.38268 6.75055,-0.90194 2.53446,-0.44549 5.04892,-1.53376 7.66312,-0.9955 3.72247,0.57276 7.22769,2.12463 10.98882,2.49241 5.05044,0.63359 10.14943,0.81153 15.18601,1.57988 2.68695,0.35978 5.35623,0.88692 7.94525,1.69274 3.33004,0.58716 6.72546,0.57751 10.08398,0.90625 1.17211,0.10708 2.59896,0.24588 3.8655,0.39374 2.59675,0.30332 5.20691,0.61833 7.71529,1.38336 3.17859,0.75019 6.47603,1.27929 9.69807,1.39399 1.19164,0.12833 2.35101,0.44816 3.47505,0.85626 -4.45556,0.75395 -9.02968,0.51366 -13.45929,1.43423 -2.0272,0.67317 -4.20389,0.30215 -6.2803,0.71101 -2.48577,0.34236 -4.91186,1.0645 -7.43281,1.15572 -9.06263,0.67706 -18.17317,0.51216 -27.22409,1.36505 -1.30603,0.11401 -2.76996,0.5452 -3.9375,0.70117 -3.21706,0.56193 -6.53448,0.42521 -9.71096,1.21638 -2.17191,0.38738 -4.41177,0.36484 -6.61474,0.52122 -8.48686,0.42691 -16.99497,0.4757 -25.46694,1.165 -2.06491,0.31929 -4.03879,1.16211 -6.15549,1.17229 -2.35042,0.0339 -4.79189,0.27 -7.11437,0.78254 -4.08214,0.46646 -8.10149,0.55872 -12.23554,0.74347 -5.90316,0.24963 -11.82399,0.25696 -17.70856,0.82502 -2.26319,0.20306 -4.38486,1.1651 -6.66949,1.23171 -2.17966,0.13288 -4.36603,0.0298 -6.54851,0.0572 -0.34092,1.26949 -0.45321,2.62386 -0.9629,3.83398 -1.3491,0.77125 -2.99232,0.74485 -4.50012,0.94783 -8.74316,0.69784 -17.52953,0.58815 -26.27511,1.23677 -1.52287,0.0951 -3.02393,0.38061 -4.47315,0.85097 -2.33124,0.50779 -4.74695,0.2222 -7.08198,0.72562 -2.71575,0.68385 -5.52736,0.84692 -8.31964,0.80237 -0.58884,-0.0315 -1.3734,0.22885 -1.45778,-0.5801 -0.71917,-2.14237 -0.70506,-4.5064 -0.24951,-6.70515 1.06141,-2.90208 1.70719,-5.9482 1.94496,-9.0297 0.33332,-4.36132 0.24661,-8.85422 -1.08181,-13.0572 -0.65113,-1.75617 -1.57173,-3.40726 -2.0664,-5.22461 -0.70253,-2.07709 -2.04831,-3.83846 -3.54703,-5.40671 -1.92074,-2.05662 -3.82124,-4.16655 -6.028737,-5.92115 -0.732504,-0.42647 -1.550837,-0.69183 -2.227853,-1.23447 -1.842104,-1.35382 -3.893306,-2.43497 -6.104259,-3.03974 -3.217109,-1.1432 -6.162918,-3.10263 -9.609312,-3.54013 -3.573657,-0.35862 -6.924322,-1.84596 -10.017619,-3.60099 -2.226462,-1.23874 -3.914132,-3.18783 -5.85235,-4.80297 -2.55747,-2.39391 -4.877452,-5.18504 -6.181144,-8.46882 -0.159499,-0.4538 -0.31609,-0.93403 -0.277402,-1.42057 2.407875,-0.48496 4.885273,-0.44139 7.330078,-0.56445 8.097492,-0.22469 16.384417,-0.30768 24.552035,-0.588 3.095521,-0.15427 6.237235,-0.12291 9.262631,-0.87507 4.373762,-0.50806 8.790982,-0.25681 13.184442,-0.36371 2.40349,-0.0576 4.86469,-0.0488 7.15958,-0.8565 3.54616,-0.59828 7.16196,-0.57027 10.74579,-0.75059 7.57583,-0.2287 15.14613,-0.68316 22.72787,-0.6567 0.26643,-0.002 0.53286,-0.004 0.79929,-0.005 z m 62.02344,22.625 c 1.03963,-0.0231 2.1296,-0.0177 3.00977,0.62304 2.36416,1.4114 4.48158,3.19766 6.59587,4.95099 0.67608,0.67836 1.61779,1.29327 1.83577,2.27558 0.12903,0.79603 -0.40221,1.49769 -1.15821,1.70703 -2.67903,0.92815 -5.56978,0.87751 -8.37026,0.99206 -2.04385,0.0383 -4.0878,0.0727 -6.13169,0.1095 -2.68892,-2.47299 -5.53576,-4.78769 -8.04707,-7.44543 -0.39385,-0.31878 -0.5816,-0.92948 -0.25176,-1.35145 1.31416,-0.6011 2.83256,-0.47719 4.20732,-0.90397 1.21254,-0.38475 2.45564,-0.64297 3.72995,-0.71846 1.52317,-0.13893 3.05093,-0.21833 4.58031,-0.23889 z m -29.92773,5.29101 c 2.08211,1.84887 4.37566,3.5289 6.07097,5.76076 0.4995,0.46535 0.23775,1.29218 -0.42449,1.41112 -2.7425,1.00912 -5.70281,1.17662 -8.58408,1.49414 -7.83728,0.71418 -15.71433,0.74898 -23.56507,1.22588 -2.00783,0.11857 -4.01578,0.36926 -5.93727,0.98084 -1.47053,0.35253 -2.9683,-0.17315 -4.45264,0.0901 -0.87883,0.0505 -1.70921,0.38829 -2.58399,0.45117 -0.10842,-1.49498 0.78339,-2.8195 1.95434,-3.66359 2.3631,-1.82491 5.02748,-3.20716 7.50732,-4.86296 3.03113,-1.60342 6.43988,-2.29285 9.765,-3.01 3.33416,-0.65907 6.70501,-1.12171 10.0878,-1.44391 0.65725,-0.0531 1.63253,-0.14422 2.41483,-0.19309 1.79154,-0.1279 3.58685,-0.18801 5.38204,-0.2366 0.78841,0.66536 1.57682,1.33073 2.36524,1.99609 z m 183.45312,39.58789 c 0,55.11328 0,110.22656 0,165.33985 -1.10434,2.34741 -2.27699,4.73622 -4.20882,6.52708 -1.74525,1.78659 -4.0216,2.86692 -6.2443,3.92604 -110.89193,0 -221.78386,0 -332.675785,0 -2.168077,-1.03095 -4.322554,-2.15444 -6.091708,-3.80735 -1.090714,-1.02634 -2.32633,-2.08382 -2.695401,-3.5989 -0.222893,-0.76157 -0.831471,-1.32862 -1.09961,-2.05078 -0.619285,-3.37607 -0.534738,-6.83302 -0.636471,-10.25224 -0.154145,-14.98069 0.125781,-29.96151 0.16568,-44.94222 0.01902,-3.27565 0.03167,-6.55132 0.03524,-9.82702 1.411336,0.94435 3.343579,0.94956 4.72206,-0.0611 2.451496,-1.72572 4.438419,-4.0097 6.585197,-6.08367 1.962379,-1.86671 3.744927,-4.00639 6.103223,-5.39167 1.757181,-0.87515 3.799297,-0.60453 5.694989,-0.56126 2.065805,0.0557 3.906503,1.16238 5.362927,2.55597 4.450612,4.11101 8.062843,9.03573 12.484256,13.17539 2.011124,1.84466 4.651904,2.72159 6.978754,4.07504 4.072436,2.26745 9.219851,1.774 13.190906,-0.47067 1.895082,-1.075 4.006463,-1.86284 5.53968,-3.47015 3.017874,-2.74408 5.58928,-5.91681 8.223264,-9.01663 2.370761,-2.6105 4.853357,-5.32972 8.128416,-6.79622 2.159719,-0.9992 4.704979,-0.61361 6.710539,0.56601 4.55223,2.62649 7.8619,6.81921 11.41151,10.59192 2.18006,2.25861 4.32372,4.62458 6.96389,6.3577 2.62762,1.26487 5.04093,3.13043 7.99023,3.58398 3.64597,0.66481 7.38461,-0.48899 10.44505,-2.46482 0.9571,-0.61099 1.98742,-1.07499 3.00222,-1.55861 2.02401,-1.42395 3.85334,-3.13512 5.50576,-4.97463 1.70223,-2.37631 3.87488,-4.37041 5.879,-6.48827 1.94453,-1.90452 3.81631,-3.90361 5.9336,-5.61718 2.29327,-0.62285 4.72525,-0.57998 7.07742,-0.38001 0.93132,0.0399 1.82049,0.35334 2.47922,1.0304 4.72115,4.11931 8.88332,8.82257 13.33868,13.21706 3.28877,3.14129 7.2412,6.04303 11.9011,6.51332 4.56161,0.46003 9.03568,-1.35513 12.78903,-3.81317 2.00656,-1.38008 4.11479,-2.76992 5.55908,-4.76877 0.295,-0.60645 0.55384,-1.21869 1.08177,-1.67479 1.09907,-1.19656 2.23468,-2.307 3.35585,-3.38314 1.35164,-1.28288 2.89489,-2.70798 4.30903,-3.92815 1.25893,-1.05104 2.47144,-2.20134 3.88812,-3.0315 2.35878,-0.34451 4.77561,-0.30769 7.14093,-0.0432 0.96954,0.23444 1.67797,1.06862 2.48602,1.61936 1.69959,1.36887 3.25502,2.90779 4.59625,4.62935 2.99705,3.28942 6.06219,6.53254 9.36882,9.51397 2.29055,2.09555 5.18334,3.37921 8.16673,4.13648 1.91138,0.42898 3.80777,1.26724 5.80179,1.03075 3.44833,-0.47886 6.43779,-2.48574 9.16906,-4.52328 4.71054,-3.54247 8.61433,-7.98824 12.61805,-12.27751 0.83543,-0.86526 1.83845,-1.91887 2.84234,-2.74678 1.08936,-1.06193 2.6025,-1.48674 4.09416,-1.48036 1.6787,-0.0367 3.43808,-0.26082 5.13156,0.21414 2.16793,0.78787 3.73793,2.59599 5.3848,4.13015 4.20904,4.17819 8.20572,8.57823 12.61619,12.54839 0.61518,0.61482 1.4102,0.92807 2.23293,1.13687 2.65895,1.00328 5.15734,2.67622 8.05935,2.8597 2.2169,-0.0404 4.34998,-0.78125 6.45091,-1.42198 3.27718,-1.08442 6.66281,-2.92872 8.15039,-6.2123 1.06924,-2.41996 1.19589,-5.26721 0.37967,-7.77846 -0.59859,-1.87376 -2.55663,-3.21595 -4.53175,-2.8978 -1.92756,0.20578 -3.42979,1.57582 -5.25359,2.11465 -1.55022,0.59078 -3.17307,0.94793 -4.76985,1.38535 -2.19927,-0.65236 -4.44602,-1.33684 -6.28513,-2.76697 -1.18233,-0.8107 -2.11795,-1.90091 -2.95366,-3.04985 -2.10527,-2.44756 -4.57143,-4.57584 -6.53074,-7.14803 -0.27666,-0.54992 0.23343,-1.19642 0.41453,-1.73701 1.50804,-3.11333 4.24918,-5.33266 6.42084,-7.95383 4.68602,-5.3224 9.31799,-10.70343 13.62595,-16.33865 2.19889,-3.04437 4.15901,-6.27025 6.59575,-9.13667 3.48487,-4.71255 6.70882,-9.61346 10.14503,-14.36069 2.1398,-3.1336 3.84391,-6.55617 6.19517,-9.54659 1.11914,-1.64787 1.92276,-3.49342 3.18826,-5.04636 0.70305,-1.04729 1.18757,-2.21827 1.93078,-3.24719 1.51969,-2.49059 3.33517,-4.84347 4.41436,-7.57326 0.64745,-1.76976 0.46114,-3.76809 1.43592,-5.4355 0.73104,-1.29649 1.48973,-2.58078 2.08458,-3.94847 0,0.76823 0,1.53646 0,2.30469 z m -17.25976,1.25781 c 0.34537,1.42644 0.33774,2.95208 0.11132,4.39844 -0.78443,2.45013 -2.36399,4.54037 -3.69831,6.71165 -3.87529,5.9154 -7.88519,11.74187 -11.73317,17.67497 -1.71603,2.48233 -3.72576,4.75581 -5.2544,7.3688 -3.29152,4.86195 -7.23077,9.23712 -10.80958,13.88311 -5.26312,6.76901 -10.88421,13.27437 -17.02228,19.26628 -1.8994,1.79223 -4.38345,3.15271 -7.06132,3.04451 -2.94201,0.18577 -5.71693,1.2754 -8.5573,1.95834 -1.92757,0.96241 -3.37877,2.62933 -4.94762,4.06695 -4.15466,4.07733 -8.07189,8.38589 -12.12109,12.56445 -1.53574,1.4881 -3.7572,1.79416 -5.67846,2.5468 -0.5667,0.33818 -1.14505,0.20688 -1.72565,-0.0146 -2.15482,-0.64597 -4.56173,-1.03436 -6.17408,-2.75552 -4.23055,-4.2777 -8.04593,-8.96521 -12.48956,-13.03356 -2.07985,-1.94401 -4.59166,-3.43143 -7.36355,-4.12903 -4.60741,-1.4321 -9.80435,-1.37839 -14.14996,0.86394 -2.85977,1.37632 -5.11994,3.65729 -7.2408,5.96272 -2.41387,2.54006 -4.85458,5.07003 -7.03881,7.81012 -1.69813,1.65963 -3.51936,3.23195 -5.54929,4.47182 -3.22625,1.58729 -7.16345,0.61484 -9.9668,-1.41016 -1.28063,-0.94434 -2.35912,-2.14752 -3.71289,-2.99609 -1.20181,-2.06783 -2.95966,-3.74069 -4.52148,-5.5332 -2.29917,-2.38675 -4.50253,-4.92236 -7.20703,-6.86524 -5.60544,-3.76777 -13.22475,-4.32073 -19.32618,-1.43359 -3.18663,1.48631 -5.46318,4.25485 -7.93056,6.66102 -2.41712,2.43147 -4.69989,4.98843 -6.94462,7.57781 -2.10764,2.27825 -4.61525,4.62215 -7.85487,4.93823 -2.2838,0.14997 -4.82977,0.29005 -6.7908,-1.10495 -2.87807,-2.09054 -5.15767,-4.86664 -7.60111,-7.42496 -2.82897,-2.98206 -5.4743,-6.17422 -8.66249,-8.78805 -1.97854,-1.6558 -4.53854,-2.47383 -7.10065,-2.50107 -3.0492,-0.0469 -6.11266,-0.14936 -9.15303,0.13639 -2.628889,0.23031 -4.966579,1.66531 -6.817385,3.47784 -3.401231,3.28537 -6.544675,6.82422 -9.840416,10.21445 -2.223822,2.30594 -4.408383,4.93199 -7.57275,5.93808 -3.053152,1.09478 -6.473644,0.136 -8.977408,-1.7869 -2.512596,-1.89564 -4.370896,-4.48064 -6.570148,-6.70442 -3.231164,-3.47142 -6.62378,-6.82099 -10.476659,-9.60549 -1.096672,-0.81444 -2.280351,-1.75302 -2.48865,-3.19934 -0.448014,-1.90474 -0.818158,-3.83807 -0.8747,-5.79934 -0.0051,-0.29305 -0.03004,-1.01125 -0.0293,-1.4668 -0.03345,-2.69869 0.316392,-5.37735 0.781876,-8.029 0.396687,-2.63921 0.354323,-5.31144 0.525846,-7.96681 0.490515,-4.65755 1.676642,-9.30376 3.882677,-13.4543 1.274407,-2.28639 3.171363,-4.16204 5.12796,-5.8702 0.826776,-0.45839 1.761389,-0.77226 2.552859,-1.32939 1.842939,-1.27903 4.025124,-1.96326 6.250401,-2.14663 3.746677,-0.39226 7.38842,-0.39415 11.145643,-0.53051 3.362823,-0.15084 6.757283,-0.12108 10.082347,-0.69855 3.078204,-1.08498 6.497237,-0.20302 9.607589,-1.23559 3.973553,-0.59753 8.003734,-0.69992 12.009174,-0.96853 6.72893,-0.40421 13.57285,-0.56168 20.32804,-1.16123 1.2109,-0.0955 2.42001,-0.26877 3.57268,-0.64081 3.16105,-0.46665 6.47103,0.11317 9.53741,-0.96362 3.372,-0.50468 6.79675,-0.52716 10.19568,-0.74238 7.49538,-0.39265 15.01276,-0.51527 22.48095,-1.30396 2.14702,-0.30863 4.27539,-0.82367 6.45943,-0.80537 2.09924,-0.004 4.20494,-0.28178 6.19078,-0.97618 3.16532,-0.62558 6.41561,-0.58199 9.62605,-0.76767 7.32018,-0.32021 14.65653,-0.36153 21.96236,-0.94843 1.2428,-0.047 2.42716,-0.40893 3.62165,-0.70107 2.06459,-0.32252 4.17264,-0.14171 6.23363,-0.52316 2.41173,-0.34428 4.77334,-1.01598 7.21995,-1.11262 8.61037,-0.64649 17.26268,-0.53635 25.86644,-1.28021 2.60389,-0.2016 5.09272,-1.11254 7.70955,-1.22263 2.43691,-0.1354 4.92524,-0.007 7.29075,-0.71295 5.79733,-0.71476 11.64656,-0.86916 17.47851,-1.10156 3.88722,-0.12819 7.92944,-0.13941 11.8691,-0.41167 1.7717,-0.0883 3.49777,-0.49831 5.18364,-1.02583 1.65885,-0.46646 3.32699,-0.36381 5.00709,-0.54806 1.60445,-0.1686 3.46675,-1.0224 3.74653,-2.78586 0.009,-0.69422 0.92241,-0.85536 1.43538,-1.09887 1.99229,-0.62544 4.11309,-0.29971 6.16272,-0.51925 4.1679,-0.31248 8.33217,-0.68217 12.51001,-0.84814 5.08788,-0.21613 10.17928,-0.42344 15.26913,-0.55334 z m -80.63868,24.96876 c -1.7457,0.0129 -3.46171,0.35326 -5.15039,0.75585 -4.51567,0.54543 -9.1942,-0.17628 -13.59677,1.18961 -2.54663,0.83841 -4.6492,2.65862 -6.39151,4.64438 -2.75643,3.60092 -3.46082,8.34688 -3.2077,12.76975 0.31228,4.28075 1.52385,8.74428 4.52788,11.94211 1.41202,1.53671 3.38054,2.4394 5.42892,2.73303 5.12696,0.84081 10.35506,0.7433 15.52939,0.52912 4.25454,-0.26762 8.56584,-0.54233 12.679,-1.73792 1.22196,-0.31696 2.27596,-1.01842 3.1886,-1.86877 1.23367,-0.82711 2.37612,-1.83815 3.02384,-3.2037 1.15749,-2.29679 2.08456,-4.7125 2.89062,-7.1519 0.79978,-3.57352 0.0488,-7.30529 -1.1211,-10.71094 -0.83471,-2.13317 -1.77785,-4.33827 -3.4365,-5.96634 -2.49047,-2.11269 -5.76956,-2.96635 -8.91919,-3.53201 -1.79806,-0.29602 -3.62285,-0.43499 -5.44509,-0.39227 z m -77.96679,2.16406 c -2.41334,0.0319 -4.84142,0.34181 -7.09375,1.24804 -3.08242,0.64536 -6.31138,0.033 -9.36195,0.9319 -3.01136,0.72898 -5.60005,2.8909 -6.85167,5.72537 -1.58701,3.48629 -2.05607,7.38085 -2.08716,11.17867 0.0734,4.39709 0.89564,9.0091 3.54122,12.62972 1.25908,1.69237 3.0816,3.14126 5.26261,3.27276 4.6775,0.51824 9.39936,0.35406 14.0946,0.23424 4.48361,-0.21673 8.99882,-0.36706 13.41979,-1.19795 1.11451,-0.18655 2.17069,-0.65554 2.96809,-1.47042 1.5468,-1.21211 3.37672,-2.12994 4.50751,-3.80071 2.62487,-3.62246 3.41602,-8.2569 3.30701,-12.6467 -0.16372,-3.90792 -1.05633,-8.03706 -3.68227,-11.06323 -0.91983,-1.14144 -2.26382,-1.75276 -3.45155,-2.54915 -0.84541,-0.70691 -1.71588,-1.45158 -2.84902,-1.62113 -3.56649,-0.77978 -7.24626,-0.87799 -10.88513,-0.88464 -0.27945,0.004 -0.55889,0.009 -0.83833,0.0132 z m -64.94141,5.25195 c -4.909,0.0728 -9.83411,-0.14584 -14.72941,0.30288 -1.49271,0.16772 -2.92415,0.69375 -4.43871,0.72554 -2.82653,0.1886 -5.82517,-0.0922 -8.42172,1.27431 -1.970097,1.05997 -3.769488,2.46274 -5.314714,4.07681 -2.050415,2.2078 -2.167246,5.39287 -2.252411,8.23945 -0.0098,4.1632 -0.292219,8.46274 1.051497,12.47085 0.903151,2.75459 3.164903,4.94395 5.892278,5.88292 4.02867,1.43194 8.38393,1.367 12.60382,1.34951 6.071,-0.13481 12.12335,-0.65574 18.17773,-1.0918 2.3768,-2.24282 5.1631,-4.15602 6.93555,-6.95703 1.8628,-3.13406 1.64594,-6.91109 1.69466,-10.42149 -0.0293,-1.68366 0.0676,-3.39653 -0.038,-5.06257 -1.11943,-2.11255 -2.02515,-4.35011 -3.34021,-6.35188 -1.41096,-1.91408 -3.81719,-2.58251 -5.81627,-3.68418 -0.66421,-0.24062 -1.27056,-0.83312 -2.00404,-0.75332 z m 143.0918,4.85547 c 2.0926,0.0424 4.26547,-0.0531 6.26758,0.63867 2.1128,1.3888 2.44838,4.20833 2.13867,6.51953 -0.0159,0.9428 -0.8876,1.45868 -1.71485,1.625 -3.72817,0.84078 -7.5859,0.61628 -11.36929,1.01112 -1.76347,0.12842 -3.52635,0.3357 -5.21997,0.86082 -2.93526,0.64406 -6.4726,0.0502 -8.38254,-2.45845 -1.25676,-1.57495 -0.97056,-3.92096 0.26282,-5.41153 2.23446,-1.12358 4.76579,-1.45105 7.20312,-1.88477 3.57865,-0.54286 7.19485,-0.85247 10.81446,-0.90039 z m -68.90625,3.17578 c 0.73952,-0.0398 1.48912,0.19751 1.88176,0.86663 1.05122,1.45446 1.56943,3.55124 0.73347,5.21931 -0.46979,0.64946 -0.73453,1.53226 -1.43554,1.9707 -2.14606,0.44403 -4.36622,0.20008 -6.54452,0.27869 -4.04187,0.0138 -8.11169,0.16776 -12.06486,1.08264 -1.36174,0.16144 -2.80596,0.69621 -4.15234,0.2207 -1.79199,-0.9032 -3.19748,-2.67716 -3.26145,-4.7347 -0.1007,-1.56549 0.55764,-3.34941 1.9949,-4.09981 3.14059,-0.39201 6.30864,-0.3981 9.42444,-0.501 4.47481,-0.0863 8.94951,-0.24543 13.42414,-0.30316 z m -77.00586,4.00391 c 1.07254,-0.005 2.29218,0.20439 2.87126,1.22349 1.08197,1.63028 1.81461,3.65635 1.52913,5.63002 -0.31507,1.08811 -1.27067,1.90643 -2.39941,2.04544 -1.70718,0.38911 -3.6372,0.44082 -5.26856,0.53659 -4.21404,0.19134 -8.46348,0.12248 -12.6582,0.7461 -1.26762,0.37145 -2.56865,0.97421 -3.92188,0.63279 -2.70958,-0.55732 -4.08602,-3.82456 -3.20694,-6.31023 0.53682,-1.81848 2.134,-3.11385 3.71514,-3.97353 5.58745,0.0687 11.19979,0.26122 16.75963,-0.42461 0.85779,-0.075 1.71872,-0.11256 2.57983,-0.10606 z" />
  </g>
</svg>
