<?xml version="1.0" encoding="UTF-8" standalone="no"?>
<svg
   id="svg"
   version="1.1"
   width="400"
   height="400"
   viewBox="0, 0, 400,400"
   sodipodi:docname="hiking.svg"
   inkscape:version="1.4 (86a8ad7, 2024-10-11)"
   inkscape:export-filename="hiking.png"
   inkscape:export-xdpi="96"
   inkscape:export-ydpi="96"
   xmlns:inkscape="http://www.inkscape.org/namespaces/inkscape"
   xmlns:sodipodi="http://sodipodi.sourceforge.net/DTD/sodipodi-0.dtd"
   xmlns="http://www.w3.org/2000/svg"
   xmlns:svg="http://www.w3.org/2000/svg">
  <defs
     id="defs1" />
  <sodipodi:namedview
     id="namedview1"
     pagecolor="#ffffff"
     bordercolor="#000000"
     borderopacity="0.25"
     inkscape:showpageshadow="2"
     inkscape:pageopacity="0.0"
     inkscape:pagecheckerboard="0"
     inkscape:deskcolor="#d1d1d1"
     inkscape:zoom="1.615"
     inkscape:cx="199.6904"
     inkscape:cy="200"
     inkscape:window-width="1920"
     inkscape:window-height="1010"
     inkscape:window-x="2873"
     inkscape:window-y="-6"
     inkscape:window-maximized="1"
     inkscape:current-layer="svgg" />
  <g
     id="svgg">
    <path
       id="path1"
       d="M29.354 19.812 C 25.713 21.570,23.538 23.766,21.792 27.443 L 20.400 30.377 20.400 197.047 L 20.400 363.716 21.796 366.618 C 23.120 369.372,26.746 373.600,27.782 373.600 C 28.015 373.600,29.105 374.095,30.203 374.700 L 32.200 375.800 203.000 375.800 L 373.800 375.800 376.571 374.410 C 380.089 372.646,382.646 370.089,384.410 366.571 L 385.800 363.800 385.800 197.000 L 385.800 30.200 384.700 28.203 C 384.095 27.105,383.600 26.015,383.600 25.782 C 383.600 24.746,379.372 21.120,376.618 19.796 L 373.716 18.400 202.958 18.418 L 32.200 18.437 29.354 19.812 M204.925 54.679 C 209.637 55.986,210.679 56.858,213.000 61.441 L 214.600 64.600 214.871 94.000 C 215.283 138.711,215.594 147.465,216.902 151.200 C 217.480 152.850,218.141 155.591,218.371 157.290 C 218.613 159.077,219.207 161.185,219.780 162.290 C 220.325 163.341,221.317 165.370,221.984 166.800 C 222.651 168.230,223.625 170.150,224.147 171.067 C 225.915 174.164,231.821 180.781,234.000 182.104 C 234.770 182.571,236.139 183.594,237.043 184.377 C 237.947 185.160,239.387 186.042,240.243 186.337 C 241.099 186.633,242.527 187.382,243.415 188.001 C 245.219 189.260,248.451 189.998,252.173 190.003 C 253.508 190.005,255.770 190.363,257.200 190.800 C 258.630 191.237,260.610 191.603,261.600 191.615 C 262.590 191.626,264.120 191.903,265.000 192.231 C 266.792 192.899,275.939 193.567,283.572 193.587 C 287.299 193.597,289.151 193.790,290.972 194.357 C 297.208 196.302,300.111 196.729,310.000 197.157 C 316.770 197.449,317.587 197.565,319.600 198.516 C 322.391 199.833,324.138 200.275,328.513 200.770 C 331.393 201.095,332.438 201.415,334.313 202.545 C 335.571 203.303,337.542 204.138,338.693 204.400 C 339.844 204.662,341.526 205.413,342.432 206.069 C 343.338 206.725,344.902 207.615,345.907 208.046 C 349.053 209.394,359.489 219.185,361.600 222.768 C 362.150 223.701,362.985 224.947,363.455 225.537 C 365.053 227.540,367.926 233.515,368.408 235.841 C 368.673 237.115,369.318 238.837,369.842 239.667 C 370.627 240.910,370.904 242.221,371.413 247.088 C 372.064 253.320,372.428 255.194,373.497 257.800 C 374.014 259.062,374.209 261.510,374.419 269.400 C 374.631 277.376,374.818 279.701,375.343 280.887 C 376.231 282.897,376.296 295.279,375.433 298.000 C 375.119 298.990,374.689 300.987,374.477 302.438 C 373.770 307.293,366.711 317.011,362.252 319.269 C 361.344 319.729,359.924 320.712,359.099 321.453 C 358.273 322.194,357.250 322.800,356.825 322.800 C 356.401 322.800,354.932 323.700,353.561 324.800 C 352.190 325.900,350.762 326.800,350.387 326.800 C 350.011 326.800,348.814 327.509,347.725 328.376 C 346.551 329.311,344.944 330.146,343.773 330.429 C 342.639 330.704,341.274 331.402,340.563 332.071 C 339.855 332.737,338.246 333.562,336.804 333.999 C 335.418 334.418,333.802 335.224,333.213 335.788 C 332.478 336.492,331.252 336.999,329.298 337.406 C 325.826 338.130,324.862 338.486,322.915 339.761 C 321.889 340.433,320.561 340.837,318.800 341.014 C 315.274 341.369,313.520 341.850,310.437 343.306 C 308.203 344.362,307.178 344.581,303.411 344.811 C 299.787 345.032,298.462 345.301,295.985 346.319 C 291.788 348.045,290.317 348.299,282.800 348.598 C 278.296 348.777,275.278 349.105,273.296 349.630 C 271.308 350.157,269.035 350.403,266.096 350.409 C 263.112 350.416,260.892 350.660,258.827 351.209 C 256.159 351.919,254.539 352.000,243.027 351.998 C 229.173 351.995,228.816 351.946,227.131 349.803 C 226.697 349.251,226.147 348.800,225.909 348.800 C 223.435 348.800,221.385 343.868,220.804 336.517 C 220.094 327.534,219.505 326.731,213.350 326.365 C 210.737 326.210,208.060 325.849,207.400 325.564 C 206.731 325.274,203.632 324.921,200.400 324.766 C 197.210 324.614,193.700 324.296,192.600 324.060 C 189.307 323.355,179.167 322.794,169.763 322.797 C 161.962 322.800,160.652 322.706,158.600 322.000 C 153.786 320.344,152.338 322.075,149.614 332.747 C 148.442 337.336,145.418 341.743,140.358 346.237 C 139.289 347.187,137.646 348.186,136.707 348.457 C 135.768 348.729,134.418 349.449,133.707 350.057 C 131.362 352.063,131.647 352.049,95.570 351.921 L 61.739 351.800 59.370 350.369 C 58.066 349.581,56.190 348.710,55.200 348.432 C 54.210 348.154,52.558 347.223,51.528 346.363 C 50.499 345.504,49.509 344.788,49.328 344.773 C 48.303 344.689,44.641 339.367,44.154 337.253 C 43.869 336.014,43.144 333.772,42.543 332.272 C 41.529 329.740,41.488 329.423,41.977 327.872 C 42.294 326.869,42.619 322.836,42.789 317.800 C 42.946 313.180,43.302 308.320,43.581 307.000 C 44.334 303.438,43.915 298.070,42.598 294.400 C 41.597 291.613,41.493 290.703,41.137 281.600 C 40.905 275.682,40.525 270.891,40.177 269.506 C 39.493 266.787,39.418 260.771,40.042 258.797 C 40.286 258.029,40.712 252.720,40.990 247.000 C 41.443 237.672,41.605 236.254,42.559 233.244 C 43.144 231.398,43.950 227.618,44.351 224.844 C 44.807 221.686,45.404 219.164,45.948 218.099 C 46.426 217.164,47.095 214.933,47.435 213.143 C 47.774 211.352,48.562 208.931,49.186 207.762 C 49.810 206.594,50.446 204.684,50.601 203.519 C 50.756 202.354,51.399 200.487,52.030 199.370 C 52.662 198.254,53.382 196.364,53.630 195.170 C 53.879 193.977,54.625 191.920,55.287 190.600 C 56.015 189.150,56.639 187.092,56.864 185.400 C 57.069 183.860,57.675 181.250,58.210 179.600 C 59.700 175.007,60.512 165.114,59.651 162.036 C 59.245 160.585,57.684 159.644,54.859 159.147 C 51.628 158.579,49.343 156.739,46.200 152.175 L 44.600 149.851 44.600 125.626 L 44.600 101.400 46.376 98.600 C 48.442 95.341,50.957 92.935,53.092 92.173 C 55.572 91.288,124.351 91.354,126.120 92.243 C 127.654 93.015,132.403 97.921,133.917 100.301 C 135.395 102.622,136.445 102.896,142.668 102.582 C 145.491 102.440,152.156 102.227,157.479 102.109 C 170.259 101.827,169.552 102.606,169.583 88.773 C 169.597 82.135,169.725 80.494,170.424 77.973 C 170.877 76.338,171.668 73.428,172.180 71.508 C 174.280 63.640,181.143 56.522,188.048 55.051 C 189.672 54.705,191.540 54.253,192.200 54.045 C 194.795 53.231,200.776 53.529,204.925 54.679 M191.200 62.616 C 190.210 63.162,188.394 64.074,187.164 64.642 C 185.715 65.312,184.666 66.120,184.183 66.938 C 183.774 67.632,182.845 68.979,182.120 69.931 C 181.248 71.074,180.800 72.106,180.800 72.971 C 180.800 73.691,180.348 75.132,179.795 76.172 C 177.205 81.043,177.115 100.538,179.644 108.800 C 180.179 110.546,180.520 113.155,180.684 116.745 C 181.043 124.620,181.440 124.960,189.566 124.355 C 192.145 124.163,195.142 123.736,196.227 123.407 C 197.312 123.078,198.791 122.807,199.513 122.804 C 200.954 122.800,204.481 121.188,205.900 119.886 L 206.800 119.061 206.786 93.230 C 206.771 65.324,206.899 66.947,204.484 64.221 C 201.859 61.258,195.134 60.445,191.200 62.616 M69.661 100.021 C 66.647 101.854,66.800 100.495,66.800 125.440 L 66.800 147.757 67.813 149.219 C 70.196 152.657,76.226 152.028,77.837 148.173 C 78.804 145.859,78.489 103.426,77.494 101.962 C 76.106 99.919,71.647 98.814,69.661 100.021 M85.944 99.685 C 83.868 100.547,83.800 101.371,83.800 125.600 C 83.800 150.095,83.826 150.382,86.080 151.168 C 89.104 152.222,92.848 151.062,93.758 148.789 C 94.587 146.715,94.696 104.785,93.877 102.420 C 93.068 100.081,88.653 98.559,85.944 99.685 M102.670 99.781 C 100.890 100.415,101.079 100.252,100.251 101.880 C 99.223 103.902,99.268 147.146,100.301 149.174 C 101.981 152.476,108.413 152.434,109.570 149.114 C 110.150 147.451,110.167 103.398,109.589 101.739 C 108.790 99.448,105.899 98.629,102.670 99.781 M116.554 100.540 C 115.005 102.312,115.003 102.341,114.888 125.000 L 114.776 147.000 115.688 148.800 L 116.600 150.600 118.766 150.579 C 120.877 150.559,120.983 150.503,122.870 148.379 C 125.716 145.179,125.663 145.656,125.524 124.566 L 125.400 105.732 123.605 103.406 C 121.270 100.381,117.894 99.008,116.554 100.540 M56.000 102.122 C 55.450 102.615,54.505 103.677,53.900 104.482 L 52.800 105.947 52.800 125.519 C 52.800 144.975,52.805 145.099,53.667 146.246 C 56.343 149.807,57.744 150.593,59.622 149.588 C 61.541 148.561,61.553 148.394,61.471 125.099 L 61.394 103.258 60.427 102.229 C 59.209 100.932,57.377 100.887,56.000 102.122 M159.600 109.617 C 157.873 110.193,156.107 110.356,151.384 110.376 C 147.218 110.392,144.635 110.596,142.984 111.036 C 141.673 111.387,139.433 111.824,138.006 112.009 C 133.726 112.564,134.000 111.228,133.998 131.544 C 133.996 148.616,133.828 151.279,132.682 152.487 C 132.414 152.769,131.746 153.542,131.197 154.205 C 130.649 154.868,129.321 156.218,128.247 157.205 L 126.294 159.000 98.847 159.200 C 70.773 159.405,69.516 159.476,68.752 160.910 C 68.726 160.960,68.579 164.510,68.425 168.800 C 68.161 176.175,68.076 176.800,66.866 180.267 C 66.163 182.283,65.349 185.523,65.058 187.467 C 64.766 189.410,64.161 191.720,63.712 192.600 C 63.263 193.480,62.503 195.638,62.023 197.394 C 61.543 199.151,60.644 201.491,60.025 202.594 C 59.406 203.698,58.790 205.339,58.655 206.242 C 58.520 207.144,57.967 208.854,57.426 210.042 C 56.885 211.229,56.077 213.882,55.631 215.937 C 55.184 217.993,54.419 220.323,53.929 221.115 C 53.268 222.185,52.914 223.710,52.555 227.041 C 52.268 229.699,51.632 232.805,50.995 234.663 C 50.024 237.494,49.883 238.658,49.545 246.600 C 49.338 251.440,48.907 256.754,48.585 258.409 C 47.849 262.196,47.840 265.838,48.559 268.742 C 48.881 270.043,49.226 274.392,49.373 279.000 C 49.776 291.658,51.037 296.381,54.988 300.039 C 57.503 302.368,57.372 302.312,61.022 302.628 C 62.770 302.779,64.830 303.180,65.600 303.518 C 71.678 306.191,97.110 306.144,103.287 303.449 C 104.275 303.018,105.916 302.800,108.179 302.800 C 113.656 302.800,123.593 302.025,126.282 301.388 C 127.647 301.065,129.653 300.800,130.739 300.800 C 131.851 300.800,133.474 300.455,134.456 300.009 C 137.148 298.787,170.441 298.784,174.336 300.005 C 175.730 300.442,177.801 300.800,178.938 300.800 C 180.075 300.800,181.634 300.994,182.403 301.231 C 184.380 301.840,196.052 302.759,202.085 302.781 C 205.982 302.796,207.664 302.974,209.285 303.544 C 215.196 305.625,217.770 305.800,242.400 305.800 C 267.052 305.800,269.236 305.650,275.136 303.558 C 276.704 303.001,278.367 302.800,281.393 302.800 C 289.094 302.800,296.625 301.714,300.000 300.117 C 300.901 299.691,303.682 299.262,307.800 298.913 C 313.775 298.407,314.399 298.276,317.200 296.930 C 319.730 295.716,320.801 295.445,324.034 295.201 C 327.392 294.949,328.186 294.736,330.434 293.486 C 332.319 292.437,333.830 291.945,336.125 291.630 C 339.311 291.193,340.266 290.851,341.952 289.542 C 342.476 289.135,344.173 288.425,345.723 287.963 C 347.273 287.502,349.185 286.621,349.971 286.006 C 350.757 285.391,352.120 284.666,353.000 284.396 C 353.880 284.126,355.140 283.397,355.800 282.776 C 356.460 282.155,357.736 281.141,358.637 280.523 C 360.778 279.054,364.233 275.175,364.968 273.415 C 366.376 270.046,366.049 260.839,364.347 255.900 C 363.843 254.439,363.355 251.682,363.172 249.265 C 362.932 246.094,362.623 244.646,361.845 243.056 C 361.287 241.915,360.463 239.794,360.015 238.343 C 359.102 235.386,356.284 229.752,355.211 228.735 C 354.824 228.369,354.082 227.379,353.561 226.535 C 352.182 224.300,346.222 218.529,344.273 217.541 C 343.353 217.074,342.030 216.196,341.334 215.589 C 340.638 214.981,339.378 214.258,338.534 213.982 C 336.873 213.437,335.461 212.649,334.200 211.563 C 333.760 211.184,331.937 210.602,330.149 210.269 C 328.122 209.891,326.048 209.182,324.637 208.386 C 322.450 207.152,322.153 207.097,315.687 206.743 C 311.013 206.487,308.245 206.139,306.492 205.588 C 305.112 205.155,303.541 204.800,303.000 204.800 C 302.459 204.800,301.338 204.543,300.508 204.228 C 298.498 203.466,292.238 202.800,287.090 202.800 C 282.256 202.800,281.151 203.386,280.626 206.227 C 279.698 211.243,275.151 216.829,271.006 218.046 C 269.463 218.499,267.570 219.252,266.800 219.719 C 265.728 220.369,264.489 220.621,261.517 220.794 C 256.545 221.082,255.460 221.745,255.275 224.614 C 255.105 227.253,255.413 228.227,256.816 229.477 C 261.307 233.478,263.155 242.761,260.226 246.601 C 259.662 247.341,259.200 248.123,259.200 248.338 C 259.200 249.262,255.116 253.564,253.888 253.933 C 253.180 254.146,251.295 254.731,249.700 255.233 L 246.800 256.146 243.900 255.233 C 242.305 254.731,240.415 254.144,239.700 253.929 C 238.044 253.431,236.520 251.899,234.114 248.315 C 232.066 245.263,231.444 241.504,232.177 236.611 C 232.686 233.217,237.809 227.672,241.723 226.277 C 247.645 224.166,245.669 219.480,238.293 218.140 C 232.485 217.085,231.420 216.771,230.400 215.813 C 229.850 215.296,228.478 214.603,227.351 214.273 C 224.865 213.546,223.127 212.676,222.395 211.794 C 221.594 210.829,217.390 208.800,216.192 208.800 C 212.770 208.800,211.571 211.355,212.608 216.438 C 214.417 225.309,209.177 232.701,201.000 232.812 C 200.120 232.824,198.410 233.067,197.200 233.353 C 195.453 233.765,194.671 233.772,193.400 233.387 C 192.520 233.120,190.761 232.599,189.492 232.228 C 184.068 230.644,181.800 226.684,181.800 218.800 C 181.800 211.958,181.945 211.565,185.902 207.686 C 189.364 204.291,189.382 204.286,198.040 204.345 C 206.555 204.404,206.909 204.278,206.909 201.191 C 206.909 198.223,202.662 192.937,200.106 192.724 C 198.925 192.625,198.439 192.317,197.699 191.200 C 197.190 190.430,196.511 189.485,196.191 189.101 C 195.422 188.177,192.333 183.053,191.229 180.871 C 189.897 178.238,186.841 174.501,185.867 174.315 C 183.627 173.887,180.853 175.818,180.770 177.862 C 180.668 180.389,176.196 187.326,173.800 188.674 C 166.195 192.954,163.580 193.095,158.544 189.497 C 157.853 189.004,156.773 188.316,156.144 187.968 C 155.515 187.621,154.100 186.024,153.000 184.420 L 151.000 181.503 150.864 177.141 C 150.671 170.914,152.556 167.111,157.200 164.357 C 158.410 163.640,159.760 162.748,160.200 162.376 C 161.554 161.230,163.941 160.686,166.659 160.904 C 169.278 161.114,169.988 161.467,176.629 165.858 C 178.855 167.330,179.489 167.462,180.563 166.676 C 182.286 165.416,182.055 159.476,180.177 156.767 C 179.454 155.724,179.027 154.416,178.789 152.521 C 178.419 149.579,178.297 149.139,177.102 146.435 C 176.479 145.027,175.653 141.195,175.608 139.500 C 175.587 138.729,173.888 137.600,172.747 137.600 C 170.403 137.600,168.962 138.908,168.450 141.501 C 167.959 143.987,164.283 148.796,162.868 148.804 C 162.501 148.806,161.415 149.432,160.456 150.194 C 157.383 152.637,152.614 152.685,149.306 150.307 C 148.258 149.553,146.860 148.717,146.200 148.450 C 143.977 147.549,141.585 143.647,141.119 140.161 C 140.060 132.231,142.089 126.573,146.982 123.813 C 148.165 123.146,149.635 122.240,150.249 121.800 C 152.072 120.493,157.788 120.640,159.631 122.041 C 160.384 122.613,161.630 123.391,162.400 123.769 C 163.170 124.147,164.529 125.270,165.421 126.263 C 168.113 129.263,171.997 128.752,172.643 125.314 C 173.034 123.229,172.187 114.840,171.385 112.859 C 169.829 109.014,165.210 107.744,159.600 109.617 M199.400 130.793 C 197.291 130.970,195.109 131.488,193.000 132.310 C 191.240 132.996,189.260 133.673,188.600 133.814 C 185.334 134.515,184.826 134.820,184.366 136.357 C 183.770 138.345,184.449 142.766,185.792 145.652 C 186.342 146.833,186.794 148.481,186.796 149.314 C 186.800 150.928,190.435 159.920,191.307 160.475 C 192.016 160.925,195.168 160.871,196.803 160.381 C 197.571 160.150,199.100 159.804,200.200 159.612 C 206.413 158.528,209.557 154.471,207.959 149.600 C 207.706 148.830,207.375 144.780,207.222 140.600 C 206.827 129.781,207.117 130.144,199.400 130.793 M153.744 131.106 C 152.524 131.892,150.000 135.479,150.000 136.427 C 150.000 139.022,154.340 142.864,155.871 141.624 C 158.199 139.739,160.004 137.158,159.752 136.074 C 159.210 133.746,155.022 130.282,153.744 131.106 M205.516 166.780 C 204.700 166.939,203.340 167.548,202.495 168.134 C 201.649 168.720,200.544 169.200,200.040 169.200 C 197.017 169.200,195.474 173.444,197.962 174.914 C 198.601 175.291,199.563 175.600,200.100 175.600 C 201.195 175.600,202.157 176.514,202.606 177.982 C 202.771 178.523,203.586 179.963,204.418 181.182 C 205.249 182.402,206.154 183.895,206.429 184.500 C 206.704 185.105,207.064 185.600,207.230 185.600 C 207.396 185.600,208.088 186.455,208.768 187.500 C 213.315 194.487,215.105 194.950,219.501 190.278 C 222.777 186.797,223.356 183.957,221.287 181.514 C 218.864 178.653,216.847 175.608,214.655 171.503 C 211.810 166.177,210.938 165.727,205.516 166.780 M164.092 171.732 C 161.043 173.426,159.907 176.469,161.552 178.539 C 162.210 179.367,162.811 180.233,162.887 180.462 C 163.167 181.301,166.749 181.370,167.651 180.554 C 171.741 176.853,168.654 169.200,164.092 171.732 M227.208 194.856 C 223.008 199.186,222.952 202.576,227.053 204.211 C 228.176 204.659,229.745 205.596,230.539 206.293 C 231.350 207.005,232.644 207.672,233.491 207.814 C 235.724 208.189,237.721 208.835,238.400 209.402 C 241.356 211.872,246.189 212.133,248.207 209.932 C 251.214 206.650,251.209 199.200,248.198 199.200 C 247.944 199.200,246.850 198.737,245.768 198.170 C 244.686 197.604,242.279 196.613,240.420 195.969 C 238.530 195.313,236.544 194.321,235.913 193.717 C 234.985 192.828,234.335 192.608,232.231 192.474 L 229.675 192.312 227.208 194.856 M262.028 200.701 C 258.822 202.336,257.474 208.311,259.790 210.626 C 261.252 212.089,266.169 211.932,267.832 210.370 C 273.329 205.205,268.611 197.344,262.028 200.701 M194.128 214.476 C 193.218 214.916,191.600 218.164,191.600 219.552 C 191.600 222.590,196.721 223.549,202.100 221.518 C 204.500 220.612,202.913 215.600,200.226 215.600 C 199.755 215.600,198.663 215.240,197.800 214.800 C 196.059 213.912,195.412 213.855,194.128 214.476 M244.395 236.513 C 242.520 238.023,242.207 242.289,243.858 243.819 C 246.408 246.182,250.800 244.388,250.800 240.983 C 250.800 237.568,249.555 236.025,246.800 236.025 C 245.810 236.025,244.728 236.245,244.395 236.513 M363.617 287.893 C 363.296 288.019,362.577 288.545,362.020 289.062 C 361.462 289.579,360.375 290.207,359.603 290.457 C 358.831 290.708,357.536 291.507,356.724 292.234 C 355.912 292.960,354.312 293.833,353.168 294.172 C 352.024 294.512,350.490 295.247,349.757 295.805 C 348.991 296.390,347.020 297.167,345.113 297.636 C 343.291 298.084,341.093 298.914,340.229 299.479 C 339.102 300.215,337.584 300.666,334.860 301.071 C 332.161 301.472,330.201 302.050,328.082 303.070 C 325.528 304.298,324.522 304.546,321.051 304.805 C 316.640 305.134,312.814 306.001,310.000 307.309 C 308.550 307.984,306.956 308.213,301.800 308.489 C 298.096 308.687,294.726 309.075,293.800 309.410 C 292.920 309.728,291.390 310.157,290.400 310.364 C 289.410 310.570,287.880 311.015,287.000 311.352 C 286.004 311.734,284.027 311.972,281.762 311.982 C 275.948 312.011,265.592 312.822,263.216 313.436 C 261.971 313.758,259.109 314.000,256.560 314.000 C 252.958 314.000,251.748 314.154,250.344 314.791 C 247.781 315.954,236.998 315.960,233.200 314.800 C 231.368 314.241,229.443 314.005,226.680 314.003 C 223.900 314.001,222.406 313.817,221.542 313.370 C 220.608 312.887,219.606 312.792,217.261 312.964 C 212.817 313.289,212.478 313.284,209.400 312.834 C 207.860 312.609,204.260 312.528,201.400 312.654 C 197.107 312.843,195.855 312.764,194.224 312.200 C 193.137 311.824,191.607 311.514,190.824 311.510 C 190.041 311.507,188.230 310.953,186.800 310.281 C 183.075 308.528,178.176 308.300,149.000 308.517 C 128.510 308.669,124.280 308.797,122.600 309.316 C 121.500 309.655,119.814 310.057,118.854 310.209 C 117.893 310.361,116.363 310.805,115.454 311.195 C 114.134 311.761,112.145 311.956,105.600 312.160 C 101.090 312.301,95.420 312.478,93.000 312.555 C 90.205 312.643,87.826 312.951,86.479 313.400 C 84.146 314.176,79.655 314.075,78.628 313.223 C 78.270 312.926,74.801 312.609,69.132 312.354 C 61.517 312.013,59.809 311.818,57.547 311.033 C 54.473 309.967,53.134 310.249,51.781 312.247 C 50.527 314.098,50.637 325.558,51.958 330.800 C 53.403 336.532,53.517 336.708,57.888 339.929 C 61.781 342.798,61.611 342.782,88.214 342.792 C 109.988 342.800,110.696 342.824,113.014 343.644 C 115.786 344.625,121.530 344.543,124.000 343.487 C 124.770 343.158,126.493 342.765,127.828 342.613 C 130.212 342.343,131.088 341.940,134.995 339.316 C 137.666 337.522,141.198 332.447,141.200 330.400 C 141.200 329.850,141.728 328.285,142.372 326.923 C 143.017 325.561,143.663 323.581,143.809 322.523 C 145.028 313.657,145.530 313.421,162.800 313.586 C 189.403 313.839,187.068 313.741,188.086 314.652 C 190.205 316.549,203.812 317.483,210.173 316.167 C 212.625 315.660,213.645 315.617,215.017 315.963 C 215.972 316.203,217.723 316.400,218.907 316.400 C 221.060 316.400,222.800 317.432,222.800 318.709 C 222.800 318.960,223.595 319.632,224.566 320.201 C 227.022 321.641,227.501 322.573,227.985 326.857 C 228.990 335.742,230.325 340.781,231.970 341.900 C 234.409 343.558,273.854 342.513,280.800 340.607 C 282.890 340.034,286.670 339.374,289.200 339.140 C 293.905 338.705,295.258 338.397,300.271 336.619 C 301.869 336.052,304.874 335.420,307.045 335.195 C 310.227 334.865,311.585 334.497,314.410 333.195 C 316.567 332.202,318.463 331.599,319.437 331.598 C 321.620 331.595,323.983 330.885,325.420 329.802 C 326.091 329.296,327.928 328.498,329.503 328.029 C 331.079 327.560,332.885 326.740,333.517 326.208 C 334.150 325.676,335.642 324.859,336.834 324.392 C 338.025 323.924,339.450 323.120,340.000 322.603 C 340.550 322.087,341.990 321.228,343.200 320.695 C 344.410 320.162,345.969 319.245,346.664 318.658 C 347.358 318.071,348.684 317.323,349.609 316.997 C 350.534 316.671,351.926 315.845,352.704 315.162 C 353.481 314.480,354.856 313.596,355.759 313.198 C 359.799 311.417,365.227 304.414,366.628 299.176 C 368.752 291.233,367.457 286.382,363.617 287.893 "
       stroke="none"
       fill="#dadada"
       fill-rule="evenodd"
       style="fill:#ffffff;fill-opacity:1" />
    <path
       id="path0"
       d="M 74.951172,5.3066406 C 57.293848,5.3428634 39.635815,5.3119265 21.979065,5.450739 21.43144,5.5809551 20.639821,5.2331258 20.27965,5.7316753 c -0.372907,0.4687359 -0.769305,0.9416045 -0.908556,1.5398091 -0.999841,0.1523322 -1.841116,0.9442207 -2.06836,1.9277344 -1.343395,-0.03571 -3.03046,0.00194 -3.75139,1.3575242 -0.183926,0.494394 -0.321546,0.866337 -0.905533,0.938084 -1.324327,0.64695 -1.50499,2.254315 -1.44545,3.563745 0.04839,0.49886 -0.775289,0.354582 -1.017019,0.75021 -0.4986244,0.375197 -0.8124694,0.977819 -0.917717,1.589656 -0.6216868,0.0896 -1.243499,0.178319 -1.8652344,0.267578 0,119.555994 0,239.111974 0,358.667964 0.6183048,0.0974 1.2656037,0.16456 1.8671875,0.2793 0.149139,1.00787 0.9416439,1.85077 1.9316409,2.08203 -0.03563,1.34396 0.0012,3.03199 1.357524,3.75335 0.494394,0.18392 0.866337,0.32154 0.938084,0.90553 0.64695,1.32433 2.254315,1.50499 3.563745,1.44545 0.49886,-0.0484 0.354582,0.77529 0.75021,1.01702 0.375197,0.49862 0.977819,0.81247 1.589656,0.91772 0.0896,0.62168 0.178319,1.24349 0.267578,1.86523 122.222654,0 244.445314,0 366.667964,0 0.0974,-0.61831 0.16456,-1.2656 0.2793,-1.86719 1.00787,-0.14914 1.85077,-0.94164 2.08203,-1.93164 1.34396,0.0356 3.03199,-0.001 3.75335,-1.35752 0.18392,-0.4944 0.32154,-0.86634 0.90553,-0.93809 1.32433,-0.64695 1.50499,-2.25431 1.44545,-3.56374 -0.0484,-0.49886 0.77529,-0.35458 1.01702,-0.75021 0.49862,-0.3752 0.81247,-0.97782 0.91772,-1.58966 0.62168,-0.0896 1.24349,-0.17832 1.86523,-0.26758 0,-119.55599 0,-239.11197 0,-358.667964 -0.61831,-0.09734 -1.2656,-0.16456 -1.86719,-0.279297 -0.14914,-1.00787 -0.94164,-1.850767 -1.93164,-2.082031 0.0356,-1.343955 -0.001,-3.031983 -1.35752,-3.753344 -0.4944,-0.183926 -0.86634,-0.321546 -0.93809,-0.905533 -0.64695,-1.3243271 -2.25431,-1.50499 -3.56374,-1.4454496 -0.49886,0.048392 -0.35458,-0.7752897 -0.75021,-1.0170195 C 387.81602,7.6847176 387.2134,7.3708726 386.60156,7.265625 386.51197,6.6439382 386.42324,6.022126 386.33398,5.4003906 294.1224,5.3639404 201.91082,5.2679647 109.69922,5.2913626 98.116538,5.2964553 86.533855,5.301548 74.951172,5.3066406 Z M 375.75,21.599609 c 2.17701,1.163579 4.19841,2.685501 5.82812,4.544922 0.52999,1.604885 1.40766,3.089118 2.22266,4.572266 0,110.870443 0,221.740883 0,332.611323 -1.22661,2.5411 -2.51247,5.16334 -4.71856,7.01159 -1.69682,1.52864 -3.80486,2.5369 -5.85409,3.46107 -113.50378,0 -227.00756,0 -340.511333,0 -1.483085,-0.81503 -2.967452,-1.69268 -4.572266,-2.22266 -1.88158,-1.65363 -3.427587,-3.70197 -4.58831,-5.91822 -0.357621,-0.87302 -0.942489,-1.69418 -1.15583,-2.60013 0,-110.74454 0,-221.48907 0,-332.233598 1.256845,-2.685338 2.460189,-5.580746 4.906989,-7.420711 1.629977,-1.28952 3.575481,-2.141579 5.450823,-2.967972 113.500517,-0.01338 227.001037,-0.02575 340.501567,-0.0371 0.83007,0.399739 1.66015,0.799479 2.49023,1.199218 z m -180.32422,30 c -1.84604,-0.0041 -3.63214,0.460177 -5.39648,0.949219 -2.44117,0.536397 -4.93076,1.053377 -7.12257,2.315017 -5.70904,3.125868 -10.07886,8.528095 -12.21118,14.6531 -0.91114,3.031269 -1.71128,6.098259 -2.50772,9.161294 -0.77305,3.743591 -0.539,7.594846 -0.60693,11.393245 -0.065,2.724163 0.17002,5.488725 -0.34792,8.179244 -0.0747,0.846725 -0.81385,1.36662 -1.61101,1.448564 -3.00293,0.478698 -6.06304,0.294752 -9.092,0.432458 -5.70029,0.10926 -11.39594,0.36638 -17.09325,0.5547 -1.2316,-0.0584 -2.85961,0.16166 -3.58416,-1.093446 -1.92441,-2.896662 -4.37165,-5.415336 -6.9324,-7.752162 -0.97522,-0.857536 -2.07281,-1.7539 -3.44673,-1.719148 -5.8086,-0.386743 -11.63626,-0.377043 -17.45542,-0.475882 -15.957748,-0.143145 -31.919049,-0.180069 -47.87487,0.141295 -2.510658,0.121085 -5.052759,0.02335 -7.535718,0.447268 -3.039085,1.069286 -5.289948,3.586872 -7.137071,6.127091 -1.006144,1.453741 -1.913871,2.972612 -2.870742,4.458844 0,16.55078 0,33.10156 0,49.65235 2.392528,3.39014 4.57961,7.21451 8.276269,9.354 1.582408,0.99764 3.464003,1.19086 5.227638,1.67334 0.771981,0.24911 1.768393,0.66077 1.731632,1.63237 0.332461,2.73229 0.110474,5.49642 -0.133976,8.22701 -0.05153,0.47101 -0.142193,1.30077 -0.228946,1.90678 -0.288911,2.49577 -0.890957,4.93739 -1.633198,7.33281 -0.594225,2.05268 -0.851645,4.17661 -1.303872,6.25845 -0.560906,2.287 -1.887348,4.28498 -2.502054,6.55627 -0.46754,1.84652 -0.976554,3.71465 -1.960892,5.38205 -0.853897,1.65718 -1.311137,3.47569 -1.630053,5.30066 -0.499483,2.06692 -1.741519,3.8499 -2.267811,5.91061 -0.808135,2.5946 -1.044607,5.3702 -2.293487,7.82111 -1.392902,3.91723 -1.514765,8.12748 -2.532375,12.13851 -0.534355,2.47147 -1.505584,4.80088 -1.72406,7.35359 -0.594564,5.90151 -0.624142,11.79432 -1.149545,17.68372 -0.100688,1.56441 -0.310559,3.1145 -0.643846,4.64353 -0.364971,3.26741 -0.282241,6.60237 0.294102,9.84079 0.661164,3.30571 0.704895,6.69741 0.919787,10.05276 0.237797,4.12156 0.185036,8.27324 0.78125,12.36523 0.41245,2.32565 1.529215,4.46898 1.787804,6.8325 0.474238,2.90599 0.459896,5.89272 -0.139416,8.77852 -0.781952,6.34274 -0.522046,12.76279 -1.288682,19.10557 -0.238061,1.26856 -0.775281,2.55408 -0.374937,3.85765 0.593851,2.12723 1.585511,4.12666 2.144137,6.26951 0.605289,2.86729 2.293345,5.34993 4.038749,7.64655 0.760983,0.97588 1.647482,1.91406 2.809906,2.38436 1.809892,1.41418 3.639969,2.92257 5.883306,3.58746 2.344491,0.7637 4.386339,2.18549 6.490695,3.43046 19.450614,0.0482 38.901236,0.18967 58.351916,0.15244 3.85439,-0.0757 7.73538,0.0281 11.56094,-0.51401 1.55389,-0.19873 2.97475,-0.94312 4.10863,-2.00953 1.32791,-1.00484 3.06081,-1.19805 4.389,-2.2073 4.32165,-3.00113 7.99396,-7.01709 10.38053,-11.72238 1.66,-3.25596 2.07168,-6.94539 3.35479,-10.34129 0.49876,-1.25253 0.91106,-2.69373 2.01826,-3.55129 1.1723,-0.44059 2.37183,0.30285 3.49414,0.56445 3.02774,0.77651 6.19093,0.55145 9.28711,0.62454 2.89094,0 5.78181,0.0271 8.67187,0.10007 1.41186,0.0496 3.06172,0.0921 4.5639,0.16987 4.011,0.19517 8.03767,0.40063 11.9922,1.13689 4.37476,0.60151 8.82716,0.42149 13.18023,1.18933 1.83502,0.60342 3.99988,0.74708 6.00044,0.92326 1.56433,0.18302 3.27768,0.0141 4.69617,0.79893 0.95576,0.94725 0.96007,2.43507 1.20268,3.68141 0.43926,3.75152 0.5292,7.57418 1.62068,11.21914 0.73421,2.39807 1.72662,5.06878 4.05034,6.34797 0.54407,0.33825 1.31097,0.21964 1.61766,0.87841 1.02271,1.45655 2.71847,2.2583 4.45851,2.43409 4.06665,0.4475 8.1701,0.26465 12.2539,0.32321 4.5891,-0.0419 9.19105,0.10395 13.76904,-0.26893 2.38302,-0.22487 4.64742,-1.14002 7.05343,-1.21876 3.41811,-0.18606 6.89674,0.0178 10.23987,-0.86837 5.76902,-1.41455 11.78701,-0.73502 17.6179,-1.70089 2.70677,-0.40246 5.14248,-1.70907 7.729,-2.51104 3.84721,-1.01142 8.05251,-0.21937 11.72483,-1.98398 2.36492,-1.15893 4.86558,-2.11293 7.5117,-2.33613 2.2803,-0.18148 4.61931,-0.64607 6.49853,-2.03202 3.02933,-1.97682 7.15973,-1.29833 9.93774,-3.77028 1.79961,-1.37229 4.1818,-1.55444 6.06177,-2.79453 1.17442,-0.71303 2.1384,-1.80616 3.53914,-2.1008 2.20271,-0.5227 4.07352,-1.85037 5.84988,-3.191 0.7597,-0.57725 1.75972,-0.61483 2.52086,-1.20547 1.6968,-0.96027 3.02564,-2.48313 4.81546,-3.26289 2.19493,-0.50083 3.56133,-2.49908 5.4992,-3.50105 3.40959,-1.77208 5.94063,-4.79527 8.24562,-7.7914 2.206,-3.04222 4.3163,-6.29311 5.2641,-9.97114 0.31874,-1.91491 0.70875,-3.8173 1.22936,-5.68758 0.61003,-3.9062 0.54436,-7.88437 0.43075,-11.82535 -0.11192,-2.17114 -0.18652,-4.3956 -0.95832,-6.45041 -0.48331,-3.09866 -0.44133,-6.25507 -0.56771,-9.34612 -0.16034,-3.87861 -0.0946,-7.78561 -0.67228,-11.63245 -0.34429,-1.69934 -1.22769,-3.24292 -1.4755,-4.97255 -0.85318,-4.24669 -0.82703,-8.62925 -1.82139,-12.84929 -0.42599,-1.56542 -1.52163,-2.84251 -1.88621,-4.43537 -0.77902,-3.44968 -2.38728,-6.64294 -4.07856,-9.72504 -1.0397,-1.84342 -2.45213,-3.43987 -3.4864,-5.28881 -2.53127,-3.49629 -5.69928,-6.47214 -8.85196,-9.39861 -2.27212,-1.98418 -4.51739,-4.0749 -7.17977,-5.52908 -1.68685,-0.68571 -3.13258,-1.80558 -4.70702,-2.69132 -1.87926,-1.06778 -4.09103,-1.26926 -5.98297,-2.3094 -1.67379,-0.92513 -3.34888,-1.94874 -5.27824,-2.23069 -3.33741,-0.56884 -6.83904,-0.6145 -9.94315,-2.12502 -1.63978,-0.83939 -3.41866,-1.39747 -5.26536,-1.50051 -4.39034,-0.36077 -8.80279,-0.38471 -13.19192,-0.77592 -1.16767,-0.10091 -2.58029,-0.25912 -3.83284,-0.46499 -2.98601,-0.42271 -5.82812,-1.46111 -8.73986,-2.19436 -3.8679,-0.72183 -7.82467,-0.34919 -11.73247,-0.57687 -2.83777,-0.0995 -5.67305,-0.26955 -8.50147,-0.52159 -0.6238,-0.0678 -1.5516,-0.15454 -2.29513,-0.26249 -1.77329,-0.18005 -3.42001,-0.97574 -5.21459,-1.04384 -2.85331,0.003 -5.48552,-1.27941 -8.30619,-1.51901 -2.25075,-0.22981 -4.55265,-0.0628 -6.75658,-0.6783 -1.39654,-0.26944 -2.6059,-1.01786 -3.78002,-1.77718 -1.5582,-0.97076 -3.4183,-1.37028 -4.83304,-2.58246 -1.35015,-1.20113 -2.86524,-2.18754 -4.32031,-3.24805 -2.89056,-2.59008 -5.45376,-5.54455 -7.72953,-8.68461 -1.95461,-2.99939 -3.22532,-6.375 -4.89517,-9.53157 -1.37413,-2.69829 -1.31421,-5.8095 -2.17415,-8.66703 -0.47715,-1.83696 -1.21665,-3.61285 -1.34945,-5.52665 -0.33586,-2.80454 -0.4498,-5.63612 -0.56711,-8.3903 -0.43736,-12.46254 -0.49947,-25.01935 -0.64821,-37.52992 -0.12698,-12.467351 -0.23463,-24.934889 -0.35123,-37.402339 -1.46243,-2.696112 -2.56376,-5.651586 -4.59916,-7.99014 -2.07232,-2.30815 -5.22698,-3.055991 -8.12353,-3.754105 -2.77249,-0.577794 -5.61568,-0.842378 -8.44723,-0.769427 z m 2.16016,11.939453 c 1.26261,0.05483 2.64035,-0.05632 3.78711,0.544922 1.1806,0.924071 2.22081,2.043616 3.05859,3.283204 0.34681,4.578882 0.25638,9.179224 0.32311,13.768357 0.0518,12.348614 0.0293,24.697405 0.046,37.046095 -1.42253,1.26222 -3.21432,2.08485 -5.03711,2.58398 -1.9793,0.048 -3.85126,0.74283 -5.78711,1.06446 -0.38112,0.0629 -1.16945,0.17399 -1.70703,0.24219 -1.02375,0.1247 -1.89899,0.2163 -2.86914,0.29101 -0.55248,0.031 -1.29726,0.0953 -1.8801,0.12326 -1.31085,0.0153 -2.71363,0.26083 -3.95974,-0.24435 -0.68077,-0.86191 -0.58033,-2.08942 -0.73529,-3.12907 -0.24641,-3.96257 -0.2921,-8.00146 -1.52146,-11.8171 -1.2667,-5.32655 -1.48443,-10.839959 -1.50099,-16.294838 0.0515,-3.831309 0.20964,-7.773993 1.01418,-11.59679 0.33663,-1.983876 1.65211,-3.63853 1.9089,-5.646651 0.0119,-0.893131 0.28235,-1.758402 0.86592,-2.451054 0.93174,-1.177272 1.70221,-2.476586 2.58973,-3.678644 1.39085,-1.209629 3.22056,-1.721742 4.79983,-2.634723 1.1319,-0.700835 2.39794,-1.130297 3.7253,-1.255576 0.95434,-0.1288 1.91665,-0.187318 2.87927,-0.198682 z M 88.925781,101.33203 c 0.971475,0.12017 1.973259,0.44779 2.730469,1.07422 0.588838,1.85129 0.478285,3.84273 0.596419,5.76384 0.184536,9.54399 0.107832,19.09115 0.124856,28.63655 -0.06727,3.62944 0.06804,7.28513 -0.43163,10.8892 -0.127381,0.43471 -0.08829,1.16342 -0.718494,1.16942 -1.426593,0.39135 -2.995928,1.00297 -4.459823,0.47263 -0.876655,-0.5666 -0.539003,-1.77449 -0.698841,-2.65205 -0.389626,-10.10288 -0.340376,-20.21754 -0.266752,-30.32601 0.08477,-4.61361 0.06013,-9.23801 0.434987,-13.83933 0.208625,-1.12113 1.782725,-1.26193 2.688809,-1.18847 z m 16.474609,0.0195 c 0.65911,0.0617 1.53471,-0.0126 1.97852,0.5625 0.58256,2.39185 0.44825,4.88993 0.55602,7.33437 0.0927,9.90988 0.0854,19.8211 0.0235,29.73116 -0.0819,3.21126 1e-5,6.45551 -0.56001,9.62979 -0.0794,0.5352 -0.26198,1.14756 -0.92812,0.97024 -1.24719,-0.0776 -2.5608,0.13159 -3.76134,-0.24954 -0.74871,-1.2254 -0.70264,-2.76292 -0.86497,-4.15463 -0.37117,-6.85769 -0.19694,-13.73041 -0.24198,-20.59498 0.0404,-6.58135 -0.0891,-13.16851 0.20971,-19.74499 0.14009,-1.00043 -0.01,-2.19834 0.69217,-3.0054 0.9026,-0.39949 1.92076,-0.4696 2.89648,-0.47852 z m -32.912109,0.19336 c 1.09892,0.11888 2.146626,0.55594 3.115235,1.05469 0.574104,2.0131 0.451909,4.14881 0.566406,6.22266 0.154452,10.11326 0.171738,20.2286 0.176639,30.34295 -0.07174,2.79318 0.04948,5.62163 -0.461795,8.3797 -0.122783,0.92462 -1.171349,1.18364 -1.865235,1.57617 -1.57246,0.73318 -3.706964,0.41944 -4.642858,-1.15643 -0.397243,-0.47983 -0.719603,-0.98304 -0.575892,-1.63185 0.0254,-12.88022 -0.05854,-25.76111 0.06159,-38.64086 0.07747,-1.49382 -0.04207,-3.03962 0.340758,-4.49078 0.697028,-1.12201 1.944762,-1.84209 3.285156,-1.65625 z m 45.833989,0.4961 c 1.17282,0.002 2.10321,0.753 2.83963,1.59036 0.82369,0.86606 1.49888,1.85759 2.2424,2.7905 0.0419,10.50279 0.19768,21.00566 0.14886,31.50849 -0.0916,2.34417 0.0491,4.76048 -0.64105,7.02861 -0.62654,1.31975 -1.77008,2.30552 -2.73633,3.375 -0.4869,0.44324 -1.24919,0.14836 -1.84334,0.24843 -0.70595,0.23993 -0.74022,-0.62207 -1.0407,-1.04267 -0.35546,-0.59426 -0.6391,-1.2055 -0.50974,-1.91434 0.0896,-12.28367 0.0676,-24.56865 0.25246,-36.85133 0.10669,-2.08951 -0.0176,-4.23799 0.54366,-6.27016 0.1608,-0.34442 0.33076,-0.55945 0.74415,-0.46289 z m -59.996098,1.13476 c 0.457827,0.13082 0.868746,0.5886 1.070665,0.97695 0.01594,12.374 0.152172,24.74841 0.0602,37.12219 -0.09013,2.12709 0.03365,4.30656 -0.49219,6.38328 -0.419994,0.36115 -1.009384,0.43536 -1.395508,-0.0215 -0.95379,-0.82718 -1.786752,-1.82479 -2.463867,-2.88087 -0.171774,-0.87212 -0.176479,-1.8028 -0.213387,-2.57201 -0.104121,-4.02133 -0.07977,-8.23857 -0.08999,-12.33854 -0.0026,-7.74336 -7.59e-4,-15.48672 -0.0013,-23.23008 1.011548,-1.25535 1.90148,-2.83491 3.47461,-3.43554 l 0.04883,-0.004 z m 106.580078,7.62891 c 1.38821,0.0653 3.09971,0.31112 3.75454,1.72775 1.49715,2.79238 2.03233,6.00553 2.19727,9.13979 -0.001,1.42613 0.0816,2.98192 -0.62954,4.26332 -1.08837,0.7487 -2.48555,-0.1154 -3.2595,-0.94987 -1.30701,-1.45299 -2.86864,-2.66438 -4.61886,-3.5349 -1.27753,-0.79164 -2.45721,-1.82291 -3.98464,-2.09901 -2.70816,-0.62218 -5.64874,-0.69071 -8.28544,0.27518 -1.42783,0.71855 -2.69464,1.72718 -4.11719,2.46485 -3.54415,1.94433 -5.89893,5.61875 -6.66109,9.53932 -0.67951,3.40491 -0.58786,6.96152 0.14156,10.34935 0.84126,2.9952 2.40481,5.97856 5.01024,7.78947 0.99938,0.59082 2.05923,1.00932 3.03719,1.71809 2.5652,2.00795 5.94079,2.95433 9.16845,2.43137 2.08704,-0.29 4.01716,-1.26066 5.62982,-2.59518 0.71058,-0.65766 1.74483,-0.57581 2.4845,-1.18361 2.14278,-1.57454 3.69276,-3.84129 4.90417,-6.17967 0.66722,-1.13146 0.63641,-2.52614 1.33789,-3.63086 0.58729,-0.80156 1.88375,-0.99033 2.62696,-0.29102 0.26929,2.54318 0.76764,5.10104 1.74681,7.47228 0.83131,1.65229 1.2556,3.45886 1.4192,5.29335 0.21364,1.9702 0.83461,3.90298 1.9792,5.53235 0.9047,1.98169 1.20966,4.30671 0.68449,6.43166 -0.0793,0.69564 -0.69269,-0.0113 -1.021,-0.11981 -2.80124,-1.73316 -5.43594,-3.79364 -8.48058,-5.0942 -2.33129,-0.82561 -4.90887,-0.8693 -7.32326,-0.41082 -1.62585,0.29204 -3.09252,1.10822 -4.35655,2.14773 -2.14676,1.42324 -4.50901,2.63398 -6.15808,4.6752 -2.6004,2.98965 -3.39788,7.09507 -3.27199,10.95659 0.0436,1.74308 0.10902,3.4859 0.15871,5.22895 1.84147,2.54154 3.37293,5.42292 5.88136,7.38905 0.76938,0.4773 1.63549,0.98495 2.26473,1.43317 2.3946,1.75613 5.22557,3.32812 8.29931,3.0508 3.47416,-0.29825 6.56835,-2.10478 9.55867,-3.75558 2.2617,-1.59457 3.82848,-3.96345 5.29375,-6.2663 1.13506,-1.92992 2.27651,-3.97299 2.4971,-6.23786 0.44075,-0.89636 1.52889,-1.5733 2.51563,-1.46289 2.11141,1.96639 3.63913,4.45987 4.94457,7.00841 1.60857,2.83101 3.24961,5.65824 5.23802,8.24285 0.83955,1.31518 1.86516,2.74554 3.51493,3.02689 0.82831,0.0599 1.63027,0.3174 2.23393,0.91568 1.64087,1.43426 3.08289,3.27196 3.62128,5.41555 -0.0386,0.43647 0.27945,1.32006 -0.4088,1.26451 -3.29108,0.3392 -6.61083,0.0984 -9.91384,0.15941 -2.67162,0.0161 -5.62058,0.0405 -7.78673,1.83975 -1.74127,1.49046 -3.39728,3.10064 -4.88081,4.84911 -1.66983,1.91717 -2.05728,4.53226 -2.06613,6.9886 -0.0792,4.35178 -0.13779,8.99788 2.07584,12.90253 1.55481,2.80405 4.44995,4.60155 7.50088,5.37253 2.26037,0.56203 4.50606,1.72263 6.89366,1.28176 1.90179,-0.38263 3.80939,-0.80158 5.75965,-0.8088 4.49306,-0.29747 8.73551,-2.96696 10.90025,-6.92307 2.14311,-3.74478 2.43378,-8.29984 1.49222,-12.44707 -0.16403,-1.3576 -0.49417,-2.93603 0.301,-4.15504 0.84245,-0.78585 2.04952,-0.30748 2.95117,0.10156 1.37782,0.63291 2.81242,1.2709 3.84776,2.4119 1.81319,1.51978 4.17778,2.01998 6.32802,2.85763 1.19479,0.47882 1.99337,1.6002 3.25391,1.96289 2.96626,1.08415 6.18793,1.16721 9.17377,2.16742 1.08479,0.44348 2.3947,0.94908 2.88482,2.09821 -0.22853,0.83511 -1.23699,1.16206 -1.95955,1.48696 -3.4662,1.29377 -6.27024,3.93113 -8.52091,6.80306 -1.43919,1.87646 -2.57733,4.07869 -2.67511,6.48498 -0.50429,4.22358 0.13707,8.76114 2.71705,12.25165 1.64338,2.31919 3.37901,4.92721 6.18246,5.91889 2.62191,0.82237 5.24906,1.6285 7.86739,2.46266 2.70569,-0.88951 5.45669,-1.6534 8.14453,-2.58789 1.94495,-1.1177 3.47341,-2.8354 4.90728,-4.53388 0.64879,-0.74281 1.10637,-1.62305 1.43547,-2.53681 1.04782,-1.37472 1.88487,-2.93716 2.13606,-4.66801 0.67835,-4.20012 -0.35041,-8.57369 -2.38875,-12.2675 -0.85393,-1.5733 -2.04635,-2.92253 -3.35178,-4.13247 -0.71384,-0.95504 -0.40568,-2.25894 -0.34636,-3.36366 -0.004,-0.98648 1.18805,-0.98701 1.8955,-1.14178 2.9852,-0.42309 6.24527,-0.0504 8.90396,-1.74166 2.1047,-1.08418 4.56381,-1.36233 6.49991,-2.79039 3.50544,-2.43279 6.15638,-6.07221 7.5056,-10.11213 0.40293,-0.9867 0.34071,-2.14113 0.90272,-3.05351 1.22297,-0.63066 2.69151,-0.44198 4.0293,-0.51367 4.04754,0.0607 8.12729,0.2622 12.09464,1.11181 1.36421,0.45138 2.75115,0.87131 4.19485,0.94476 2.07319,0.42107 4.06909,1.19458 6.1918,1.37584 3.93431,0.54208 7.92569,0.45262 11.86051,0.96993 1.61673,0.31421 2.89589,1.4724 4.46315,1.94423 2.28339,0.96414 4.8245,1.04094 7.1013,2.00695 1.56444,1.3623 3.46379,2.25034 5.4082,2.92382 1.57994,0.75494 2.77286,2.10372 4.33908,2.89173 2.24791,1.21588 4.01799,3.12033 5.8501,4.86599 1.51732,1.50034 2.9412,3.10203 4.07043,4.91851 0.78883,1.05781 1.75102,1.98718 2.30739,3.20689 1.54241,2.73949 2.77413,5.64473 3.72051,8.64037 0.68181,2.17715 2.05017,4.12885 2.25679,6.44484 0.3585,3.33294 0.54992,6.72917 1.65276,9.92521 1.12208,3.89807 1.40396,8.01169 1.1858,12.05008 -0.1318,1.74288 -0.30402,3.62717 -1.51889,4.99537 -1.65214,2.18643 -3.60676,4.15715 -5.88382,5.69204 -1.41422,1.03536 -2.60095,2.47897 -4.37273,2.9178 -1.48367,0.51117 -2.72903,1.47923 -4.05384,2.27971 -2.52734,1.34974 -5.57052,1.62497 -7.82698,3.49924 -1.9224,1.30293 -4.37701,1.04968 -6.53327,1.67103 -2.06468,0.43596 -3.85396,1.58424 -5.73862,2.46427 -2.4842,0.87773 -5.19945,0.51444 -7.73828,1.16634 -2.79284,0.57144 -5.11924,2.55355 -8.00818,2.76581 -4.13229,0.55811 -8.36899,0.51928 -12.41225,1.62343 -3.65057,1.59532 -7.66744,2.04451 -11.59696,2.42455 -3.28788,0.33492 -6.59716,0.18834 -9.89034,0.39099 -2.81143,0.11732 -5.32003,1.5405 -8.06068,2.00993 -4.71001,0.83316 -9.51873,0.73137 -14.28391,0.83286 -10.37416,0.0521 -20.75008,0.10138 -31.12338,-0.0676 -4.89893,-0.14072 -9.93226,-0.18008 -14.57337,-1.95859 -3.72527,-1.328 -7.74354,-0.7724 -11.61254,-1.04118 -4.9865,-0.23154 -9.98421,-0.51952 -14.92669,-1.24056 -1.76561,-0.47752 -3.5904,-0.64599 -5.41371,-0.69492 -2.06744,-0.16845 -4.00418,-1.03044 -6.08528,-1.10869 -7.21845,-0.57204 -14.46918,-0.55474 -21.70608,-0.53678 -4.97911,0.0882 -9.97581,0.0862 -14.92993,0.641 -1.53739,0.1268 -2.88904,1.01792 -4.4486,1.04129 -2.11651,-0.006 -4.32839,0.48232 -6.45448,0.87534 -5.99554,0.79801 -12.0483,1.09584 -18.09239,1.1774 -1.64741,0.0591 -3.26516,0.41925 -4.78435,1.05252 -2.007166,0.60938 -4.275663,0.86419 -6.242996,1.0881 -5.0945,0.49956 -10.346494,0.59341 -15.382812,0.45313 -4.269774,-0.18839 -8.596777,-0.3446 -12.751474,-1.4287 -2.342072,-0.96435 -4.873981,-1.29509 -7.38306,-1.48478 -0.949425,-0.0324 -1.925153,-0.24977 -2.566685,-1.01262 -1.804103,-1.48668 -3.356501,-3.34258 -4.109328,-5.58562 -1.399074,-4.09165 -1.56129,-8.46642 -1.808594,-12.7461 -0.05789,-1.38761 -0.107258,-3.0067 -0.174594,-4.48574 -0.171205,-3.26298 -0.313889,-6.54988 -1.041365,-9.74594 -0.342208,-2.27046 -0.245745,-4.58847 0.0851,-6.85425 0.0591,-0.46343 0.226286,-1.26124 0.313178,-1.86289 0.831332,-6.10263 0.817656,-12.27606 1.29327,-18.40815 0.07713,-2.09817 0.83725,-4.06097 1.414085,-6.05209 0.862432,-3.06716 1.121285,-6.24908 1.586889,-9.38781 0.132939,-1.15692 0.675799,-2.17637 1.185256,-3.1987 1.479657,-3.54464 1.758145,-7.47245 3.404492,-10.9606 0.623739,-1.43664 0.958947,-2.96685 1.320124,-4.48054 0.594246,-1.82747 1.708353,-3.43204 2.280615,-5.27195 0.91993,-2.51419 1.452367,-5.16907 2.643497,-7.58235 1.060766,-2.74016 1.229624,-5.70252 1.982422,-8.52344 0.135561,-0.49975 0.346956,-1.32913 0.532791,-1.95121 0.751874,-2.39747 1.702594,-4.77147 1.827537,-7.31212 0.321793,-4.39083 0.371215,-8.79685 0.586938,-13.1937 2.7361,-0.43985 5.524396,-0.39975 8.23666,-0.4922 15.890298,-0.24594 31.783174,-0.27568 47.674664,-0.41632 0.76119,0.11312 1.13165,-0.76398 1.70221,-1.1344 2.05289,-1.81973 3.98442,-3.77203 5.72708,-5.89188 1.60317,-1.66653 1.57026,-4.14367 1.75045,-6.30255 0.32304,-8.08654 0.16553,-16.18324 0.2111,-24.27437 0.0589,-2.90063 -0.089,-5.83198 0.3788,-8.7048 -0.0445,-0.65651 0.66369,-0.52297 1.10442,-0.60519 2.47945,-0.23721 4.88765,-0.89363 7.32356,-1.36881 4.6409,-0.6594 9.37922,0.0341 13.9982,-0.81467 1.94469,-0.51429 3.89023,-1.20262 5.9354,-1.09867 l 0.1,0.001 z m 39.1582,21.63867 c 0.61973,-0.0873 0.51652,0.76296 0.6602,1.16712 0.57951,4.28117 0.42801,8.62115 0.83394,12.91882 0.10389,1.59798 0.31866,3.18614 0.75,4.72851 0.39975,2.04061 -0.83551,4.06325 -2.60092,5.02878 -2.32325,1.42861 -5.14121,1.40778 -7.67837,2.23099 -1.15536,0.24672 -2.35039,0.31877 -3.52735,0.21484 -1.43525,-2.7376 -2.56172,-5.63882 -3.49439,-8.58348 -0.32608,-1.17533 -0.28397,-2.42655 -0.73088,-3.57974 -0.60365,-1.78344 -1.50536,-3.47056 -1.79533,-5.35344 -0.2503,-1.54147 -0.60038,-3.20527 -0.0399,-4.71381 1.50876,-0.63828 3.18785,-0.75453 4.70755,-1.38491 2.22107,-0.81311 4.43606,-1.68205 6.78676,-2.04801 2.01986,-0.36419 4.07135,-0.66646 6.12873,-0.62567 z m -49.24414,0.67187 c 1.04215,1.04018 2.23073,2.02247 2.9336,3.33399 -0.69361,1.23985 -1.75119,2.25575 -2.76563,3.24023 -0.50038,0.57281 -0.92281,-0.47903 -1.30652,-0.77663 -0.57952,-0.79189 -1.40869,-1.52604 -1.59973,-2.51634 0.5123,-1.27827 1.5751,-2.25062 2.46283,-3.27704 0.1086,-0.15963 0.15288,-0.12835 0.27545,-0.004 z m 54.83203,35.27539 c 0.54771,-0.0403 1.02347,0.15005 1.23457,0.6797 1.99203,3.0396 3.47389,6.38428 5.57086,9.36172 1.1125,1.73942 2.4798,3.2948 3.70458,4.94771 0.87071,1.47325 -0.19115,3.14672 -1.08909,4.32802 -1.12521,1.32118 -2.28383,2.72871 -3.84279,3.54809 -0.8998,0.3198 -1.57273,-0.66566 -2.139,-1.2137 -1.64285,-1.78629 -2.66437,-4.05327 -4.33952,-5.80583 -0.71902,-0.58035 -0.9198,-1.57709 -1.47484,-2.30748 -1.1082,-1.81689 -2.46304,-3.51339 -3.15797,-5.54799 -0.72798,-1.59782 -2.33371,-2.81705 -4.12695,-2.80469 -0.57172,-0.13153 -1.51714,-0.39705 -1.23633,-1.18555 0.14607,-0.79284 0.90767,-1.31272 1.69726,-1.22265 1.97943,-0.2478 3.3898,-1.87872 5.31446,-2.28906 1.26202,-0.34056 2.57554,-0.53891 3.88476,-0.48829 z m -43.74804,4.88672 c 1.49667,0.49174 1.95577,2.41166 1.58398,3.80274 -0.22557,0.7391 -0.572,1.6469 -1.3164,1.96094 -0.58663,0.065 -1.31199,0.21186 -1.82662,-0.0561 -0.42492,-0.82581 -1.27888,-1.42884 -1.49174,-2.34821 -0.008,-1.54076 1.24543,-3.03539 2.74173,-3.35669 0.10215,-0.0113 0.20673,-0.0139 0.30905,-0.003 z m 66.17578,21.19141 c 0.93319,0.067 1.99993,0.0603 2.64385,0.86014 2.79372,2.12374 6.3403,2.7755 9.44899,4.29262 1.26479,0.5709 2.4893,1.35962 3.8681,1.58552 0.72095,1.63784 0.42029,3.54734 -0.10168,5.20424 -0.43569,1.3037 -1.25685,2.77033 -2.77832,2.92092 -2.11712,0.37694 -4.30125,-0.40898 -5.91335,-1.77846 -1.78655,-1.0779 -3.89446,-1.35185 -5.87722,-1.8575 -1.4126,-0.58703 -2.42348,-1.81463 -3.80342,-2.47131 -1.08504,-0.75052 -2.59317,-0.90016 -3.39711,-2.01984 -0.46891,-1.1287 0.38367,-2.27909 0.97461,-3.19141 0.97362,-1.33185 2.19314,-2.45318 3.32422,-3.64648 0.53711,0.0339 1.07422,0.0677 1.61133,0.10156 z m 33.12304,7.36719 c 1.39542,0.0906 3.10992,0.81244 3.24219,2.40234 0.23105,2.83572 -2.42371,5.42408 -5.2377,5.29938 -0.70538,-0.01 -1.51051,0.10917 -2.14706,-0.23102 -0.37898,-1.31085 -0.25243,-2.74927 0.0215,-4.07422 0.42605,-1.89037 2.07564,-3.57597 4.12109,-3.39648 z m -69.71289,14.26172 c 1.39362,0.28625 2.58439,1.21496 4.01238,1.42454 0.49934,0.0605 1.07885,0.0398 1.32161,0.59303 0.2949,0.4638 0.50654,1.02371 0.43555,1.58008 -2.06718,0.71302 -4.35546,1.41079 -6.5293,0.77539 -0.97575,-0.23086 -1.01574,-1.3794 -0.72266,-2.15234 0.30123,-0.78604 0.56929,-1.73794 1.31055,-2.21289 0.0567,-0.0122 0.11444,-0.008 0.17187,-0.008 z m 51.58789,21.93554 c 0.53318,0.0293 1.19231,0.0365 1.3461,0.678 0.48947,1.08072 0.63124,2.54529 -0.14492,3.52122 -0.9218,0.92468 -2.84616,0.94908 -3.34961,-0.42773 -0.24278,-1.06889 -0.16255,-2.29822 0.36431,-3.27311 0.39344,-0.54244 1.18891,-0.50008 1.78412,-0.49838 z m 117.57422,51.62305 c 1.18524,0.50037 1.21491,2.03666 1.21321,3.1417 -0.1869,3.91674 -1.78524,7.62066 -3.68782,10.99502 -1.76261,2.89295 -3.87592,5.79454 -6.92187,7.43164 -1.74904,0.72477 -3.22018,1.92961 -4.7168,3.05469 -1.42408,0.91119 -3.11952,1.30093 -4.47849,2.33456 -1.42554,1.18793 -3.09866,2.00229 -4.7676,2.78458 -1.18589,0.57386 -2.21496,1.39186 -3.26563,2.16797 -1.85495,1.08997 -4.00165,1.65506 -5.69531,3.02929 -2.1074,1.42181 -4.68014,1.68273 -6.89768,2.88914 -1.18429,0.61512 -2.23207,1.5255 -3.58398,1.77657 -1.60479,0.48582 -3.33411,0.18143 -4.91177,0.80457 -2.92949,0.87317 -5.55751,2.68133 -8.65991,2.96532 -3.53617,0.36246 -7.0666,1.00365 -10.39002,2.30073 -2.79525,1.02997 -5.73562,1.58456 -8.70178,1.80005 -3.39519,0.30816 -6.74079,0.99701 -10.05148,1.78761 -5.65439,0.88893 -11.38813,1.10701 -17.09683,1.40658 -8.20963,0.33421 -16.546,0.56089 -24.8189,0.25164 -1.39961,-0.0806 -2.80964,-0.1343 -4.18843,-0.40408 -1.18811,-1.87139 -1.53223,-4.12905 -1.99777,-6.26202 -0.57471,-2.96279 -0.88336,-5.86521 -1.25809,-8.82587 -0.26367,-2.14879 -0.989,-4.42241 -2.8457,-5.71875 -0.69631,-0.60391 -1.66765,-0.91808 -2.26522,-1.59292 -0.20373,-0.75149 -0.67936,-1.41079 -1.26994,-1.91099 3.15208,0.29777 6.40485,-0.11821 9.45823,0.91717 3.70402,0.88981 7.55471,0.92253 11.34458,0.85045 2.57589,-0.11842 5.24387,-0.20289 7.63637,-1.26789 2.44094,-0.59945 4.98627,-0.22774 7.47078,-0.44502 1.88569,-0.0689 3.74314,-0.38757 5.58552,-0.76026 6.09389,-0.80516 12.24513,-1.10646 18.38721,-1.21774 1.86916,-0.0592 3.72554,-0.3843 5.47013,-1.06608 1.98272,-0.58979 4.00162,-0.95244 5.96749,-1.64149 4.57551,-0.89 9.28581,-0.58 13.8711,-1.3789 1.9251,-0.38847 3.61569,-1.47851 5.53515,-1.90235 3.13505,-0.89765 6.40423,-1.05714 9.62748,-1.40464 2.40624,-0.22469 4.53671,-1.4138 6.72235,-2.3327 3.33582,-1.3876 7.12386,-1.02087 10.34158,-2.75485 3.18559,-2.03191 7.28691,-1.92401 10.35352,-4.19921 1.72376,-1.11179 3.83995,-1.37188 5.53366,-2.54771 1.36122,-0.85968 2.48883,-2.12452 4.08944,-2.56799 1.32351,-0.50123 2.37373,-1.45734 3.46869,-2.31204 0.12595,-0.0691 0.25095,-0.15035 0.39453,-0.17578 z m -201.64843,20.79297 c 6.10947,0.0463 12.23783,-0.0765 18.32659,0.5075 1.41334,0.16106 2.83921,0.38368 4.15973,0.93586 -7.7881,-0.24271 -15.58278,-0.20659 -23.3738,-0.31203 -4.31633,0.0188 -8.66884,-0.20994 -12.95041,0.45461 -2.31396,0.35937 -4.68979,1.5083 -5.75485,3.70259 -1.29562,2.42527 -1.19151,5.25886 -1.90963,7.85187 -0.68698,2.38025 -2.16799,4.5273 -2.35608,7.04401 -0.82295,2.31342 -2.39577,4.29898 -4.09321,6.0424 -1.42994,1.30663 -3.13099,2.28882 -4.81009,3.23892 -1.67082,0.86648 -3.62738,0.66954 -5.39671,1.21758 -1.42851,0.37371 -2.78846,1.02181 -4.28877,1.08379 -2.64577,0.24126 -5.38517,0.16413 -7.89652,-0.78273 -2.8185,-0.67687 -5.74969,-0.49329 -8.62496,-0.5931 -11.641482,-0.12481 -23.28555,0.0616 -34.925784,-0.17014 -2.572177,-0.13612 -5.231962,-0.0396 -7.697791,-0.88636 -1.629409,-0.75083 -2.977406,-1.98489 -4.412382,-3.04124 -1.236808,-0.86128 -2.024076,-2.19672 -2.362785,-3.64906 -0.287834,-0.99782 -0.5346,-1.94672 -0.791381,-3.01936 -0.889542,-4.25695 -1.031505,-8.64271 -0.881948,-12.97797 0.107801,-1.2861 0.08083,-2.64769 0.566097,-3.85518 0.34424,-0.6575 1.0759,-0.99677 1.791736,-0.7541 1.770527,0.41725 3.468891,1.15129 5.302321,1.29489 4.385186,0.51085 8.910552,0.51462 13.194715,0.83681 0.628305,0.0376 1.20621,0.091 1.88708,0.14684 0.540796,0.0723 1.418058,0.10693 2.060547,0.28321 1.908878,0.98642 4.161587,0.91647 6.253906,0.8164 2.074105,-0.0825 3.992193,-0.99944 6.062937,-1.11287 3.955173,-0.3404 7.932465,-0.30484 11.897142,-0.47865 4.0477,-0.17823 8.12136,-0.1112 12.1421,-0.65925 1.79425,-0.25657 3.39011,-1.2372 5.19729,-1.45705 1.50094,-0.24186 3.02605,-0.71886 4.41147,-1.04999 3.84923,-0.4361 7.73581,-0.3579 11.60392,-0.45701 9.22265,-0.11454 18.44621,-0.17501 27.66952,-0.20119 z m 27.14062,3.00586 c 1.36276,0.0538 2.69867,0.3649 3.98438,0.81054 -1.35359,-0.18623 -2.7146,-0.39291 -4.01758,-0.8164 z m 14.60938,1.14062 c 0.56645,0.009 1.13301,0.015 1.69921,0.0352 -2.29099,0.18264 -4.59324,0.1748 -6.88867,0.0898 1.72934,-0.0554 3.45837,-0.1422 5.18946,-0.125 z" />
  </g>
</svg>
