<?xml version="1.0" encoding="UTF-8" standalone="no"?>
<svg
   id="svg"
   version="1.1"
   width="400"
   height="366.10169491525426"
   viewBox="0, 0, 400,366.10169491525426"
   sodipodi:docname="nopets.svg"
   inkscape:version="1.4 (86a8ad7, 2024-10-11)"
   xmlns:inkscape="http://www.inkscape.org/namespaces/inkscape"
   xmlns:sodipodi="http://sodipodi.sourceforge.net/DTD/sodipodi-0.dtd"
   xmlns="http://www.w3.org/2000/svg"
   xmlns:svg="http://www.w3.org/2000/svg">
  <defs
     id="defs1" />
  <sodipodi:namedview
     id="namedview1"
     pagecolor="#ffffff"
     bordercolor="#000000"
     borderopacity="0.25"
     inkscape:showpageshadow="2"
     inkscape:pageopacity="0.0"
     inkscape:pagecheckerboard="0"
     inkscape:deskcolor="#d1d1d1"
     inkscape:zoom="1.7645371"
     inkscape:cx="199.76911"
     inkscape:cy="183.05084"
     inkscape:window-width="1440"
     inkscape:window-height="890"
     inkscape:window-x="-6"
     inkscape:window-y="-6"
     inkscape:window-maximized="1"
     inkscape:current-layer="svgg" />
  <g
     id="svgg">
    <path
       id="path1"
       d="M55.678 31.136 C 55.174 31.297,54.289 31.445,53.711 31.465 C 53.108 31.486,52.132 31.966,51.420 32.591 C 50.738 33.190,49.238 33.954,48.086 34.289 C 46.095 34.867,45.194 35.531,42.030 38.746 C 39.322 41.499,38.095 42.953,38.095 43.413 C 38.095 44.258,36.418 47.736,35.601 48.584 C 34.188 50.053,34.067 54.786,34.092 107.875 C 34.112 150.384,34.203 159.011,34.689 164.286 C 35.443 172.476,35.531 195.069,34.827 199.817 C 34.174 204.225,33.805 305.891,34.418 312.621 C 34.798 316.790,34.878 317.078,36.090 318.633 C 36.790 319.532,37.363 320.473,37.363 320.726 C 37.363 321.754,38.811 324.458,40.096 325.829 C 40.849 326.632,41.572 327.414,41.703 327.567 C 42.994 329.070,46.198 331.574,47.234 331.890 C 49.043 332.442,51.648 333.754,51.648 334.113 C 51.648 335.888,166.849 336.781,175.641 335.074 C 177.569 334.700,180.914 334.411,183.700 334.377 L 188.462 334.319 183.333 334.037 C 180.513 333.882,177.317 333.578,176.232 333.361 C 175.147 333.144,173.004 332.964,171.470 332.960 C 167.318 332.949,161.056 331.958,159.890 331.127 C 158.989 330.485,155.478 329.605,152.657 329.314 C 150.512 329.092,148.860 328.663,147.223 327.902 C 145.930 327.300,143.538 326.478,141.907 326.074 C 140.276 325.670,137.722 324.765,136.229 324.063 C 134.737 323.361,132.775 322.668,131.868 322.522 C 130.068 322.232,127.473 321.059,127.473 320.535 C 127.473 320.354,126.439 319.862,125.175 319.442 C 123.912 319.021,122.057 318.125,121.054 317.450 C 120.051 316.775,118.819 316.097,118.315 315.943 C 116.678 315.443,114.286 314.275,114.286 313.975 C 114.286 313.814,113.152 313.173,111.766 312.550 C 110.380 311.927,108.740 310.922,108.121 310.318 C 107.503 309.713,106.621 309.099,106.161 308.953 C 105.329 308.689,103.590 307.567,102.627 306.673 C 102.349 306.414,101.455 305.863,100.641 305.448 C 99.827 305.032,98.731 304.281,98.207 303.779 C 97.682 303.276,96.593 302.432,95.788 301.903 C 94.982 301.374,93.558 300.318,92.623 299.555 C 91.689 298.792,90.804 298.168,90.657 298.168 C 90.511 298.168,89.774 297.550,89.020 296.795 C 87.378 295.150,84.584 292.762,83.363 291.961 C 82.878 291.643,81.159 290.066,79.543 288.457 C 77.927 286.848,76.085 285.053,75.450 284.469 C 74.815 283.885,74.186 283.126,74.052 282.782 C 73.764 282.039,71.710 279.506,70.087 277.892 C 69.450 277.258,68.059 275.586,66.996 274.176 C 65.933 272.766,64.929 271.557,64.766 271.490 C 64.602 271.422,64.469 271.140,64.469 270.862 C 64.469 270.584,63.802 269.716,62.987 268.933 C 62.172 268.150,61.166 266.866,60.752 266.080 C 60.337 265.295,59.616 264.240,59.148 263.736 C 58.681 263.233,58.014 262.079,57.666 261.172 C 57.319 260.266,56.506 259.029,55.859 258.425 C 55.190 257.800,54.366 256.435,53.948 255.260 C 53.544 254.124,52.706 252.558,52.086 251.780 C 51.467 251.003,50.765 249.580,50.526 248.620 C 50.288 247.660,49.632 246.294,49.069 245.586 C 48.506 244.877,47.768 243.355,47.429 242.204 C 46.529 239.151,46.102 238.095,45.770 238.095 C 45.177 238.095,44.282 235.655,43.892 232.972 C 43.487 230.188,43.078 229.134,41.759 227.473 C 41.238 226.816,40.825 225.179,40.300 221.687 C 39.898 219.008,39.388 216.480,39.167 216.067 C 38.039 213.959,37.357 210.792,37.153 206.723 C 37.034 204.335,36.702 200.711,36.417 198.671 C 35.685 193.444,35.683 171.946,36.414 169.389 C 36.698 168.395,37.040 165.192,37.174 162.271 C 37.422 156.898,37.995 153.962,39.204 151.878 C 39.569 151.248,39.981 149.744,40.120 148.535 C 40.582 144.493,41.339 141.566,42.486 139.387 C 43.111 138.198,43.719 136.474,43.838 135.554 C 44.064 133.801,45.165 130.972,45.985 130.037 C 46.547 129.397,47.458 126.796,47.821 124.799 C 47.960 124.033,48.618 122.756,49.282 121.960 C 49.947 121.164,50.607 119.977,50.748 119.323 C 51.053 117.906,51.790 116.395,52.543 115.642 C 52.842 115.342,53.524 114.131,54.058 112.951 C 54.591 111.771,55.462 110.230,55.994 109.527 C 56.525 108.823,57.234 107.642,57.569 106.902 C 57.904 106.162,58.678 105.112,59.288 104.568 C 59.899 104.024,60.746 102.840,61.170 101.937 C 61.594 101.035,62.267 99.946,62.666 99.519 C 63.064 99.091,63.874 97.883,64.466 96.835 C 65.057 95.787,65.848 94.832,66.222 94.714 C 66.596 94.595,67.258 93.881,67.692 93.128 C 68.443 91.826,71.003 88.986,72.922 87.328 C 73.410 86.906,74.057 86.172,74.359 85.697 C 75.289 84.236,79.611 79.647,80.700 78.965 C 81.753 78.306,85.942 74.501,87.326 72.946 C 87.749 72.471,88.785 71.606,89.628 71.022 C 90.470 70.439,91.259 69.650,91.380 69.269 C 91.501 68.889,92.096 68.371,92.702 68.120 C 93.308 67.869,94.310 67.192,94.927 66.615 C 95.544 66.039,96.886 65.146,97.910 64.632 C 98.933 64.118,100.400 63.129,101.169 62.435 C 101.937 61.740,102.730 61.172,102.930 61.172 C 103.131 61.172,103.913 60.616,104.669 59.937 C 105.864 58.863,108.987 57.143,109.741 57.143 C 109.883 57.143,110.536 56.590,111.193 55.914 C 111.874 55.213,113.191 54.422,114.263 54.071 C 115.296 53.734,116.857 52.910,117.734 52.241 C 118.610 51.572,120.119 50.825,121.086 50.582 C 122.053 50.338,123.432 49.675,124.151 49.107 C 124.870 48.540,126.677 47.731,128.168 47.311 C 129.658 46.890,131.224 46.229,131.648 45.842 C 132.436 45.121,135.218 44.217,138.018 43.771 C 138.883 43.633,140.446 42.944,141.493 42.239 C 143.033 41.203,143.922 40.897,146.149 40.638 C 149.738 40.219,151.889 39.755,152.470 39.272 C 153.677 38.271,157.233 37.384,161.436 37.037 C 163.899 36.833,166.206 36.512,166.565 36.323 C 170.435 34.280,176.033 33.886,200.000 33.973 C 217.701 34.036,223.785 34.347,224.816 35.239 C 225.786 36.078,228.208 36.539,234.066 36.998 C 236.987 37.227,239.707 37.553,240.110 37.722 C 240.513 37.891,241.636 38.393,242.605 38.839 C 244.590 39.750,245.751 40.061,250.129 40.854 C 252.233 41.236,253.664 41.733,254.708 42.447 C 255.544 43.017,256.886 43.603,257.692 43.748 C 260.158 44.192,263.122 45.275,264.582 46.266 C 265.346 46.784,266.879 47.397,267.989 47.627 C 269.273 47.894,270.454 48.439,271.235 49.124 C 271.909 49.716,273.504 50.543,274.777 50.961 C 276.051 51.380,277.632 52.195,278.292 52.774 C 278.951 53.353,280.376 54.084,281.458 54.399 C 282.541 54.713,283.733 55.309,284.107 55.723 C 284.482 56.137,285.765 56.960,286.959 57.553 C 288.153 58.145,289.512 59.041,289.978 59.544 C 290.443 60.047,291.573 60.779,292.488 61.171 C 293.403 61.563,294.541 62.274,295.017 62.750 C 295.493 63.226,296.644 64.062,297.575 64.607 C 298.506 65.152,299.267 65.729,299.267 65.887 C 299.267 66.046,300.050 66.735,301.007 67.417 C 301.964 68.100,303.159 69.046,303.663 69.519 C 304.167 69.992,305.158 70.681,305.866 71.050 C 307.231 71.762,309.158 73.513,309.158 74.043 C 309.158 74.217,309.429 74.359,309.760 74.359 C 310.259 74.359,315.736 79.458,318.498 82.494 C 318.901 82.937,319.835 83.857,320.573 84.539 C 321.312 85.221,322.105 86.237,322.337 86.796 C 322.569 87.356,323.142 88.019,323.610 88.270 C 324.078 88.520,324.686 89.160,324.960 89.692 C 325.234 90.224,325.899 91.154,326.437 91.758 C 328.469 94.037,328.938 94.625,328.938 94.896 C 328.938 95.050,329.502 95.756,330.191 96.465 C 330.880 97.175,331.864 98.474,332.379 99.351 C 332.893 100.229,333.798 101.305,334.390 101.742 C 334.981 102.180,335.667 103.162,335.914 103.924 C 336.160 104.687,336.888 106.053,337.532 106.960 C 338.175 107.866,338.967 109.190,339.293 109.902 C 339.619 110.613,340.221 111.602,340.632 112.099 C 341.042 112.597,341.510 113.168,341.671 113.370 C 341.832 113.571,342.181 114.466,342.445 115.358 C 342.937 117.018,343.765 118.579,344.501 119.231 C 344.728 119.432,345.369 120.833,345.925 122.344 C 346.481 123.855,347.249 125.426,347.631 125.835 C 348.354 126.606,349.448 129.321,349.454 130.357 C 349.456 130.685,349.863 131.694,350.359 132.601 C 352.174 135.922,352.692 137.218,352.921 139.011 C 353.280 141.814,353.887 144.322,354.207 144.322 C 355.059 144.322,355.769 146.488,356.104 150.112 C 356.302 152.247,356.880 155.486,357.388 157.309 C 359.901 166.319,359.736 164.512,359.768 183.333 C 359.800 201.479,359.550 205.287,358.178 207.577 C 357.407 208.863,357.023 210.805,356.229 217.428 C 355.718 221.699,355.462 222.567,354.133 224.542 C 353.795 225.046,353.356 226.364,353.159 227.473 C 352.511 231.109,351.988 232.747,350.917 234.487 C 350.337 235.430,349.750 236.834,349.613 237.606 C 349.315 239.283,348.462 241.297,347.621 242.308 C 347.285 242.711,346.808 243.782,346.559 244.689 C 345.972 246.833,345.182 248.554,343.955 250.366 C 343.410 251.172,342.770 252.425,342.533 253.151 C 342.297 253.877,341.701 254.849,341.209 255.311 C 340.717 255.774,340.122 256.746,339.888 257.471 C 339.141 259.782,338.189 261.364,337.241 261.872 C 336.734 262.143,336.231 262.719,336.122 263.152 C 335.940 263.877,333.200 267.817,330.962 270.572 C 330.445 271.208,329.597 272.488,329.079 273.416 C 328.561 274.344,327.824 275.270,327.442 275.474 C 327.060 275.679,326.512 276.294,326.225 276.842 C 325.564 278.102,310.208 293.677,308.242 295.081 C 307.436 295.657,306.106 296.710,305.287 297.423 C 301.990 300.290,300.242 301.675,299.259 302.198 C 298.692 302.500,297.734 303.189,297.132 303.728 C 296.529 304.268,295.548 304.962,294.951 305.270 C 294.354 305.579,293.159 306.490,292.296 307.295 C 291.433 308.100,290.255 308.862,289.677 308.989 C 289.100 309.116,288.171 309.604,287.613 310.073 C 287.055 310.543,285.616 311.385,284.416 311.945 C 283.216 312.504,281.740 313.316,281.136 313.749 C 280.531 314.181,279.212 314.911,278.205 315.370 C 277.198 315.829,275.761 316.689,275.012 317.281 C 274.264 317.873,273.065 318.452,272.348 318.569 C 271.631 318.685,270.956 318.923,270.849 319.097 C 270.741 319.271,270.365 319.414,270.014 319.414 C 269.663 319.414,268.724 319.878,267.929 320.445 C 267.134 321.013,265.495 321.778,264.286 322.147 C 260.673 323.248,259.193 323.839,258.509 324.453 C 258.152 324.774,256.916 325.248,255.762 325.507 C 250.663 326.653,249.969 326.846,249.451 327.268 C 248.430 328.098,245.622 328.884,242.125 329.319 C 238.274 329.799,234.799 330.656,234.799 331.126 C 234.799 331.721,232.615 332.174,227.787 332.583 C 225.096 332.811,221.163 333.155,219.048 333.349 C 216.932 333.542,213.677 333.700,211.813 333.700 C 206.949 333.699,207.630 334.322,212.729 334.536 C 215.096 334.636,218.681 334.942,220.696 335.216 C 223.661 335.619,235.779 335.714,284.249 335.714 C 347.818 335.714,346.583 335.746,348.535 334.054 C 349.541 333.182,351.179 332.388,352.967 331.907 C 353.912 331.653,354.792 331.080,355.343 330.362 C 355.824 329.734,356.587 329.079,357.039 328.908 C 357.490 328.736,358.429 327.807,359.126 326.844 C 359.822 325.880,360.732 324.884,361.148 324.631 C 361.564 324.377,361.905 323.851,361.905 323.462 C 361.905 323.072,362.070 322.652,362.271 322.527 C 362.473 322.403,362.637 322.047,362.637 321.737 C 362.637 320.946,363.639 318.924,364.474 318.027 C 365.927 316.468,365.929 316.327,365.924 183.333 C 365.919 48.052,365.950 50.509,364.201 47.912 C 363.617 47.046,362.840 45.513,362.476 44.505 C 362.111 43.498,361.174 42.008,360.393 41.195 C 359.613 40.381,358.974 39.538,358.974 39.322 C 358.974 39.105,358.305 38.464,357.487 37.897 C 356.669 37.330,355.635 36.432,355.189 35.903 C 354.709 35.332,353.638 34.738,352.556 34.442 C 351.553 34.167,349.991 33.435,349.084 32.814 C 348.178 32.193,346.529 31.490,345.421 31.251 C 343.069 30.744,57.256 30.630,55.678 31.136 M181.502 57.708 C 181.300 57.785,178.551 58.002,175.393 58.190 C 169.669 58.529,169.176 58.642,165.536 60.449 C 165.216 60.608,163.320 60.926,161.323 61.157 C 156.713 61.689,154.587 62.210,153.663 63.034 C 152.681 63.910,151.171 64.459,148.576 64.882 C 146.355 65.244,145.050 65.743,142.896 67.054 C 142.212 67.470,140.749 67.977,139.645 68.181 C 138.226 68.443,137.357 68.853,136.676 69.578 C 135.472 70.863,134.626 71.300,132.372 71.804 C 131.204 72.065,130.246 72.574,129.604 73.276 C 128.999 73.937,127.946 74.519,126.857 74.795 C 125.308 75.188,123.252 76.249,122.711 76.937 C 122.610 77.065,121.746 77.623,120.792 78.178 C 119.837 78.732,118.562 79.647,117.958 80.211 C 117.354 80.775,116.432 81.344,115.908 81.476 C 114.927 81.722,114.422 82.055,113.061 83.354 C 112.626 83.769,111.694 84.462,110.989 84.894 C 110.284 85.326,109.247 86.264,108.684 86.979 C 108.121 87.694,107.426 88.278,107.139 88.278 C 106.853 88.278,105.747 89.032,104.683 89.954 C 103.618 90.875,101.841 92.390,100.733 93.319 C 97.987 95.622,92.111 101.733,91.523 102.898 C 91.260 103.419,90.504 104.311,89.844 104.880 C 89.185 105.449,88.645 106.164,88.645 106.469 C 88.645 106.774,87.738 107.923,86.630 109.022 C 85.522 110.121,84.615 111.149,84.615 111.305 C 84.615 111.462,84.106 112.155,83.483 112.846 C 82.860 113.537,81.869 115.050,81.280 116.209 C 80.691 117.367,80.070 118.315,79.899 118.315 C 79.729 118.315,79.060 119.309,78.412 120.523 C 77.765 121.737,76.848 123.149,76.375 123.660 C 75.901 124.171,75.303 125.412,75.045 126.418 C 74.765 127.509,74.119 128.718,73.442 129.416 C 72.179 130.719,71.961 131.170,71.193 134.062 C 70.900 135.167,70.359 136.403,69.991 136.809 C 69.020 137.879,68.638 138.762,68.165 141.026 C 67.658 143.457,66.671 146.154,66.290 146.154 C 65.721 146.154,64.471 151.308,64.469 153.663 C 64.468 154.267,64.147 155.339,63.755 156.044 C 61.906 159.372,61.847 159.665,61.343 168.081 C 60.331 184.992,61.142 205.911,62.997 210.728 C 63.571 212.219,64.153 214.247,64.291 215.236 C 64.674 217.983,65.565 220.857,66.663 222.888 C 67.209 223.899,67.836 225.750,68.057 227.004 C 68.288 228.318,69.086 230.475,69.943 232.101 C 70.760 233.652,71.429 235.146,71.429 235.422 C 71.429 235.916,72.459 237.738,72.940 238.095 C 73.248 238.324,75.092 242.327,75.092 242.767 C 75.092 242.945,75.668 243.738,76.373 244.531 C 77.078 245.323,77.655 246.220,77.655 246.526 C 77.656 247.447,79.102 249.848,80.225 250.793 C 80.805 251.281,81.392 252.044,81.530 252.489 C 81.668 252.933,82.418 253.994,83.198 254.845 C 83.978 255.697,84.617 256.604,84.619 256.860 C 84.620 257.116,85.434 258.275,86.427 259.435 C 87.420 260.595,88.583 262.037,89.013 262.640 C 90.664 264.958,93.645 264.088,97.517 260.158 C 97.662 260.011,99.744 257.871,102.142 255.403 C 104.541 252.935,106.598 250.916,106.714 250.916 C 106.831 250.916,107.655 250.215,108.547 249.359 C 109.438 248.503,111.335 246.731,112.761 245.421 C 114.187 244.112,115.361 242.857,115.369 242.632 C 115.378 242.408,116.014 241.788,116.784 241.254 C 117.554 240.721,118.548 239.792,118.992 239.190 C 119.437 238.589,120.341 237.871,121.002 237.595 C 121.662 237.319,124.894 234.457,128.184 231.234 C 135.184 224.378,135.239 224.153,130.003 223.680 C 128.237 223.521,126.681 223.122,125.547 222.539 C 124.588 222.047,123.187 221.538,122.433 221.409 C 119.486 220.905,116.254 219.755,115.311 218.875 C 114.766 218.367,113.404 217.608,112.283 217.189 C 111.162 216.770,109.794 216.052,109.243 215.594 C 108.692 215.136,107.535 214.318,106.671 213.777 C 105.807 213.236,104.917 212.391,104.692 211.898 C 104.468 211.406,103.963 210.901,103.570 210.776 C 102.641 210.482,98.320 206.181,98.028 205.262 C 97.904 204.873,97.342 204.282,96.778 203.949 C 96.214 203.616,95.535 202.879,95.268 202.313 C 94.377 200.420,93.647 199.086,93.402 198.901 C 92.727 198.391,91.266 195.227,91.058 193.823 C 90.927 192.944,90.294 191.461,89.651 190.526 C 88.135 188.324,87.815 183.537,88.825 178.170 C 89.366 175.296,89.387 174.691,88.962 174.162 C 87.901 172.841,84.164 169.231,83.858 169.231 C 83.681 169.231,82.817 168.512,81.938 167.633 C 81.059 166.754,80.184 165.971,79.992 165.893 C 78.664 165.351,77.335 161.723,78.006 160.469 C 79.270 158.108,81.976 158.904,85.938 162.801 C 87.517 164.355,89.330 165.844,89.967 166.110 C 90.603 166.376,91.426 167.105,91.795 167.729 C 92.524 168.964,94.915 170.101,96.620 170.025 C 109.358 169.454,112.122 169.596,113.185 170.877 C 113.417 171.156,114.790 171.824,116.235 172.361 C 119.373 173.527,120.809 174.239,121.795 175.117 C 122.198 175.476,122.975 175.881,123.523 176.017 C 124.071 176.153,125.142 176.917,125.904 177.716 C 126.666 178.514,127.759 179.417,128.333 179.722 C 129.809 180.506,133.446 184.038,135.447 186.630 C 136.380 187.839,137.355 188.958,137.612 189.117 C 137.870 189.276,138.530 190.182,139.078 191.131 C 139.626 192.081,140.518 193.434,141.060 194.139 C 141.601 194.844,142.240 196.081,142.479 196.886 C 142.717 197.692,143.475 199.505,144.162 200.916 C 145.179 203.004,145.484 204.192,145.805 207.324 C 146.357 212.707,147.157 214.148,148.488 212.161 C 148.865 211.598,149.813 210.769,150.594 210.319 C 151.376 209.870,152.015 209.325,152.015 209.109 C 152.015 208.770,155.174 205.539,157.924 203.066 C 158.401 202.637,159.181 201.771,159.657 201.143 C 160.133 200.514,160.721 200.000,160.964 200.000 C 161.208 200.000,161.863 199.427,162.421 198.727 C 162.979 198.028,163.967 197.127,164.616 196.725 C 165.266 196.324,165.999 195.618,166.246 195.156 C 166.493 194.695,167.285 193.913,168.006 193.419 C 168.726 192.925,169.476 192.171,169.671 191.742 C 169.866 191.314,170.496 190.686,171.070 190.347 C 171.645 190.007,172.661 189.143,173.329 188.426 C 173.996 187.709,175.067 186.847,175.708 186.510 C 176.350 186.173,177.940 184.867,179.242 183.608 C 181.460 181.462,181.717 181.319,183.325 181.319 C 185.005 181.319,185.113 181.246,188.400 177.920 C 190.247 176.051,192.418 174.043,193.223 173.458 C 194.029 172.874,195.450 171.642,196.381 170.721 C 197.312 169.801,198.277 168.859,198.526 168.628 C 198.774 168.397,200.378 166.807,202.091 165.094 C 203.803 163.382,205.354 161.840,205.536 161.668 C 205.719 161.496,206.567 160.614,207.421 159.707 L 208.974 158.059 208.974 148.535 C 208.974 142.206,209.121 138.519,209.412 137.546 C 209.653 136.740,210.035 134.367,210.261 132.273 C 210.652 128.642,211.477 125.641,212.083 125.641 C 212.410 125.641,212.858 124.506,213.745 121.429 C 214.094 120.218,214.836 118.737,215.398 118.132 C 215.959 117.527,216.627 116.321,216.882 115.451 C 217.138 114.580,217.977 113.179,218.747 112.337 C 219.517 111.495,220.147 110.689,220.147 110.545 C 220.147 110.072,225.436 104.943,226.465 104.419 C 227.019 104.137,227.473 103.773,227.473 103.611 C 227.473 103.063,229.809 102.102,233.295 101.218 C 239.514 99.640,240.002 99.206,240.658 94.689 C 240.897 93.038,241.625 90.478,242.323 88.828 C 243.228 86.688,243.651 84.998,243.890 82.561 C 244.290 78.497,244.811 77.791,247.551 77.600 C 251.205 77.346,252.113 81.374,249.476 86.143 C 248.500 87.909,248.254 88.898,247.835 92.737 C 247.563 95.220,247.096 97.912,246.796 98.718 C 246.155 100.441,246.370 100.868,249.749 104.579 C 250.849 105.788,252.192 107.271,252.732 107.875 C 253.272 108.480,254.078 109.764,254.522 110.729 C 254.966 111.694,255.556 112.571,255.833 112.677 C 256.621 112.980,259.800 111.187,260.739 109.909 C 261.206 109.274,261.980 108.605,262.460 108.423 C 262.939 108.241,263.626 107.631,263.985 107.068 C 264.345 106.505,264.972 105.801,265.378 105.504 C 265.785 105.208,267.626 103.477,269.471 101.658 C 271.315 99.840,273.662 97.610,274.687 96.703 C 280.000 92.001,284.130 88.013,284.653 87.080 C 285.097 86.286,282.419 83.290,279.944 81.812 C 279.087 81.300,278.085 80.499,277.718 80.032 C 277.351 79.566,275.991 78.742,274.697 78.202 C 273.403 77.663,271.932 76.833,271.429 76.359 C 270.925 75.885,269.853 75.222,269.048 74.885 C 268.242 74.549,267.005 73.828,266.300 73.283 C 265.595 72.738,263.978 71.921,262.705 71.466 C 261.433 71.011,259.681 70.159,258.811 69.572 C 257.922 68.972,256.189 68.287,254.849 68.006 C 253.411 67.705,251.833 67.062,250.867 66.384 C 249.969 65.753,248.545 65.154,247.619 65.017 C 244.975 64.626,242.757 63.892,240.630 62.704 C 238.959 61.770,238.034 61.542,234.785 61.262 C 231.610 60.988,230.506 60.723,228.558 59.768 C 226.303 58.662,225.832 58.581,218.681 58.061 C 211.914 57.569,182.588 57.290,181.502 57.708 M143.744 79.685 C 145.041 80.535,146.154 82.915,146.154 84.839 C 146.154 86.581,146.889 90.192,147.303 90.484 C 147.834 90.858,148.981 93.989,149.246 95.788 C 149.733 99.103,150.441 99.801,153.850 100.322 C 157.245 100.842,161.352 102.400,163.015 103.799 C 163.644 104.329,164.335 104.762,164.550 104.762 C 165.621 104.762,172.739 113.066,173.449 115.145 C 173.714 115.919,174.274 116.919,174.694 117.366 C 175.114 117.813,175.458 118.375,175.458 118.613 C 175.458 118.852,175.615 119.048,175.808 119.048 C 176.000 119.048,176.271 119.666,176.410 120.421 C 176.809 122.583,177.617 124.637,178.394 125.464 C 179.087 126.201,179.852 129.484,180.392 134.032 C 180.672 136.392,181.474 138.095,182.307 138.095 C 183.065 138.095,184.249 139.144,184.249 139.815 C 184.249 140.094,184.617 140.821,185.067 141.429 C 186.402 143.235,186.343 150.549,184.994 150.549 C 184.831 150.549,184.590 151.122,184.458 151.821 C 184.218 153.100,183.102 154.212,182.059 154.212 C 181.305 154.212,180.701 155.704,180.222 158.746 C 179.775 161.580,179.239 162.895,177.666 165.018 C 177.070 165.824,176.576 166.793,176.569 167.172 C 176.548 168.353,171.690 172.763,170.078 173.065 C 169.310 173.208,168.450 173.517,168.167 173.751 C 166.160 175.410,151.648 173.376,151.648 171.435 C 151.648 171.284,150.996 170.728,150.199 170.200 C 148.011 168.753,143.351 163.958,142.489 162.267 C 142.070 161.446,141.306 160.410,140.792 159.966 C 139.634 158.965,139.004 157.756,138.664 155.884 C 138.520 155.091,137.923 153.745,137.337 152.893 C 136.373 151.492,134.799 146.216,134.799 144.386 C 134.799 144.033,134.474 143.107,134.077 142.329 C 132.296 138.837,132.140 137.726,132.157 128.703 C 132.174 119.722,132.325 118.709,134.111 115.568 C 134.700 114.532,135.216 112.898,135.717 110.484 C 135.837 109.904,136.545 108.801,137.290 108.033 C 142.712 102.447,143.030 101.766,142.473 96.924 C 141.961 92.477,141.439 90.155,140.652 88.828 C 139.433 86.772,138.779 83.309,139.247 81.385 C 139.986 78.346,141.073 77.935,143.744 79.685 M301.332 105.446 C 300.353 106.007,299.378 106.783,299.166 107.171 C 298.954 107.558,298.602 107.988,298.383 108.126 C 297.805 108.490,294.712 111.412,288.342 117.612 C 285.254 120.618,282.586 123.077,282.414 123.077 C 282.242 123.077,281.996 123.406,281.869 123.808 C 281.741 124.211,280.884 124.980,279.965 125.519 C 279.046 126.058,276.873 127.878,275.136 129.565 C 273.399 131.252,271.850 132.749,271.695 132.891 C 271.539 133.034,270.939 133.645,270.362 134.249 C 269.784 134.853,268.983 135.595,268.581 135.897 C 263.000 140.092,255.673 147.861,254.249 151.094 C 253.806 152.099,253.141 153.253,252.771 153.658 C 252.401 154.064,251.828 155.340,251.499 156.495 C 251.058 158.040,250.515 158.949,249.442 159.942 C 248.641 160.683,247.985 161.439,247.985 161.622 C 247.985 162.001,246.450 164.083,244.963 165.721 C 244.409 166.331,243.956 166.933,243.956 167.059 C 243.956 167.527,242.628 168.746,241.209 169.581 C 240.403 170.055,239.167 170.972,238.462 171.617 C 237.202 172.770,235.463 173.461,231.540 174.367 C 230.453 174.618,229.135 175.048,228.610 175.322 C 228.085 175.596,227.132 175.920,226.492 176.041 C 225.811 176.170,224.530 177.007,223.405 178.058 C 222.347 179.045,221.360 179.853,221.210 179.853 C 221.061 179.853,220.604 180.389,220.194 181.044 C 219.784 181.699,218.980 182.542,218.408 182.919 C 217.836 183.296,217.008 184.120,216.568 184.751 C 216.128 185.381,215.317 186.452,214.765 187.129 L 213.762 188.361 215.031 189.435 C 215.729 190.026,217.031 191.120,217.924 191.866 C 219.985 193.588,222.057 195.699,223.753 197.802 C 224.484 198.709,225.446 199.805,225.890 200.238 C 226.334 200.671,226.969 201.989,227.299 203.168 C 228.079 205.949,229.272 209.226,229.683 209.723 C 229.862 209.938,230.190 211.341,230.413 212.841 C 230.871 215.923,231.705 218.514,232.587 219.597 C 233.261 220.425,233.835 221.621,234.373 223.322 C 235.419 226.630,243.351 236.305,246.097 237.623 C 246.770 237.947,247.497 238.596,247.711 239.067 C 247.926 239.538,248.633 240.236,249.283 240.620 C 253.582 243.157,260.256 250.144,261.215 253.114 C 261.443 253.819,262.226 255.385,262.955 256.593 L 264.281 258.791 264.414 265.860 C 264.560 273.587,264.279 275.589,262.774 277.565 C 262.274 278.220,261.682 279.292,261.458 279.946 C 260.978 281.344,259.774 283.276,258.464 284.752 C 257.950 285.330,257.438 286.095,257.325 286.450 C 257.212 286.805,256.435 287.568,255.597 288.145 C 254.759 288.722,253.690 289.576,253.220 290.042 C 252.751 290.508,251.669 291.200,250.817 291.579 C 249.965 291.957,248.553 292.936,247.680 293.753 C 246.517 294.841,245.782 295.238,244.933 295.239 C 244.295 295.240,242.077 295.569,240.005 295.972 C 231.920 297.542,219.230 296.194,215.934 293.416 C 214.828 292.484,212.737 292.017,207.743 291.589 C 205.252 291.376,203.055 291.102,202.859 290.982 C 200.520 289.536,192.850 289.558,190.489 291.018 C 190.262 291.158,187.369 291.419,184.061 291.597 C 180.752 291.775,177.751 292.066,177.392 292.243 C 177.034 292.420,175.681 293.110,174.387 293.778 C 168.005 297.069,150.426 297.614,144.827 294.693 C 144.247 294.391,143.575 294.143,143.333 294.141 C 143.091 294.140,142.762 293.908,142.601 293.625 C 142.440 293.343,141.535 292.702,140.590 292.201 C 138.911 291.311,136.859 289.962,136.034 289.206 C 135.667 288.870,135.148 288.492,133.863 287.623 C 133.651 287.480,133.085 286.703,132.605 285.897 C 131.841 284.614,130.924 283.334,129.660 281.787 C 129.459 281.540,129.035 280.304,128.718 279.039 C 128.401 277.775,127.743 276.153,127.256 275.435 C 126.768 274.717,126.122 273.179,125.819 272.017 C 124.870 268.373,124.100 267.677,122.799 269.286 C 121.825 270.488,121.014 271.313,120.460 271.662 C 120.185 271.836,119.504 272.588,118.949 273.334 C 118.393 274.080,117.460 274.972,116.876 275.318 C 116.291 275.663,115.650 276.304,115.450 276.742 C 115.250 277.181,114.517 277.810,113.821 278.140 C 112.205 278.907,111.724 279.504,110.949 281.704 L 110.320 283.490 112.852 285.053 C 114.245 285.912,115.385 286.734,115.385 286.878 C 115.385 287.023,116.170 287.535,117.129 288.017 C 118.089 288.499,119.433 289.404,120.116 290.028 C 120.867 290.714,121.950 291.263,122.850 291.416 C 123.873 291.588,124.747 292.082,125.632 292.986 C 126.846 294.226,129.235 295.604,130.169 295.604 C 130.400 295.604,131.386 296.171,132.360 296.864 C 133.612 297.754,134.710 298.196,136.099 298.370 C 137.656 298.564,138.334 298.876,139.352 299.865 C 140.233 300.720,141.191 301.223,142.389 301.459 C 145.033 301.979,146.130 302.356,148.535 303.570 C 149.772 304.194,151.871 304.855,153.338 305.082 C 154.770 305.304,156.419 305.734,157.001 306.037 C 157.583 306.341,158.265 306.590,158.516 306.591 C 158.768 306.592,158.974 306.739,158.974 306.917 C 158.974 307.576,165.581 308.775,169.268 308.785 C 171.135 308.790,172.078 309.000,173.408 309.707 C 174.355 310.211,175.657 310.624,176.301 310.627 C 176.946 310.629,178.296 310.880,179.302 311.186 C 180.804 311.641,183.890 311.746,196.518 311.772 C 214.403 311.809,218.530 311.468,222.708 309.608 C 223.412 309.295,225.307 308.912,226.920 308.758 C 233.201 308.155,235.071 307.743,236.706 306.600 C 238.060 305.653,238.813 305.442,242.125 305.088 C 245.474 304.729,246.143 304.540,247.305 303.620 C 248.040 303.039,248.796 302.564,248.986 302.564 C 249.578 302.564,255.484 300.647,255.678 300.392 C 256.049 299.902,258.480 298.647,259.535 298.400 C 260.945 298.070,263.736 296.673,263.736 296.297 C 263.736 295.969,266.877 294.505,267.579 294.505 C 267.827 294.505,268.672 293.991,269.455 293.363 C 270.238 292.734,271.583 291.914,272.442 291.541 C 273.302 291.168,274.409 290.459,274.903 289.965 C 275.397 289.472,276.177 288.950,276.637 288.806 C 277.587 288.508,280.008 286.891,281.212 285.749 C 281.657 285.327,282.188 284.982,282.393 284.982 C 282.597 284.982,283.506 284.240,284.413 283.333 C 285.320 282.427,286.210 281.685,286.391 281.685 C 286.572 281.685,287.442 281.016,288.324 280.197 C 289.205 279.379,290.421 278.453,291.026 278.139 C 292.666 277.286,303.939 266.003,305.049 264.103 C 305.578 263.196,306.555 261.948,307.218 261.329 C 307.882 260.711,308.425 259.991,308.425 259.730 C 308.425 259.469,309.050 258.648,309.815 257.906 C 310.579 257.164,311.583 255.945,312.045 255.197 C 312.508 254.449,313.169 253.685,313.516 253.500 C 313.862 253.315,314.656 252.122,315.281 250.849 C 315.906 249.576,316.762 248.171,317.183 247.726 C 317.604 247.281,317.949 246.833,317.949 246.729 C 317.949 246.274,319.925 242.277,320.315 241.944 C 321.009 241.352,321.841 239.832,322.122 238.645 C 322.265 238.040,322.845 236.886,323.410 236.081 C 323.976 235.275,324.639 233.956,324.884 233.150 C 325.129 232.344,326.041 230.201,326.911 228.388 C 327.781 226.575,328.609 224.267,328.751 223.260 C 329.086 220.888,329.936 218.397,330.850 217.107 C 331.379 216.362,331.707 214.912,332.055 211.796 C 332.318 209.438,332.807 206.603,333.141 205.495 C 334.563 200.784,334.781 199.528,335.147 193.962 C 336.060 180.057,335.255 167.683,333.161 163.425 C 332.503 162.085,332.243 160.655,331.943 156.728 C 331.572 151.853,331.533 151.696,330.302 150.083 C 329.294 148.762,328.990 147.965,328.787 146.102 C 328.486 143.347,327.920 141.485,327.077 140.476 C 326.223 139.455,325.384 137.446,325.092 135.723 C 324.940 134.832,324.367 133.739,323.615 132.906 C 322.904 132.119,322.279 130.958,322.133 130.150 C 321.808 128.357,321.028 126.832,319.814 125.618 C 319.283 125.087,318.635 123.823,318.375 122.808 C 318.114 121.788,317.494 120.580,316.989 120.105 C 316.487 119.633,315.578 118.378,314.971 117.316 C 314.363 116.254,313.716 115.385,313.532 115.385 C 313.349 115.385,312.771 114.539,312.247 113.505 C 311.723 112.471,310.962 111.276,310.556 110.849 C 310.150 110.422,309.169 109.127,308.378 107.971 C 307.515 106.711,306.582 105.780,306.048 105.646 C 305.559 105.523,304.966 105.192,304.732 104.909 C 304.119 104.170,303.349 104.292,301.332 105.446 M149.171 105.831 C 147.710 106.204,142.554 110.817,142.504 111.795 C 142.497 111.936,142.013 112.760,141.429 113.626 C 138.193 118.430,137.900 141.477,141.026 145.367 C 141.753 146.271,142.256 147.462,142.524 148.913 C 142.795 150.376,143.339 151.657,144.175 152.795 C 144.860 153.729,145.421 154.750,145.421 155.064 C 145.421 155.378,145.568 155.725,145.747 155.836 C 145.926 155.946,146.178 156.458,146.308 156.973 C 146.437 157.488,147.238 158.629,148.088 159.509 C 148.938 160.388,149.903 161.411,150.231 161.781 C 150.560 162.151,151.152 162.701,151.547 163.004 C 151.943 163.306,152.573 164.029,152.948 164.610 C 153.323 165.192,154.132 165.891,154.745 166.164 C 155.359 166.437,156.558 167.184,157.410 167.823 C 162.540 171.669,170.634 167.852,173.066 160.440 C 173.627 158.727,174.313 157.065,174.590 156.747 C 176.522 154.523,176.386 135.052,174.430 133.725 C 174.007 133.438,173.623 132.354,173.252 130.403 C 172.520 126.547,172.009 125.065,170.866 123.474 C 170.200 122.547,169.532 121.296,169.382 120.693 C 169.059 119.403,165.083 113.438,163.942 112.531 C 163.508 112.187,162.766 111.380,162.294 110.738 C 161.822 110.096,160.676 109.190,159.747 108.723 C 158.818 108.257,157.976 107.786,157.875 107.676 C 156.452 106.126,151.839 105.148,149.171 105.831 M236.798 105.822 C 235.984 105.960,234.748 106.500,234.051 107.023 C 233.354 107.546,232.372 108.099,231.868 108.253 C 230.946 108.534,223.810 115.292,223.810 115.884 C 223.810 116.059,223.249 116.966,222.564 117.900 C 221.880 118.833,220.794 120.668,220.152 121.978 C 219.509 123.288,218.595 125.101,218.120 126.007 C 217.645 126.914,217.142 128.397,217.002 129.304 C 216.863 130.211,216.183 132.683,215.492 134.799 C 214.276 138.524,214.237 138.820,214.267 144.224 C 214.308 151.557,214.670 152.551,216.632 150.733 C 217.176 150.229,217.844 149.817,218.118 149.817 C 218.392 149.817,219.579 148.906,220.755 147.792 C 221.931 146.679,223.022 145.648,223.180 145.503 C 223.337 145.357,224.764 143.897,226.352 142.258 C 227.939 140.619,229.382 139.217,229.559 139.144 C 229.735 139.071,230.254 138.479,230.710 137.829 C 231.167 137.178,232.149 136.357,232.892 136.004 C 233.636 135.652,237.147 132.507,240.694 129.016 C 244.241 125.526,247.726 122.273,248.439 121.789 C 250.650 120.286,251.132 117.631,249.634 115.201 C 249.137 114.396,248.324 112.885,247.827 111.844 C 247.330 110.803,246.484 109.650,245.947 109.280 C 245.410 108.910,244.372 108.005,243.639 107.269 C 242.178 105.799,239.848 105.306,236.798 105.822 M314.744 156.920 C 315.861 157.769,315.242 161.563,313.865 162.300 C 313.450 162.522,311.685 164.146,309.943 165.908 C 308.202 167.670,305.918 169.724,304.868 170.474 C 303.818 171.223,302.448 172.482,301.822 173.271 L 300.686 174.707 301.259 176.944 C 302.421 181.482,301.811 189.410,300.158 191.237 C 299.844 191.584,299.361 192.724,299.085 193.770 C 298.593 195.634,296.436 199.634,295.922 199.634 C 295.778 199.634,295.460 200.252,295.213 201.007 C 294.967 201.763,293.965 203.173,292.987 204.141 C 292.009 205.109,291.209 206.036,291.209 206.200 C 291.209 206.365,290.633 206.891,289.929 207.370 C 289.225 207.850,288.649 208.433,288.647 208.667 C 288.646 208.901,288.109 209.528,287.454 210.060 C 286.799 210.592,285.577 211.678,284.737 212.473 C 283.897 213.269,282.987 213.919,282.714 213.919 C 282.441 213.919,281.645 214.383,280.944 214.949 C 279.345 216.242,277.373 217.418,276.217 217.769 C 275.728 217.918,274.935 218.404,274.454 218.850 C 271.876 221.241,260.129 222.697,253.868 221.402 C 250.823 220.773,247.470 217.513,244.889 212.673 C 243.817 210.662,244.108 205.086,245.415 202.615 C 246.404 200.745,247.985 196.387,247.985 195.532 C 247.985 195.216,249.709 192.727,250.218 192.308 C 250.341 192.207,250.739 191.492,251.102 190.718 C 252.268 188.238,263.861 176.938,266.288 175.916 C 266.986 175.623,267.728 175.174,267.936 174.919 C 268.426 174.320,270.057 173.490,272.302 172.696 C 273.286 172.348,274.419 171.735,274.820 171.334 C 276.390 169.764,280.472 169.155,288.251 169.331 C 298.237 169.556,296.617 170.284,305.303 161.666 C 307.974 159.017,310.469 156.769,310.849 156.672 C 312.214 156.322,314.115 156.443,314.744 156.920 M282.418 175.081 C 281.914 175.469,280.348 176.063,278.938 176.401 C 277.527 176.739,275.549 177.549,274.542 178.200 C 273.535 178.852,272.051 179.592,271.245 179.844 C 270.440 180.097,269.184 180.903,268.454 181.635 C 267.725 182.368,266.654 183.393,266.073 183.915 C 265.493 184.436,264.658 185.260,264.217 185.746 C 263.776 186.232,262.952 187.052,262.385 187.568 C 261.819 188.083,260.995 188.908,260.554 189.399 C 260.113 189.891,259.330 190.623,258.815 191.026 C 258.299 191.429,257.778 192.065,257.656 192.440 C 257.534 192.815,256.904 193.721,256.257 194.454 C 255.610 195.188,254.780 196.612,254.414 197.619 C 254.048 198.626,253.327 200.017,252.811 200.708 C 249.965 204.530,250.355 211.889,253.550 214.641 C 256.637 217.300,264.507 217.784,267.713 215.511 C 268.921 214.655,270.123 214.090,271.874 213.554 C 272.623 213.325,273.612 212.696,274.072 212.155 C 275.076 210.975,276.411 210.089,277.656 209.776 C 280.082 209.166,290.011 198.704,291.232 195.472 C 291.868 193.786,292.989 191.941,293.376 191.941 C 294.197 191.941,295.035 187.893,295.045 183.883 C 295.059 178.056,294.831 177.603,291.266 176.365 C 289.724 175.829,288.024 175.159,287.489 174.875 C 286.083 174.129,283.518 174.233,282.418 175.081 M101.216 175.936 C 100.172 176.176,99.197 176.497,99.048 176.648 C 98.900 176.799,98.420 176.923,97.980 176.923 C 94.798 176.923,94.047 190.623,97.125 192.525 C 97.346 192.662,98.006 193.781,98.591 195.013 C 99.629 197.200,102.849 202.017,103.760 202.747 C 104.011 202.949,104.670 203.663,105.225 204.335 C 106.349 205.698,110.486 208.991,112.455 210.091 C 113.160 210.484,114.439 211.406,115.298 212.139 C 116.392 213.072,117.371 213.548,118.565 213.727 C 120.262 213.982,121.814 214.745,122.545 215.685 C 124.004 217.562,134.141 217.440,136.517 215.518 C 139.851 212.819,140.331 204.346,137.386 200.183 C 136.816 199.377,136.096 198.110,135.785 197.366 C 135.475 196.623,134.549 195.286,133.728 194.395 C 132.906 193.504,132.234 192.614,132.234 192.418 C 132.234 191.923,127.475 187.036,126.469 186.498 C 126.018 186.256,125.397 185.572,125.089 184.976 C 124.781 184.381,124.140 183.796,123.666 183.677 C 123.191 183.558,122.108 182.731,121.258 181.840 C 120.409 180.949,119.562 180.220,119.377 180.220 C 118.882 180.220,115.717 178.729,114.635 177.986 C 112.336 176.407,104.414 175.197,101.216 175.936 M207.409 193.658 C 206.785 193.960,205.140 195.305,203.752 196.646 C 202.364 197.987,199.943 200.238,198.373 201.648 C 196.802 203.059,193.489 206.213,191.011 208.659 C 185.478 214.118,185.242 214.286,183.111 214.286 C 181.459 214.286,176.557 218.063,176.557 219.336 C 176.557 219.526,175.891 220.142,175.077 220.706 C 174.263 221.270,173.321 222.199,172.983 222.771 C 172.646 223.342,172.229 223.810,172.058 223.810 C 171.887 223.810,170.826 224.716,169.700 225.824 C 168.574 226.932,167.471 227.839,167.248 227.839 C 167.025 227.839,165.773 228.921,164.465 230.244 C 163.158 231.567,161.863 232.845,161.588 233.083 C 161.313 233.322,160.653 233.994,160.122 234.578 C 158.809 236.023,158.257 236.547,156.031 238.462 C 153.437 240.692,150.266 243.599,146.922 246.813 C 145.391 248.283,143.593 249.932,142.925 250.476 C 142.258 251.020,140.939 252.219,139.995 253.141 C 139.051 254.062,138.011 254.969,137.684 255.155 C 137.357 255.342,136.286 256.567,135.303 257.877 C 131.836 262.501,132.051 261.844,132.051 267.802 C 132.051 273.769,131.964 273.448,135.060 278.905 C 136.311 281.110,139.019 284.121,140.405 284.848 C 140.970 285.145,142.000 285.923,142.694 286.577 C 143.387 287.232,144.820 288.073,145.878 288.448 C 146.937 288.823,148.544 289.638,149.451 290.261 L 151.099 291.392 157.692 291.367 C 164.624 291.341,166.065 291.088,168.927 289.400 C 169.640 288.979,171.823 288.296,173.779 287.882 C 175.735 287.467,177.894 286.798,178.577 286.395 C 180.395 285.323,185.341 284.951,197.495 284.973 C 208.558 284.993,208.262 284.956,212.271 286.816 C 213.077 287.190,214.560 287.606,215.568 287.740 C 218.367 288.114,220.882 288.905,223.280 290.167 L 225.458 291.312 232.234 291.352 L 239.011 291.392 241.209 290.227 C 242.418 289.586,244.148 288.735,245.055 288.335 C 247.826 287.115,252.797 282.508,254.143 279.912 C 254.597 279.037,255.439 277.926,256.014 277.442 C 258.808 275.090,258.492 258.178,255.600 255.286 C 255.292 254.978,254.772 254.207,254.443 253.572 C 253.569 251.882,245.511 244.322,244.583 244.322 C 244.046 244.322,234.831 235.133,234.226 233.994 C 233.937 233.451,233.330 232.599,232.876 232.100 C 231.238 230.301,230.725 229.601,230.382 228.700 C 230.191 228.196,229.558 227.092,228.976 226.246 C 227.607 224.257,226.851 222.419,226.535 220.315 C 226.396 219.385,226.000 218.349,225.655 218.012 C 224.692 217.071,223.914 214.728,223.625 211.903 C 223.439 210.080,223.009 208.653,222.134 206.960 C 221.458 205.650,220.574 203.814,220.169 202.879 C 219.764 201.944,218.975 200.791,218.416 200.315 C 217.857 199.840,217.101 198.988,216.737 198.424 C 216.373 197.859,215.796 197.290,215.455 197.160 C 214.740 196.887,214.168 196.463,213.061 195.385 C 212.346 194.689,210.655 193.792,209.125 193.297 C 208.805 193.193,208.033 193.356,207.409 193.658 "
       stroke="none"
       fill="#dadada"
       fill-rule="evenodd"
       style="fill:#ffffff;fill-opacity:1" />
    <path
       id="path0"
       d="m 141.0957,9.7910156 c -33.01314,0.062556 -66.026843,0.022944 -99.039395,0.2503274 -2.156797,0.06831 -4.522373,-0.2238887 -6.407867,1.062173 -0.79799,0.523032 -1.39001,1.352826 -1.613282,2.28125 -1.266927,0 -2.533854,0 -3.800781,0 0,1.098958 0,2.197916 0,3.296875 -1.908596,0.04501 -4.152596,-0.125627 -5.626953,1.320312 -0.602444,0.603034 -0.904134,1.446564 -0.953125,2.287109 -1.566098,0.200242 -3.016717,1.316199 -3.316769,2.914054 -0.297231,1.220018 -0.274135,2.487203 -0.31995,3.734384 -1.111979,0 -2.223958,0 -3.335937,0 0,1.279948 0,2.559896 0,3.839844 -0.769157,0.20824 -1.553907,0.598017 -2.10644,1.143495 -0.60766,1.571714 -0.371894,3.303941 -0.499615,4.953311 -0.332555,16.482457 -0.353778,32.969281 -0.451843,49.454316 -0.225238,55.423994 -0.230967,110.848804 -0.09544,166.273044 0.07566,23.23806 0.12708,46.47689 0.416568,69.71348 0.08904,3.69611 0.03522,7.40316 0.330519,11.08931 0.127256,0.58426 0.280673,1.21978 0.904297,1.44531 0.440041,0.33594 1.028924,0.51118 1.501953,0.70312 0,1.27019 0,2.54037 0,3.81055 1.111979,0 2.223958,0 3.335937,0 0.106397,1.87127 -0.11754,4.07252 1.291016,5.53516 0.616404,0.64357 1.490308,0.94565 2.345703,1.11328 0.01654,1.65288 1.333377,3.05173 2.931641,3.3418 1.195972,0.2694 2.429507,0.25495 3.648437,0.26562 0,1.09896 0,2.19792 0,3.29688 1.261294,0.028 2.606856,-0.0556 3.816406,0.041 0.409474,1.82157 2.213379,2.86011 3.935547,3.16406 2.421711,0.22656 4.87382,0.12036 7.307673,0.18612 32.351302,0.223 64.703689,0.21785 97.055609,0.26747 60.71912,0.0338 121.43841,0.0471 182.15737,-0.11776 12.15944,-0.0577 24.3204,-0.0378 36.47841,-0.23627 2.08726,0.0377 4.41813,-1.16814 4.9775,-3.30463 1.26758,0 2.53516,0 3.80273,0 10e-6,-1.09896 0,-2.19792 0,-3.29688 1.96501,-0.0388 4.28075,0.0974 5.76368,-1.4375 0.50972,-0.59993 0.80836,-1.37014 0.82226,-2.1582 1.4569,-0.17191 2.83201,-1.13737 3.20529,-2.60141 0.39929,-1.31179 0.3679,-2.70212 0.42557,-4.05875 1.11198,0 2.22396,0 3.33594,0 0,-1.27995 0,-2.55989 0,-3.83984 0.76692,-0.20607 1.54852,-0.59411 2.09941,-1.13932 0.61469,-1.53694 0.37508,-3.24007 0.5045,-4.85751 0.33443,-16.48243 0.35509,-32.96927 0.45358,-49.4543 0.22565,-55.45733 0.23144,-110.91547 0.0958,-166.37304 -0.0757,-23.238062 -0.12706,-46.476893 -0.41657,-69.713479 -0.0903,-3.696669 -0.0328,-7.404996 -0.33247,-11.09126 -0.12201,-0.586796 -0.27716,-1.218762 -0.90235,-1.443359 -0.44178,-0.33245 -1.02854,-0.512267 -1.50195,-0.703125 0,-1.270182 0,-2.540365 0,-3.810547 -1.11198,0 -2.22396,0 -3.33594,0 -0.10641,-1.871332 0.11774,-4.072519 -1.29101,-5.535156 -0.61641,-0.643569 -1.49031,-0.945649 -2.34571,-1.113282 -0.0167,-1.676997 -1.37391,-3.094746 -3.00195,-3.355468 -1.17348,-0.260943 -2.3829,-0.241686 -3.57813,-0.251953 0,-1.098959 10e-6,-2.197917 0,-3.296875 -1.26497,0 -2.52994,0 -3.79492,0 -0.39647,-1.85285 -2.25783,-2.873493 -3.99912,-3.147216 -1.81102,-0.3433536 -3.67484,-0.150004 -5.50868,-0.232997 C 322.61102,9.7947581 288.75822,9.8291631 254.90586,9.7801721 216.96912,9.7597198 179.03244,9.7661437 141.0957,9.7910156 Z m 6.33399,23.0253904 c 7.96354,0 15.92708,0 23.89062,0 -1.9472,0.276322 -3.86678,0.814797 -5.63084,1.68175 -3.78286,0.654087 -7.69149,0.599435 -11.38338,1.758585 -1.15773,0.31013 -2.23555,0.856995 -3.23773,1.489353 -2.71078,0.858757 -5.63779,0.668779 -8.33133,1.575705 -1.96097,0.716514 -3.52076,2.386015 -5.67908,2.589332 -2.41861,0.486279 -4.93956,1.051588 -6.95599,2.543747 -1.98109,0.952385 -4.21323,1.27795 -6.12357,2.402982 -1.16381,0.714914 -2.2803,1.570687 -3.64876,1.862688 -1.76903,0.492027 -3.27362,1.566886 -4.78471,2.560702 -1.56684,0.911897 -3.41429,1.267923 -4.84422,2.432047 -0.86407,0.544884 -1.38207,1.585312 -2.44194,1.777072 -2.12887,0.884054 -4.07308,2.166328 -5.80954,3.673693 -1.69425,0.682166 -2.791543,2.158926 -4.35696,3.048392 -1.69835,0.987747 -3.471437,1.896871 -4.910619,3.262155 -1.101855,0.881716 -2.640698,1.236918 -3.392579,2.527344 -0.559965,1.164492 -1.895329,1.645556 -2.785156,2.517578 -1.538308,1.381188 -2.899786,2.950172 -4.470703,4.300781 -1.222382,1.163901 -2.568538,2.181264 -3.881635,3.232987 -2.358724,2.195548 -4.562017,4.575586 -6.462115,7.179123 -1.762737,1.68516 -3.561638,3.351555 -5.073612,5.276865 -0.697469,0.738163 -1.085531,1.719184 -1.805294,2.42626 -2.072715,1.160282 -2.715719,3.663294 -4.229077,5.359184 -1.388635,1.606249 -1.886136,3.833159 -3.563473,5.214189 -1.494943,1.48443 -2.076793,3.57821 -3.392997,5.1942 -1.218366,1.74162 -1.920747,3.7698 -3.041016,5.56446 -1.283975,1.35729 -1.920658,3.15953 -2.407,4.92289 -0.679854,1.40889 -1.899971,2.49388 -2.428424,3.9919 -0.586942,1.55733 -0.72416,3.25742 -1.426541,4.78263 -0.29569,0.87731 -0.951043,1.41679 -1.330345,2.30279 -0.926942,1.79131 -1.440425,3.75435 -1.798904,5.72667 -0.581603,2.05336 -1.848181,3.83594 -2.342998,5.92306 -0.771321,2.45028 -0.982589,5.01983 -1.422544,7.53595 -0.289434,1.50229 -1.300875,2.73134 -1.630225,4.22674 -0.07229,-0.11625 -0.02411,-1.15017 -0.05226,-1.60269 -0.198332,-19.50069 -0.133747,-39.00301 -0.152945,-58.504473 0.02799,-11.553704 -0.02711,-23.109069 0.214844,-34.660938 0.03093,-0.933105 0.05876,-2.150376 0.103044,-3.053842 0.146276,-1.967575 0.06272,-4.003448 0.648909,-5.903189 1.330689,-1.639149 2.238303,-3.607353 2.898437,-5.603516 0.165005,-0.938749 1.069505,-1.516771 1.620166,-2.241951 1.777117,-1.813171 3.449944,-3.778285 5.528903,-5.256256 1.279597,-0.710064 2.780487,-0.914787 4.03507,-1.694664 1.020582,-0.419367 1.709893,-1.420819 2.782658,-1.703613 1.229338,-0.07253 2.406459,-0.490734 3.64988,-0.379952 19.471583,-0.202881 38.944836,-0.182462 58.417292,-0.228358 10.47955,-0.01789 20.95912,-0.02024 31.43869,-0.03036 z m 105.69336,0.04102 c 29.58546,0.06576 59.17157,0.05513 88.75623,0.304498 1.5035,0.112617 3.10162,-0.213324 4.4987,0.500707 1.56541,0.6407 2.88448,1.764822 4.49862,2.311765 1.12998,0.44257 2.46479,0.635831 3.22713,1.692996 0.91604,0.991291 2.12563,1.667847 3.07893,2.595262 0.87145,1.679338 2.54718,2.800259 3.26637,4.58357 0.63298,1.679632 1.48186,3.271538 2.45136,4.776827 0.56908,2.370519 0.49849,4.841602 0.62977,7.263836 0.33894,12.937719 0.29444,25.881749 0.35063,38.822877 0.0651,50.67678 0.0446,101.35366 0.0302,152.03047 -0.0287,19.29444 0.0193,38.59013 -0.24526,57.88318 -0.10092,3.41633 -0.0701,6.75379 -0.44939,10.1723 0.0416,0.97285 -0.88233,1.49257 -1.25166,2.3052 -0.59949,0.99753 -1.09763,2.08262 -1.31817,3.22526 -0.47835,0.47554 -0.57253,1.21024 -0.79161,1.77198 -1.49636,1.09308 -2.28688,2.86911 -3.71229,4.02294 -1.18391,0.50352 -1.93691,1.59115 -2.83753,2.44247 -1.03045,0.62826 -2.29399,0.7272 -3.35774,1.30606 -1.17503,0.49182 -2.21736,1.2389 -3.1934,2.04054 -2.02911,0.54527 -4.1682,0.45555 -6.25311,0.57441 -6.1297,0.17593 -12.46607,0.17482 -18.68084,0.205 -26.53095,0.0365 -53.06212,0.0444 -79.59298,-0.0355 -2.54766,-0.0175 -5.09541,-0.0231 -7.643,-0.0486 0.70934,-0.18544 1.34158,-0.61914 1.82618,-1.13086 4.37988,-1.38291 9.20382,-1.02565 13.39008,-3.06737 0.62929,-0.32876 0.94974,-0.70989 1.67046,-0.83497 2.54967,-0.75446 5.28801,-0.94797 7.68491,-2.16019 0.84952,-0.61488 1.77812,-1.10304 2.78915,-1.40745 2.53903,-0.85511 5.21152,-1.50866 7.41744,-3.10624 0.79305,-0.68766 1.97937,-0.45538 2.73155,-1.21675 1.70633,-0.28196 3.27196,-1.08999 4.61677,-2.15959 1.92573,-1.3029 4.15998,-2.06412 6.04534,-3.43807 2.15905,-1.26554 4.54766,-2.15345 6.51211,-3.73405 0.90441,-0.52507 1.98689,-0.68028 2.81859,-1.35739 1.55201,-1.04386 2.78707,-2.52099 4.48571,-3.35582 1.49088,-0.94028 2.70509,-2.26242 4.28627,-3.06922 3.16635,-2.16523 5.84862,-4.94689 8.95737,-7.18936 3.57147,-3.16695 6.87762,-6.62093 10.24511,-10.00118 2.59754,-2.70321 5.29137,-5.32748 7.68898,-8.2129 0.29647,-0.62547 0.80238,-1.06239 1.34873,-1.45727 1.58305,-1.56199 2.32204,-3.71095 3.80505,-5.36268 1.78351,-2.32268 3.61362,-4.64488 4.99661,-7.23473 0.15066,-0.67804 1.01548,-0.76108 1.37266,-1.30782 1.421,-1.43704 2.01398,-3.41608 2.75625,-5.23711 0.58209,-0.987 1.53215,-1.71781 1.98191,-2.79904 0.57633,-1.39566 1.18281,-2.7885 2.08059,-4.01736 1.25258,-1.91979 1.99057,-4.0999 2.65216,-6.27564 0.43252,-1.15116 1.37307,-2.0228 1.78653,-3.19214 0.6958,-1.35582 0.86393,-2.88658 1.37618,-4.30164 0.69011,-1.59903 1.75976,-3.02276 2.21052,-4.72863 0.73515,-2.11126 0.78974,-4.40071 1.62231,-6.47736 1.03793,-1.51501 1.80212,-3.2259 2.04745,-5.05835 0.64695,-3.77623 0.77035,-7.65117 1.7736,-11.36077 0.51826,-1.17768 1.203,-2.30022 1.41211,-3.59571 0.74565,-3.94636 0.66404,-7.98767 0.75941,-11.98709 0.0476,-7.88424 0.0737,-15.77008 -0.0415,-23.6537 -0.0283,-3.40362 -0.46846,-6.80415 -1.45965,-10.06565 -0.59632,-2.14681 -1.29996,-4.46752 -1.62939,-6.55723 -0.19403,-1.11064 -0.36759,-2.20045 -0.48769,-3.39151 -0.28543,-2.26493 -0.41802,-4.71995 -1.75353,-6.65676 -0.3557,-0.43135 -0.87304,-0.70939 -0.87041,-1.33839 -0.57637,-2.35251 -0.54504,-4.86381 -1.65453,-7.0689 -0.69456,-1.68522 -1.75825,-3.19682 -2.39204,-4.90577 -0.25211,-1.93753 -1.03035,-3.82415 -2.14648,-5.42383 -1.44983,-2.04086 -1.77831,-4.67533 -3.22657,-6.71875 -1.65119,-1.57603 -1.61922,-4.06998 -2.85156,-5.88867 -1.06334,-1.16112 -1.89692,-2.49342 -2.56345,-3.91485 -0.99212,-1.83219 -2.4076,-3.4156 -3.05178,-5.4289 -0.52251,-1.24863 -1.49466,-2.20336 -2.49219,-3.076169 -1.17533,-1.378538 -1.97147,-3.045141 -3.24544,-4.350937 -0.57229,-0.569148 -1.09215,-1.17064 -1.42315,-1.90816 -1.27855,-1.805684 -3.02055,-3.260906 -4.0679,-5.233746 -0.49302,-0.775062 -1.25915,-1.294685 -1.96664,-1.839189 -0.58873,-1.039045 -1.22968,-2.069884 -2.09961,-2.910156 -2.48166,-2.324584 -4.70584,-4.910054 -7.22438,-7.19939 -1.43389,-1.304304 -2.82849,-2.718163 -4.46702,-3.745922 -1.23284,-1.667546 -3.02535,-2.769912 -4.78125,-3.806641 -1.44372,-1.166976 -2.87001,-2.358578 -4.38174,-3.440696 -0.63995,-0.548175 -1.08917,-1.30519 -1.86364,-1.720729 -1.32423,-0.832449 -2.65555,-1.665086 -3.8015,-2.738966 -1.4625,-1.202337 -3.45718,-1.57334 -4.75586,-2.99414 -1.65697,-1.477959 -3.85555,-2.134483 -5.56054,-3.53125 -1.27123,-1.218742 -3.0323,-1.558659 -4.5646,-2.221351 -1.28914,-0.599415 -2.28701,-1.676005 -3.62077,-2.20662 -1.76245,-0.837136 -3.76694,-1.254706 -5.24041,-2.616951 -1.39622,-1.067945 -3.14318,-1.39333 -4.78516,-1.880859 -1.52008,-0.537961 -2.77827,-1.611786 -4.31538,-2.123095 -1.74694,-0.738788 -3.60355,-1.145695 -5.43685,-1.590637 -1.52947,-0.551654 -2.77048,-1.704853 -4.37352,-2.093948 -3.36208,-1.023286 -7.01515,-1.063367 -10.17904,-2.725394 -1.29945,-0.608011 -2.60863,-1.262016 -4.07184,-1.323215 -3.98324,-0.573467 -8.05999,-0.503144 -11.9875,-1.437124 -0.87039,-0.221017 -1.48868,-0.983048 -2.40954,-1.096649 -0.99549,-0.199505 0.50977,-0.07912 0.85492,-0.110844 9.26002,0.0075 18.52005,0.01493 27.78008,0.02239 z m -61.17188,26.648437 c 8.41487,0.05341 16.84737,0.119539 25.22288,0.468771 2.80433,0.198618 5.53942,0.305397 8.324,0.765604 1.85239,0.426944 3.41882,1.641665 5.30468,1.988282 2.59126,0.652279 5.35269,0.346794 7.88672,1.238281 2.06265,1.099331 4.19126,2.121972 6.49081,2.62052 1.54864,0.340492 3.21248,0.448492 4.53196,1.432032 1.73187,1.221287 3.81512,1.722954 5.83086,2.251438 1.84981,0.553529 3.34358,1.847116 5.13947,2.532473 1.79579,0.725333 3.65437,1.386231 5.18268,2.616662 1.48446,1.036552 3.31467,1.499145 4.64258,2.767578 1.68809,1.308334 3.82166,1.817669 5.5586,3.035156 1.22823,1.431075 2.96,2.248458 4.40039,3.425782 0.71084,0.609153 1.38499,1.267914 1.95117,2.015624 -4.44724,4.711401 -9.55245,8.736971 -14.11128,13.335671 -1.61554,1.616207 -3.30153,3.162897 -4.988,4.698977 -0.72711,0.676 -1.0769,1.76825 -2.08627,2.10402 -1.14156,0.58588 -1.8107,1.71581 -2.7539,2.52735 -0.57457,0.43955 -1.19331,0.8222 -1.84766,1.13086 -0.87632,-1.8817 -2.00473,-3.65119 -3.48977,-5.11393 -1.51184,-1.75422 -3.20516,-3.34457 -4.53416,-5.25041 -0.24969,-0.440288 0.27202,-0.922928 0.27604,-1.38909 0.79639,-3.140584 0.86183,-6.405184 1.50765,-9.570791 0.49068,-1.798364 1.71463,-3.300339 2.15034,-5.125502 0.73587,-2.376657 0.72043,-5.354322 -1.22455,-7.167467 -1.74834,-1.591079 -4.42351,-1.501836 -6.50045,-0.680862 -1.87092,0.793582 -2.53803,2.915738 -2.75151,4.774612 -0.23558,2.293082 -0.49931,4.663821 -1.46997,6.82825 -1.10059,2.590563 -1.7626,5.342334 -2.16685,8.120955 -0.12415,0.881339 -0.49414,1.842546 -1.43495,2.115034 -3.33007,1.35365 -7.07213,1.616792 -10.20948,3.463101 -0.67879,0.37653 -0.95225,1.16026 -1.68554,1.44922 -2.2649,1.78548 -4.34874,3.81097 -6.25586,5.97266 -0.51456,0.78091 -1.01321,1.56461 -1.68393,2.23242 -1.16316,1.29368 -1.91797,2.87831 -2.49381,4.50195 -0.60483,1.17765 -1.63187,2.08685 -2.10714,3.34525 -0.82797,1.62753 -1.04265,3.51311 -1.82621,5.13585 -1.29757,1.09488 -1.53323,2.91932 -1.92022,4.47759 -0.61322,3.03515 -0.71087,6.15737 -1.47846,9.16436 -0.46517,4.37874 -0.31717,8.79435 -0.35742,13.19102 0,2.11015 0,4.22031 0,6.33046 -3.76307,4.00966 -7.72562,7.82399 -11.64146,11.68286 -1.87901,1.95608 -4.17819,3.43051 -6.08609,5.3553 -1.78313,1.59848 -3.31974,3.47147 -5.19628,4.95989 -1.23387,0.10522 -2.58874,-0.0107 -3.66923,0.74173 -2.18173,1.49946 -3.78784,3.73557 -6.11922,5.042 -1.77293,1.09868 -2.97014,2.89168 -4.76625,3.95713 -0.79914,0.54029 -1.3097,1.36497 -1.86131,2.12242 -1.12186,0.98228 -2.45124,1.79964 -3.19922,3.13867 -0.86713,0.89246 -2.02656,1.44915 -2.84744,2.40415 -0.64281,0.62339 -1.10053,1.45728 -1.98264,1.76187 -1.41763,0.993 -2.21695,2.61781 -3.59085,3.67154 -1.9526,1.85113 -3.98467,3.66037 -5.6279,5.79916 -0.5287,0.72973 -1.50927,0.98615 -2.13758,1.64224 -0.3384,0.084 -0.20013,-1.06001 -0.34283,-1.43382 -0.26298,-2.70952 -0.58205,-5.4881 -1.88106,-7.93017 -0.85466,-1.66387 -1.44522,-3.45085 -2.14634,-5.18254 -0.88683,-1.87952 -2.32683,-3.42005 -3.30237,-5.25145 -0.5847,-1.06117 -1.40914,-1.94059 -2.2699,-2.77394 -1.87503,-2.34886 -3.80758,-4.66453 -6.04339,-6.68535 -1.06471,-1.02983 -2.2599,-1.90313 -3.50401,-2.69604 -1.57876,-1.25923 -2.87602,-3.04484 -4.92526,-3.57565 -1.01854,-0.47601 -1.77886,-1.37176 -2.83085,-1.80678 -2.07225,-1.11807 -4.39672,-1.67246 -6.46016,-2.80259 -1.56999,-1.60579 -3.99996,-1.57483 -6.08887,-1.68082 -4.10146,-0.0994 -8.20111,0.20907 -12.29785,0.28238 -1.201918,-0.18276 -2.459301,-0.79037 -3.023638,-1.84938 -0.7232,-1.00689 -1.829343,-1.58168 -2.852217,-2.21652 -2.905317,-2.142 -5.110338,-5.35803 -8.653442,-6.53761 -1.814988,-0.67431 -4.048329,-0.0535 -5.084958,1.628 -1.261283,1.77189 -0.637058,4.13299 0.188242,5.95251 0.512696,1.14679 1.335098,2.16198 2.42937,2.78604 1.344741,1.1694 2.516142,2.57553 4.067451,3.47529 1.410851,1.26008 2.775318,2.58156 4.026848,3.99995 -0.305015,2.50042 -0.926684,4.96511 -0.979828,7.49604 -0.116897,3.19705 0.09892,6.64398 1.992493,9.34984 0.886196,1.41102 0.896403,3.13493 1.612335,4.61897 0.56297,1.34619 1.225139,2.68347 2.198731,3.77414 1.010884,1.64376 1.529082,3.67783 3.182997,4.84179 0.498039,0.32268 1.009107,0.65425 1.200304,1.2493 1.435142,2.01323 3.258073,3.73452 5.150032,5.31428 0.3589,0.36642 0.8988,0.5026 1.25817,0.83611 1.13243,2.16513 3.56222,3.0589 5.33172,4.58505 1.72967,1.33864 3.98174,1.71337 5.72752,3.01413 1.79147,1.464 4.10529,2.0666 6.29796,2.66044 1.56181,0.32144 3.14697,0.62851 4.56145,1.40591 1.86257,0.91424 3.94711,1.20719 5.99346,1.37158 -3.0927,3.23852 -6.30191,6.37831 -9.7046,9.29219 -0.98529,0.90543 -2.321,1.32952 -3.19989,2.37241 -0.84862,1.09833 -1.91692,1.98465 -3.03197,2.79983 -0.74631,0.49921 -1.11527,1.31784 -1.66287,1.97713 -2.24288,2.26094 -4.63292,4.37193 -6.94652,6.55962 -1.87757,1.37259 -3.41889,3.15004 -5.07206,4.77989 -2.234278,2.20885 -4.297562,4.59777 -6.658443,6.67385 -0.978595,0.74528 -2.05217,1.69976 -3.3506,1.67008 -0.709003,-0.36905 -1.017138,-1.23204 -1.577768,-1.78603 -0.997512,-1.32283 -2.24187,-2.4896 -3.064066,-3.92659 -0.634792,-1.74007 -2.286031,-2.83383 -3.133557,-4.44558 -0.271293,-0.74929 -0.941764,-1.61548 -1.599609,-2.22852 -0.950949,-0.84808 -1.735988,-1.95119 -2.132813,-3.16211 -0.237386,-1.74021 -1.743116,-2.88574 -2.660156,-4.26953 -0.646251,-1.79501 -1.411755,-3.58014 -2.445997,-5.18548 -0.754148,-0.70475 -1.132799,-1.68045 -1.384081,-2.65436 -1.101849,-2.66588 -2.761892,-5.13836 -3.224515,-8.03645 -0.394881,-1.97609 -1.268556,-3.79794 -2.138695,-5.59764 -0.932665,-2.1435 -1.326602,-4.45458 -1.736399,-6.73896 -0.49744,-2.28284 -1.589269,-4.3987 -1.863318,-6.7347 -0.811277,-5.391 -1.019194,-10.85053 -1.199182,-16.29264 -0.04341,-1.95096 -0.07981,-4.10548 -0.08819,-6.13466 -0.01265,-4.41574 0.076,-8.97639 0.265922,-13.29698 0.228182,-3.5713 0.281071,-7.16654 0.809712,-10.70998 0.340969,-2.33406 2.23601,-4.10111 2.450054,-6.47557 0.08397,-2.22219 0.508252,-4.4367 1.21875,-6.54297 1.210775,-1.22068 1.563282,-3.00167 2.069912,-4.58858 0.539516,-1.73617 0.538635,-3.77545 1.913131,-5.1292 1.35582,-1.78112 1.481866,-4.11119 2.387526,-6.09288 0.727864,-1.03897 1.74851,-1.87916 2.250123,-3.07916 0.745544,-1.40332 0.826633,-3.13949 2.014126,-4.30056 1.087514,-1.40989 1.82874,-3.03901 2.796822,-4.52446 1.477048,-1.24906 1.986102,-3.24986 3.137593,-4.76421 0.73766,-1.10285 1.732764,-2.02325 2.359976,-3.1977 1.321145,-1.59235 3.134963,-2.87435 3.94871,-4.82698 0.420396,-0.79872 1.308601,-1.26061 1.833018,-2.00408 0.778376,-0.99477 1.398964,-2.10514 2.31353,-2.99421 3.013415,-3.343979 6.237672,-6.501996 9.731952,-9.343095 1.10538,-0.886586 2.10581,-1.965194 3.35726,-2.633479 1.91281,-0.620522 2.70248,-2.738512 4.41152,-3.683398 1.35542,-0.77417 2.40683,-1.943767 3.64268,-2.86976 1.26736,-0.399761 2.48869,-1.004465 3.46493,-1.929184 1.45694,-1.367729 3.36441,-2.110932 4.87745,-3.392688 1.3529,-1.252573 3.27164,-1.449881 4.88349,-2.213336 1.00642,-0.418683 1.72749,-1.251253 2.57157,-1.893529 1.39585,-0.694691 3.05054,-0.715289 4.39835,-1.548972 1.0725,-0.497382 1.7453,-1.527141 2.72032,-2.142881 1.42012,-0.492841 2.95231,-0.646348 4.32226,-1.308594 1.64464,-0.827589 3.20334,-1.921172 5.06567,-2.210556 2.44576,-0.422718 5.06678,-0.85278 6.99292,-2.553116 1.99768,-0.876662 4.2328,-0.975318 6.3673,-1.2937 1.67692,-0.260213 3.42862,-0.321153 5.01947,-0.947374 1.73276,-0.91466 3.58069,-1.683249 5.56362,-1.774065 3.52883,-0.292723 7.07774,-0.402076 10.59197,-0.822139 3.09566,-0.128289 6.19598,-0.083 9.29358,-0.102175 z m -50.65429,17.029297 c -1.85182,-0.04071 -3.23199,1.562183 -3.70899,3.222656 -0.91014,3.174554 -0.38787,6.679626 1.07958,9.605577 1.21283,2.071667 1.35029,4.543008 1.70464,6.864932 0.15106,1.85065 0.75048,3.933959 -0.33202,5.617779 -1.50617,2.41095 -3.90816,4.09013 -5.47954,6.44492 -1.0783,1.55829 -0.99762,3.55016 -1.7292,5.25546 -0.69647,1.68287 -1.81063,3.20559 -2.13485,5.03497 -0.67955,3.36084 -0.46586,6.81736 -0.54006,10.22558 0.071,3.55954 -0.18423,7.18175 0.62191,10.6781 0.3859,1.79102 1.44745,3.32348 2.02438,5.04026 0.2132,2.70135 1.06808,5.31726 2.03281,7.83486 0.61029,1.54892 1.82659,2.8459 2.00254,4.56094 0.38592,1.87818 1.43049,3.56788 2.88458,4.80733 0.93878,1.1635 1.52293,2.57466 2.5708,3.66197 2.26132,2.60102 4.71548,5.07731 7.56006,7.0392 0.87457,1.6932 2.91888,2.14844 4.60215,2.64095 3.7945,0.90262 7.71569,1.42695 11.6205,1.24186 1.21491,-0.0647 2.43432,-0.34528 3.45452,-1.01938 1.1179,-0.2871 2.24167,-0.61697 3.17659,-1.33123 2.03933,-1.46306 4.01499,-3.1341 5.39819,-5.25095 0.43642,-0.70033 0.4035,-1.57458 0.96774,-2.21498 1.41125,-1.83101 2.52376,-3.92397 2.90691,-6.22462 0.30733,-1.38026 0.3689,-2.90508 0.95543,-4.16587 1.84614,-0.48848 3.1962,-2.19963 3.51953,-4.04492 1.43879,-1.24204 1.47821,-3.32296 1.57471,-5.07988 -0.009,-2.21609 -0.0862,-4.58873 -1.22743,-6.55243 -0.51159,-0.54706 -0.59833,-1.26746 -0.88048,-1.92433 -0.61091,-1.11752 -1.68531,-2.00807 -2.92579,-2.32618 -0.78668,-1.80888 -0.68749,-3.84495 -1.09577,-5.75077 -0.41153,-2.04933 -0.66236,-4.23724 -1.80462,-6.03438 -1.33644,-1.55119 -1.45435,-3.68537 -2.06227,-5.55248 -0.21715,-0.74384 -0.86481,-1.21042 -1.15648,-1.91237 -0.67596,-0.86206 -1.36364,-1.73665 -1.68359,-2.80664 -1.40787,-2.66795 -3.43967,-4.94346 -5.39128,-7.22261 -1.33353,-1.39402 -2.56448,-2.9951 -4.28646,-3.92582 -1.03158,-0.32384 -1.72483,-1.27059 -2.70898,-1.72071 -3.01964,-1.682791 -6.40384,-2.58092 -9.79836,-3.119231 -0.70909,-0.0977 -1.44528,-0.467374 -1.51609,-1.263578 -0.35207,-1.85016 -0.6952,-3.716313 -1.43583,-5.461823 -0.28206,-0.855377 -0.79783,-1.613121 -1.22552,-2.37872 -0.51473,-1.723598 -0.63975,-3.521668 -0.76675,-5.303092 -0.49842,-2.828293 -2.30432,-5.515764 -4.91565,-6.788006 -0.58282,-0.254613 -1.21341,-0.4134 -1.85156,-0.402344 z m 162.38671,30.126954 c 0.53482,0.49536 1.28694,0.63792 1.86772,1.02364 1.38534,1.43839 2.31918,3.24665 3.68674,4.70652 1.18637,1.55402 1.73294,3.61727 3.30897,4.84238 0.99783,1.53262 1.89024,3.15731 3.17954,4.47433 0.81042,1.27316 0.91507,2.85696 1.77149,4.11524 0.7337,1.23197 1.98531,2.12959 2.37304,3.56978 0.33798,1.29927 0.62346,2.64608 1.4287,3.75846 0.72674,1.07784 1.81156,2.01518 1.9207,3.39769 0.42043,2.00907 1.28181,3.92764 2.54513,5.54555 1.37124,2.6386 0.59307,5.93461 2.38573,8.41002 0.62293,0.93142 1.51623,1.78517 1.49294,2.99513 0.43547,3.30237 0.26956,6.72684 1.34257,9.91659 0.94652,1.93611 1.42398,4.05278 1.72043,6.17762 1.02532,7.41331 0.92188,14.93261 0.55242,22.39084 -0.067,1.25748 -0.15896,2.55393 -0.23823,3.70746 -0.16238,3.01594 -0.75735,5.98884 -1.68818,8.85957 -0.99801,3.36103 -1.11601,6.89316 -1.75908,10.32207 -0.21075,1.20549 -1.14346,2.09552 -1.50484,3.25169 -0.75947,1.76705 -1.08112,3.66874 -1.46196,5.53933 -0.96601,3.24842 -2.77261,6.14379 -3.8125,9.36914 -0.79974,1.86796 -2.27554,3.41598 -2.70703,5.44726 -0.28284,0.97597 -0.90611,1.77677 -1.57017,2.5161 -1.02303,1.60172 -1.78245,3.37333 -2.55092,5.09132 -1.6179,1.66785 -2.29313,3.96843 -3.6543,5.81055 -1.57524,1.15758 -2.28838,3.09602 -3.72707,4.39785 -0.86568,0.8677 -1.73885,1.80752 -2.17084,2.9603 -1.22347,1.23736 -2.35478,2.57248 -3.25834,4.06568 -3.03841,3.61625 -6.45119,6.89854 -9.83267,10.18954 -1.34871,1.25806 -2.66721,2.57535 -4.26418,3.51718 -1.26608,0.82487 -2.26143,2.01072 -3.51765,2.83047 -1.54615,0.78009 -2.54972,2.30812 -3.95777,3.26945 -1.44861,0.59511 -2.39795,1.94065 -3.74282,2.71528 -1.2219,0.96228 -2.81836,1.26937 -3.96115,2.34689 -1.35572,1.37906 -3.31671,1.83589 -4.83509,2.99252 -0.88066,0.58114 -1.63406,1.42416 -2.72714,1.56991 -1.48267,0.56002 -3.05924,1.13171 -4.19669,2.2797 -0.8294,0.66151 -1.92385,1.04298 -2.9404,1.38651 -1.75658,0.47425 -3.3782,1.38166 -4.8632,2.39493 -2.059,0.77782 -4.17917,1.41952 -6.30211,1.96663 -1.36264,0.57492 -2.31923,1.9766 -3.89407,2.03595 -2.84338,0.49315 -6.00821,0.26729 -8.45217,2.06639 -1.8516,1.26743 -4.19852,1.28758 -6.34304,1.61016 -2.87422,0.31417 -5.85287,0.45348 -8.50785,1.71933 -2.42423,0.90975 -5.24123,1.13266 -7.67177,1.29471 -1.23849,0.0686 -2.29292,0.11334 -3.54101,0.15234 -6.07409,0.15516 -12.33741,0.10848 -18.48474,0.0883 -3.58774,-0.0689 -7.19599,0.0531 -10.76462,-0.37203 -1.41895,-0.37806 -2.85959,-0.70354 -4.32633,-0.80628 -1.63826,-0.40841 -3.03076,-1.53896 -4.75634,-1.66585 -2.04681,-0.19334 -4.11702,-0.1122 -6.15222,-0.46208 -1.5564,-0.23156 -3.12222,-0.46402 -4.63099,-0.92269 -0.46148,-0.6727 -1.26831,-0.84273 -2.00679,-1.00812 -2.61271,-1.37486 -5.69184,-1.22851 -8.36932,-2.42795 -2.0466,-0.9841 -4.11833,-1.97771 -6.37193,-2.3901 -1.16472,-0.16297 -2.41492,-0.54408 -3.17803,-1.43468 -1.20297,-1.25115 -2.91379,-1.77824 -4.59932,-1.93641 -2.20693,-0.32375 -3.61725,-2.49559 -5.83593,-2.75781 -1.55148,-0.57181 -2.7798,-1.70353 -3.97852,-2.79688 -1.00427,-0.8614 -2.29774,-1.17705 -3.53971,-1.50466 -1.20828,-0.54806 -2.0617,-1.6354 -3.23605,-2.25336 -0.98528,-0.69343 -2.16622,-1.0211 -2.97229,-1.94706 -1.15044,-0.91024 -2.41631,-1.6571 -3.66015,-2.42968 0.36981,-1.0152 0.67989,-2.27369 1.84659,-2.64066 1.17542,-0.53869 2.16135,-1.44138 2.81183,-2.54931 0.97546,-0.75471 2.00702,-1.4676 2.78013,-2.45286 0.64622,-0.82013 1.27438,-1.66976 2.15151,-2.25793 0.45225,-0.38954 0.84481,-0.84021 1.24978,-1.27698 0.4933,1.94096 1.17185,3.85068 2.26367,5.54102 1.02738,1.90579 1.07236,4.20496 2.24805,6.0332 1.38916,1.61424 2.48987,3.43686 3.66211,5.20508 0.84759,1.27306 2.37336,1.79849 3.42578,2.86719 1.74296,1.40877 3.75967,2.4055 5.6454,3.59386 0.54201,0.56144 1.09173,1.2053 1.90706,1.37156 1.16937,0.23806 2.17148,0.99734 3.34793,1.25723 4.72054,1.30597 9.68274,1.37553 14.54516,1.18593 4.58901,-0.27275 9.25547,-0.77048 13.56877,-2.45172 1.41268,-0.56159 2.7013,-1.43093 4.11059,-1.97082 4.15543,-0.56648 8.38115,-0.44749 12.52548,-1.08956 0.82727,-0.29316 1.61155,-0.73666 2.51237,-0.81785 2.69048,-0.38988 5.51472,-0.44818 8.13726,0.34878 1.38921,0.77586 3.05417,0.67035 4.58655,0.90928 2.68919,0.31192 5.46287,0.32601 8.04898,1.20237 0.95796,0.55792 1.81968,1.30201 2.88806,1.67185 4.14001,1.62933 8.63528,2.07107 13.04499,2.28236 4.01042,0.16237 8.03925,-0.12789 11.96842,-0.95833 1.33712,-0.2719 2.7028,-0.33705 4.04579,-0.53885 2.04072,-0.5542 3.19665,-2.40449 4.9876,-3.3804 1.50941,-0.73024 2.97389,-1.58477 4.17075,-2.77632 1.45954,-1.22985 3.35373,-2.15872 4.10915,-4.02303 1.16071,-1.52996 2.45772,-2.98239 3.31076,-4.72369 0.6444,-1.29157 1.05622,-2.71201 2.0194,-3.82703 1.84765,-2.67571 1.72686,-6.07642 1.78033,-9.18551 -0.004,-3.65609 -0.11505,-7.31126 -0.17096,-10.96683 -1.29469,-2.13776 -2.66372,-4.25595 -3.51953,-6.61719 -1.70918,-3.1837 -4.27654,-5.80389 -6.84816,-8.30163 -1.82991,-1.74411 -3.82657,-3.31029 -5.96117,-4.66072 -0.63719,-0.57349 -0.92359,-1.44931 -1.65795,-1.94561 -0.8954,-0.74886 -1.93839,-1.10337 -2.75091,-1.98528 -3.05921,-2.91331 -5.73947,-6.22535 -8.06278,-9.74995 -0.81414,-1.13392 -1.27741,-2.4445 -1.72909,-3.74944 -0.42906,-1.24476 -1.21002,-2.30891 -1.91942,-3.39603 -1.326,-2.69637 -1.27208,-5.78257 -2.17503,-8.60205 -1.31846,-2.43433 -1.92227,-5.17499 -2.82744,-7.77624 -0.45926,-1.28488 -1.22754,-2.42452 -2.21379,-3.36206 -2.05631,-2.46026 -4.13181,-4.92251 -6.56715,-7.02372 -1.15002,-0.99873 -2.32703,-1.96586 -3.49023,-2.94922 1.10369,-1.32817 1.94266,-2.92773 3.4439,-3.86883 0.96158,-0.74009 1.62211,-1.78133 2.35884,-2.70888 1.67245,-1.03646 2.83902,-2.80136 4.68749,-3.55511 1.73069,-0.35979 3.2482,-1.35276 4.99805,-1.66015 2.89331,-0.69961 5.99583,-1.39906 8.18925,-3.56281 1.82593,-1.57952 4.37027,-2.47552 5.52559,-4.72626 0.52112,-0.95861 1.43049,-1.66362 2.0602,-2.55868 0.79813,-0.98773 1.57035,-2.02141 2.12144,-3.16202 1.22528,-1.22585 2.55027,-2.45423 3.1189,-4.14644 0.47567,-1.33292 0.77383,-2.78423 1.74634,-3.86918 0.9936,-1.5403 1.58172,-3.31844 2.79449,-4.72152 3.28154,-4.19438 7.11124,-7.95227 11.23173,-11.31836 2.29383,-1.63818 4.06693,-3.85588 6.14773,-5.73604 2.17886,-2.118 4.36523,-4.27347 6.95243,-5.89411 0.74362,-0.53484 1.40286,-1.22207 1.83065,-2.01943 3.71732,-3.17712 7.11008,-6.71363 10.66021,-10.07363 1.87011,-1.78992 3.72752,-3.60377 5.70188,-5.27388 0.61348,-0.69276 0.99674,-1.61476 1.9126,-1.98735 0.51273,-0.26146 1.08477,-0.56303 1.65304,-0.59287 z m -64.16797,0.97461 c 1.29426,0.0866 2.52561,0.65985 3.35352,1.66992 0.97808,0.98514 2.30419,1.64488 2.9139,2.95282 0.7645,1.56509 1.63112,3.07832 2.46305,4.60577 0.57693,1.18959 0.11932,2.69721 -1.03711,3.34766 -4.66472,3.91076 -8.75674,8.45046 -13.33785,12.45675 -0.9053,0.85752 -1.90834,1.58497 -2.97473,2.22138 -1.02287,0.68358 -1.73268,1.69283 -2.49992,2.62656 -2.75177,2.349 -5.06383,5.16826 -7.7318,7.61127 -1.06369,0.94828 -2.03527,2.06182 -3.25703,2.79506 -0.3763,-0.0346 -1.10902,0.8257 -1.05165,0.19444 -0.0786,-2.94974 -0.19595,-5.91272 0.0266,-8.85794 0.36756,-2.45885 1.41568,-4.75124 2.00608,-7.15885 0.5496,-1.89811 0.71695,-3.93164 1.75512,-5.65995 1.44643,-2.82943 2.76526,-5.75426 4.68623,-8.3005 0.56669,-0.832 0.91894,-1.79396 1.72043,-2.44771 1.94575,-1.96162 3.92665,-3.90854 6.11361,-5.6016 1.69708,-0.56177 2.91444,-2.10089 4.73438,-2.35352 0.6976,-0.12704 1.4106,-0.16388 2.11718,-0.10156 z m -88.17968,-0.0254 c 1.75135,0.0256 3.57288,0.33296 4.99762,1.42408 1.55717,1.20156 3.67872,1.69235 4.78363,3.44115 0.94784,1.14454 2.16081,2.0459 2.94798,3.32703 1.24164,1.79526 2.57219,3.57707 3.43918,5.58876 0.63759,2.14982 2.46609,3.70781 2.98843,5.90319 0.77962,2.36892 0.74989,5.00269 1.98769,7.21032 0.34715,0.45205 0.74249,0.84978 0.77734,1.46094 0.25883,1.2083 0.38151,2.37288 0.48161,3.52749 0.32812,4.73579 0.37124,9.52217 -0.27598,14.23316 -0.12131,0.86611 -0.32703,1.72786 -0.85595,2.43753 -1.20031,2.32774 -1.54408,4.95838 -3.2068,7.04715 -1.92547,2.58857 -5.16335,4.58192 -8.48272,4.0242 -1.99462,-0.3416 -3.34185,-2.02111 -5.15009,-2.79438 -1.28753,-0.59236 -1.72871,-2.10014 -2.85786,-2.90105 -1.39626,-1.17296 -2.55565,-2.59869 -3.81879,-3.90875 -0.62309,-0.63366 -0.95436,-1.44032 -1.24781,-2.25922 -0.34783,-0.49461 -0.54813,-1.01364 -0.74217,-1.58118 -0.76987,-1.70987 -2.27312,-3.06753 -2.55675,-4.99327 -0.28913,-1.7787 -1.00626,-3.52421 -2.12859,-4.96097 -1.07375,-2.5874 -1.22073,-5.44166 -1.44467,-8.20343 -0.2926,-5.73973 -0.14815,-11.54117 0.90571,-17.20244 0.32304,-1.6431 0.79862,-3.29202 1.82535,-4.64408 0.51835,-0.73165 0.68836,-1.65125 1.41236,-2.23419 1.39643,-1.41062 2.87549,-2.79191 4.59823,-3.7936 0.53103,-0.12196 1.07993,-0.14745 1.62305,-0.14844 z m 161.08984,46.86133 c -1.2468,0.0284 -2.58812,0.1861 -3.51367,1.11523 -3.84303,3.2052 -7.1313,7.00612 -10.86075,10.33302 -1.11875,1.05388 -2.63244,1.57388 -4.16074,1.51854 -5.4562,0.0174 -10.98718,-0.56353 -16.38126,0.52179 -1.59209,0.31839 -3.12282,0.9919 -4.3185,2.10195 -1.80492,1.02687 -3.90825,1.43611 -5.64412,2.61045 -0.73509,0.46757 -1.28313,1.18702 -2.1483,1.45136 -2.16833,1.17965 -3.93638,2.95617 -5.78035,4.57166 -3.35073,3.14381 -6.69667,6.33292 -9.55364,9.94201 -0.78712,0.96517 -1.08091,2.23878 -2.00586,3.09961 -0.87138,1.23926 -1.99083,2.4584 -2.14735,4.02525 -0.64427,2.40406 -1.67959,4.67553 -2.70745,6.93163 -0.9855,2.88434 -1.21665,6.0403 -0.7076,9.04311 0.39665,2.0419 1.71753,3.7321 2.83975,5.4297 2.13584,2.88775 4.96368,5.69271 8.65352,6.29146 4.62792,0.74204 9.37173,0.44725 13.98043,-0.29352 2.6152,-0.50345 5.38092,-1.00943 7.57182,-2.6205 0.99292,-0.99645 2.45543,-1.16675 3.59317,-1.94225 1.4325,-0.75877 2.64023,-1.85643 3.99598,-2.72621 1.79475,-0.49749 2.98529,-2.08251 4.37305,-3.22461 1.11626,-0.99472 2.41346,-1.89038 3.08773,-3.26055 0.97908,-0.7527 2.06625,-1.46611 2.63688,-2.59296 1.59404,-1.69093 3.36463,-3.37739 4.07421,-5.66211 1.35047,-1.26452 2.08679,-3.0331 2.89434,-4.66605 0.6899,-1.29241 0.82692,-2.81515 1.58848,-4.06404 1.40438,-1.9189 1.66299,-4.3919 1.93047,-6.68762 0.30804,-3.52695 0.15883,-7.13475 -0.84688,-10.54713 1.59657,-2.24006 4.08552,-3.5528 6.00367,-5.47244 2.11259,-1.86293 3.94452,-4.04119 6.16821,-5.77366 1.78213,-1.26874 2.35271,-3.66185 2.25976,-5.74414 -0.0414,-1.53947 -1.00057,-3.10928 -2.58053,-3.44349 -0.74505,-0.20855 -1.52329,-0.27228 -2.29447,-0.26549 z m -27.02344,21.91015 c 1.24145,0.0806 2.26966,0.88777 3.44529,1.22577 1.25233,0.55401 2.67864,0.7816 3.79885,1.59064 0.56938,1.46652 0.32067,3.10786 0.39844,4.65234 -0.0391,2.16168 -0.1774,4.36169 -0.83594,6.4336 -1.36898,1.00237 -2.04669,2.66729 -2.72294,4.17131 -0.93817,2.11192 -2.57281,3.81482 -4.03313,5.57514 -2.43882,2.69759 -4.93023,5.40488 -7.87732,7.55756 -0.86673,0.4957 -1.9029,0.65395 -2.71967,1.26779 -1.07463,0.59601 -1.82588,1.58834 -2.74924,2.36125 -1.17322,0.69822 -2.58072,0.88532 -3.76552,1.5812 -1.30899,0.6546 -2.43455,1.72175 -3.94529,1.90479 -2.85961,0.50844 -5.93146,0.27886 -8.58337,-0.95615 -2.04964,-0.97041 -2.69763,-3.41036 -2.88017,-5.48842 -0.19238,-2.43678 0.3307,-5.00502 1.88114,-6.94654 1.17995,-1.7544 1.61007,-4.01336 2.98341,-5.58457 0.74019,-0.82136 1.34501,-1.75816 1.85156,-2.72852 0.9233,-0.8817 1.97006,-1.72113 2.82964,-2.72778 1.42858,-1.39671 2.86875,-2.78037 4.24856,-4.22567 1.29861,-1.16051 2.48032,-2.45408 3.82233,-3.56199 1.18484,-0.86531 2.67629,-1.13174 3.91197,-1.91942 1.70733,-1.07808 3.55603,-1.94902 5.54101,-2.37178 1.35337,-0.3743 2.68338,-0.87624 3.86719,-1.63281 0.49078,-0.16675 1.01872,-0.19822 1.5332,-0.17774 z m -181.97851,1.3086 c 3.42223,0.0503 6.87253,0.63892 10.04883,1.93359 1.65821,1.05622 3.48505,1.85545 5.28906,2.58594 1.34338,1.2533 2.59154,2.73326 4.33789,3.42383 0.66419,0.99872 1.35713,2.05411 2.44531,2.65039 1.74465,1.47775 3.35457,3.12467 4.82031,4.8789 0.91591,1.95328 2.87769,3.21849 3.70015,5.24358 0.82554,1.9782 2.47133,3.55592 2.87724,5.71423 0.6589,2.88241 0.55935,6.0667 -0.80004,8.73751 -0.43168,0.94595 -1.35224,1.49417 -2.3504,1.65545 -2.91841,0.61634 -5.98445,0.7123 -8.91645,0.13246 -0.9286,-0.0648 -1.31791,-0.9879 -2.06674,-1.39808 -1.35361,-0.98485 -3.01417,-1.32755 -4.61638,-1.66083 -1.45902,-0.57124 -2.47521,-1.85525 -3.81117,-2.643 -2.72986,-1.65394 -5.32911,-3.56751 -7.57563,-5.84222 -1.02077,-1.26463 -2.29805,-2.29672 -3.16519,-3.68714 -1.52922,-2.15042 -2.86621,-4.42812 -4.037702,-6.79 -0.378331,-0.75554 -0.912116,-1.41679 -1.532606,-1.96977 -0.953774,-2.01165 -0.930046,-4.32557 -0.86914,-6.50781 0.140755,-1.78112 0.289168,-3.65522 1.166016,-5.24805 0.803808,-0.0302 1.556938,-0.37307 2.180082,-0.84817 0.91856,-0.32354 1.91348,-0.33195 2.87656,-0.36081 z m 105.70898,17.74609 c 1.31445,0.45654 2.49455,1.21518 3.44722,2.22891 0.61215,0.57362 1.35034,0.99413 2.08403,1.3707 0.80724,1.02651 1.59122,2.08431 2.58977,2.94202 1.21994,1.46579 1.7215,3.3581 2.6506,5.00027 0.96032,1.71721 1.66737,3.5904 1.78636,5.56979 0.32146,2.42447 0.86887,4.99627 2.51799,6.88596 0.52777,1.36708 0.53339,2.88624 1.14684,4.23418 0.77409,2.34938 2.55514,4.16924 3.47143,6.44641 1.01365,1.96646 2.88356,3.30974 3.92346,5.26201 2.22129,2.69524 4.76769,5.10642 7.24598,7.56281 1.21718,1.08487 2.30245,2.37546 3.72421,3.1958 1.19724,0.57509 2.12426,1.60244 3.1428,2.44202 2.0181,1.86515 4.07565,3.72337 5.78298,5.88451 0.45755,0.95641 1.17013,1.74748 1.77022,2.60267 0.87768,1.90261 1.10179,4.0258 1.33135,6.08678 0.0507,0.55291 0.11731,1.42811 0.14558,2.11441 0.1013,3.2751 0.11336,6.63171 -0.79992,9.80532 -0.24428,1.03857 -1.28195,1.55004 -1.79381,2.43897 -0.87355,1.25282 -1.5302,2.65894 -2.63313,3.74454 -2.1729,2.32012 -4.58642,4.55919 -7.56568,5.78339 -1.58696,0.7252 -3.11251,1.63298 -4.68351,2.34911 -4.15482,-0.0246 -8.30964,-0.0491 -12.46446,-0.0736 -2.84414,-1.60549 -5.89675,-2.90199 -9.14178,-3.40597 -1.84644,-0.18923 -3.61979,-0.77243 -5.2646,-1.62226 -3.30594,-1.56085 -7.05078,-1.20501 -10.5983,-1.30433 -6.12082,0.0224 -12.25929,-0.12901 -18.36189,0.42772 -1.89571,0.17541 -3.80461,0.53753 -5.48889,1.45953 -3.27041,1.23519 -6.9191,1.35754 -9.94978,3.23778 -2.57794,1.42292 -5.62459,1.14172 -8.46148,1.25006 -2.32377,0.0226 -4.64772,0.0211 -6.97156,0.0336 -1.79169,-1.34881 -3.81721,-2.33323 -5.89751,-3.14535 -1.75252,-0.81046 -2.94861,-2.43102 -4.67865,-3.28736 -2.20256,-1.63232 -3.68327,-4.02669 -5.08728,-6.33677 -0.64595,-1.23529 -1.47095,-2.42662 -1.81117,-3.78716 -0.39363,-3.1953 -0.32056,-6.44979 0.084,-9.64062 0.0903,-1.12505 1.03346,-1.89105 1.5925,-2.80465 1.00367,-1.27404 1.90889,-2.67416 3.13211,-3.74418 1.63757,-1.2689 3.03054,-2.81566 4.60156,-4.16211 0.2477,-0.19878 0.82193,-0.70004 1.18737,-1.01522 4.17587,-3.78154 8.15016,-7.78526 12.44281,-11.43948 1.86057,-1.53767 3.56914,-3.24076 5.19554,-5.02114 1.88547,-1.7368 3.57727,-3.68353 5.55319,-5.31908 1.89352,-0.94908 3.17505,-2.75086 4.83593,-4.02734 1.37345,-0.59641 1.78142,-2.22635 2.99207,-3.03914 1.06315,-0.81369 2.36949,-1.59623 2.72593,-2.97017 1.24873,-1.40494 2.79615,-2.60164 4.53016,-3.33965 1.40989,0.0171 2.84903,-0.34528 3.95852,-1.25829 2.72495,-2.17438 5.05722,-4.79008 7.59923,-7.16805 3.37841,-3.31835 7.01443,-6.47032 10.45972,-9.79111 1.07741,-0.97986 2.20978,-2.15651 3.58789,-2.8125 0.13802,0.0521 0.27604,0.10417 0.41406,0.15625 z M 36.501953,214.9082 c 0.386301,1.17342 1.072181,2.23278 1.197266,3.48633 0.668975,3.06528 0.793918,6.26292 1.871093,9.22852 0.550728,1.29063 1.750942,2.24514 1.975235,3.6909 0.558866,2.56699 0.71254,5.33605 2.168994,7.60519 0.284121,0.51765 0.942048,0.70558 1.008115,1.34453 0.745994,2.36998 1.389559,4.85525 2.967604,6.83837 0.953099,1.46953 1.089342,3.29606 2.060172,4.76255 0.83494,1.29945 1.795573,2.54162 2.297461,4.02525 0.589753,1.67712 1.587362,3.1848 2.83283,4.44376 1.030682,1.33495 1.382682,3.062 2.470839,4.36757 1.341371,1.45453 2.037687,3.36657 3.417998,4.79439 0.677719,0.86737 1.766744,1.48302 1.972628,2.63139 0.504911,0.85813 1.353218,1.43213 1.902343,2.27149 1.618551,2.16611 3.334892,4.26003 5.234375,6.1875 1.031321,1.16058 2.029563,2.36624 2.767578,3.73437 1.383634,1.78393 3.193577,3.17671 4.737279,4.81612 1.913472,1.8778 3.797235,3.81106 6.012364,5.33855 1.954014,1.51009 3.679707,3.28123 5.51462,4.92459 0.77165,0.59637 1.67901,0.97789 2.395514,1.66236 1.983055,1.67082 4.265499,2.9488 6.168348,4.71737 1.433492,1.18912 3.271381,1.76341 4.625031,3.05773 1.13484,0.91809 2.43211,1.60278 3.74573,2.21 1.08333,0.85413 2.11172,1.79392 3.3519,2.43149 1.17292,0.73747 2.56159,1.12057 3.66796,1.94336 1.35279,1.20389 3.1287,1.81068 4.81055,2.41601 0.40579,0.15561 1.10606,0.55121 1.5957,0.84375 1.95214,1.36763 4.18132,2.29913 6.42424,3.09912 0.53279,0.32292 0.91624,0.91543 1.52782,1.1751 1.60827,0.94958 3.44227,1.35078 5.23515,1.78053 2.41855,0.77534 4.65058,2.03356 7.09792,2.73556 2.55584,0.74312 5.14896,1.41473 7.56253,2.56516 2.36108,1.04181 4.959,1.16904 7.46921,1.57988 1.68432,0.33924 3.42188,0.66664 4.91241,1.55759 0.59863,0.2576 1.22974,0.42881 1.86057,0.58714 -20.96519,0.35691 -41.9354,0.23538 -62.901489,0.0203 -13.083942,-0.18667 -26.18542,-0.34137 -39.231575,-0.91228 -2.141113,-0.12196 -4.289146,-0.19726 -6.417719,-0.47126 -1.552034,-1.22978 -3.479879,-1.83307 -5.27885,-2.58212 -2.534641,-1.57165 -4.630954,-3.74039 -6.517444,-6.02523 -0.829368,-1.16162 -1.595623,-2.44197 -1.793293,-3.87153 -0.509091,-1.38592 -1.653743,-2.40221 -2.306898,-3.69886 -0.304702,-1.15633 -0.343672,-2.27309 -0.468977,-3.39206 -0.274148,-4.67918 -0.213294,-9.37248 -0.280513,-14.05831 -0.128885,-25.3254 -0.03275,-50.65179 0.192644,-75.97638 0.0262,-2.68202 0.05452,-5.36401 0.092,-8.0459 l 0.03128,0.095 z" />
  </g>
</svg>
