<?xml version="1.0" encoding="UTF-8" standalone="no"?>
<svg
   id="svg"
   version="1.1"
   width="400"
   height="400"
   viewBox="0, 0, 400,400"
   sodipodi:docname="paddlingno.svg"
   inkscape:version="1.4 (86a8ad7, 2024-10-11)"
   xmlns:inkscape="http://www.inkscape.org/namespaces/inkscape"
   xmlns:sodipodi="http://sodipodi.sourceforge.net/DTD/sodipodi-0.dtd"
   xmlns="http://www.w3.org/2000/svg"
   xmlns:svg="http://www.w3.org/2000/svg">
  <defs
     id="defs1" />
  <sodipodi:namedview
     id="namedview1"
     pagecolor="#ffffff"
     bordercolor="#000000"
     borderopacity="0.25"
     inkscape:showpageshadow="2"
     inkscape:pageopacity="0.0"
     inkscape:pagecheckerboard="0"
     inkscape:deskcolor="#d1d1d1"
     inkscape:zoom="1.615"
     inkscape:cx="199.6904"
     inkscape:cy="200"
     inkscape:window-width="1440"
     inkscape:window-height="890"
     inkscape:window-x="-6"
     inkscape:window-y="-6"
     inkscape:window-maximized="1"
     inkscape:current-layer="svgg" />
  <g
     id="svgg">
    <path
       id="path1"
       d="M25.800 14.687 C 25.360 14.795,24.730 15.109,24.400 15.385 C 24.070 15.661,23.184 16.094,22.430 16.347 C 21.076 16.802,20.674 17.089,18.881 18.881 C 17.089 20.674,16.802 21.076,16.347 22.430 C 16.094 23.184,15.597 24.134,15.243 24.542 C 14.654 25.221,14.600 39.692,14.600 195.742 L 14.600 366.200 15.906 368.870 C 17.164 371.442,20.818 375.600,21.819 375.600 C 22.073 375.600,23.163 376.095,24.240 376.700 L 26.200 377.800 198.000 377.800 L 369.800 377.800 371.797 376.700 C 372.895 376.095,374.006 375.600,374.265 375.600 C 374.879 375.600,379.600 370.879,379.600 370.265 C 379.600 370.006,380.095 368.895,380.700 367.797 L 381.800 365.800 381.800 196.000 L 381.800 26.200 380.700 24.240 C 380.095 23.163,379.600 22.073,379.600 21.819 C 379.600 20.818,375.442 17.164,372.870 15.906 L 370.200 14.600 198.400 14.546 C 103.910 14.516,26.240 14.579,25.800 14.687 M104.536 35.450 C 109.104 36.542,112.059 38.524,115.000 42.468 C 115.752 43.476,120.057 48.864,121.482 50.580 C 121.838 51.009,122.856 52.539,123.745 53.980 C 124.633 55.421,126.008 57.410,126.799 58.400 C 129.230 61.440,137.801 74.861,140.466 79.800 C 146.147 90.329,148.250 95.525,149.047 101.000 C 150.009 107.607,150.329 108.211,156.507 115.071 C 159.535 118.434,162.588 121.484,163.291 121.847 C 164.659 122.555,171.824 122.426,177.605 121.591 C 179.032 121.385,181.334 121.212,182.721 121.208 C 184.108 121.204,186.451 120.925,187.929 120.589 C 191.300 119.822,229.070 119.920,231.800 120.703 C 232.680 120.955,237.720 121.423,243.000 121.743 C 249.033 122.109,253.269 122.550,254.400 122.930 C 257.469 123.962,259.580 124.399,266.200 125.375 C 270.678 126.035,273.501 126.679,275.600 127.519 C 277.250 128.180,279.770 128.850,281.200 129.007 C 282.630 129.165,285.751 129.987,288.136 130.836 C 290.521 131.684,293.569 132.577,294.909 132.820 C 296.248 133.063,298.374 133.781,299.632 134.416 C 300.890 135.051,303.152 135.875,304.660 136.246 C 306.167 136.617,308.452 137.445,309.737 138.085 C 311.022 138.725,313.255 139.614,314.699 140.060 C 316.142 140.505,317.983 141.307,318.789 141.840 C 319.596 142.374,321.457 143.144,322.926 143.551 C 324.395 143.958,326.340 144.784,327.248 145.385 C 328.157 145.986,329.822 146.800,330.950 147.194 C 332.077 147.588,334.069 148.561,335.376 149.355 C 336.684 150.150,338.058 150.800,338.432 150.800 C 338.805 150.800,340.025 151.429,341.143 152.199 C 342.262 152.968,343.947 153.895,344.888 154.259 C 345.830 154.623,347.206 155.369,347.947 155.917 C 348.688 156.465,350.206 157.259,351.321 157.683 C 352.435 158.106,353.880 158.901,354.531 159.448 C 355.181 159.996,356.563 160.874,357.600 161.400 C 358.637 161.926,360.007 162.791,360.643 163.323 C 361.279 163.855,362.520 164.660,363.400 165.112 C 365.531 166.206,368.393 169.200,369.107 171.082 C 371.304 176.870,371.310 176.897,370.867 179.313 C 370.246 182.707,366.406 188.800,364.888 188.800 C 364.680 188.800,363.810 189.358,362.955 190.040 C 362.100 190.723,360.590 191.695,359.600 192.201 C 358.610 192.707,357.350 193.522,356.800 194.012 C 356.250 194.502,354.750 195.405,353.468 196.019 C 352.185 196.633,350.835 197.404,350.468 197.732 C 350.100 198.061,348.767 198.785,347.505 199.341 C 346.243 199.897,344.592 200.823,343.836 201.399 C 343.081 201.976,341.806 202.628,341.004 202.850 C 340.202 203.071,338.486 203.937,337.192 204.774 C 335.897 205.611,334.044 206.495,333.075 206.739 C 332.105 206.984,331.074 207.470,330.783 207.821 C 330.068 208.683,327.825 209.761,325.400 210.409 C 324.300 210.703,322.766 211.358,321.991 211.864 C 321.216 212.371,319.255 213.237,317.634 213.789 C 316.012 214.340,313.946 215.219,313.042 215.742 C 312.139 216.265,310.680 216.819,309.800 216.974 C 308.920 217.129,306.670 217.953,304.800 218.806 C 302.930 219.660,300.275 220.537,298.899 220.757 C 297.524 220.976,294.947 221.811,293.172 222.613 C 291.228 223.490,288.615 224.285,286.598 224.611 C 284.757 224.909,282.679 225.449,281.980 225.810 C 279.660 227.010,277.452 227.626,273.207 228.256 C 264.609 229.534,264.099 231.708,270.740 238.789 L 274.669 242.978 278.788 243.255 C 282.621 243.512,283.158 243.658,286.553 245.366 C 288.559 246.375,290.381 247.200,290.601 247.200 C 290.822 247.200,291.859 247.809,292.906 248.554 C 293.954 249.298,295.393 250.136,296.105 250.417 C 296.817 250.697,297.940 251.425,298.600 252.035 C 299.260 252.645,300.710 253.599,301.821 254.154 C 302.933 254.709,304.193 255.550,304.620 256.022 C 305.048 256.495,305.892 257.137,306.495 257.449 C 307.098 257.761,308.487 258.777,309.581 259.708 C 310.676 260.639,312.769 262.300,314.232 263.400 C 317.380 265.766,321.005 268.680,322.192 269.800 C 322.659 270.240,324.454 271.770,326.181 273.200 C 337.385 282.478,339.811 285.683,340.994 292.769 C 342.282 300.482,344.470 302.180,348.623 298.689 C 350.882 296.790,354.879 295.156,355.795 295.757 C 357.587 296.935,358.238 300.452,356.900 301.727 C 355.227 303.323,350.468 306.152,348.232 306.881 C 346.894 307.316,345.214 308.032,344.498 308.470 C 343.782 308.909,342.240 309.658,341.073 310.134 C 339.512 310.771,338.271 311.742,336.386 313.800 C 330.311 320.434,324.942 322.223,315.077 320.901 C 311.154 320.376,303.386 315.136,301.610 311.818 C 301.334 311.302,300.363 310.553,299.454 310.153 C 298.544 309.753,296.967 308.923,295.948 308.308 C 294.930 307.694,293.234 306.931,292.180 306.614 C 291.125 306.297,289.529 305.510,288.631 304.867 C 287.734 304.223,286.314 303.312,285.476 302.842 C 284.638 302.372,282.550 300.836,280.836 299.429 C 279.121 298.022,276.567 296.293,275.159 295.585 C 273.752 294.878,272.150 293.989,271.600 293.610 C 271.050 293.231,269.478 292.705,268.108 292.442 C 266.737 292.178,264.667 291.545,263.508 291.034 C 256.455 287.925,236.211 287.750,229.902 290.745 C 228.526 291.398,226.279 292.150,224.908 292.416 C 223.451 292.700,221.594 293.431,220.434 294.178 C 219.344 294.880,217.675 295.798,216.726 296.216 C 215.777 296.635,214.864 297.193,214.698 297.457 C 214.531 297.722,213.721 298.344,212.898 298.841 C 212.074 299.337,210.639 300.431,209.709 301.272 C 208.779 302.112,207.817 302.800,207.571 302.800 C 207.325 302.800,205.923 303.606,204.454 304.592 C 202.985 305.577,201.170 306.506,200.419 306.656 C 199.669 306.806,197.765 307.617,196.187 308.458 C 193.787 309.737,192.673 310.062,189.360 310.447 C 187.182 310.700,184.448 311.243,183.285 311.654 C 180.436 312.659,165.970 312.739,162.200 311.771 C 160.880 311.432,157.910 310.895,155.600 310.579 C 152.284 310.124,150.727 309.676,148.200 308.451 C 146.440 307.598,144.242 306.693,143.316 306.439 C 142.390 306.185,140.837 305.371,139.866 304.630 C 138.895 303.888,137.674 303.054,137.154 302.775 C 136.189 302.259,132.048 299.004,130.600 297.624 C 130.160 297.204,128.729 296.391,127.421 295.817 C 126.112 295.243,124.489 294.353,123.814 293.838 C 123.139 293.323,121.792 292.768,120.821 292.604 C 119.850 292.440,116.793 291.519,114.028 290.558 L 109.000 288.810 98.600 288.814 C 87.597 288.819,85.865 289.040,80.600 291.105 C 79.500 291.537,77.610 292.112,76.400 292.382 C 75.190 292.653,73.739 293.198,73.176 293.593 C 72.612 293.989,70.992 294.896,69.576 295.609 C 68.159 296.322,66.491 297.332,65.869 297.853 C 64.153 299.290,63.180 299.084,61.867 297.005 C 60.072 294.164,61.242 291.604,65.100 289.931 C 66.145 289.479,67.540 288.615,68.200 288.013 C 68.910 287.365,70.462 286.632,72.000 286.219 C 73.430 285.835,75.848 284.978,77.373 284.314 C 84.415 281.249,113.056 281.223,118.988 284.276 C 120.081 284.839,122.227 285.646,123.756 286.070 C 125.285 286.494,127.180 287.350,127.968 287.974 C 128.756 288.597,130.059 289.382,130.865 289.718 C 132.486 290.395,138.800 295.072,138.800 295.597 C 138.800 295.779,139.655 296.335,140.700 296.832 C 141.745 297.328,143.320 298.233,144.200 298.842 C 145.080 299.451,146.880 300.255,148.200 300.628 C 149.520 301.001,151.455 301.751,152.499 302.295 C 154.523 303.348,160.195 304.388,164.000 304.403 C 165.210 304.408,167.280 304.673,168.600 304.992 C 171.660 305.731,173.077 305.736,176.791 305.020 C 178.446 304.701,181.836 304.256,184.324 304.032 C 188.087 303.692,189.365 303.391,191.924 302.242 C 193.616 301.482,195.687 300.735,196.527 300.581 C 197.367 300.427,198.897 299.729,199.927 299.029 C 200.957 298.330,202.433 297.464,203.206 297.105 C 203.979 296.746,205.059 295.973,205.606 295.388 C 206.153 294.803,207.081 294.074,207.669 293.768 C 208.257 293.462,209.557 292.503,210.558 291.636 C 211.559 290.770,212.784 289.932,213.279 289.775 C 213.774 289.618,215.084 288.897,216.190 288.173 C 217.295 287.449,219.007 286.646,219.993 286.388 C 220.979 286.130,223.289 285.297,225.126 284.537 C 233.342 281.135,259.799 280.990,267.200 284.305 C 268.630 284.946,271.039 285.795,272.553 286.194 C 274.199 286.627,275.807 287.357,276.553 288.012 C 277.239 288.614,278.496 289.397,279.346 289.752 C 280.196 290.107,281.487 290.921,282.216 291.560 C 284.385 293.465,287.200 293.576,287.200 291.757 C 287.200 291.195,285.311 287.913,283.771 285.800 C 282.635 284.241,279.200 278.531,279.200 278.201 C 279.200 278.061,278.776 277.374,278.258 276.673 C 277.268 275.334,274.472 269.993,272.458 265.592 C 270.860 262.100,268.400 253.534,268.400 251.461 C 268.400 247.900,268.076 247.367,261.807 240.600 C 259.768 238.400,257.403 235.760,256.550 234.733 C 254.479 232.239,250.775 231.579,245.890 232.835 C 244.960 233.074,242.972 233.424,241.470 233.613 C 239.969 233.803,238.079 234.189,237.270 234.471 C 234.767 235.346,185.216 235.207,181.000 234.314 C 175.656 233.182,171.212 232.460,166.800 232.007 C 160.710 231.382,155.463 230.495,153.507 229.759 C 152.568 229.406,149.370 228.762,146.400 228.328 C 142.625 227.777,139.977 227.135,137.600 226.193 C 135.730 225.451,133.120 224.722,131.800 224.573 C 130.480 224.423,128.500 223.946,127.400 223.512 C 126.300 223.079,124.500 222.363,123.400 221.921 C 122.300 221.480,120.331 220.966,119.025 220.779 C 117.719 220.592,116.148 220.068,115.535 219.615 C 114.921 219.161,112.930 218.332,111.110 217.771 C 109.289 217.210,106.720 216.238,105.400 215.611 C 104.080 214.984,101.740 214.080,100.200 213.602 C 98.660 213.123,96.860 212.332,96.200 211.844 C 95.540 211.356,94.190 210.727,93.200 210.446 C 92.210 210.166,90.230 209.253,88.800 208.417 C 87.370 207.581,85.622 206.772,84.916 206.620 C 84.210 206.468,82.419 205.546,80.935 204.572 C 79.451 203.597,77.939 202.800,77.575 202.800 C 77.210 202.800,76.216 202.328,75.366 201.751 C 74.516 201.174,72.564 200.091,71.027 199.343 C 69.491 198.595,67.866 197.655,67.417 197.253 C 66.968 196.851,65.816 196.218,64.858 195.847 C 63.901 195.477,62.300 194.549,61.301 193.787 C 60.302 193.024,59.248 192.400,58.958 192.400 C 58.668 192.400,57.437 191.590,56.221 190.600 C 55.006 189.610,53.772 188.800,53.480 188.800 C 52.136 188.800,48.992 184.143,48.368 181.228 C 47.040 175.024,50.730 166.389,55.315 164.971 C 55.802 164.820,57.253 163.910,58.540 162.949 C 59.826 161.987,61.186 161.200,61.562 161.200 C 61.937 161.200,63.394 160.390,64.800 159.400 C 66.206 158.410,67.564 157.600,67.818 157.600 C 68.072 157.600,68.982 157.095,69.840 156.478 C 70.698 155.861,72.626 154.785,74.125 154.087 C 75.625 153.389,77.335 152.479,77.925 152.065 C 78.516 151.650,79.720 151.078,80.600 150.792 C 81.480 150.507,83.102 149.675,84.204 148.944 C 85.307 148.212,87.109 147.346,88.210 147.020 C 89.310 146.693,90.834 145.965,91.597 145.402 C 92.360 144.840,94.213 144.013,95.716 143.565 C 97.219 143.118,99.255 142.240,100.241 141.615 C 101.227 140.990,103.279 140.173,104.800 139.800 C 106.321 139.427,108.363 138.617,109.337 137.999 C 110.311 137.381,112.164 136.665,113.454 136.408 C 114.744 136.151,117.064 135.342,118.610 134.611 C 120.159 133.879,123.012 132.984,124.968 132.617 C 126.920 132.251,129.526 131.443,130.759 130.822 C 132.009 130.191,134.326 129.486,136.000 129.227 C 139.274 128.721,141.859 128.050,146.267 126.566 C 147.844 126.035,149.577 125.600,150.118 125.600 C 152.610 125.600,152.904 123.148,150.742 120.381 C 145.924 114.211,145.683 114.041,141.097 113.574 C 138.407 113.300,136.746 112.883,135.000 112.045 C 133.680 111.411,131.665 110.590,130.523 110.221 C 129.380 109.852,127.850 109.115,127.123 108.582 C 126.395 108.049,125.021 107.250,124.068 106.807 C 123.115 106.363,121.585 105.395,120.668 104.655 C 119.751 103.915,118.531 103.059,117.959 102.754 C 117.016 102.253,115.198 100.955,110.046 97.109 C 109.082 96.389,107.411 95.035,106.333 94.100 C 105.255 93.165,104.201 92.400,103.991 92.400 C 103.781 92.400,102.636 91.545,101.448 90.500 C 100.260 89.455,98.084 87.610,96.612 86.400 C 95.140 85.190,93.526 83.840,93.024 83.400 C 92.523 82.960,90.873 81.521,89.357 80.201 C 82.209 73.982,80.544 71.870,78.158 66.000 C 74.167 56.181,80.127 39.954,89.000 36.479 C 94.442 34.347,98.735 34.063,104.536 35.450 M94.892 42.539 C 83.579 45.015,80.424 61.191,89.515 70.100 C 90.919 71.475,92.457 72.985,92.934 73.456 C 93.660 74.173,97.626 77.445,99.000 78.460 C 99.359 78.725,101.739 80.791,105.624 84.211 C 106.381 84.877,107.675 85.837,108.500 86.344 C 109.325 86.851,110.225 87.574,110.500 87.951 C 110.775 88.328,111.720 89.066,112.600 89.590 C 113.480 90.114,114.948 91.186,115.861 91.972 C 116.775 92.757,118.665 94.173,120.061 95.117 C 121.458 96.061,123.500 97.461,124.600 98.227 C 125.700 98.993,127.320 99.965,128.200 100.388 C 129.080 100.811,130.419 101.616,131.177 102.178 C 132.825 103.400,138.926 105.341,140.023 104.993 C 141.503 104.523,142.090 101.897,141.407 98.800 C 140.956 96.756,133.785 82.671,131.466 79.273 C 130.913 78.463,129.588 76.360,128.522 74.600 C 127.456 72.840,125.778 70.260,124.792 68.867 C 123.806 67.473,122.190 65.096,121.200 63.583 C 108.202 43.726,104.177 40.506,94.892 42.539 M206.200 127.297 C 205.661 127.615,201.348 127.862,193.000 128.052 C 177.365 128.407,175.721 128.567,174.346 129.866 L 173.292 130.862 174.017 132.846 C 174.714 134.752,177.889 138.639,181.986 142.600 C 183.598 144.158,183.701 144.195,185.921 144.008 C 187.174 143.903,197.920 143.813,209.800 143.808 L 231.400 143.800 234.600 145.262 C 236.360 146.066,238.412 146.954,239.161 147.236 C 241.406 148.080,245.373 151.594,248.152 155.200 C 257.568 167.417,257.147 190.566,247.301 202.046 C 242.565 207.569,242.565 208.598,247.301 213.539 C 249.336 215.663,251.672 218.161,252.491 219.091 C 255.975 223.044,257.584 223.639,262.075 222.636 C 263.464 222.326,266.040 221.950,267.800 221.800 C 269.895 221.622,272.036 221.116,274.000 220.333 C 275.650 219.675,278.664 218.886,280.698 218.578 C 282.823 218.258,285.631 217.494,287.298 216.784 C 288.894 216.105,291.424 215.291,292.919 214.976 C 294.414 214.661,297.114 213.793,298.919 213.048 C 300.724 212.303,303.226 211.481,304.480 211.222 C 305.734 210.963,307.419 210.304,308.225 209.757 C 309.032 209.210,311.066 208.314,312.746 207.766 C 314.426 207.219,316.474 206.325,317.299 205.781 C 318.123 205.236,319.743 204.540,320.899 204.234 C 327.891 202.380,327.664 203.342,327.516 176.228 L 327.400 154.864 326.462 153.866 C 325.946 153.317,325.077 152.755,324.530 152.618 C 323.983 152.481,322.856 151.919,322.026 151.370 C 321.196 150.821,319.313 149.934,317.842 149.401 C 316.370 148.867,314.679 148.090,314.083 147.675 C 313.487 147.260,311.740 146.599,310.200 146.207 C 308.660 145.815,306.140 144.906,304.600 144.187 C 303.060 143.469,300.567 142.586,299.060 142.226 C 297.552 141.866,295.218 141.015,293.873 140.336 C 292.251 139.517,290.412 138.976,288.413 138.729 C 286.756 138.525,284.500 137.940,283.400 137.429 C 280.640 136.148,279.112 135.721,275.400 135.195 C 273.640 134.946,270.940 134.314,269.400 133.791 C 266.392 132.770,261.510 131.827,257.000 131.396 C 254.095 131.118,250.306 130.343,247.200 129.392 C 245.056 128.735,231.483 127.997,221.584 127.999 C 216.635 128.000,213.890 127.823,212.265 127.400 C 209.522 126.686,207.298 126.648,206.200 127.297 M153.000 132.582 C 151.900 132.864,150.348 133.382,149.552 133.731 C 148.756 134.081,146.323 134.633,144.146 134.959 C 141.969 135.285,138.661 136.117,136.794 136.808 C 134.927 137.500,132.114 138.314,130.542 138.618 C 128.971 138.922,126.472 139.726,124.989 140.405 C 123.506 141.084,120.926 141.923,119.255 142.268 C 117.584 142.614,115.266 143.433,114.103 144.089 C 112.940 144.746,110.698 145.615,109.121 146.020 C 107.544 146.426,105.745 147.134,105.124 147.593 C 104.503 148.052,102.781 148.798,101.298 149.251 C 97.788 150.323,93.073 153.076,92.137 154.600 C 90.914 156.592,91.091 197.834,92.334 200.270 C 93.355 202.272,94.675 203.255,97.600 204.192 C 98.810 204.580,100.700 205.393,101.800 206.000 C 102.900 206.606,105.058 207.514,106.595 208.016 C 108.132 208.518,110.202 209.336,111.195 209.834 C 112.188 210.332,113.900 210.960,115.000 211.230 C 116.100 211.499,118.054 212.245,119.342 212.887 C 120.630 213.529,123.248 214.395,125.159 214.812 C 127.070 215.229,129.645 216.018,130.879 216.564 C 132.114 217.110,135.040 217.926,137.382 218.378 C 139.723 218.830,142.153 219.466,142.782 219.790 C 144.307 220.579,150.278 221.887,154.595 222.377 C 156.515 222.595,158.292 222.932,158.543 223.124 C 159.949 224.203,166.272 225.198,175.600 225.807 C 177.690 225.943,180.815 226.312,182.544 226.627 C 184.273 226.942,186.703 227.206,187.944 227.214 C 189.185 227.222,191.280 227.489,192.600 227.808 C 196.140 228.663,222.448 228.656,225.735 227.800 C 227.002 227.470,229.245 227.192,230.720 227.183 C 232.194 227.173,234.210 226.990,235.200 226.777 C 236.190 226.563,238.260 226.206,239.800 225.984 C 244.946 225.241,246.308 223.625,243.890 221.131 C 243.607 220.839,242.231 219.340,240.834 217.800 C 233.946 210.210,233.815 210.144,228.450 211.542 C 223.818 212.748,189.229 212.725,186.000 211.513 C 185.010 211.141,182.957 210.559,181.439 210.219 C 179.723 209.835,178.158 209.185,177.306 208.501 C 176.552 207.895,175.356 207.040,174.649 206.600 C 170.938 204.291,165.849 197.155,164.147 191.874 C 163.291 189.216,162.879 171.717,163.566 167.157 C 164.370 161.825,168.737 154.294,173.208 150.532 C 175.745 148.397,174.867 146.200,168.866 139.656 C 163.090 133.358,163.200 133.483,163.200 133.189 C 163.200 132.016,156.707 131.630,153.000 132.582 M195.602 152.112 C 193.434 153.219,193.836 155.791,196.627 158.671 C 197.655 159.732,199.570 161.860,200.882 163.400 C 202.194 164.940,204.198 167.107,205.334 168.215 C 206.470 169.323,209.020 171.997,211.000 174.157 C 212.980 176.318,214.975 178.471,215.433 178.943 C 215.892 179.414,217.512 181.158,219.033 182.817 C 236.142 201.473,235.190 200.560,237.241 200.285 C 247.092 198.964,251.427 173.099,243.725 161.605 C 240.693 157.081,236.488 153.717,232.400 152.545 C 229.053 151.586,197.363 151.213,195.602 152.112 M179.996 155.132 C 165.266 164.354,165.740 191.660,180.800 201.539 C 185.144 204.389,183.447 204.200,204.685 204.200 C 225.628 204.200,224.846 204.283,225.382 202.000 C 225.581 201.152,225.114 200.482,222.308 197.595 C 216.992 192.125,209.634 184.179,204.995 178.900 C 202.627 176.205,200.558 174.000,200.398 174.000 C 200.238 174.000,199.023 172.695,197.697 171.100 C 196.372 169.505,193.872 166.750,192.143 164.978 C 190.415 163.206,187.665 160.288,186.034 158.494 C 182.710 154.838,181.522 154.176,179.996 155.132 M79.656 159.823 C 78.038 160.374,76.148 161.250,75.456 161.769 C 74.765 162.287,73.030 163.295,71.600 164.007 C 70.170 164.720,68.910 165.439,68.800 165.605 C 68.690 165.770,67.375 166.555,65.877 167.348 C 64.379 168.141,62.875 169.068,62.535 169.408 C 62.195 169.748,61.260 170.364,60.458 170.777 C 53.362 174.427,54.681 181.345,63.373 186.054 C 64.488 186.658,65.811 187.536,66.313 188.004 C 66.815 188.472,68.255 189.309,69.513 189.863 C 70.771 190.417,72.087 191.127,72.438 191.441 C 72.790 191.755,75.020 193.000,77.394 194.206 C 85.138 198.141,84.800 198.888,84.799 177.846 C 84.797 157.240,85.013 157.999,79.656 159.823 M335.961 160.433 L 335.000 161.267 334.894 177.133 C 334.780 194.169,334.878 195.041,336.984 195.849 C 337.604 196.087,343.808 193.215,345.800 191.768 C 346.460 191.289,347.819 190.541,348.820 190.106 C 349.821 189.671,351.261 188.792,352.020 188.152 C 352.779 187.512,354.210 186.556,355.200 186.027 C 360.635 183.123,363.764 178.950,362.732 175.980 C 362.241 174.568,358.876 170.800,358.106 170.800 C 357.758 170.800,356.548 170.086,355.417 169.213 C 354.285 168.340,352.724 167.360,351.948 167.036 C 351.172 166.712,350.281 166.135,349.968 165.756 C 349.656 165.376,348.230 164.538,346.800 163.894 C 345.370 163.250,343.750 162.307,343.200 161.798 C 342.318 160.982,338.664 159.600,337.389 159.600 C 337.132 159.600,336.490 159.975,335.961 160.433 M276.790 251.826 C 275.587 254.992,279.202 264.213,285.796 274.800 C 286.276 275.570,287.373 277.334,288.234 278.720 C 289.857 281.332,294.242 287.990,297.769 293.200 C 304.207 302.709,306.241 304.381,311.400 304.405 C 312.500 304.410,314.660 304.681,316.200 305.007 C 319.464 305.698,322.529 305.773,323.623 305.188 C 324.047 304.961,325.880 304.666,327.697 304.532 C 333.060 304.137,334.772 302.453,334.791 297.555 C 334.814 291.814,331.844 287.663,322.377 280.200 C 320.982 279.100,318.978 277.390,317.925 276.400 C 316.872 275.410,315.063 273.838,313.905 272.906 C 312.747 271.975,310.832 270.409,309.649 269.428 C 308.466 268.446,306.897 267.358,306.163 267.009 C 305.429 266.661,304.597 266.053,304.314 265.657 C 304.031 265.262,302.785 264.292,301.544 263.502 C 300.303 262.713,299.166 261.869,299.017 261.627 C 298.868 261.386,297.993 260.805,297.073 260.337 C 296.153 259.868,294.680 258.916,293.800 258.220 C 292.920 257.525,291.672 256.729,291.026 256.453 C 290.380 256.176,289.181 255.418,288.362 254.770 C 287.543 254.121,286.095 253.316,285.144 252.980 C 284.194 252.645,282.817 252.017,282.085 251.585 C 280.044 250.381,277.292 250.506,276.790 251.826 M109.251 332.795 C 111.681 333.032,114.117 333.561,115.851 334.230 C 117.363 334.812,120.193 335.705,122.140 336.213 C 124.088 336.721,126.068 337.491,126.540 337.925 C 127.013 338.358,128.480 339.283,129.800 339.979 C 132.628 341.472,135.622 343.454,137.670 345.191 C 139.972 347.144,144.393 349.938,145.968 350.435 C 146.756 350.683,148.378 351.427,149.573 352.088 C 151.716 353.272,158.376 354.764,165.200 355.587 C 166.630 355.759,168.645 356.121,169.678 356.392 C 170.711 356.663,172.331 356.793,173.278 356.682 C 176.076 356.353,182.386 355.256,182.741 355.037 C 182.921 354.925,185.033 354.549,187.434 354.200 C 190.645 353.734,192.541 353.211,194.600 352.226 C 196.140 351.488,198.120 350.659,199.000 350.383 C 199.880 350.107,201.213 349.413,201.962 348.841 C 202.711 348.268,203.907 347.440,204.621 347.000 C 205.819 346.261,208.371 344.326,211.461 341.815 C 212.154 341.251,213.594 340.410,214.661 339.947 C 215.727 339.483,217.193 338.660,217.917 338.118 C 218.642 337.576,220.839 336.704,222.800 336.179 C 224.761 335.654,227.481 334.755,228.845 334.181 C 234.629 331.747,258.274 331.727,263.600 334.152 C 264.810 334.703,267.420 335.550,269.400 336.033 C 271.380 336.516,273.568 337.333,274.262 337.847 C 274.956 338.362,276.538 339.162,277.778 339.626 C 279.017 340.090,280.813 341.129,281.768 341.935 C 285.614 345.180,286.348 345.710,291.829 349.200 C 292.693 349.750,294.390 350.620,295.600 351.132 C 296.810 351.645,298.790 352.481,300.000 352.990 C 302.118 353.881,307.268 354.872,313.627 355.612 C 315.292 355.806,317.149 356.153,317.753 356.382 C 319.161 356.917,322.625 356.922,323.619 356.390 C 324.040 356.165,325.783 355.822,327.492 355.628 C 333.579 354.940,339.782 353.559,342.800 352.221 C 344.450 351.489,346.555 350.577,347.478 350.194 C 348.401 349.812,349.563 349.066,350.060 348.537 C 353.081 345.320,357.600 346.405,357.600 350.348 C 357.600 352.150,353.234 355.911,350.157 356.761 C 349.423 356.963,348.323 357.480,347.711 357.908 C 346.057 359.067,342.499 360.281,339.793 360.610 C 338.477 360.770,336.317 361.304,334.993 361.797 C 328.794 364.107,313.982 364.350,307.400 362.252 C 305.420 361.620,302.170 360.781,300.177 360.387 C 297.781 359.913,295.817 359.235,294.377 358.385 C 293.180 357.678,291.369 356.852,290.352 356.550 C 289.336 356.248,287.600 355.280,286.495 354.400 C 285.390 353.520,284.292 352.800,284.056 352.800 C 283.820 352.800,282.724 351.998,281.620 351.017 C 280.516 350.037,279.205 349.025,278.706 348.767 C 278.208 348.510,277.430 347.964,276.978 347.554 C 276.526 347.143,275.026 346.348,273.643 345.786 C 272.261 345.225,270.471 344.341,269.665 343.823 C 268.859 343.305,267.300 342.760,266.200 342.612 C 265.100 342.464,262.636 341.812,260.724 341.162 C 252.707 338.437,240.158 338.449,232.000 341.189 C 230.130 341.818,227.610 342.448,226.400 342.591 C 225.051 342.750,223.504 343.282,222.400 343.967 C 221.410 344.582,219.520 345.502,218.200 346.012 C 216.880 346.523,215.150 347.494,214.356 348.170 C 210.445 351.501,208.829 352.800,208.598 352.800 C 208.458 352.800,207.501 353.503,206.472 354.361 C 205.442 355.220,203.700 356.223,202.600 356.590 C 201.500 356.957,199.613 357.821,198.407 358.511 C 197.094 359.262,194.848 360.045,192.807 360.463 C 190.933 360.847,187.780 361.652,185.800 362.253 C 179.024 364.309,163.553 364.042,157.078 361.757 C 156.195 361.445,153.787 360.846,151.729 360.426 C 149.300 359.929,147.111 359.176,145.493 358.279 C 144.122 357.519,142.571 356.765,142.047 356.605 C 141.523 356.444,140.055 355.522,138.784 354.556 C 137.514 353.590,136.300 352.800,136.087 352.800 C 135.873 352.800,135.458 352.511,135.165 352.158 C 134.872 351.805,133.609 350.821,132.359 349.972 C 131.108 349.123,129.767 348.110,129.378 347.721 C 128.989 347.332,127.575 346.549,126.236 345.981 C 124.896 345.413,123.065 344.482,122.167 343.911 C 121.153 343.268,119.636 342.767,118.167 342.591 C 116.865 342.434,114.112 341.772,112.049 341.118 C 103.607 338.443,92.076 338.457,83.600 341.153 C 81.510 341.818,78.990 342.482,78.000 342.629 C 77.010 342.776,75.390 343.401,74.400 344.018 C 73.410 344.635,71.652 345.497,70.494 345.934 C 69.336 346.370,67.754 347.284,66.980 347.964 C 64.406 350.224,62.185 349.442,60.795 345.787 C 60.274 344.417,64.090 340.307,66.341 339.813 C 67.035 339.660,68.458 338.949,69.502 338.233 C 70.647 337.447,72.590 336.643,74.400 336.205 C 76.050 335.806,78.660 334.979,80.201 334.366 C 84.772 332.549,98.880 331.786,109.251 332.795 "
       stroke="none"
       fill="#dadada"
       fill-rule="evenodd"
       style="fill:#ffffff;fill-opacity:1" />
    <path
       id="path0"
       d="M 69.246094,1.3066406 C 51.492415,1.3428624 33.738032,1.3119467 15.984923,1.4506712 15.435599,1.5812974 14.641525,1.2325932 14.27965,1.7316753 13.906743,2.2004112 13.510345,2.6732798 13.371094,3.2714844 12.371253,3.4238166 11.529978,4.2157051 11.302734,5.1992188 9.9593391,5.163509 8.2722741,5.2011619 7.5513442,6.5567427 7.3674184,7.0511369 7.2297984,7.4230801 6.645811,7.4948272 5.3214839,8.1417766 5.140821,9.749142 5.2003614,11.058572 c 0.048392,0.49886 -0.7752897,0.354582 -1.0170195,0.75021 -0.4986243,0.375197 -0.8124693,0.977819 -0.9177169,1.589656 -0.6216868,0.08959 -1.243499,0.178319 -1.8652344,0.267578 0,121.555994 0,243.111974 0,364.667964 0.6183048,0.0974 1.2656037,0.16456 1.8671875,0.2793 0.149139,1.00787 0.9416443,1.85077 1.9316407,2.08203 -0.035627,1.34396 0.00124,3.03199 1.3575239,3.75335 0.4943942,0.18392 0.8663374,0.32154 0.9380845,0.90553 0.6469494,1.32433 2.2543148,1.50499 3.5637448,1.44545 0.49886,-0.0484 0.354582,0.77529 0.75021,1.01702 0.375197,0.49862 0.977819,0.81247 1.589656,0.91772 0.08959,0.62168 0.178319,1.24349 0.267578,1.86523 122.889324,0 245.778644,0 368.667964,0 0.0974,-0.61831 0.16456,-1.2656 0.2793,-1.86719 1.00787,-0.14914 1.85077,-0.94164 2.08203,-1.93164 1.34396,0.0356 3.03199,-0.001 3.75335,-1.35752 0.18392,-0.4944 0.32154,-0.86634 0.90553,-0.93809 1.32433,-0.64695 1.50499,-2.25431 1.44545,-3.56374 -0.0484,-0.49886 0.77529,-0.35458 1.01702,-0.75021 0.49862,-0.3752 0.81247,-0.97782 0.91772,-1.58966 0.62168,-0.0896 1.24349,-0.17832 1.86523,-0.26758 0,-121.55599 0,-243.11197 0,-364.667964 -0.61831,-0.09734 -1.2656,-0.16456 -1.86719,-0.279297 -0.14914,-1.00787 -0.94164,-1.850767 -1.93164,-2.082031 0.0356,-1.3439548 -0.001,-3.0319834 -1.35752,-3.7533438 -0.4944,-0.1839258 -0.86634,-0.3215458 -0.93809,-0.9055332 -0.64695,-1.3243271 -2.25431,-1.50499 -3.56374,-1.4454496 -0.49886,0.048392 -0.35458,-0.7752897 -0.75021,-1.0170195 C 383.81602,3.6847176 383.2134,3.3708726 382.60156,3.265625 382.51197,2.6439382 382.42324,2.022126 382.33398,1.4003906 289.69284,1.3639143 197.0517,1.268202 104.41055,1.2912638 92.689064,1.2963894 80.967579,1.301515 69.246094,1.3066406 Z M 198.40039,16.546875 c 57.11133,0.01758 114.22266,0.03516 171.33399,0.05273 1.94299,0.892361 3.85775,1.882929 5.47892,3.29848 0.8634,0.770915 1.87131,1.499702 2.45838,2.499217 0.45366,1.58468 1.45771,2.958868 2.1291,4.427303 0,112.819531 0,225.639061 0,338.458591 -0.82915,1.44616 -1.60863,2.94094 -2.22461,4.47852 -1.2064,1.41485 -2.51864,2.75285 -3.96289,3.92578 -1.57433,0.47698 -2.95956,1.44707 -4.43008,2.11328 -114.15286,0 -228.30573,0 -342.458591,0 -1.46251,-0.81581 -2.922572,-1.70901 -4.521484,-2.20898 -1.841822,-1.59486 -3.395342,-3.55014 -4.545955,-5.69722 -0.3212,-0.79335 -0.884028,-1.53067 -1.057561,-2.35825 0.0078,-92.49414 -0.02161,-184.98829 0.03337,-277.482416 0.03686,-18.471089 0.0036,-36.942997 0.208112,-55.413207 0.05449,-2.406709 0.05051,-4.817827 0.238983,-7.218832 0.778453,-1.034666 1.039894,-2.332897 1.664063,-3.441406 1.044751,-1.219881 2.161094,-2.417216 3.453125,-3.376953 1.286594,-0.538113 2.63803,-0.978681 3.757812,-1.841797 1.085896,-0.207377 2.245347,-0.04865 3.359308,-0.112119 43.73869,-0.118911 87.477644,-0.10152 131.216474,-0.106048 12.62318,0.0011 25.24635,0.0022 37.86953,0.0033 z M 98.109375,32.566406 c -3.240834,0.128792 -6.432501,0.902463 -9.484744,1.966304 -2.625949,1.020087 -4.608131,3.130445 -6.541718,5.097073 -4.285952,4.532042 -7.085337,10.559356 -7.266507,16.837014 -0.187494,5.382261 1.31954,10.745765 3.864285,15.459334 2.10057,3.132178 4.918249,5.694187 7.65134,8.261369 3.923763,3.547394 7.999256,6.918932 12.052196,10.315823 1.696213,1.397138 3.263183,3.03118 5.252773,4.000573 2.27169,1.803524 4.44666,3.733075 6.82419,5.403279 2.40763,1.780835 4.78929,3.610895 7.37154,5.133785 1.85828,1.3671 3.67386,2.83024 5.79589,3.78273 1.80209,0.89099 3.34522,2.24476 5.2581,2.92436 2.11802,0.72771 4.18467,1.58986 6.21728,2.52654 2.60138,1.12621 5.47063,1.15955 8.22169,1.62288 1.89678,0.42108 2.96417,2.2307 4.16587,3.58994 0.93473,1.32977 2.29053,2.47254 2.68617,4.10439 -2.40524,0.19802 -4.72685,1.20365 -6.94236,1.85645 -2.80329,0.93461 -5.70248,1.51595 -8.61045,2.00658 -2.02326,0.40179 -3.93625,1.18243 -5.81084,2.0184 -2.88236,1.10718 -6.00425,1.35735 -8.88721,2.46703 -2.37265,0.85351 -4.62059,2.08479 -7.11976,2.56386 -1.89542,0.41521 -3.65486,1.26104 -5.32765,2.2193 -2.29119,1.10518 -4.87587,1.39926 -7.14215,2.57332 -1.702077,0.9478 -3.440859,1.86067 -5.327057,2.39398 -1.890397,0.57151 -3.678853,1.43838 -5.316691,2.53591 -1.649603,0.88996 -3.530155,1.23601 -5.147231,2.2037 -1.761546,0.99627 -3.445056,2.17625 -5.403753,2.76889 -1.815729,0.7228 -3.358336,1.9573 -5.151193,2.73258 -2.215963,1.01581 -4.340098,2.21879 -6.356619,3.58578 -2.38956,0.78355 -4.19556,2.69157 -6.464844,3.7207 -2.338758,0.61951 -4.041965,2.50094 -6.124064,3.63517 -1.147088,0.50906 -2.33601,1.00017 -3.266733,1.87929 -3.07164,2.75436 -4.756127,6.7686 -5.440214,10.77309 -0.531017,3.18838 -0.259374,6.5955 1.338371,9.45822 1.084866,2.00089 2.318998,4.07333 4.252406,5.35775 0.676282,0.36363 1.448545,0.48382 2.020796,1.04195 1.524156,1.08609 2.911989,2.49602 4.734366,3.05584 1.811063,1.18082 3.533103,2.54856 5.57526,3.32839 1.575118,0.58981 2.767985,1.83148 4.285342,2.53774 2.245429,1.15746 4.509796,2.28745 6.628983,3.66858 0.724446,0.46545 1.561215,0.67012 2.360721,0.92804 2.448205,1.27693 4.647902,3.107 7.365235,3.8125 2.717228,1.12435 5.12708,2.93458 7.987343,3.72871 1.682649,0.51094 3.000168,1.75459 4.662505,2.31984 2.499281,0.95531 5.084541,1.69574 7.492891,2.88284 2.67523,1.22999 5.54634,1.93845 8.26136,3.06111 1.14817,0.51193 2.16593,1.30187 3.41386,1.58995 2.0108,0.56893 4.13601,0.71172 6.0777,1.53653 2.63056,1.04047 5.23863,2.23715 8.06777,2.62613 2.89577,0.29269 5.5649,1.50704 8.30478,2.38862 4.52468,1.42521 9.34456,1.50193 13.87996,2.86866 3.89681,1.16549 7.96471,1.60981 11.98905,2.10921 5.33311,0.50171 10.61938,1.39729 15.85933,2.49471 3.77568,0.43219 7.5875,0.41589 11.38253,0.53876 12.89274,0.23807 25.79174,0.29782 38.68415,0.0118 2.28753,-0.12433 4.61349,-0.025 6.86646,-0.4811 3.06293,-0.88982 6.29573,-0.95054 9.36914,-1.81054 2.38805,-0.48216 5.19215,-0.73437 7.23437,0.85937 1.50577,1.54556 2.85675,3.24302 4.33985,4.81446 2.2893,2.58648 4.81795,4.98298 6.82904,7.80134 1.15922,1.47568 0.58032,3.41644 0.99085,5.10929 0.81417,4.09644 2.0457,8.10915 3.52141,12.01374 1.65513,3.86021 3.56483,7.6144 5.63612,11.26757 0.57433,1.08867 1.45193,1.99087 1.88643,3.14999 1.71475,3.15576 3.66426,6.17751 5.70285,9.13152 0.41599,0.65847 0.82292,1.32325 1.19892,2.00506 -1.17868,-0.69386 -2.15011,-1.70463 -3.39112,-2.31313 -1.32174,-0.63903 -2.64648,-1.30108 -3.75341,-2.28648 -2.43532,-1.68237 -5.45824,-1.99563 -8.13263,-3.14232 -2.26958,-1.03493 -4.68359,-1.70978 -7.14976,-2.07359 -6.98556,-1.07663 -14.08942,-1.16317 -21.13917,-0.86833 -5.06751,0.28625 -10.19213,0.67108 -15.08488,2.10309 -2.3692,0.80115 -4.65407,1.84957 -7.07196,2.51129 -2.17038,0.69862 -3.98202,2.11814 -5.99307,3.13826 -2.57389,0.99853 -4.30971,3.31785 -6.72931,4.58551 -1.46158,0.94516 -2.49426,2.46568 -4.15323,3.11919 -2.20111,1.04701 -4.04788,2.87294 -6.52156,3.29101 -2.55207,0.67026 -4.83866,2.08138 -7.39777,2.7154 -3.05177,0.58938 -6.17662,0.65684 -9.24269,1.16463 -2.88521,0.36353 -5.80984,1.33613 -8.71991,0.59453 -2.4701,-0.64233 -5.01965,-0.8924 -7.56653,-0.92519 -2.9946,-0.2525 -6.02911,-0.65537 -8.85224,-1.72641 -1.98934,-1.04265 -4.15695,-1.64895 -6.26138,-2.39857 -2.00711,-0.78212 -3.66067,-2.2236 -5.62522,-3.09861 -0.67198,-0.33124 -1.38055,-0.62863 -1.78642,-1.29067 -2.27468,-2.06844 -4.79724,-3.86528 -7.40762,-5.4843 -1.3668,-0.66482 -2.70309,-1.39543 -3.90684,-2.33211 -2.70061,-1.7272 -5.97856,-2.08541 -8.80273,-3.54492 -2.94235,-1.32182 -6.21345,-1.60978 -9.38434,-1.96489 -7.81068,-0.69162 -15.685509,-0.66456 -23.498308,-0.0185 -3.946117,0.39205 -7.991024,0.80969 -11.631024,2.49906 -1.931852,0.80741 -3.991061,1.24188 -5.929301,2.02297 -1.290163,0.47236 -2.330357,1.36837 -3.422554,2.16367 -1.662768,1.06923 -3.657976,1.62258 -5.054395,3.0907 -1.717237,1.57098 -2.380713,4.17718 -1.486329,6.34766 0.74037,1.7347 1.913291,3.61564 3.863282,4.10351 1.633512,0.35096 3.087462,-0.66471 4.281175,-1.64433 2.267572,-1.48972 4.785017,-2.54884 7.068434,-4.01192 2.011747,-0.84879 4.21504,-1.10884 6.239928,-1.93281 2.66423,-1.08084 5.441554,-1.97035 8.334754,-2.10489 5.55146,-0.3354 11.118208,-0.158 16.676488,-0.20927 1.23868,0.0797 2.54392,-0.23509 3.70117,0.32736 3.82893,1.32759 7.64999,2.72626 11.60424,3.63233 1.41117,0.46637 2.50172,1.54419 3.86084,2.13073 1.72138,0.90492 3.65827,1.51335 5.03954,2.97176 2.27533,1.9295 4.60781,3.80999 7.16589,5.35359 1.81957,1.36925 3.73592,2.7005 5.96805,3.29047 3.23283,1.11983 6.16612,3.0765 9.5883,3.63385 3.23258,0.55549 6.49691,0.95439 9.68829,1.72974 4.60332,0.66774 9.27799,0.61033 13.91767,0.50527 2.84997,-0.14041 5.76143,-0.19354 8.48828,-1.125 2.88934,-0.78318 5.92293,-0.77999 8.80664,-1.57227 2.68902,-0.80505 4.97384,-2.60452 7.7207,-3.25586 2.40571,-0.84958 4.38831,-2.5064 6.61524,-3.69726 1.75988,-0.56627 2.94699,-2.12351 4.41857,-3.16796 1.27881,-0.99029 2.76675,-1.72779 3.88234,-2.90956 1.83195,-0.96231 3.71435,-1.84179 5.45043,-2.98155 2.13716,-1.27296 4.68523,-1.3871 6.95764,-2.31398 1.72005,-0.65453 3.37862,-1.50455 5.21728,-1.79296 5.79776,-1.09778 11.74866,-1.12846 17.62096,-0.76492 4.08282,0.32936 8.25627,0.76426 12.04059,2.43948 1.89494,0.74636 3.90403,1.06016 5.84466,1.62668 1.34874,0.45327 2.46202,1.39347 3.75206,1.98295 3.22136,1.52463 5.93796,3.86016 8.74137,6.01511 1.88211,1.47435 4.0329,2.54374 5.96081,3.95265 1.51454,1.00799 3.25449,1.55028 4.93411,2.19899 2.0598,0.87839 3.89915,2.19126 5.96433,3.06468 1.08391,0.42319 1.4242,1.58856 2.17578,2.37109 2.69746,3.00974 6.11292,5.32203 9.72461,7.09766 1.81136,0.90618 3.79208,1.41133 5.81101,1.53506 4.83796,0.5295 9.98187,0.22141 14.30853,-2.2095 3.15556,-1.67724 5.6614,-4.28055 8.07035,-6.8592 1.09199,-1.17436 2.50364,-1.95385 3.98864,-2.51643 1.89932,-0.84813 3.64286,-2.02751 5.65139,-2.6285 3.07521,-1.094 5.88995,-2.83342 8.53022,-4.73122 1.18728,-0.81385 2.23497,-1.96953 2.40744,-3.45545 0.37754,-2.56657 -0.67079,-5.54268 -3.0293,-6.82617 -1.8391,-0.63764 -3.7604,0.23628 -5.43741,0.96963 -1.70672,0.75254 -3.18886,1.89079 -4.65048,3.02647 -0.46979,0.25172 -1.26659,0.93765 -1.67617,0.24842 -1.33476,-2.07443 -1.51088,-4.62218 -2.00809,-6.98172 -0.6643,-3.62853 -2.35975,-7.02813 -4.80115,-9.78759 -4.56614,-5.22039 -10.24415,-9.25814 -15.36311,-13.88247 -4.15038,-3.52785 -8.61904,-6.65739 -12.78731,-10.16293 -1.10257,-0.96756 -2.47066,-1.55746 -3.57315,-2.51575 -1.90004,-1.99801 -4.73422,-2.68797 -6.70339,-4.60506 -1.52602,-1.31212 -3.51557,-1.84475 -5.11985,-3.039 -1.16954,-0.80841 -2.35258,-1.64699 -3.72969,-2.04675 -3.10967,-1.26289 -5.96894,-3.37711 -9.40988,-3.63337 -1.87811,-0.19037 -3.76404,-0.28103 -5.64657,-0.418 -2.28987,-2.54874 -4.86867,-4.87738 -6.76953,-7.74805 -0.25608,-0.46046 -0.60149,-0.95508 -0.59765,-1.49219 1.29342,-0.9712 2.99573,-1.13257 4.54221,-1.43824 3.51269,-0.52774 7.0914,-1.13414 10.26247,-2.82348 2.65288,-0.9342 5.51537,-1.04245 8.1591,-2.02127 2.77053,-0.92686 5.38225,-2.36439 8.29686,-2.83006 2.94496,-0.5687 5.65549,-1.88654 8.4178,-2.99655 1.79195,-0.77054 3.78581,-0.93737 5.51383,-1.87972 3.18317,-1.84248 6.93847,-2.50828 10.03665,-4.47641 2.11182,-1.12135 4.56585,-1.38134 6.64484,-2.58827 0.84429,-0.39554 1.56979,-0.99523 2.25514,-1.60225 1.24838,-0.55603 2.61664,-0.81518 3.81576,-1.50023 2.0656,-1.02082 3.90536,-2.50926 6.15741,-3.13337 1.95463,-0.73335 3.47879,-2.2351 5.39361,-3.05157 1.5686,-0.71424 3.13499,-1.46366 4.51534,-2.5026 2.1295,-1.23389 4.4654,-2.15443 6.34307,-3.78655 1.85601,-1.24929 3.92973,-2.15937 5.66687,-3.59213 0.58642,-0.53211 1.27172,-0.87113 2.00638,-1.12886 1.92663,-1.16103 3.11888,-3.18172 4.26006,-5.05719 1.46133,-2.59257 2.73725,-5.50082 2.5489,-8.53826 -0.33481,-2.31957 -1.37517,-4.46107 -2.15535,-6.65256 -1.19065,-2.54502 -3.26381,-4.59483 -5.51884,-6.22269 -1.39101,-0.83783 -2.83206,-1.60353 -4.07869,-2.65871 -1.92596,-1.38692 -4.18511,-2.24888 -6.00776,-3.78837 -2.05998,-1.49011 -4.64991,-1.99696 -6.66579,-3.56184 -1.87841,-1.25566 -4.09682,-1.8621 -5.9587,-3.14929 -1.29446,-0.86778 -2.63867,-1.76645 -4.18413,-2.07916 -2.08103,-0.98869 -3.99708,-2.30885 -6.15369,-3.14929 -1.767,-0.596 -3.40086,-1.49915 -4.99812,-2.44733 -2.53033,-1.39227 -5.52887,-1.66429 -7.95312,-3.27344 -2.81578,-1.55558 -6.03329,-2.14982 -8.88535,-3.63058 -2.26922,-1.12333 -4.73309,-1.7326 -7.142,-2.46512 -2.30161,-0.75199 -4.39525,-2.039 -6.76367,-2.60742 -3.01962,-0.63012 -5.96746,-1.55453 -8.87464,-2.579 -2.41073,-0.79362 -4.88134,-1.40561 -7.39684,-1.74717 -2.78639,-0.52749 -5.32814,-1.87169 -8.11133,-2.41211 -5.68616,-1.29734 -11.5283,-1.47506 -17.08426,-3.36056 -2.64021,-0.70967 -5.40201,-0.78414 -8.11142,-1.05011 -2.86031,-0.21972 -5.83839,-0.37643 -8.59964,-0.59979 -2.46021,-0.18516 -4.92041,-0.41265 -7.34921,-0.8411 -6.17015,-0.44607 -12.36326,-0.42451 -18.54647,-0.49547 -7.71459,-0.01 -15.43722,-0.0658 -23.14321,0.34054 -2.02621,0.12834 -3.9932,0.73277 -6.03193,0.76967 -3.08364,-0.009 -6.13256,0.46368 -9.18932,0.79848 -3.22802,0.25925 -6.4954,0.51904 -9.72189,0.12193 -0.74658,-0.29473 -1.25069,-1.04208 -1.86199,-1.55875 -3.01143,-3.01912 -5.90304,-6.16704 -8.5984,-9.47169 -1.40726,-1.67246 -2.26008,-3.73985 -2.55721,-5.89775 -0.45623,-3.03233 -0.93571,-6.079781 -1.98068,-8.976728 -2.01415,-5.731183 -4.91746,-11.095087 -7.8025,-16.423205 -3.76797,-6.456982 -7.77845,-12.775574 -12.01758,-18.933594 -1.70908,-2.285527 -3.41151,-4.580948 -4.87304,-7.037109 -1.69075,-2.752273 -3.92894,-5.101876 -5.87982,-7.663813 -1.98172,-2.447602 -3.7577,-5.12456 -6.31354,-7.0315 -4.06892,-3.202465 -9.28551,-4.751622 -14.439455,-4.546875 z m 1.738281,11.587891 c 1.609544,0.02768 3.249134,0.378465 4.539064,1.394531 3.26457,2.429939 5.70642,5.753847 8.14532,8.96618 4.04287,5.455333 7.62051,11.274715 11.51335,16.80278 2.25152,3.367661 4.29064,6.870363 6.5061,10.260795 0.3764,0.614792 0.7495,1.280126 1.14887,1.992979 2.64838,4.853374 5.23646,9.753514 7.44354,14.826234 0.57319,1.433489 0.78257,3.134874 0.23696,4.606114 -2.36087,-0.42635 -4.67992,-1.19687 -6.81055,-2.30274 -2.26827,-1.667337 -4.93253,-2.681164 -7.19063,-4.365742 -3.13337,-2.163591 -6.34099,-4.234935 -9.24433,-6.709906 -1.29032,-1.101465 -2.87948,-1.80537 -4.11191,-2.969272 -1.47015,-1.663585 -3.59635,-2.529151 -5.19826,-4.050278 -2.89566,-2.525576 -5.73719,-5.116965 -8.78828,-7.455946 -2.092973,-1.659858 -4.104983,-3.417049 -5.961733,-5.339541 -2.361709,-2.150911 -4.441861,-4.735836 -5.391913,-7.830965 -1.748374,-5.1614 -0.214297,-11.345461 4.016986,-14.857544 2.514375,-2.143623 5.868566,-3.141802 9.147416,-2.967679 z M 208.57617,128.83789 c 2.19826,0.0736 4.28165,0.93175 6.48678,0.97927 4.67725,0.30579 9.36985,0.10852 14.05209,0.29898 2.76539,0.0824 5.7427,0.20166 8.5891,0.36171 3.00583,0.21468 6.04195,0.28326 9.0068,0.85418 3.92863,1.19913 7.99088,1.90132 12.07663,2.27619 3.82227,0.47671 7.61175,1.25081 11.26798,2.47221 2.60633,0.78332 5.31503,1.08629 7.9792,1.59228 2.56322,0.42262 4.75786,1.93936 7.28306,2.48592 2.37518,0.63364 4.91579,0.62597 7.16071,1.72614 2.34242,1.2127 4.90137,1.986 7.45031,2.66623 2.96991,0.89424 5.67308,2.43368 8.66461,3.27528 1.80489,0.50845 3.66216,0.965 5.24445,2.01552 2.59362,1.32859 5.48683,2.03206 7.91016,3.69922 0.85344,0.55801 1.86006,0.79521 2.74285,1.27302 0.46425,0.36218 1.10482,0.76177 0.91664,1.44415 0.0376,11.32079 0.17406,22.64165 0.13552,33.96243 -0.0767,3.13686 0.0238,6.3286 -0.70648,9.4003 -0.18091,0.96974 -0.90873,1.7354 -1.86978,1.96111 -2.26012,0.6544 -4.6122,1.16012 -6.62679,2.44011 -2.10987,1.31158 -4.71244,1.87928 -7.00993,2.91927 -1.64599,0.67864 -3.06511,1.84725 -4.83789,2.22265 -4.21004,0.8689 -8.01665,3.02567 -12.22213,3.91062 -2.50064,0.54494 -4.86272,1.54424 -7.25764,2.41528 -3.08056,1.05472 -6.37061,1.22787 -9.46775,2.22148 -2.27929,0.67452 -4.4615,1.7209 -6.85268,1.97068 -2.79406,0.27884 -5.5784,0.65892 -8.32544,1.24798 -1.44426,0.31137 -3.05525,0.12314 -4.16242,-0.93588 -1.94687,-1.71343 -3.52608,-3.79448 -5.36189,-5.62225 -1.62694,-1.8272 -3.53192,-3.44371 -4.83638,-5.53213 -0.70914,-1.12979 0.33336,-2.29383 0.94758,-3.19507 1.60192,-2.06622 3.42194,-3.98002 4.69805,-6.28241 3.96274,-6.81911 5.46473,-14.849 5.28105,-22.67068 -0.2224,-7.54735 -2.05359,-15.24741 -6.34953,-21.5488 -2.37194,-3.31751 -5.24727,-6.31974 -8.60662,-8.64634 -1.7391,-1.18103 -3.80263,-1.72493 -5.66902,-2.66417 -1.49947,-0.63229 -3.01611,-1.43058 -4.57143,-2.03159 -15.03371,0.0361 -30.06941,-0.0795 -45.10147,0.17427 -0.76305,-0.0378 -1.57448,0.2131 -2.31025,0.0484 -2.67674,-2.457 -5.20325,-5.11099 -7.35547,-8.04492 -0.57108,-0.78565 -1.06775,-1.63204 -1.3457,-2.56836 0.91927,-0.81748 2.28033,-0.67894 3.42398,-0.85879 7.95737,-0.53035 16.00191,-0.39157 24.01419,-0.85933 1.50849,-0.12549 3.08785,-0.11257 4.4778,-0.77428 0.34016,-0.0732 0.69043,-0.0829 1.03715,-0.0799 z m -49.60547,5.14844 c 0.84584,0.0362 1.74184,0.0127 2.52539,0.37305 1.18674,1.67524 2.7103,3.09519 4.05855,4.64351 2.28138,2.57124 4.8108,4.98599 6.57713,7.9604 0.30573,0.54683 0.7003,1.37908 0.0174,1.82331 -4.13307,3.57285 -7.17918,8.29188 -9.22927,13.32668 -1.02943,2.51116 -1.54788,5.2035 -1.59079,7.9141 -0.22391,6.31977 -0.0981,12.65621 0.37977,18.9617 0.12823,1.85525 0.43563,3.7125 1.25327,5.40051 1.94093,4.42876 4.69919,8.52337 8.13939,11.92682 1.60674,1.59493 3.64555,2.62915 5.38477,4.06054 2.69177,1.78255 6.02636,1.91597 8.97656,3.0625 2.64886,0.64384 5.407,0.59946 8.11429,0.76777 9.57148,0.31653 19.1581,0.32271 28.72714,-0.0779 2.79548,-0.13795 5.62428,-0.25538 8.32263,-1.06875 1.06602,-0.28685 2.30356,-0.37666 3.17969,0.42773 2.56027,2.10962 4.62087,4.74218 6.89849,7.13984 0.72309,0.83139 1.53361,1.58872 2.21089,2.45782 -1.73911,0.85041 -3.61733,0.88763 -5.46119,1.24362 -2.24947,0.41064 -4.50098,0.87794 -6.80053,0.85599 -1.98904,0.0105 -4.06924,0.37314 -6.05469,0.78125 -5.29877,0.48034 -10.62944,0.44539 -15.9457,0.47638 -4.77809,-0.0275 -9.56308,-0.0459 -14.32969,-0.40998 -0.47815,-0.0385 -1.28832,-0.15498 -1.88281,-0.30664 -2.67182,-0.59822 -5.42577,-0.4236 -8.12013,-0.84417 -3.99678,-0.71951 -8.04432,-1.06507 -12.09273,-1.33208 -3.94274,-0.37691 -7.93352,-0.66461 -11.76371,-1.73 -0.83202,-0.30107 -1.5617,-0.84846 -2.471,-0.9381 -3.05775,-0.56505 -6.17295,-0.78672 -9.20754,-1.49272 -2.06173,-0.42055 -4.12085,-0.91394 -6.05348,-1.75713 -3.91801,-1.22076 -8.09211,-1.55106 -11.87164,-3.2289 -3.47987,-1.37257 -7.29044,-1.70739 -10.67954,-3.33315 -1.4131,-0.67475 -3.07137,-1.34626 -4.66602,-1.77148 -2.64889,-0.67342 -4.99777,-2.14114 -7.60392,-2.94286 -2.25716,-0.71349 -4.41085,-1.70035 -6.50916,-2.78646 -1.71956,-0.88878 -3.636929,-1.29634 -5.359504,-2.16699 -1.142061,-0.59959 -2.084696,-1.74375 -2.04945,-3.08597 -0.254534,-2.40255 -0.33489,-4.86809 -0.429615,-7.19747 -0.275237,-8.16254 -0.315774,-16.48744 -0.185139,-24.72186 0.111612,-3.62236 0.07533,-7.26728 0.560621,-10.86402 0.970405,-1.00916 2.462102,-1.83883 3.502416,-2.43551 1.884024,-1.08364 3.945831,-1.77268 5.990401,-2.47511 1.28587,-0.42929 2.42514,-1.1659 3.61461,-1.7886 2.1362,-0.89219 4.45192,-1.27184 6.54852,-2.27655 1.59537,-0.76864 3.173,-1.59628 4.90069,-2.03985 2.76178,-0.61917 5.48863,-1.42583 8.06722,-2.60582 2.8367,-1.19166 5.92317,-1.52616 8.82209,-2.52158 2.47939,-0.83618 4.95872,-1.69788 7.53933,-2.17697 2.83311,-0.52895 5.74212,-0.86632 8.41062,-2.02086 2.45538,-0.80758 5.05404,-1.18215 7.63535,-1.20602 z m 48.17774,19.61523 c 5.97232,-0.005 12.00323,0.0845 17.90588,0.33058 1.16759,0.0573 2.3476,0.10688 3.41542,0.18361 0.92686,0.0652 1.59492,0.10533 2.50373,0.21391 2.44637,0.34374 4.60439,1.75431 6.49871,3.26921 3.24853,2.7196 5.87735,6.30782 6.96645,10.44328 0.21232,0.7166 0.3932,1.4769 0.51392,2.08775 1.21582,6.15115 0.85795,12.59463 -0.84811,18.61825 -0.96093,3.11045 -2.25401,6.33974 -4.80278,8.49259 -0.79308,0.62573 -1.84433,1.1483 -2.84884,1.0746 -2.41361,-1.99083 -4.43188,-4.40904 -6.5898,-6.66485 -5.38751,-5.84956 -10.74854,-11.7262 -16.1731,-17.52589 -2.83569,-3.13918 -5.79667,-6.15962 -8.74527,-9.19133 -2.4965,-2.69468 -4.82339,-5.54257 -7.36984,-8.19187 -0.59271,-0.76357 -1.38325,-1.62625 -1.32676,-2.64765 0.48601,-0.33038 1.1919,-0.18588 1.76636,-0.28168 3.04104,-0.17695 6.08874,-0.19016 9.13403,-0.21051 z m -25.91602,3.16602 c 1.75535,1.08679 2.98805,2.81281 4.42194,4.26663 3.84634,4.16856 7.91227,8.13826 11.51361,12.52829 0.77189,0.92316 1.64135,1.75713 2.54975,2.52954 3.61513,3.82186 7.00072,7.85344 10.59885,11.69195 3.94397,4.32378 8.01006,8.53291 12.03245,12.78199 0.3447,0.40342 0.708,0.79895 0.9752,1.26019 -5.68389,0.43575 -11.3928,0.39864 -17.09023,0.44709 -5.0159,0.0103 -10.03238,-0.0297 -15.04649,-0.16974 -1.99774,-0.0846 -4.18698,-0.10398 -6.24219,-0.37891 -6.38684,-3.27517 -10.81358,-9.59716 -12.68136,-16.42933 -1.98484,-7.16534 -1.51442,-15.2338 2.28646,-21.73399 1.6293,-2.75335 3.8993,-5.15116 6.6449,-6.80738 z m -98.935545,4.375 c 0.521082,1.23826 0.327114,2.6516 0.432439,3.96811 0.106964,7.55958 0.07892,15.12131 0.04361,22.68143 -0.07553,2.17539 0.0075,4.39021 -0.505348,6.52038 -2.241435,-0.87888 -4.32985,-2.10932 -6.468664,-3.20875 -1.710191,-0.85118 -3.183157,-2.10069 -4.959398,-2.83004 -1.424655,-0.6192 -2.806424,-1.35852 -3.980178,-2.38554 -2.256633,-1.61671 -4.93306,-2.66348 -6.842972,-4.74394 -1.389644,-1.40785 -2.679217,-3.51715 -1.867199,-5.5348 0.819372,-2.01337 2.964353,-2.82368 4.669192,-3.90826 1.158778,-0.89896 2.359097,-1.7443 3.673713,-2.40882 1.415963,-0.74942 2.817701,-1.54121 4.107271,-2.48402 2.144216,-1.17333 4.361878,-2.22844 6.375266,-3.62474 1.689016,-0.85481 3.456331,-1.54897 5.25,-2.15039 l 0.05513,0.0834 z m 255.650395,0.59375 c 1.64445,0.39107 3.333,0.93563 4.59001,2.07449 1.84451,1.3446 4.07497,2.00699 5.94905,3.29465 1.36429,1.45586 3.40684,1.90328 4.94032,3.13489 1.32548,0.9682 2.65274,2.02339 4.20887,2.56767 1.237,1.12578 2.40277,2.39006 3.21604,3.85994 0.31139,1.55601 -0.84013,2.93521 -1.79812,4.02879 -1.70802,1.90302 -3.99638,3.09125 -6.16004,4.38149 -1.71966,1.0765 -3.19891,2.535 -5.1056,3.30381 -2.20656,0.94081 -4.04796,2.52662 -6.23434,3.50849 -1.11927,0.55964 -2.25592,1.08737 -3.41479,1.56062 -0.32173,0.18173 -1.03651,0.47767 -0.93511,-0.33881 -0.47849,-3.68501 -0.28431,-7.41662 -0.33417,-11.12329 0.0312,-6.60188 0.0829,-13.20365 0.12475,-19.80548 0.3099,-0.20282 0.52662,-0.67053 0.95313,-0.44726 z m -58.51172,91.03711 c 1.48054,0.1834 2.64592,1.22869 4.03449,1.69776 1.65899,0.5509 3.178,1.43245 4.541,2.51771 1.4993,1.07285 3.26665,1.68553 4.67666,2.89689 1.48538,1.20462 3.22532,2.0198 4.82011,3.0517 1.71628,1.78596 4.18869,2.66482 5.80664,4.56445 1.25542,1.10344 2.87767,1.65854 4.14694,2.75118 3.45191,2.78537 6.93327,5.54438 10.17272,8.57805 4.38864,3.89876 9.45201,7.16612 12.95606,11.96195 1.68734,2.25651 2.45777,5.13128 2.14623,7.92971 -0.0467,1.2857 -0.52139,2.78889 -1.89363,3.19728 -2.69086,0.94114 -5.68743,0.43724 -8.33874,1.5453 -3.33824,0.4786 -6.58511,-0.79315 -9.89465,-0.99862 -1.92136,-0.11777 -4.0235,0.0332 -5.65524,-1.1898 -2.43578,-1.78293 -4.10181,-4.37386 -5.86063,-6.77874 -4.67886,-6.81995 -9.26555,-13.7074 -13.59742,-20.75412 -3.10493,-5.06074 -6.11144,-10.42122 -8.04767,-16.11685 -0.4635,-1.55678 -1.01026,-3.19702 -0.83709,-4.82651 0.27033,-0.0562 0.55043,-0.0515 0.82422,-0.0273 z M 243.63867,330.375 c -4.71371,0.15854 -9.48142,0.32461 -14.08008,1.46094 -2.15812,0.70106 -4.25322,1.59983 -6.45422,2.17702 -2.49231,0.68881 -5.03181,1.45426 -7.14561,2.99554 -2.03757,1.19869 -4.33659,1.97717 -6.13792,3.55818 -2.51748,2.05253 -5.09423,4.03682 -7.83383,5.785 -1.3072,1.01413 -2.71173,1.92924 -4.32002,2.38385 -2.77432,0.99366 -5.32318,2.62662 -8.27156,3.10165 -2.73493,0.5262 -5.53185,0.76206 -8.2142,1.52644 -2.84946,0.52835 -5.70734,1.07364 -8.59213,1.35488 -2.09704,0.0253 -4.0828,-0.77252 -6.15636,-0.97832 -1.98364,-0.26166 -3.96677,-0.52726 -5.94055,-0.85737 -0.38576,-0.0675 -1.18131,-0.21501 -1.72393,-0.31314 -1.57727,-0.28691 -3.15139,-0.63484 -4.62373,-1.01303 -1.72327,-0.41372 -3.3949,-1.02177 -4.93467,-1.90488 -1.61596,-0.83898 -3.40807,-1.28406 -4.93447,-2.30215 -2.43416,-1.407 -4.66143,-3.12584 -6.83694,-4.89575 -2.56303,-1.9709 -5.40327,-3.52426 -8.21129,-5.10707 -1.1395,-0.66503 -2.09938,-1.62742 -3.38858,-2.02318 -2.86104,-1.11564 -5.90591,-1.66843 -8.77096,-2.78017 -3.29578,-1.23869 -6.85605,-1.45948 -10.32962,-1.79394 -6.823154,-0.48374 -13.699577,-0.61079 -20.512257,0.0898 -2.886628,0.30695 -5.657498,1.22365 -8.359267,2.24375 -3.072641,1.1127 -6.436058,1.51394 -9.225262,3.32568 -1.108558,0.79032 -2.343808,1.37425 -3.646547,1.75319 -2.354042,1.09618 -4.298732,3.01701 -5.629433,5.23062 -0.668007,1.11696 -0.86089,2.55072 -0.188851,3.71273 0.826467,2.02707 2.529591,4.04481 4.878586,4.12006 1.857177,0.12147 3.424542,-1.04093 4.779015,-2.16092 1.864786,-1.27258 4.101622,-1.81575 6.021608,-2.99491 1.378595,-0.92091 2.965755,-1.44496 4.59558,-1.69063 3.555962,-0.82667 6.979051,-2.19902 10.617709,-2.66639 6.689728,-0.99019 13.611339,-0.78925 20.161529,0.95585 2.80973,0.85703 5.64842,1.65862 8.56451,2.05624 1.97175,0.38324 3.52557,1.74729 5.34961,2.50254 1.62375,0.76841 3.38267,1.3714 4.69349,2.65084 1.79557,1.44256 3.8505,2.56778 5.4705,4.21765 0.73891,0.56636 1.67658,0.77085 2.38289,1.40436 1.72677,1.2795 3.46135,2.61418 5.50786,3.33918 2.05257,1.00302 4.02713,2.20194 6.24881,2.81313 3.00296,0.8856 6.13157,1.29877 9.09045,2.34561 4.80772,1.28805 9.82135,1.5749 14.77787,1.63961 5.23535,-0.005 10.56204,-0.26948 15.57624,-1.9057 3.68901,-1.11427 7.62775,-1.47318 11.0909,-3.26264 1.71472,-0.99814 3.563,-1.71855 5.39732,-2.45552 1.83944,-0.81681 3.36527,-2.1382 4.95508,-3.33789 1.61144,-0.84616 2.90453,-2.18313 4.3274,-3.30169 1.44,-1.26431 2.914,-2.53642 4.71223,-3.26487 1.99458,-0.78345 3.91363,-1.74272 5.76896,-2.81039 1.80123,-0.84203 3.84337,-0.786 5.71621,-1.4013 2.61931,-0.6951 5.16588,-1.67977 7.86363,-2.05669 1.10495,-0.19065 2.1159,-0.32172 3.16235,-0.43264 0.7361,-0.0793 1.76816,-0.15959 2.62282,-0.20353 6.01317,-0.29152 12.14563,0.22487 17.84628,2.25838 1.80641,0.58834 3.66984,0.96245 5.52505,1.34569 1.65813,0.45987 3.01284,1.58816 4.6049,2.21505 1.75849,0.79837 3.64215,1.43648 5.09341,2.7606 1.35402,0.82734 2.65204,1.74332 3.82127,2.8233 1.01978,0.8762 2.07059,1.7724 3.33084,2.26245 1.74062,1.22867 3.414,2.61098 5.43082,3.37791 1.97328,0.58723 3.74817,1.63934 5.57031,2.5664 3.17369,1.42425 6.68679,1.71639 9.98719,2.73873 2.48082,0.76415 4.99548,1.45391 7.58834,1.70494 6.13512,0.66541 12.36819,0.57494 18.46987,-0.36581 2.11703,-0.30289 4.15768,-0.94362 6.17665,-1.62512 2.38284,-0.72892 4.91649,-0.77426 7.27007,-1.6235 1.82091,-0.54828 3.55833,-1.35411 5.14722,-2.39426 1.33707,-0.67866 2.85181,-0.9497 4.1165,-1.79079 2.2626,-1.38303 4.48003,-3.10937 5.73049,-5.50161 0.94764,-2.15442 0.0297,-4.88416 -1.83594,-6.24609 -2.4546,-1.81473 -6.00544,-1.13163 -8.14877,0.84985 -1.15432,1.32635 -2.83163,1.9316 -4.40722,2.59016 -2.33192,1.05952 -4.69313,2.08235 -7.20318,2.64459 -3.95097,1.01659 -7.99975,1.55711 -12.03831,2.08222 -1.10463,0.14023 -2.17411,0.45707 -3.22133,0.80313 -1.63261,0.22888 -3.31219,0.0933 -4.86986,-0.44847 -3.61564,-0.75815 -7.32293,-0.94453 -10.94639,-1.66874 -2.55844,-0.45145 -5.13042,-0.99052 -7.48143,-2.13678 -2.74806,-1.10742 -5.47136,-2.32016 -7.90721,-4.02829 -2.87771,-1.78377 -5.59948,-3.80437 -8.14934,-6.03142 -1.68281,-1.3893 -3.68476,-2.29287 -5.68894,-3.10921 -1.52138,-0.67209 -2.81534,-1.77838 -4.43264,-2.24848 -2.87935,-1.0246 -5.93263,-1.52177 -8.73009,-2.78897 -3.19078,-1.17233 -6.6329,-1.37007 -9.99271,-1.64098 -3.50336,-0.22456 -7.01717,-0.26609 -10.52672,-0.20455 z" />
  </g>
</svg>
