<?xml version="1.0" encoding="UTF-8" standalone="no"?>
<svg
   id="svg"
   version="1.1"
   width="400"
   height="400"
   viewBox="0, 0, 400,400"
   sodipodi:docname="paddling.svg"
   inkscape:version="1.4 (86a8ad7, 2024-10-11)"
   xmlns:inkscape="http://www.inkscape.org/namespaces/inkscape"
   xmlns:sodipodi="http://sodipodi.sourceforge.net/DTD/sodipodi-0.dtd"
   xmlns="http://www.w3.org/2000/svg"
   xmlns:svg="http://www.w3.org/2000/svg">
  <defs
     id="defs1" />
  <sodipodi:namedview
     id="namedview1"
     pagecolor="#ffffff"
     bordercolor="#000000"
     borderopacity="0.25"
     inkscape:showpageshadow="2"
     inkscape:pageopacity="0.0"
     inkscape:pagecheckerboard="0"
     inkscape:deskcolor="#d1d1d1"
     inkscape:zoom="1.615"
     inkscape:cx="199.6904"
     inkscape:cy="200"
     inkscape:window-width="1440"
     inkscape:window-height="890"
     inkscape:window-x="-6"
     inkscape:window-y="-6"
     inkscape:window-maximized="1"
     inkscape:current-layer="svgg" />
  <g
     id="svgg">
    <path
       id="path1"
       d="M31.800 14.761 C 26.966 16.460,23.899 19.057,21.896 23.151 L 20.600 25.800 20.499 197.708 L 20.397 369.617 21.801 372.575 C 23.134 375.385,26.723 379.600,27.782 379.600 C 28.015 379.600,29.105 380.095,30.203 380.700 L 32.200 381.800 202.000 381.800 L 371.800 381.800 374.535 380.446 C 378.012 378.724,380.724 376.012,382.446 372.535 L 383.800 369.800 383.800 198.000 L 383.800 26.200 382.700 24.203 C 382.095 23.105,381.600 22.015,381.600 21.782 C 381.600 20.724,377.385 17.135,374.578 15.802 L 371.623 14.400 202.111 14.440 C 108.880 14.462,32.240 14.606,31.800 14.761 M215.031 21.057 C 218.471 22.434,224.800 29.668,224.800 32.222 C 224.800 32.506,225.249 33.273,225.799 33.925 C 226.348 34.578,227.359 36.257,228.045 37.656 C 228.731 39.055,229.603 40.560,229.983 41.000 C 230.363 41.440,231.089 42.849,231.596 44.131 C 232.103 45.414,232.951 47.101,233.481 47.881 C 234.010 48.661,234.720 50.114,235.058 51.111 C 235.397 52.108,236.275 53.840,237.011 54.961 C 237.747 56.083,238.476 57.705,238.632 58.567 C 238.787 59.429,239.524 61.157,240.268 62.407 C 241.013 63.658,241.964 65.876,242.382 67.338 C 242.800 68.799,243.511 70.513,243.961 71.145 C 244.945 72.527,245.489 73.873,246.246 76.800 C 246.559 78.010,247.241 79.810,247.763 80.800 C 248.284 81.790,249.176 84.220,249.745 86.200 C 250.315 88.180,251.235 90.686,251.790 91.768 C 252.346 92.850,252.802 94.200,252.805 94.768 C 252.812 96.280,253.764 99.612,255.132 102.907 C 255.793 104.498,256.550 107.330,256.815 109.200 C 257.081 111.070,257.899 114.153,258.633 116.051 C 259.624 118.611,260.119 120.796,260.552 124.517 C 261.319 131.107,262.582 132.913,265.903 132.167 C 267.320 131.850,275.194 123.779,275.214 122.625 C 275.299 117.700,275.990 114.020,277.321 111.388 C 278.097 109.855,278.924 107.880,279.159 107.000 C 279.394 106.120,280.212 104.523,280.978 103.450 C 281.744 102.378,282.583 100.848,282.843 100.050 C 283.102 99.253,283.851 97.983,284.507 97.229 C 285.163 96.475,285.968 95.215,286.295 94.429 C 286.622 93.643,287.634 91.988,288.545 90.750 C 289.455 89.513,290.517 87.983,290.905 87.350 C 292.093 85.411,293.316 83.682,295.300 81.136 C 296.345 79.795,297.200 78.573,297.200 78.421 C 297.200 78.269,297.758 77.527,298.440 76.772 C 299.122 76.017,300.295 74.500,301.046 73.400 C 303.434 69.905,304.393 68.645,306.072 66.800 C 309.197 63.365,311.011 61.282,313.200 58.617 C 320.987 49.134,336.801 48.458,346.681 57.186 C 348.776 59.036,352.288 63.913,352.597 65.400 C 354.294 73.566,354.165 80.795,352.261 84.233 C 350.534 87.351,348.546 89.643,344.652 93.003 C 342.204 95.117,339.750 97.237,339.200 97.715 C 336.707 99.881,332.971 102.796,332.685 102.798 C 332.512 102.799,331.059 103.894,329.457 105.231 C 327.855 106.568,325.908 108.053,325.130 108.531 C 323.781 109.360,320.090 111.876,316.063 114.712 C 313.541 116.487,311.251 117.964,308.791 119.400 C 307.660 120.060,306.075 121.030,305.268 121.556 C 303.109 122.962,295.489 126.800,294.856 126.800 C 294.556 126.800,292.629 127.430,290.573 128.200 C 288.517 128.970,286.132 129.600,285.272 129.600 C 280.307 129.600,280.031 129.770,272.396 137.504 C 264.049 145.960,263.930 146.181,264.942 151.282 C 265.304 153.107,265.600 155.256,265.600 156.058 C 265.600 156.860,265.999 158.750,266.487 160.258 C 267.370 162.987,267.375 163.142,267.387 192.400 C 267.401 223.959,267.529 221.388,265.362 233.000 C 265.034 234.760,264.426 239.620,264.012 243.800 C 263.483 249.130,263.024 251.938,262.473 253.200 C 262.041 254.190,261.383 256.890,261.012 259.200 C 259.809 266.685,259.208 269.481,258.418 271.266 C 257.992 272.230,257.278 275.084,256.831 277.609 C 256.360 280.269,255.435 283.630,254.631 285.600 C 253.869 287.470,253.070 290.080,252.856 291.400 C 252.642 292.720,252.015 294.610,251.462 295.600 C 250.908 296.590,250.005 299.185,249.453 301.367 C 248.902 303.549,248.080 305.837,247.626 306.451 C 247.172 307.065,246.800 307.732,246.800 307.933 C 246.800 308.843,244.714 314.557,243.890 315.903 C 243.387 316.726,242.746 318.291,242.467 319.381 C 242.188 320.470,241.316 322.421,240.529 323.716 C 239.743 325.011,238.942 326.772,238.749 327.628 C 238.557 328.485,237.787 330.142,237.039 331.312 C 236.291 332.481,235.391 334.408,235.039 335.594 C 234.687 336.780,234.038 338.133,233.598 338.602 C 233.158 339.070,232.353 340.588,231.810 341.975 C 231.267 343.361,230.385 345.069,229.851 345.769 C 229.316 346.470,228.666 347.754,228.406 348.623 C 228.145 349.492,227.410 350.923,226.771 351.802 C 226.132 352.681,225.234 354.210,224.776 355.200 C 224.318 356.190,223.236 357.917,222.371 359.037 C 221.507 360.157,220.800 361.259,220.800 361.486 C 220.800 363.887,215.130 366.563,210.000 366.583 C 204.123 366.607,199.539 363.551,197.126 358.000 C 196.695 357.011,195.931 355.661,195.428 355.000 C 194.924 354.340,193.962 352.709,193.289 351.376 C 192.616 350.043,191.799 348.731,191.473 348.460 C 191.147 348.190,190.469 346.941,189.966 345.684 C 189.464 344.428,188.635 342.843,188.126 342.162 C 187.616 341.481,186.835 339.864,186.389 338.568 C 185.943 337.272,185.125 335.557,184.570 334.757 C 184.016 333.957,183.196 332.334,182.749 331.151 C 182.301 329.968,181.427 328.100,180.805 327.000 C 180.183 325.900,179.390 324.029,179.042 322.843 C 178.694 321.657,177.942 319.889,177.371 318.915 C 176.801 317.941,175.986 315.889,175.560 314.354 C 175.135 312.819,174.359 310.885,173.835 310.056 C 173.312 309.226,172.484 307.120,171.995 305.374 C 171.506 303.628,170.650 301.300,170.091 300.200 C 169.533 299.100,168.741 296.703,168.331 294.873 C 167.921 293.043,167.125 290.636,166.562 289.525 C 165.999 288.413,165.263 286.047,164.927 284.266 C 164.591 282.485,163.785 279.588,163.136 277.828 C 162.487 276.067,161.620 272.433,161.208 269.751 C 160.796 267.069,160.193 264.361,159.868 263.732 C 159.543 263.104,158.984 261.512,158.625 260.195 C 157.184 254.906,157.175 254.887,155.940 254.706 C 154.534 254.499,154.248 254.697,150.134 258.726 C 146.009 262.766,145.975 262.837,145.633 268.019 C 145.388 271.737,145.202 272.558,144.296 273.927 C 143.717 274.802,142.952 276.661,142.596 278.059 C 142.240 279.456,141.359 281.500,140.637 282.600 C 139.916 283.700,138.933 285.410,138.453 286.400 C 137.334 288.710,135.146 292.263,133.896 293.800 C 133.359 294.460,132.421 295.900,131.813 297.000 C 131.204 298.100,130.223 299.550,129.634 300.222 C 129.044 300.893,128.127 302.153,127.594 303.022 C 127.062 303.890,126.215 305.048,125.713 305.596 C 125.211 306.144,124.800 306.790,124.800 307.032 C 124.800 307.275,124.028 308.290,123.085 309.289 C 122.141 310.287,120.880 311.801,120.282 312.652 C 118.501 315.188,116.846 317.339,115.894 318.354 C 115.402 318.879,114.370 320.153,113.600 321.186 C 112.830 322.219,111.531 323.963,110.713 325.061 C 103.545 334.689,90.486 338.885,81.773 334.358 C 80.248 333.566,78.539 332.806,77.977 332.670 C 75.308 332.026,69.101 324.387,68.370 320.847 C 68.114 319.611,67.564 317.317,67.146 315.748 L 66.385 312.897 67.617 307.348 C 68.385 303.890,69.199 301.273,69.777 300.400 C 71.482 297.825,76.913 292.394,78.968 291.208 C 80.086 290.563,81.450 289.619,82.000 289.111 C 83.779 287.465,88.946 283.383,91.000 281.999 C 92.100 281.259,93.090 280.528,93.200 280.376 C 93.310 280.223,95.740 278.464,98.600 276.467 C 101.460 274.470,104.250 272.513,104.800 272.120 C 105.350 271.726,107.510 270.348,109.600 269.058 C 111.690 267.768,113.870 266.385,114.444 265.985 C 115.018 265.586,116.687 264.715,118.153 264.051 C 119.618 263.386,121.336 262.473,121.970 262.021 C 122.604 261.570,123.377 261.200,123.686 261.200 C 123.995 261.200,125.587 260.538,127.224 259.729 C 129.834 258.439,130.708 258.221,134.331 257.959 C 139.776 257.565,141.016 256.801,148.549 249.198 C 155.101 242.585,155.403 242.086,154.804 238.848 C 154.575 237.612,154.193 233.450,153.955 229.600 C 153.038 214.786,152.856 212.534,152.404 210.428 C 151.806 207.645,152.076 176.973,152.718 174.600 C 152.956 173.720,153.244 171.020,153.358 168.600 C 154.141 151.930,154.592 147.116,155.658 144.067 C 156.614 141.335,157.065 138.796,157.607 133.093 C 157.832 130.725,158.357 127.845,158.774 126.693 C 160.081 123.086,160.743 120.322,161.194 116.600 C 161.689 112.507,161.779 112.147,162.997 109.400 C 164.282 106.501,164.380 106.164,164.809 103.134 C 165.024 101.621,165.739 99.194,166.398 97.740 C 167.057 96.287,167.892 93.635,168.253 91.849 C 168.614 90.062,169.413 87.700,170.027 86.600 C 170.642 85.500,171.519 83.083,171.977 81.229 C 172.434 79.374,173.332 77.034,173.973 76.029 C 174.614 75.023,175.267 73.480,175.423 72.600 C 175.798 70.494,176.760 68.034,177.676 66.837 C 178.082 66.307,178.698 64.867,179.046 63.637 C 179.393 62.407,180.125 60.706,180.672 59.857 C 181.220 59.008,182.101 57.165,182.630 55.760 C 183.158 54.355,184.111 52.488,184.746 51.611 C 185.381 50.734,186.115 49.166,186.377 48.126 C 186.639 47.086,187.447 45.417,188.173 44.417 C 188.899 43.418,189.720 41.880,189.997 41.000 C 190.275 40.120,191.199 38.344,192.051 37.054 C 192.903 35.764,193.600 34.495,193.600 34.233 C 193.600 33.971,194.410 32.606,195.400 31.200 C 196.390 29.794,197.200 28.424,197.200 28.155 C 197.200 27.373,200.886 22.936,202.173 22.168 C 206.033 19.866,210.987 19.438,215.031 21.057 M206.648 29.651 C 204.822 30.861,202.800 33.284,202.800 34.262 C 202.800 34.524,202.355 35.267,201.812 35.913 C 201.268 36.559,200.345 38.058,199.760 39.244 C 199.176 40.430,198.292 41.850,197.798 42.400 C 197.303 42.950,196.535 44.430,196.091 45.689 C 195.648 46.948,194.754 48.658,194.105 49.489 C 191.833 52.397,191.679 56.793,193.819 57.607 C 195.238 58.147,224.144 58.122,226.097 57.580 C 228.281 56.973,228.796 54.538,227.176 52.479 C 226.767 51.959,226.052 50.514,225.586 49.267 C 225.120 48.020,224.479 46.711,224.160 46.358 C 223.842 46.006,222.866 44.341,221.991 42.658 C 221.116 40.976,219.705 38.266,218.856 36.636 C 214.948 29.132,210.916 26.825,206.648 29.651 M325.705 59.592 C 321.280 61.150,317.536 64.417,313.648 70.115 C 312.929 71.168,311.994 72.247,311.570 72.511 C 311.147 72.776,310.800 73.191,310.800 73.434 C 310.800 73.677,309.900 74.904,308.800 76.161 C 307.700 77.418,306.800 78.687,306.800 78.980 C 306.800 79.273,305.990 80.414,305.000 81.516 C 304.010 82.617,303.200 83.646,303.200 83.804 C 303.200 83.961,302.367 85.195,301.350 86.545 C 300.332 87.895,299.313 89.405,299.085 89.900 C 298.858 90.395,298.519 90.800,298.333 90.800 C 298.147 90.800,297.161 92.105,296.142 93.700 C 295.124 95.295,294.145 96.694,293.968 96.809 C 293.791 96.924,293.010 98.306,292.232 99.880 C 291.454 101.454,290.624 102.861,290.388 103.007 C 290.152 103.153,289.429 104.366,288.782 105.702 C 288.135 107.038,287.356 108.417,287.051 108.766 C 286.216 109.721,285.200 111.867,285.198 112.680 C 285.197 113.076,284.761 114.259,284.228 115.309 C 279.963 123.715,288.941 122.844,303.800 113.410 C 310.292 109.288,315.714 105.622,318.706 103.331 C 320.525 101.939,322.165 100.800,322.350 100.800 C 322.536 100.800,323.478 100.121,324.444 99.291 C 326.309 97.688,328.542 95.984,330.734 94.488 C 331.470 93.986,333.991 91.915,336.336 89.885 C 338.681 87.855,341.078 85.823,341.662 85.370 C 354.447 75.440,341.249 54.120,325.705 59.592 M188.400 66.435 C 186.476 66.806,184.806 68.352,184.802 69.765 C 184.801 70.186,184.353 71.292,183.808 72.223 C 183.262 73.155,182.284 75.556,181.635 77.559 C 180.985 79.562,180.105 81.695,179.677 82.300 C 179.250 82.905,178.602 84.722,178.237 86.338 C 177.872 87.954,177.027 90.358,176.359 91.681 C 175.691 93.004,174.954 95.192,174.720 96.543 C 174.486 97.894,173.602 100.730,172.754 102.844 C 171.906 104.958,171.034 107.949,170.816 109.490 C 170.597 111.030,170.084 113.080,169.674 114.045 C 168.707 116.328,168.191 118.473,167.384 123.565 C 167.021 125.856,166.315 129.006,165.815 130.565 C 164.543 134.530,164.483 134.851,164.025 140.004 C 163.540 145.459,162.629 150.814,161.575 154.400 C 160.071 159.520,159.460 210.613,160.718 226.071 C 161.329 233.580,164.135 233.694,171.456 226.510 C 176.357 221.701,176.972 220.664,176.597 217.852 C 176.446 216.723,176.244 205.773,176.149 193.517 L 175.974 171.233 177.345 167.517 C 178.098 165.473,178.918 163.156,179.166 162.369 C 180.527 158.048,186.083 151.825,191.400 148.664 C 195.262 146.369,196.209 146.073,202.600 145.169 C 216.664 143.180,226.840 145.529,234.670 152.575 C 236.396 154.129,238.562 155.738,239.483 156.151 L 241.156 156.902 242.798 155.694 C 245.010 154.067,254.569 144.008,255.364 142.469 C 256.191 140.871,256.166 139.807,255.239 137.113 C 254.820 135.896,254.354 133.483,254.203 131.750 C 253.880 128.041,253.071 124.199,252.017 121.367 C 251.601 120.248,251.064 117.914,250.822 116.179 C 250.274 112.239,249.804 110.478,248.539 107.640 C 247.990 106.408,247.290 103.989,246.983 102.265 C 246.676 100.541,245.901 98.021,245.261 96.665 C 244.621 95.309,243.879 93.120,243.612 91.800 C 243.345 90.480,242.526 88.050,241.793 86.400 C 241.060 84.750,240.166 82.254,239.807 80.853 C 239.448 79.452,238.644 77.382,238.020 76.253 C 237.397 75.124,236.670 73.258,236.405 72.107 C 235.693 69.012,234.090 67.018,231.862 66.457 C 229.688 65.910,191.225 65.890,188.400 66.435 M200.303 153.384 C 196.035 154.871,194.975 155.513,191.400 158.784 C 184.305 165.274,183.496 168.767,183.675 192.136 L 183.800 208.471 184.791 209.273 C 186.902 210.982,192.214 206.852,203.347 194.849 C 204.036 194.106,207.281 190.866,210.557 187.649 C 213.833 184.432,220.201 178.152,224.707 173.694 L 232.901 165.589 232.703 163.527 C 232.501 161.427,230.325 158.848,226.142 155.750 C 221.168 152.067,207.640 150.828,200.303 153.384 M249.870 159.768 C 243.279 166.622,242.853 167.439,243.801 171.410 C 244.699 175.170,244.662 216.384,243.759 218.850 C 243.406 219.812,242.881 221.903,242.593 223.496 C 241.567 229.160,233.946 237.571,226.574 241.177 C 222.783 243.031,208.410 244.311,203.400 243.241 C 202.300 243.007,200.123 242.620,198.562 242.382 C 194.378 241.743,189.676 238.906,184.867 234.118 C 179.864 229.137,179.945 229.112,170.293 238.698 C 163.299 245.644,162.813 247.536,165.798 256.200 C 166.328 257.740,166.961 260.620,167.203 262.600 C 167.451 264.633,168.315 268.202,169.187 270.800 C 170.036 273.330,170.835 276.540,170.963 277.933 C 171.090 279.326,171.661 281.576,172.232 282.933 C 173.687 286.393,174.800 289.901,174.800 291.025 C 174.800 291.550,175.496 293.379,176.346 295.090 C 177.197 296.800,178.111 299.370,178.378 300.800 C 178.645 302.230,179.274 304.120,179.776 305.000 C 180.279 305.880,181.096 307.860,181.592 309.400 C 182.088 310.940,182.993 313.010,183.604 314.000 C 184.215 314.990,184.826 316.173,184.962 316.630 C 185.098 317.086,185.759 317.986,186.431 318.630 L 187.652 319.800 209.023 319.913 L 230.393 320.027 232.556 319.004 C 235.269 317.720,235.438 317.507,236.228 314.371 C 236.584 312.957,237.387 310.990,238.012 310.000 C 238.638 309.010,239.441 306.914,239.797 305.343 C 240.153 303.772,240.973 301.653,241.619 300.635 C 242.269 299.610,243.050 297.551,243.368 296.022 C 243.685 294.504,244.497 292.002,245.173 290.462 C 245.849 288.922,246.660 286.343,246.977 284.731 C 247.293 283.119,248.104 280.307,248.778 278.482 C 249.453 276.658,250.269 273.404,250.592 271.253 C 250.919 269.074,251.626 266.367,252.187 265.141 C 253.292 262.728,253.996 259.597,254.008 257.045 C 254.016 255.159,255.645 247.379,256.530 245.000 C 256.894 244.021,257.311 240.373,257.605 235.600 C 257.869 231.310,258.336 226.664,258.643 225.275 C 258.949 223.887,259.202 221.817,259.205 220.675 C 259.207 219.534,259.475 217.610,259.800 216.400 C 260.285 214.595,260.391 210.504,260.391 193.600 C 260.391 176.696,260.285 172.605,259.800 170.800 C 259.475 169.590,259.207 167.298,259.205 165.706 C 259.199 162.381,257.574 156.095,256.514 155.300 C 255.286 154.379,254.624 154.825,249.870 159.768 M225.730 183.680 C 218.503 191.001,191.555 217.630,190.146 218.843 C 184.790 223.457,188.616 229.970,199.267 234.369 L 203.215 236.000 210.428 236.000 L 217.641 236.000 221.569 234.451 C 228.128 231.863,232.681 227.616,235.557 221.400 C 236.852 218.601,237.218 180.375,235.974 177.800 C 234.646 175.051,233.731 175.577,225.730 183.680 M131.200 266.481 C 130.210 266.698,129.130 267.113,128.800 267.403 C 128.470 267.693,127.210 268.375,126.000 268.919 C 123.808 269.904,120.144 272.002,113.984 275.800 C 109.306 278.684,103.664 282.452,102.413 283.527 C 100.770 284.940,92.682 290.800,92.375 290.800 C 92.182 290.800,89.895 292.572,87.294 294.738 C 84.693 296.904,81.777 299.246,80.816 299.942 C 79.855 300.639,78.063 302.602,76.834 304.304 L 74.600 307.400 74.617 312.400 C 74.629 315.791,74.807 317.722,75.171 318.400 C 76.249 320.407,79.046 323.540,80.900 324.817 C 81.945 325.536,82.800 326.248,82.800 326.399 C 82.800 327.977,93.512 328.315,96.600 326.834 C 98.702 325.825,105.618 319.193,107.960 315.938 C 108.649 314.982,110.107 313.120,111.202 311.800 C 113.191 309.402,115.424 306.443,117.929 302.887 C 118.660 301.849,119.765 300.460,120.386 299.800 C 121.006 299.140,121.891 297.847,122.351 296.927 C 122.812 296.007,123.384 295.133,123.624 294.985 C 124.117 294.681,127.194 290.147,129.005 287.056 C 129.668 285.925,130.793 284.110,131.505 283.022 C 132.217 281.934,132.800 280.844,132.800 280.600 C 132.800 280.357,133.349 279.412,134.019 278.500 C 135.463 276.537,137.978 269.267,137.706 267.844 C 137.385 266.165,134.958 265.656,131.200 266.481 M193.300 328.259 C 191.512 329.140,191.682 333.936,193.581 336.200 C 194.647 337.470,195.392 338.849,196.176 341.000 C 196.577 342.100,197.301 343.450,197.785 344.000 C 198.270 344.550,199.159 346.170,199.762 347.600 C 200.365 349.030,201.183 350.560,201.579 351.000 C 201.976 351.440,202.616 352.480,203.001 353.311 C 203.386 354.141,204.492 355.517,205.458 356.367 C 207.773 358.405,209.343 358.696,212.880 357.742 C 213.795 357.495,217.498 352.731,218.454 350.572 C 218.876 349.617,219.678 348.293,220.235 347.631 C 220.793 346.968,221.670 345.351,222.185 344.038 C 222.700 342.725,223.566 341.054,224.110 340.325 C 224.654 339.596,225.408 338.049,225.786 336.888 C 226.164 335.726,226.918 334.246,227.463 333.598 C 229.282 331.437,228.485 328.357,225.977 327.855 C 222.912 327.242,194.654 327.592,193.300 328.259 "
       stroke="none"
       fill="#dbdbdb"
       fill-rule="evenodd"
       style="fill:#ffffff;fill-opacity:1" />
    <path
       id="path0"
       d="m 74.658203,1.3066406 c -17.561619,0.036299 -35.123955,0.00516 -52.684995,0.144167 -0.545928,0.129804 -1.335088,-0.2171459 -1.693558,0.2808677 -0.372907,0.4687359 -0.769305,0.9416045 -0.908556,1.5398091 -0.999841,0.1523322 -1.841116,0.9442207 -2.06836,1.9277344 -1.343395,-0.03571 -3.03046,0.00194 -3.75139,1.3575239 -0.183926,0.4943942 -0.321546,0.8663374 -0.905533,0.9380845 -1.324327,0.6469494 -1.50499,2.2543148 -1.44545,3.5637448 0.04839,0.49886 -0.775289,0.354582 -1.017019,0.75021 -0.4986244,0.375197 -0.8124694,0.977819 -0.917717,1.589656 -0.6216868,0.08959 -1.243499,0.178319 -1.8652344,0.267578 0,122.889324 0,245.778644 0,368.667964 0.6183048,0.0974 1.2656037,0.16456 1.8671875,0.2793 0.149139,1.00787 0.9416439,1.85077 1.9316409,2.08203 -0.03563,1.34396 0.0012,3.03199 1.357524,3.75335 0.494394,0.18392 0.866337,0.32154 0.938084,0.90553 0.64695,1.32433 2.254315,1.50499 3.563745,1.44545 0.49886,-0.0484 0.354582,0.77529 0.75021,1.01702 0.375197,0.49862 0.977819,0.81247 1.589656,0.91772 0.0896,0.62168 0.178319,1.24349 0.267578,1.86523 121.555994,0 243.111974,0 364.667964,0 0.0974,-0.61831 0.16456,-1.2656 0.2793,-1.86719 1.00787,-0.14914 1.85077,-0.94164 2.08203,-1.93164 1.34396,0.0356 3.03199,-0.001 3.75335,-1.35752 0.18392,-0.4944 0.32154,-0.86634 0.90553,-0.93809 1.32433,-0.64695 1.50499,-2.25431 1.44545,-3.56374 -0.0484,-0.49886 0.77529,-0.35458 1.01702,-0.75021 0.49862,-0.3752 0.81247,-0.97782 0.91772,-1.58966 0.62168,-0.0896 1.24349,-0.17832 1.86523,-0.26758 0,-122.88932 0,-245.77864 0,-368.667964 -0.61831,-0.09734 -1.2656,-0.16456 -1.86719,-0.279297 -0.14914,-1.00787 -0.94164,-1.850767 -1.93164,-2.082031 0.0356,-1.3439548 -0.001,-3.0319834 -1.35752,-3.7533438 -0.4944,-0.1839258 -0.86634,-0.3215458 -0.93809,-0.9055332 -0.64695,-1.3243271 -2.25431,-1.50499 -3.56374,-1.4454496 -0.49886,0.048392 -0.35458,-0.7752897 -0.75021,-1.0170195 C 385.81602,3.6847176 385.2134,3.3708726 384.60156,3.265625 384.51197,2.6439382 384.42324,2.022126 384.33398,1.4003906 292.58529,1.3639596 200.8366,1.2678299 109.08789,1.2914187 97.61133,1.2964927 86.134766,1.3015666 74.658203,1.3066406 Z M 373.66992,17.585938 c 2.21505,1.153344 4.27141,2.68423 5.92188,4.564453 0.50516,1.611058 1.4035,3.083172 2.20898,4.566406 0,114.205733 0,228.411463 0,342.617183 -1.14517,2.40288 -2.34331,4.86587 -4.35533,6.67702 -1.75395,1.71273 -4.0043,2.82255 -6.21147,3.78978 -112.83906,0 -225.67812,0 -338.517183,0 -1.483285,-0.80524 -2.955276,-1.70417 -4.566406,-2.20898 -1.92332,-1.70047 -3.50232,-3.80912 -4.652163,-6.10256 -0.340316,-0.84647 -0.903912,-1.64272 -1.101625,-2.52127 0.06766,-114.23412 0.135333,-228.46823 0.203006,-342.702345 1.142615,-2.438842 2.348638,-4.964257 4.494141,-6.693359 1.525357,-1.258907 3.311382,-2.229933 5.189797,-2.82337 C 46.123031,16.596422 59.964335,16.616883 73.804656,16.569561 170.70742,16.39338 267.6104,16.440556 364.51328,16.40193 c 2.24702,0.02829 4.51998,-0.05853 6.75088,0.04136 0.80192,0.380882 1.60384,0.761763 2.40576,1.142645 z m -164.4414,0.52539 c -3.12858,0.07486 -6.1735,1.197875 -8.67297,3.06674 -2.04444,1.52216 -4.12982,3.276697 -5.12,5.691073 -0.14735,0.744147 -0.44385,1.419474 -0.90237,2.032004 -1.07,1.673861 -2.3848,3.249456 -3.019,5.151307 -1.23668,2.198805 -2.77602,4.261308 -3.55512,6.690028 -0.81914,1.989682 -2.37536,3.574015 -3.08926,5.619026 -0.52244,1.510987 -0.95272,3.092651 -1.95042,4.380834 -1.16262,1.761541 -1.9274,3.723462 -2.70368,5.616707 -0.84322,1.987844 -2.16895,3.741431 -2.80238,5.824168 -0.4551,1.488966 -0.91737,3.007294 -1.87264,4.263242 -1.17332,1.959888 -1.74662,4.191469 -2.25569,6.393906 -0.58762,1.706667 -1.75347,3.142039 -2.29019,4.874591 -1.03216,2.724431 -1.45244,5.674788 -2.8866,8.245836 -1.21118,2.391898 -1.66522,5.050573 -2.35234,7.615382 -0.70268,2.579948 -2.03408,4.942733 -2.58416,7.571008 -0.52703,2.10139 -0.509,4.34708 -1.51271,6.31564 -0.96533,2.14333 -1.9502,4.32621 -2.16665,6.69766 -0.41762,3.57905 -0.94074,7.17114 -2.155,10.58068 -1.25984,3.21147 -1.58995,6.79898 -1.91742,10.12407 -0.32031,3.1398 -0.78428,6.29019 -1.88281,9.26368 -1.08956,4.02216 -1.22288,8.21987 -1.53397,12.35375 -0.36308,5.05236 -0.45582,10.12166 -0.87977,15.16923 -0.14263,1.79468 -0.63878,3.54005 -0.6465,5.34911 -0.39804,8.62048 -0.43642,17.25519 -0.37811,25.88367 0.0769,2.70559 -0.0212,5.43593 0.38067,8.11832 0.63861,3.72441 0.7173,7.51739 1.00798,11.27917 0.40064,5.63768 0.58025,11.30137 1.34657,16.90534 0.21602,0.94506 0.32586,2.02036 -0.3683,2.80707 -1.90898,2.52707 -4.27716,4.66146 -6.47576,6.92996 -2.23146,2.1535 -4.34597,4.53904 -7.09333,6.04928 -2.98912,1.40455 -6.43607,0.69799 -9.53502,1.70251 -2.16524,0.62093 -4.00558,1.96451 -6.16772,2.56932 -1.65336,0.39549 -2.903,1.65399 -4.45287,2.29852 -2.28629,1.10469 -4.62535,2.13484 -6.69969,3.62032 -3.83606,2.43465 -7.75228,4.74879 -11.41853,7.44199 -3.291981,2.33133 -6.654222,4.57433 -9.808504,7.08841 -3.738055,2.55 -7.252105,5.41389 -10.684346,8.35591 -1.560735,1.13589 -3.310493,2.0098 -4.703195,3.37117 -2.661196,2.42151 -5.25381,4.97104 -7.344684,7.91202 -1.277319,2.34442 -1.784856,5.00989 -2.417969,7.58008 -0.421103,2.04032 -0.970912,4.08326 -1.31195,6.12197 0.545691,2.04907 1.099695,4.04882 1.568597,6.05516 0.397897,1.80682 0.752417,3.65815 1.731941,5.26091 1.903362,3.34299 4.334001,6.43171 7.306334,8.88813 0.915885,0.78484 2.030134,1.24286 3.161048,1.61106 2.33611,0.98998 4.532561,2.37536 7.063549,2.84033 6.484004,1.42185 13.33448,-0.40711 18.880839,-3.8671 3.69322,-2.26347 6.79864,-5.38792 9.26734,-8.93213 1.58818,-2.18027 3.22533,-4.32617 5.0254,-6.33589 2.23006,-2.69102 4.02577,-5.72575 6.48417,-8.22925 0.78401,-0.87518 1.59519,-1.79257 1.97973,-2.91305 1.27868,-1.44964 2.30057,-3.09151 3.38402,-4.68568 1.34546,-1.64956 2.62586,-3.35842 3.63749,-5.23942 1.25592,-2.17416 2.96342,-4.04501 4.1963,-6.23651 1.64523,-2.62111 2.85112,-5.48926 4.58027,-8.06118 1.08812,-1.83746 1.70495,-3.88822 2.31629,-5.9171 0.41701,-1.44486 1.39515,-2.61797 1.94182,-3.99939 0.72866,-2.19953 0.65192,-4.55332 0.87275,-6.83547 0.0438,-0.41384 0.10053,-1.1931 0.22785,-1.738 0.39891,-1.80633 2.0336,-2.92874 3.22253,-4.21724 1.37561,-1.29166 2.64135,-2.72808 4.18048,-3.82796 0.38489,0.22835 0.37302,0.93584 0.56643,1.37059 0.64783,2.36601 1.27986,4.74744 2.26162,6.99965 0.9509,3.55522 1.22406,7.2536 2.23713,10.7966 0.71526,2.688 1.7885,5.27244 2.34477,8.00577 0.47721,2.56779 1.21921,5.0929 2.35372,7.44848 0.38228,0.9889 0.62912,1.76834 0.92245,2.80361 0.63782,2.70638 1.38974,5.40606 2.63614,7.90343 1.3327,3.13897 1.85976,6.60474 3.66013,9.54393 1.22154,2.48329 1.6272,5.2478 2.91791,7.70894 0.99571,1.70415 1.66916,3.56117 2.27336,5.43185 0.97515,2.66403 2.59024,5.03412 3.53337,7.71371 0.6371,1.63355 1.61058,3.09363 2.46019,4.61511 1.07216,2.2047 1.66181,4.65758 3.16307,6.6416 1.34796,2.06716 1.81868,4.64794 3.53559,6.47698 1.37108,2.13203 2.34589,4.50607 3.88998,6.53194 1.20627,1.94835 1.91442,4.19474 3.45066,5.93804 4.05715,5.14653 11.38974,7.61031 17.65783,5.46872 2.90147,-0.9652 5.4649,-2.91974 7.22549,-5.40872 0.664,-1.61283 1.98277,-2.85458 2.85064,-4.36233 1.17749,-1.80848 1.90153,-3.77666 3.21751,-5.52139 0.96138,-1.34619 1.55379,-2.89488 2.12717,-4.43073 0.66846,-1.36742 1.68884,-2.53397 2.26561,-3.95544 0.83558,-1.74122 1.40308,-3.64727 2.67655,-5.14093 1.19282,-1.89573 1.51273,-4.18102 2.67668,-6.09458 1.08695,-1.74835 2.09102,-3.62164 2.58428,-5.59616 0.88321,-2.30251 2.43528,-4.28453 3.20707,-6.63923 0.47397,-1.58745 0.9963,-3.17309 1.86408,-4.59665 1.20106,-2.59817 2.19119,-5.32083 2.90638,-8.08015 1.96915,-2.77972 2.32262,-6.27397 3.45865,-9.4099 0.60616,-1.92642 1.75461,-3.63786 2.19546,-5.62454 0.43017,-1.99843 0.88104,-3.99926 1.62659,-5.91063 1.49049,-3.58508 2.34842,-7.38592 3.03865,-11.19398 0.36903,-1.81265 0.8706,-3.59463 1.56726,-5.30806 1.53904,-4.99506 1.82005,-10.26636 3.11047,-15.31889 0.45787,-1.57003 1.11743,-3.08427 1.31046,-4.72427 0.83091,-5.18039 1.11864,-10.40801 1.89462,-15.59995 0.74745,-4.77803 1.93159,-9.50486 2.10962,-14.35796 0.34269,-7.37878 0.19283,-14.76974 0.2318,-22.15415 -0.0355,-10.77119 0.063,-21.54432 -0.12853,-32.31406 -0.0593,-2.43597 -0.16486,-4.91673 -1.04102,-7.2207 -0.47199,-1.45847 -0.63078,-2.97883 -0.73362,-4.49867 -0.17415,-1.54273 -0.46121,-3.06962 -0.75466,-4.59313 -0.0818,-0.47855 -0.24394,-1.30335 -0.22288,-1.93202 0.0949,-1.739 1.52963,-2.97446 2.56077,-4.2379 3.053,-3.24547 6.17944,-6.42597 9.39177,-9.51384 1.37934,-1.26646 2.91017,-2.71429 4.91744,-2.67637 1.50168,-0.0291 3.01817,-0.0208 4.46672,-0.48267 2.74605,-0.68333 5.31875,-1.93057 8.06862,-2.58593 3.45298,-1.45798 6.78268,-3.20921 10.02943,-5.07916 3.79185,-2.38345 7.71455,-4.5662 11.34664,-7.19787 3.25565,-2.3081 6.56333,-4.54312 9.88898,-6.74642 2.18061,-1.54012 4.13175,-3.38081 6.31228,-4.91696 1.79644,-0.99787 3.33656,-2.40653 4.95312,-3.66797 3.2346,-2.735385 6.4664,-5.479522 9.60302,-8.32724 2.69171,-2.496343 5.14079,-5.383615 6.58448,-8.789947 1.42902,-4.088181 1.27334,-8.521557 0.88086,-12.773437 -0.27963,-2.266146 -0.54525,-4.558167 -1.16601,-6.757813 -1.16012,-2.605148 -2.95857,-4.8718 -4.78617,-7.038807 -3.40457,-3.797897 -8.11414,-6.295762 -13.03805,-7.49049 -7.52454,-1.796721 -15.98242,-0.316402 -22.00289,4.685071 -2.56356,2.105225 -4.39663,4.912854 -6.64759,7.321525 -2.51292,2.868946 -5.22011,5.59078 -7.31269,8.799226 -0.76605,1.111644 -1.68071,2.43847 -2.40988,3.381678 -1.01338,1.352795 -2.30742,2.518564 -3.04277,4.055092 -2.02059,2.789799 -4.22554,5.452825 -5.99924,8.41571 -1.6795,2.576105 -3.70579,4.949759 -4.95068,7.786921 -0.91673,1.589699 -2.31558,2.871872 -2.98853,4.610171 -0.81365,2.49301 -2.78134,4.38112 -3.66982,6.84178 -0.61547,2.09682 -1.62619,4.03989 -2.51497,6.02665 -1.32091,3.3359 -1.65239,6.96333 -1.76954,10.51563 -2.03298,2.69612 -4.45457,5.08754 -6.98325,7.31711 -0.53361,0.53576 -1.31744,1.03856 -2.07925,0.66726 -0.94384,-1.07364 -1.05532,-2.61548 -1.34469,-3.96332 -0.47884,-3.57536 -0.8436,-7.21698 -2.19065,-10.59767 -1.02928,-2.62372 -1.64596,-5.47347 -2.09934,-8.26812 -0.48046,-2.46931 -1.34569,-4.83362 -2.28251,-7.15984 -0.71851,-1.998893 -1.37593,-4.052487 -1.50831,-6.183393 -0.29865,-1.683758 -1.2248,-3.147982 -1.82059,-4.728043 -0.16668,-0.417677 -0.34462,-0.931386 -0.54121,-1.497996 -0.9712,-2.90958 -1.73798,-5.910826 -3.16582,-8.644582 -1.31652,-2.921378 -1.53574,-6.296664 -3.45183,-8.950998 -1.29657,-2.050418 -1.58043,-4.53807 -2.67432,-6.687882 -0.8799,-2.006608 -2.25053,-3.818288 -2.65008,-6.015066 -0.78801,-2.714885 -2.81913,-4.840371 -3.65346,-7.537461 -0.80762,-2.228539 -2.36207,-4.075512 -3.19231,-6.29439 -0.63082,-1.600499 -1.40225,-3.148667 -2.43271,-4.528102 -1.38838,-2.325534 -2.41033,-4.884529 -4.16352,-6.980315 -0.38234,-0.708366 -0.54298,-1.541998 -1.01475,-2.224782 -1.62766,-2.735421 -3.35602,-5.446923 -5.48382,-7.823973 -2.91902,-2.914721 -7.20395,-4.152199 -11.2539,-4.011719 z m 1.4707,12.625 c 1.74157,0.08291 2.88996,1.631946 3.91363,2.863115 0.6476,0.831034 1.33029,1.922354 1.77998,2.700577 2.05327,3.649013 3.73196,7.51088 5.99779,11.037871 1.18861,1.647925 1.56355,3.72377 2.62129,5.452654 0.36786,0.824082 1.42877,1.600947 0.9959,2.588361 -0.59796,0.521313 -1.5034,0.269522 -2.23724,0.397104 -8.21186,0.289751 -16.43299,0.259641 -24.64788,0.12752 -1.53184,-0.04476 -3.06609,-0.06685 -4.59339,-0.200405 -0.56851,-1.515001 0.0482,-3.221926 0.84179,-4.546875 1.38724,-1.745435 2.24345,-3.817087 3.04663,-5.874392 0.62998,-1.491058 1.84617,-2.617734 2.55919,-4.066947 0.86554,-1.699326 1.79169,-3.376361 2.99847,-4.860361 0.53766,-0.706235 0.83019,-1.552567 0.8879,-2.428769 0.788,-1.698093 2.65738,-2.606828 4.39063,-3.050781 0.47385,-0.101743 0.96021,-0.159759 1.44531,-0.138672 z M 330.67969,60.78125 c 5.62461,0.380355 11.06849,3.93181 13.19877,9.231984 1.6178,3.795107 1.25747,8.490213 -1.38459,11.74383 -1.42192,1.781459 -3.39114,2.997628 -5.0456,4.541464 -1.89213,1.616393 -3.73832,3.22369 -5.61405,4.772377 -2.5072,2.123081 -5.3392,3.822272 -7.82205,5.978109 -1.00659,0.827283 -1.96394,1.741811 -3.15865,2.28497 -2.92451,1.967786 -5.65019,4.215256 -8.60419,6.143646 -4.82272,3.22834 -9.63762,6.48982 -14.70831,9.3212 -3.33185,1.76882 -6.76469,3.55052 -10.51475,4.20929 -0.59037,0.0455 -1.35892,0.21385 -1.85439,-0.10578 0.0785,-1.84833 1.38858,-3.34153 1.82865,-5.10166 0.18965,-0.89191 0.3354,-1.80325 0.83535,-2.59409 0.66283,-1.13914 1.5395,-2.14393 2.09217,-3.3533 0.75578,-1.40094 1.34378,-2.92391 2.42937,-4.1072 1.2321,-1.80511 1.96236,-3.913412 3.20313,-5.701168 1.42903,-1.758588 2.46513,-3.808541 3.89648,-5.558594 1.21213,-0.734265 1.54457,-2.2292 2.42849,-3.263702 1.16036,-1.642186 2.42361,-3.227971 3.41721,-4.972626 1.24404,-1.581194 2.83553,-2.98651 3.54297,-4.908203 1.24416,-1.785818 2.91021,-3.319386 3.92774,-5.232422 2.04681,-1.665609 3.19868,-4.125682 4.92399,-6.08524 2.66193,-3.238957 6.02566,-6.335086 10.2954,-7.089209 0.88538,-0.162245 1.78904,-0.195142 2.68686,-0.153676 z m -120.30664,7.255859 c 5.6233,0.01994 11.24719,0.02856 16.86914,0.167969 0.6235,0.02025 1.67204,0.04957 2.23657,0.07567 1.15725,0.05383 2.48681,-0.0268 3.32633,0.938401 1.6221,1.602039 1.59832,4.032983 2.53194,5.996492 0.77252,1.848232 1.8292,3.577146 2.35854,5.525499 0.71984,2.867261 1.91604,5.575475 3.00311,8.313677 0.90877,2.346669 1.21148,4.876177 2.21148,7.193231 1.06495,2.302817 1.85664,4.737453 2.27811,7.234213 0.46524,2.2693 1.25665,4.4501 2.18578,6.56616 1.42715,3.59766 1.3343,7.55802 2.50799,11.22606 1.35683,3.66394 2.08346,7.53003 2.40898,11.41693 0.24838,2.2522 0.82111,4.44756 1.51892,6.597 0.40402,1.09651 -0.0417,2.27001 -0.83822,3.06067 -3.30742,3.84843 -6.81444,7.53249 -10.50992,11.0103 -0.48226,0.4561 -1.01424,0.85246 -1.55164,1.24023 -2.95089,-1.3383 -5.02861,-3.95717 -7.71094,-5.70703 -6.29924,-4.20835 -13.89027,-6.14595 -21.39411,-6.53237 -7.13289,-0.31228 -14.51792,0.76884 -20.83636,4.24331 -4.49274,2.60235 -8.34031,6.28174 -11.31706,10.52326 -1.30044,1.81527 -2.21953,3.86442 -2.85508,5.99837 -0.89945,2.63204 -1.9439,5.22927 -2.82342,7.85766 0.14557,14.8961 0.13932,29.79556 0.51643,44.68808 -0.0319,1.28779 0.24543,2.57241 0.15143,3.85305 -0.48935,1.61585 -1.88302,2.73533 -2.97503,3.95458 -2.22864,2.16055 -4.36112,4.53115 -7.11133,6.04101 -0.36247,0.149 -0.99994,0.55056 -1.12891,-0.0781 -0.87381,-2.24625 -0.73724,-4.71774 -0.94008,-7.08287 -0.46173,-10.29794 -0.47208,-20.73187 -0.41888,-31.09835 0.0653,-8.54485 0.21591,-17.10699 0.56013,-25.60199 0.0785,-1.41321 0.14464,-3.06169 0.2386,-4.56563 0.19155,-2.60184 0.24796,-5.25292 1.06758,-7.75435 1.3507,-5.41506 1.89727,-10.98118 2.41254,-16.52459 0.29918,-3.15801 1.71139,-6.05641 2.28231,-9.15954 0.53271,-2.29073 0.8834,-4.83796 1.28022,-7.01542 0.12459,-0.60932 0.226,-1.18478 0.33865,-1.67565 0.3302,-1.92478 1.15723,-3.69913 1.75007,-5.54375 0.72614,-2.38531 0.86674,-4.90705 1.71005,-7.26291 1.05321,-3.19044 2.46278,-6.283446 3.05368,-9.610979 0.52832,-2.65632 2.04293,-4.955934 2.7999,-7.537569 0.70955,-2.127544 0.95598,-4.446936 2.21332,-6.356659 1.6394,-3.349153 2.33963,-7.094251 4.24371,-10.324981 0.43691,-0.841622 0.71379,-1.760901 0.84765,-2.6875 0.73547,-1.198578 2.24754,-1.362145 3.52394,-1.348511 6.65707,-0.259948 13.32287,-0.224701 19.98388,-0.253052 z m 0.20312,85.970701 c 4.5999,0.0103 9.2294,0.88906 13.4035,2.85302 2.19018,1.19611 3.89832,3.07201 5.71436,4.74795 0.64589,0.52565 1.05284,1.26508 1.01886,2.11192 0.0693,0.6066 0.26094,1.2594 -0.39026,1.60554 -9.15449,9.09226 -18.39041,18.10284 -27.52696,27.21826 -4.41309,4.59329 -8.66402,9.39998 -13.6889,13.3472 -0.97779,0.69242 -1.96756,1.48459 -3.16146,1.74502 -0.34047,-0.472 -0.0718,-1.23497 -0.16529,-1.82495 -0.0326,-8.704 -0.22475,-17.40893 -0.0671,-26.11255 0.0183,-0.6442 0.0492,-1.54317 0.0723,-2.28516 0.0289,-0.44561 0.0676,-1.26545 0.10025,-1.85438 0.21555,-3.59997 0.7214,-7.34894 2.76348,-10.4201 1.55543,-2.65836 3.90262,-4.7283 6.19696,-6.7341 2.95325,-2.68683 7.0019,-3.62434 10.85286,-4.12543 1.61794,-0.19436 3.24799,-0.28248 4.87746,-0.27224 z m 44.93164,3.48828 c 1.12897,3.04643 1.732,6.29078 1.74425,9.54059 0.0643,1.80228 0.47651,3.55841 0.79677,5.3227 0.16131,1.53277 0.17866,2.86697 0.23231,4.4148 0.16384,9.98514 0.1204,19.97295 0.0604,29.9589 -0.0187,1.98097 -0.0611,4.14709 -0.14035,6.00911 -0.0134,1.54118 -0.28938,3.0524 -0.63618,4.54692 -0.49047,2.42092 -0.26241,4.92188 -0.83166,7.33303 -1.08539,6.03856 -0.97858,12.21204 -1.80976,18.28186 -0.21697,1.65709 -0.93158,3.19412 -1.24548,4.83367 -0.69726,3.05739 -1.44479,6.13122 -1.67028,9.26624 -0.0267,2.80991 -0.82567,5.5494 -1.95861,8.10031 -1.28553,3.43472 -1.44083,7.14489 -2.50368,10.63959 -0.76125,2.53662 -1.72824,5.01298 -2.30966,7.60348 -0.49983,2.64125 -1.39567,5.21886 -2.45266,7.70349 -0.78416,1.9731 -1.21143,4.05552 -1.79889,6.0869 -0.5666,1.91607 -1.84986,3.50825 -2.4349,5.41924 -0.79722,2.27062 -1.12804,4.73701 -2.47197,6.78841 -1.09279,1.93458 -1.67835,4.08728 -2.25713,6.21522 -0.29624,1.07671 -1.57278,1.26609 -2.40987,1.7728 -0.76274,0.34169 -1.48513,0.86543 -2.36316,0.68717 -13.52877,-0.0741 -27.05755,-0.14589 -40.58634,-0.21583 -0.81317,-0.72871 -1.60411,-1.539 -1.92873,-2.6074 -0.8858,-1.78905 -2.02508,-3.45303 -2.6628,-5.36132 -0.7464,-2.19191 -1.54643,-4.37223 -2.63473,-6.42053 -0.86652,-2.07467 -1.03517,-4.35861 -1.91593,-6.4314 -0.69777,-2.13704 -2.02458,-4.03969 -2.53133,-6.23623 -0.36434,-2.75106 -1.44259,-5.34971 -2.43969,-7.92167 -0.91075,-2.00297 -1.30581,-4.17738 -1.58332,-6.34353 -0.78006,-4.30728 -2.58571,-8.347 -3.33704,-12.66185 -0.47458,-3.21045 -1.00988,-6.43543 -2.14642,-9.49045 -0.71461,-2.38204 -1.71515,-4.96338 -0.90978,-7.45 0.96664,-2.50875 3.03115,-4.36125 4.84143,-6.26941 2.51567,-2.42613 4.87184,-5.04733 7.6558,-7.17494 0.55357,-0.40421 1.35389,-0.9329 1.96144,-0.31397 1.99082,1.5768 3.61834,3.56492 5.60737,5.15014 3.65366,3.08312 7.96172,5.69509 12.79835,6.24286 2.59791,0.4023 5.16032,1.09813 7.80741,1.09243 5.65281,0.0896 11.33039,-0.37293 16.87109,-1.51172 2.13428,-0.40736 4.13994,-1.28729 5.96083,-2.46112 4.8474,-3.03756 9.09229,-7.10075 12.19684,-11.91519 1.38826,-2.1473 2.36669,-4.55616 2.73686,-7.09244 0.32091,-1.78384 1.13104,-3.45793 1.17579,-5.28906 0.46551,-7.63093 0.43897,-15.28213 0.469,-22.92461 -0.0379,-7.22858 -0.0129,-14.46645 -0.47081,-21.68309 0.0106,-1.52298 -0.80217,-2.99942 -0.45569,-4.51735 0.75013,-1.88478 2.31708,-3.2838 3.62351,-4.78706 2.04713,-2.10543 3.9929,-4.32512 6.22266,-6.24219 0.0449,0.10417 0.0898,0.20834 0.13476,0.3125 z m -21.37109,21.10547 c 0.50749,3.38344 0.44558,6.82285 0.55629,10.23553 0.10291,9.33645 0.0341,18.68329 -0.53556,28.00514 -0.14077,1.31175 -0.11998,2.67936 -0.52469,3.93896 -2.06714,4.51185 -5.63725,8.32074 -10.07639,10.56163 -2.05195,1.05947 -4.2437,1.86582 -6.39856,2.65718 -4.51614,0 -9.03229,0 -13.54843,0 -4.26859,-1.76369 -8.82762,-3.40858 -12.06752,-6.85436 -1.25117,-1.31677 -2.38174,-3.33245 -1.44811,-5.13002 0.78586,-1.4295 2.22105,-2.32306 3.30063,-3.51032 12.41464,-12.14045 24.743,-24.36986 37.00611,-36.66384 1.19158,-1.14378 2.36164,-2.32618 3.71084,-3.28677 z m -99.72656,89.53516 c 0.37637,0.0845 1.16858,-0.0545 1.27405,0.33488 -0.58567,2.84776 -1.60448,5.60988 -2.89544,8.21121 -0.73434,1.21948 -1.68228,2.34924 -2.07131,3.73886 -1.34699,2.33262 -2.85753,4.56996 -4.20997,6.90137 -1.31826,2.08506 -2.65717,4.23394 -4.17937,6.13594 -1.42011,1.32475 -1.90979,3.3271 -3.21254,4.75633 -2.68753,2.9775 -4.75347,6.44115 -7.26712,9.55907 -1.99118,2.57106 -4.15499,5.09769 -6.03682,7.67994 -2.69117,3.21945 -5.70512,6.17986 -8.967668,8.81811 -1.377976,1.27474 -3.35352,1.28418 -5.112095,1.44627 -2.420407,0.10804 -4.890941,0.12096 -7.257268,-0.45698 -1.186814,-1.49385 -3.03795,-2.26526 -4.287516,-3.70904 -1.212887,-1.26892 -2.438297,-2.59441 -3.255304,-4.1553 -0.483918,-2.87465 -0.253349,-5.81332 -0.327929,-8.7165 -0.179421,-0.86932 0.674344,-1.40679 1.051135,-2.09746 1.57647,-2.24766 3.322285,-4.44087 5.612886,-6.00085 3.359315,-2.59889 6.51624,-5.45482 9.943057,-7.96538 2.129606,-1.22808 4.066096,-2.77398 6.072567,-4.19341 2.758805,-1.95678 5.300715,-4.20364 8.157165,-6.02411 5.45346,-3.64504 11.03522,-7.10599 16.75289,-10.32057 2.03174,-1.16409 4.28055,-1.94171 6.19102,-3.30864 1.26411,-0.50931 2.67131,-0.66013 4.02558,-0.63374 z m 80.24218,61.40039 c 3.64739,0.0385 7.30834,-0.0534 10.94336,0.2832 1.11533,0.23876 1.01605,1.79229 0.3577,2.46305 -1.30047,1.56819 -1.85797,3.55484 -2.64054,5.3935 -0.69007,1.46082 -1.75558,2.70987 -2.36822,4.21571 -0.78845,1.75316 -1.45153,3.60446 -2.73034,5.09764 -1.21982,1.67939 -1.8695,3.69206 -3.16079,5.32724 -0.90679,1.2446 -1.82766,2.49841 -2.94999,3.5595 -1.48861,0.41315 -3.2726,0.71675 -4.55196,-0.38948 -1.39172,-1.00999 -2.51817,-2.40174 -3.1973,-3.91194 -0.69055,-1.29063 -1.74039,-2.34834 -2.2859,-3.72397 -0.85563,-1.97832 -1.76963,-3.9571 -3.10873,-5.65861 -1.10078,-1.8906 -1.55524,-4.09916 -2.83029,-5.90243 -0.73039,-1.0919 -1.73314,-2.06884 -1.9144,-3.43746 -0.18222,-0.89934 -0.25869,-1.86415 0.037,-2.74759 4.27158,-0.37878 8.47143,-0.4002 12.75303,-0.49856 2.5489,-0.0438 5.09813,-0.0626 7.64736,-0.0698 z" />
  </g>
</svg>
