<?xml version="1.0" encoding="UTF-8" standalone="no"?>
<svg
   id="svg"
   version="1.1"
   width="400"
   height="400"
   viewBox="0, 0, 400,400"
   sodipodi:docname="parking.svg"
   inkscape:version="1.4 (86a8ad7, 2024-10-11)"
   inkscape:export-filename="parking.png"
   inkscape:export-xdpi="96"
   inkscape:export-ydpi="96"
   xmlns:inkscape="http://www.inkscape.org/namespaces/inkscape"
   xmlns:sodipodi="http://sodipodi.sourceforge.net/DTD/sodipodi-0.dtd"
   xmlns="http://www.w3.org/2000/svg"
   xmlns:svg="http://www.w3.org/2000/svg">
  <defs
     id="defs1" />
  <sodipodi:namedview
     id="namedview1"
     pagecolor="#ffffff"
     bordercolor="#000000"
     borderopacity="0.25"
     inkscape:showpageshadow="2"
     inkscape:pageopacity="0.0"
     inkscape:pagecheckerboard="0"
     inkscape:deskcolor="#d1d1d1"
     inkscape:zoom="1.615"
     inkscape:cx="199.6904"
     inkscape:cy="200"
     inkscape:window-width="1920"
     inkscape:window-height="1010"
     inkscape:window-x="2873"
     inkscape:window-y="-6"
     inkscape:window-maximized="1"
     inkscape:current-layer="svgg" />
  <g
     id="svgg">
    <path
       id="path1"
       d="M42.948 50.409 C 41.007 50.614,39.527 51.043,38.313 51.755 C 37.332 52.330,36.231 52.800,35.865 52.800 C 34.999 52.800,28.800 58.999,28.800 59.865 C 28.800 60.231,28.338 61.318,27.774 62.281 C 26.017 65.278,26.014 65.524,26.010 201.400 C 26.007 332.596,26.062 338.122,27.409 339.610 C 27.728 339.963,28.197 340.870,28.450 341.626 C 29.924 346.025,36.103 350.782,41.954 352.023 C 43.145 352.276,101.209 352.376,205.606 352.307 L 367.411 352.200 371.206 350.364 C 377.562 347.288,381.518 341.876,382.406 335.037 C 382.875 331.429,382.902 71.194,382.434 67.566 C 382.245 66.105,381.539 63.733,380.847 62.238 C 380.161 60.757,379.600 59.378,379.600 59.175 C 379.600 56.543,370.456 51.001,365.093 50.385 C 361.160 49.932,47.245 49.956,42.948 50.409 M328.400 139.916 C 331.782 140.820,331.878 140.895,332.553 143.166 C 332.868 144.228,333.415 145.655,333.767 146.337 C 334.120 147.018,334.515 148.976,334.646 150.688 C 334.777 152.400,335.242 154.970,335.680 156.400 C 336.117 157.830,336.593 160.344,336.738 161.986 C 337.097 166.077,338.028 166.704,341.339 165.082 C 346.670 162.472,361.404 163.613,364.783 166.898 C 367.801 169.831,367.597 167.807,367.599 194.855 L 367.600 219.110 366.300 221.026 C 363.390 225.316,354.005 226.849,343.201 224.800 C 338.373 223.884,338.000 224.531,338.000 233.829 C 338.000 247.732,334.334 251.198,319.626 251.199 C 313.150 251.200,310.800 252.489,310.800 256.040 C 310.800 258.034,304.890 267.157,302.259 269.224 C 297.490 272.971,292.138 275.663,288.000 276.395 C 286.570 276.648,284.256 277.203,282.858 277.628 C 279.620 278.611,275.991 278.616,273.186 277.639 C 271.984 277.220,269.560 276.654,267.800 276.382 C 265.875 276.084,263.723 275.431,262.400 274.744 C 261.190 274.116,260.052 273.601,259.872 273.601 C 257.099 273.594,246.539 262.368,245.839 258.684 C 245.476 256.772,243.052 252.258,242.142 251.800 C 240.878 251.163,136.228 251.320,134.302 251.962 C 132.960 252.409,132.740 252.684,132.179 254.613 C 130.093 261.789,120.362 273.591,116.522 273.601 C 116.345 273.601,115.166 274.147,113.903 274.813 C 112.639 275.479,110.299 276.270,108.703 276.570 C 107.106 276.871,104.810 277.403,103.600 277.754 C 100.617 278.617,96.248 278.578,93.563 277.664 C 92.373 277.259,89.960 276.701,88.200 276.425 C 86.440 276.148,84.730 275.685,84.400 275.396 C 84.070 275.107,82.779 274.420,81.532 273.871 C 76.301 271.567,67.207 262.480,67.199 259.548 C 67.198 259.247,66.869 258.460,66.468 257.800 C 66.067 257.140,65.416 255.754,65.022 254.720 C 63.723 251.307,64.210 251.433,51.258 251.146 C 37.871 250.849,37.235 250.725,34.405 247.855 C 31.549 244.960,31.513 244.740,31.683 231.000 C 31.820 219.868,31.891 218.869,32.663 217.188 C 33.121 216.192,33.691 214.468,33.929 213.358 C 34.658 209.956,36.909 205.869,41.804 199.056 C 42.572 197.987,43.203 196.727,43.207 196.256 C 43.220 194.659,50.895 187.600,52.619 187.600 C 52.873 187.600,53.962 187.131,55.040 186.558 C 56.678 185.687,57.817 185.457,61.999 185.150 C 66.712 184.805,71.087 184.179,75.203 183.262 C 76.194 183.041,80.964 182.821,85.803 182.773 C 90.641 182.725,96.220 182.444,98.200 182.150 C 100.180 181.855,102.742 181.611,103.894 181.607 C 105.046 181.603,106.756 181.418,107.694 181.196 C 108.632 180.974,114.620 180.650,121.000 180.476 L 132.600 180.161 135.000 178.854 C 137.468 177.510,140.414 174.392,142.400 171.023 C 142.950 170.090,143.940 168.550,144.600 167.600 C 146.495 164.875,148.554 161.664,150.629 158.200 C 151.683 156.440,152.918 154.522,153.373 153.939 C 153.828 153.355,154.740 151.944,155.400 150.802 C 158.950 144.662,163.243 141.189,168.723 140.021 C 173.958 138.905,324.249 138.807,328.400 139.916 M171.200 144.750 C 167.771 145.624,163.901 148.914,161.438 153.049 C 160.221 155.091,159.238 156.649,155.408 162.600 C 151.554 168.587,151.411 168.794,151.100 168.797 C 150.935 168.799,150.800 169.056,150.800 169.369 C 150.800 169.682,150.350 170.473,149.800 171.127 C 149.250 171.781,148.800 172.501,148.800 172.727 C 148.800 172.953,148.388 173.647,147.884 174.269 C 146.110 176.461,145.467 179.076,146.500 179.902 C 147.077 180.364,167.015 180.584,198.318 180.474 L 219.236 180.400 220.218 179.418 L 221.200 178.436 221.200 162.878 C 221.200 146.556,221.059 145.070,219.475 144.646 C 218.293 144.329,172.464 144.427,171.200 144.750 M229.156 144.665 C 227.532 145.099,227.405 146.328,227.279 162.811 L 227.158 178.622 228.211 179.611 L 229.264 180.600 259.096 180.710 L 288.927 180.820 289.908 179.910 C 291.108 178.796,290.956 174.090,289.569 169.366 C 289.084 167.714,288.599 164.345,288.365 161.000 C 288.142 157.804,287.645 154.284,287.208 152.800 C 286.787 151.370,286.237 149.002,285.987 147.538 C 285.612 145.349,285.377 144.834,284.665 144.643 C 283.682 144.379,230.146 144.400,229.156 144.665 M294.478 144.685 C 292.723 145.021,292.383 147.391,293.562 151.082 C 294.034 152.558,294.483 155.744,294.740 159.434 C 294.985 162.948,295.426 166.140,295.813 167.200 C 296.184 168.218,296.602 171.124,296.775 173.887 C 297.111 179.255,297.333 179.777,299.543 180.391 C 302.333 181.166,328.765 180.916,330.400 180.099 C 331.987 179.306,332.558 176.044,331.564 173.449 C 331.301 172.762,330.952 169.770,330.788 166.800 C 330.580 163.014,330.234 160.623,329.633 158.800 C 329.161 157.370,328.601 154.620,328.389 152.688 C 328.000 149.137,327.082 146.682,325.583 145.183 C 324.836 144.436,298.030 144.006,294.478 144.685 M345.600 170.324 C 344.964 170.510,344.269 171.268,343.691 172.408 L 342.782 174.200 342.891 195.400 L 343.000 216.600 344.000 217.944 C 346.473 221.267,356.269 221.436,359.495 218.211 L 361.200 216.505 361.200 195.240 C 361.200 172.504,361.146 171.842,359.220 170.811 C 358.239 170.286,347.097 169.887,345.600 170.324 M124.800 185.783 C 123.291 186.162,118.392 186.426,109.200 186.623 C 101.830 186.780,95.350 187.085,94.800 187.299 C 93.434 187.832,87.122 188.412,79.200 188.733 C 69.866 189.111,69.600 189.357,69.600 197.626 C 69.600 205.486,68.176 208.579,63.200 211.532 C 61.418 212.589,61.305 212.602,52.000 212.800 C 41.582 213.022,41.143 213.123,40.382 215.497 C 40.116 216.324,39.530 217.810,39.079 218.800 C 38.347 220.409,38.241 221.607,38.081 230.074 C 37.781 245.938,37.839 246.000,53.184 246.000 C 63.810 246.000,64.060 245.941,64.613 243.310 C 64.741 242.700,65.376 241.120,66.023 239.800 C 66.671 238.480,67.200 237.211,67.200 236.980 C 67.199 234.281,76.312 225.237,81.200 223.084 C 82.190 222.648,83.450 221.982,84.000 221.604 C 84.550 221.227,86.710 220.611,88.800 220.237 C 90.890 219.862,93.371 219.296,94.314 218.978 C 96.789 218.143,101.436 218.245,104.464 219.199 C 105.859 219.639,108.170 220.187,109.600 220.418 C 111.030 220.649,112.832 221.254,113.605 221.762 C 114.378 222.270,115.444 222.823,115.973 222.992 C 121.897 224.871,130.889 235.415,132.184 242.000 C 133.053 246.417,127.175 246.000,188.580 246.000 C 247.282 246.000,243.600 246.145,243.600 243.836 C 243.600 243.526,244.140 242.131,244.800 240.736 C 245.460 239.341,246.000 237.921,246.000 237.580 C 246.001 234.663,256.308 224.245,260.409 223.014 C 260.954 222.851,262.120 222.311,263.000 221.816 C 263.880 221.320,266.290 220.611,268.356 220.239 C 270.422 219.868,272.739 219.302,273.505 218.982 C 275.135 218.301,279.884 218.227,282.200 218.848 C 283.080 219.083,285.521 219.664,287.624 220.138 C 289.727 220.612,291.913 221.307,292.482 221.682 C 293.051 222.057,293.974 222.479,294.534 222.619 C 295.564 222.878,299.359 225.249,302.101 227.348 C 305.469 229.925,310.415 237.959,310.978 241.765 C 311.181 243.137,311.611 244.072,312.403 244.865 L 313.538 246.000 319.926 246.000 L 326.313 246.000 328.256 244.667 C 331.116 242.707,331.751 241.154,331.925 235.693 L 332.069 231.186 330.792 229.993 C 329.618 228.896,329.282 228.800,326.614 228.800 C 323.917 228.800,323.591 228.704,321.990 227.437 C 319.189 225.220,319.230 225.429,319.214 213.326 C 319.199 201.469,319.305 200.783,321.351 199.576 C 322.101 199.133,322.944 198.193,323.223 197.486 C 324.127 195.200,324.714 194.800,327.162 194.799 C 331.719 194.795,333.743 191.183,331.063 187.834 L 330.130 186.668 242.565 186.507 C 180.017 186.393,154.657 186.220,153.800 185.905 C 151.870 185.194,127.552 185.092,124.800 185.783 M57.501 191.599 C 55.714 192.137,52.400 194.775,52.400 195.660 C 52.400 196.819,51.745 197.864,49.713 199.946 C 43.112 206.708,43.481 208.400,51.555 208.400 C 56.991 208.400,61.431 206.806,62.315 204.538 C 63.653 201.103,64.113 194.101,63.087 192.765 C 61.963 191.301,59.914 190.873,57.501 191.599 M327.400 203.178 C 325.164 204.093,325.010 204.696,324.869 213.087 L 324.738 220.891 325.869 222.081 C 327.230 223.512,329.447 223.459,331.047 221.956 L 332.016 221.046 331.908 212.838 L 331.800 204.631 330.441 203.716 C 328.981 202.732,328.638 202.672,327.400 203.178 M92.200 224.752 C 91.320 224.915,90.060 225.331,89.400 225.676 C 88.740 226.021,87.586 226.436,86.836 226.598 C 85.164 226.958,81.811 229.065,79.513 231.199 C 78.571 232.074,77.691 232.792,77.558 232.795 C 77.062 232.805,74.046 237.509,72.553 240.600 C 70.534 244.780,70.092 251.043,71.605 254.010 C 72.086 254.952,72.725 256.421,73.026 257.275 C 76.598 267.397,93.793 275.129,105.413 271.837 C 108.670 270.914,112.590 269.319,114.041 268.325 C 119.625 264.501,121.909 262.056,124.456 257.175 L 125.800 254.600 125.800 248.400 L 125.800 242.200 124.456 239.625 C 121.570 234.092,113.930 226.833,110.968 226.807 C 110.510 226.803,109.250 226.329,108.168 225.753 C 106.070 224.637,96.163 224.016,92.200 224.752 M271.000 224.802 C 267.776 225.768,264.427 227.126,263.313 227.919 C 262.633 228.404,261.874 228.800,261.627 228.800 C 261.380 228.800,259.414 230.555,257.258 232.700 C 253.201 236.736,253.242 236.669,250.574 243.600 C 247.423 251.785,255.901 266.939,265.232 269.800 C 265.764 269.963,267.280 270.554,268.600 271.113 C 271.352 272.278,280.736 272.857,283.800 272.052 C 293.409 269.525,299.105 265.278,303.450 257.400 L 304.995 254.600 304.997 248.600 L 305.000 242.600 303.524 239.600 C 301.510 235.507,295.567 228.863,293.873 228.810 C 293.694 228.805,292.957 228.350,292.236 227.800 C 291.514 227.250,290.581 226.798,290.162 226.796 C 289.743 226.794,288.410 226.312,287.200 225.725 C 284.827 224.574,273.849 223.948,271.000 224.802 "
       stroke="none"
       fill="#dadada"
       fill-rule="evenodd"
       style="fill:#ffffff;fill-opacity:1" />
    <path
       id="path0"
       d="m 113.29297,32.019531 c -24.399136,0.04783 -48.799288,-0.01697 -73.197416,0.234842 -2.885679,0.06971 -5.796576,-0.01505 -8.656101,0.419455 -0.604448,0.133048 -1.057807,0.68189 -1.714844,0.53711 -1.440411,0.09915 -2.864025,0.810135 -3.699218,2.005859 -1.58706,0.06882 -3.257307,0.741067 -4.09375,2.158203 -1.640525,0.201702 -3.282905,1.076362 -4.06836,2.578125 -0.805176,0.468165 -1.523677,1.117539 -1.945312,1.958984 -1.50704,0.738581 -2.336071,2.390243 -2.527344,4.001953 -1.382624,0.869692 -2.147606,2.510237 -2.181641,4.115235 C 9.800381,50.965083 9.2065573,52.723122 9.1601562,54.335938 8.3901237,55.491315 8.6266876,56.95834 8.4808961,58.274397 8.2577971,68.001035 8.2370535,77.732205 8.1636079,87.461238 7.9679021,122.48835 7.9463077,157.51618 7.924827,192.54375 c -0.012612,44.59215 0.02935,89.18471 0.3107192,133.77608 0.074871,6.47348 0.088069,12.95228 0.3367194,19.4204 0.056685,0.73551 0.3304544,1.4377 0.6503906,2.08399 -0.069877,1.59017 0.6521553,3.23428 1.9902348,4.13281 0.05462,1.88458 0.739,3.82431 2.189453,5.07422 0.778719,2.54725 2.915209,4.39817 5.038212,5.86808 1.141579,0.78899 2.395482,1.45856 3.758663,1.76278 1.073873,1.7027 2.750797,2.94191 4.566406,3.75781 0.8642,0.79577 1.577751,1.85079 2.629297,2.38086 97.739968,-0.008 195.479958,0.0271 293.219918,-0.0309 16.54014,-0.0432 33.08272,0.0131 49.62009,-0.33081 2.47351,-0.0852 4.98773,-0.0834 7.4075,-0.64601 0.88524,-0.23335 1.63305,-0.81016 2.29227,-1.40039 1.13852,-0.3704 2.01135,-1.24309 2.99987,-1.85025 1.30601,-0.37512 2.52338,-1.19959 3.12988,-2.44284 2.41945,-1.58019 4.46299,-3.7303 6.10042,-6.07514 1.16957,-0.62168 1.9507,-1.77394 2.43323,-2.96774 0.88766,-0.97119 1.70263,-2.06425 2.00151,-3.36923 0.66631,-0.29314 1.33317,-0.585 2,-0.87695 0.0494,-83.07682 0.15023,-166.15364 0.15103,-249.23047 -0.0319,-14.25356 0.0505,-28.510163 -0.26263,-42.76083 -0.0972,-2.255764 0.008,-4.599984 -0.7634,-6.752844 -0.27793,-0.678465 -0.8129,-1.211412 -1.2714,-1.744747 -0.69646,-2.134989 -2.5762,-3.503924 -3.87704,-5.233768 -0.82263,-2.329239 -2.76207,-4.004552 -4.48207,-5.680765 -0.71287,-0.665241 -1.51204,-1.246212 -2.36949,-1.700095 -1.23804,-1.855752 -3.59368,-2.433393 -5.70117,-2.439453 -1.10335,-1.272333 -2.76114,-1.886648 -4.37891,-2.11914 -1.9279,-1.014299 -4.18898,-0.66132 -6.28222,-0.820039 -10.4189,-0.236943 -20.84175,-0.192395 -31.26268,-0.241468 -54.23339,-0.110237 -108.46694,-0.07535 -162.70041,-0.08052 -21.36875,0.0044 -42.7375,0.0087 -64.10625,0.01312 z m 149.27148,22.054688 c 33.74749,0.06384 67.49584,0.007 101.24249,0.265963 2.28129,0.0038 4.37911,1.040499 6.41101,1.964104 1.98632,1.018193 3.95799,2.191474 5.51447,3.807042 0.62428,2.376784 2.0288,4.507713 2.53286,6.933695 0.42502,2.162762 0.15752,4.382646 0.2678,6.570968 0.21488,32.474509 0.19388,64.949979 0.22673,97.425029 0.013,50.80667 0.006,101.6136 -0.20317,152.41992 -0.0548,3.83184 -0.007,7.6721 -0.18213,11.498 -0.65014,4.75587 -3.71092,9.07004 -7.95601,11.30036 -1.31336,0.69623 -2.66764,1.37221 -4.02631,1.93999 -89.20949,0.0495 -178.41901,0.15959 -267.628509,0.10172 -18.531335,-0.0367 -37.063873,-0.0127 -55.594006,-0.22435 -1.762836,-0.0835 -3.351728,-0.96345 -4.90405,-1.73877 -2.287533,-1.30673 -4.449147,-3.05102 -5.749198,-5.3773 -0.519085,-1.1971 -0.988104,-2.44134 -1.681804,-3.53961 -0.221588,-1.26886 -0.289144,-2.67948 -0.33321,-3.83478 -0.368462,-10.81454 -0.322749,-21.68822 -0.407395,-32.5276 -0.07366,-17.35407 -0.05579,-34.70833 -0.07644,-52.06251 2.047029,2.38745 4.500329,4.79868 7.74346,5.30655 4.328609,0.83211 8.761983,0.65621 13.146052,0.83826 3.376551,0.10651 6.767079,0.0596 10.130019,0.40012 0.647625,1.60786 1.337681,3.20578 2.19336,4.71093 0.219839,1.27838 0.702622,2.48347 1.431741,3.55726 2.21556,3.53904 5.288642,6.44479 8.41905,9.16678 2.466832,2.10401 5.190181,3.92805 8.180459,5.19979 1.269151,0.79138 2.603004,1.52177 4.102448,1.74971 2.63677,0.58467 5.329787,0.94617 7.89889,1.80434 4.243717,1.08342 8.748053,0.74801 12.914523,-0.51068 3.40001,-0.77362 6.91703,-1.35699 10.00088,-3.07977 0.82268,-0.52705 1.77689,-0.70511 2.68453,-1.00005 3.32388,-1.29824 5.82661,-3.98613 8.17148,-6.57409 3.5121,-4.03587 6.60582,-8.52855 8.55157,-13.53579 0.275,-0.3723 0.11083,-1.30199 0.74404,-1.19742 16.0931,-0.37806 32.19218,-0.34828 48.28867,-0.41849 18.11866,-0.0244 36.23896,-0.0622 54.35586,0.22318 0.5518,0.0671 1.29519,-0.19043 1.46094,0.5293 0.85948,1.44407 1.43465,3.03151 1.89115,4.6387 1.48244,3.49748 4.0676,6.36662 6.5776,9.15817 2.49453,2.63838 5.1057,5.29831 8.34989,7.00384 1.06391,0.43571 2.21394,0.64427 3.18894,1.28562 2.89323,1.48439 6.14084,1.96741 9.29504,2.57906 2.07814,0.5269 4.28051,1.36032 6.53534,1.47948 3.2137,0.27694 6.4155,-0.38233 9.47224,-1.32324 3.01537,-0.70529 6.12289,-1.18256 8.93718,-2.54371 3.9402,-1.73432 7.65761,-4.02366 10.90771,-6.84705 3.1711,-3.27313 5.64328,-7.15743 7.81244,-11.14525 0.79924,-1.45565 1.35474,-3.09742 1.46801,-4.73289 2.25111,-0.6615 4.64278,-0.47166 6.96326,-0.55498 4.2147,-0.11236 8.59357,-0.50699 12.38774,-2.49765 3.39963,-1.73677 5.75064,-5.08534 6.70327,-8.73416 1.25943,-4.473 1.01263,-9.16115 1.11844,-13.75528 0.13559,-0.44032 -0.20741,-1.54984 0.39033,-1.4313 6.33028,1.10249 12.95999,1.51794 19.21235,-0.24538 3.18303,-0.95954 6.33649,-2.65349 8.16963,-5.52636 0.58602,-0.91069 1.28797,-1.79542 1.7835,-2.7338 -0.0316,-14.67438 0.0704,-29.3498 -0.0707,-44.02346 -0.0988,-2.95246 -0.0151,-6.03756 -1.19107,-8.80622 -0.95551,-1.92453 -2.62205,-3.4174 -4.38574,-4.59061 -3.47943,-2.02992 -7.56674,-2.59784 -11.51088,-2.98688 -4.54207,-0.37298 -9.2284,-0.30087 -13.59752,1.12045 -0.41661,0.14515 -0.2074,-0.76194 -0.34345,-1.0966 -0.41703,-3.26056 -1.70967,-6.35415 -1.88116,-9.65535 -0.18647,-2.3905 -0.73384,-4.76381 -1.8142,-6.91402 -0.64419,-1.70519 -0.66746,-3.75744 -2.11479,-5.05816 -2.08064,-2.05803 -5.18007,-2.16272 -7.91821,-2.43861 -6.28217,-0.47475 -12.58983,-0.40445 -18.8856,-0.49323 -21.12917,-0.12962 -42.25888,-0.0291 -63.38829,-0.0421 -21.99674,0.0356 -43.99453,-0.047 -65.99033,0.18453 -3.9312,0.10859 -7.9336,-0.0315 -11.7753,0.93934 -4.95195,1.31742 -9.24587,4.54155 -12.28662,8.61803 -1.87235,2.51029 -3.29322,5.32355 -5.16632,7.8339 -2.67093,4.16207 -5.1236,8.46516 -7.9847,12.50448 -2.12747,3.1326 -3.84812,6.66246 -6.8731,9.0628 -0.92754,0.73013 -1.95736,1.42165 -3.06052,1.80781 -6.00048,0.14723 -12.00661,0.27768 -18.00396,0.55767 -2.56723,0.14609 -5.14038,0.26056 -7.67781,0.69514 -2.13758,0.23993 -4.29928,0.18516 -6.428999,0.5286 -2.438827,0.33607 -4.892742,0.51877 -7.351953,0.61618 -0.845413,0.0315 -2.01404,0.0823 -2.899862,0.10426 -4.883709,0.16552 -9.80132,-0.01 -14.651661,0.65802 -5.111469,1.13569 -10.331449,1.64677 -15.543284,2.04633 -2.283194,0.22744 -4.534406,0.87616 -6.508709,2.06053 -1.137572,0.36292 -2.286354,0.71115 -3.278276,1.40351 -2.858791,1.82865 -5.316997,4.22236 -7.593759,6.72098 -1.044066,1.18301 -1.894833,2.57623 -2.247106,4.12355 -0.944928,1.58733 -2.111295,3.03773 -3.112309,4.59309 -2.550254,3.77122 -5.013303,7.75006 -6.051753,12.23504 0.0038,-38.41029 -0.02362,-76.82076 0.106042,-115.23086 0.04028,-8.476459 0.09216,-16.953625 0.327551,-25.427345 0.0755,-1.888439 0.143666,-3.963802 0.351096,-5.915251 0.04413,-1.074326 0.594241,-1.980869 1.075035,-2.90576 0.460004,-0.84874 0.592891,-1.867562 1.358499,-2.52126 1.275571,-1.431776 2.631507,-2.832599 4.156983,-3.986889 1.43645,-0.432821 2.67485,-1.315329 4.074013,-1.823184 2.391385,-0.628987 4.891387,-0.299549 7.333579,-0.417095 36.978997,-0.21553 73.958823,-0.202196 110.938293,-0.244601 34.27722,-0.01935 68.55442,-0.01415 102.83164,-0.0024 z m 43.09571,94.273441 c 5.8932,0.0531 11.79296,0.10214 17.67382,0.51562 1.18233,2.42274 1.02,5.20526 1.64229,7.7822 0.51125,2.58343 1.51246,5.07319 1.62131,7.73022 0.34239,3.74216 0.30147,7.56886 1.40005,11.19579 0.21072,0.6187 0.0421,1.05876 -0.67613,0.89969 -6.06897,0.35815 -12.12177,0.40723 -18.22731,0.37118 -2.72904,-0.0258 -5.37173,-0.0656 -8.07857,-0.26228 -0.29917,-2.83696 -0.33671,-5.68199 -0.89846,-8.48874 -0.33346,-1.78137 -0.92211,-3.50794 -1.04384,-5.32772 -0.27179,-2.25565 -0.40617,-4.77345 -0.66418,-7.13369 -0.22961,-2.4205 -0.71459,-4.81022 -1.39352,-7.14165 2.87805,-0.16326 5.76319,-0.11955 8.64454,-0.14062 z m -101.65235,0.10742 c 4.32213,0.0321 8.66665,-0.0106 12.97461,0.11328 0.29763,5.71405 0.17776,11.44045 0.21979,17.16016 -0.004,3.55924 -0.006,7.11848 -0.003,10.67773 -21.88218,0.0437 -43.76777,0.27007 -65.64728,-0.17404 -0.2834,-0.11557 0.49379,-0.76574 0.56525,-1.11112 0.34905,-0.82804 0.80329,-1.57851 1.38281,-2.26953 0.59068,-0.81728 0.91221,-1.77672 1.61581,-2.51224 1.63798,-2.34156 3.10853,-4.79703 4.69083,-7.17721 2.03596,-3.12753 3.96113,-6.32824 5.99805,-9.45313 1.59714,-2.12091 3.59897,-4.15551 6.17988,-4.98286 5.07457,-0.23563 10.15873,-0.1677 15.23768,-0.23289 5.59512,-0.0347 11.19036,-0.0274 16.78556,-0.0382 z m 52.91016,0 c 8.39652,0.0204 16.79358,-0.008 25.18945,0.11523 0.53591,3.03763 1.59574,5.96586 1.90213,9.04465 0.54768,4.70152 0.63421,9.50017 2.03041,14.06021 0.38333,1.68335 0.73643,3.40177 0.65731,5.13733 -18.50847,-0.0684 -37.01693,-0.13672 -55.52539,-0.20508 0.10835,-8.91885 0.0409,-17.84207 0.34161,-26.75717 0.15395,-0.41333 -0.26143,-1.44745 0.4763,-1.26304 8.30867,-0.12756 16.6188,-0.10657 24.92818,-0.13213 z m 91.39844,25.6875 c 1.85155,0.0206 3.7353,0.0254 5.43689,0.11442 1.0394,0.0446 2.07683,0.1241 3.11193,0.22738 0.45411,5.66887 0.26711,11.36213 0.33046,17.04296 0.001,7.78256 0.002,15.56511 0.004,23.34766 -1.19378,1.34235 -3.0997,1.491 -4.77374,1.64886 -1.72045,0.0633 -3.53328,-0.10264 -5.08173,-0.89691 -0.6445,-0.37718 -0.23972,-1.22805 -0.35742,-1.83591 -0.0671,-12.87436 -0.13412,-25.74872 -0.20117,-38.62307 0.27925,-0.35698 0.26811,-1.16469 0.87803,-1.00948 0.21774,-0.005 0.43546,-0.0118 0.65322,-0.0159 z m -211.1836,15.17383 c 4.94968,0.0261 9.90942,0.001 14.84735,0.36919 2.48724,0.41853 5.01493,0.34282 7.52765,0.43354 17.34203,0.23572 34.68634,0.24409 52.02966,0.31093 38.86049,0.10763 77.72111,0.15579 116.58167,0.23399 -1.63601,0.29144 -3.40945,0.0128 -4.93164,0.83789 -1.75293,0.85295 -2.98214,2.52638 -3.60352,4.33985 -1.01207,0.87228 -2.28186,1.52166 -2.91796,2.76562 -1.49914,2.53786 -1.31091,5.59747 -1.41134,8.43468 -0.0451,5.25425 -0.11714,10.5147 0.11711,15.76474 0.12986,2.57697 0.97006,5.31185 3.11407,6.92228 1.75987,1.59305 3.89216,3.04264 6.36007,3.03494 1.04825,0.1018 2.12473,-0.0617 3.15798,0.10313 -0.11196,2.37332 0.0461,4.75472 -0.60157,7.09765 -0.48916,0.96371 -1.53219,1.44175 -2.30273,2.00977 -3.2792,0.0593 -6.59247,0.008 -9.88477,0.0254 -0.43448,-0.84508 -0.39319,-1.85674 -0.74919,-2.74411 -1.17496,-3.7345 -3.26922,-7.10591 -5.50631,-10.28887 -1.83133,-2.57468 -4.11055,-4.83683 -6.8054,-6.50152 -2.24784,-1.57911 -4.60139,-3.05151 -7.19455,-3.98775 -2.02512,-1.19871 -4.34385,-1.70284 -6.59968,-2.28005 -2.01748,-0.47549 -4.02855,-0.92414 -5.9769,-1.40473 -3.19488,-0.5056 -6.52851,-0.58162 -9.6714,0.25493 -4.00127,1.3804 -8.43869,1.4204 -12.18018,3.55139 -1.5776,0.73057 -3.25047,1.26954 -4.67233,2.30074 -3.6908,2.45737 -6.84517,5.63374 -9.78078,8.93395 -1.58807,1.91313 -3.22546,3.94378 -3.89098,6.38275 -0.34691,1.93379 -1.51611,3.58182 -2.11292,5.43757 -5.30697,0.35028 -10.6313,0.25596 -15.94682,0.31276 -21.91608,0.0633 -43.83234,0.028 -65.74849,0.0366 -6.36883,-0.0231 -12.74063,-0.004 -19.10547,-0.25754 -0.9291,-0.0562 -2.15051,-0.0859 -3.14258,-0.29101 -0.79067,-4.26687 -3.20793,-8.00709 -5.75781,-11.4336 -2.94695,-3.82826 -6.44182,-7.3438 -10.66164,-9.75188 -1.45118,-0.72615 -3.00167,-1.23828 -4.37157,-2.12116 -1.96672,-1.06854 -4.16608,-1.54221 -6.35156,-1.91406 -2.86163,-0.65498 -5.6649,-1.66006 -8.62562,-1.7701 -2.903084,-0.2257 -5.833916,0.15861 -8.595082,1.07283 -3.305573,0.82976 -6.853242,1.02959 -9.892341,2.68931 -2.21843,1.25305 -4.63778,2.18625 -6.609788,3.84234 -3.989989,2.99069 -7.663729,6.48502 -10.521308,10.58749 -0.800658,1.17304 -1.282659,2.52063 -1.635452,3.87939 -0.746358,1.758 -1.679443,3.46053 -2.233689,5.31592 -3.110291,0.23417 -6.23699,0.0953 -9.354296,0.14419 -2.696585,-0.0138 -5.42507,0.0404 -8.085157,-0.45473 -0.442106,-0.10827 -0.990134,-0.29129 -0.974609,-0.84961 -0.670403,-2.77715 -0.383004,-5.66535 -0.408953,-8.49431 0.04766,-2.54566 0.05968,-5.09998 0.170671,-7.58187 0.07169,-1.00758 0.0848,-2.27383 0.25586,-3.36914 0.374184,-1.41367 1.144893,-2.68274 1.570312,-4.08007 2.867669,-0.36263 5.766686,-0.25203 8.648438,-0.39063 1.646285,-0.0349 3.50996,-0.0461 5.240748,-0.11971 2.36202,-0.12697 4.855804,-0.18372 6.934127,-1.46337 2.572286,-1.498 5.045234,-3.39735 6.481399,-6.06801 2.188754,-3.7772 2.241792,-8.27739 2.246009,-12.51762 0.01944,-1.13593 0.04658,-2.27407 0.177795,-3.40356 2.875454,-0.54762 5.833351,-0.38633 8.712985,-0.62778 4.621109,-0.24227 9.268341,-0.50007 13.80804,-1.43742 9.127851,-0.65902 18.304461,-0.36373 27.425181,-1.14933 0.68169,-0.0855 1.5984,-0.22959 2.13583,-0.3089 3.00819,-0.34325 6.04829,-0.27676 9.07223,-0.3472 0.73374,-0.005 1.46747,-0.0109 2.2012,-0.0161 z m -77.554685,6.43945 c 0.331771,2.39241 -0.07435,4.85381 -0.929687,7.09375 -1.303153,0.94055 -2.979816,1.16102 -4.533626,1.38705 -1.028777,0.12681 -2.066608,0.18306 -3.103093,0.16568 1.804974,-1.998 3.983341,-3.83173 4.976562,-6.40429 0.263663,-0.53725 0.100174,-1.32681 0.786062,-1.55286 0.837147,-0.51566 1.787924,-0.82784 2.749095,-1.0155 0.01823,0.10872 0.03646,0.21745 0.05469,0.32617 z m 217.222655,32.67383 c 2.9231,0.0926 5.89448,0.19149 8.72989,0.95497 1.29277,0.5446 2.59443,1.1092 3.96542,1.4044 1.0782,0.72902 2.14225,1.52585 3.37891,1.95508 2.43862,1.96091 4.38076,4.46994 6.13662,7.04011 0.75452,1.24445 1.50127,2.53843 1.98832,3.90169 -0.002,3.29479 -0.004,6.58958 -0.006,9.88437 -2.00039,3.82055 -4.40583,7.59525 -7.99928,10.10641 -3.18864,2.25154 -6.88693,3.75925 -10.69445,4.57266 -2.89142,0.36069 -5.82276,0.11199 -8.7117,-0.16402 -1.88956,-0.16549 -3.73425,-0.66444 -5.44702,-1.477 -1.76077,-0.62978 -3.5683,-1.22222 -5.06096,-2.39384 -3.57394,-2.65407 -6.14809,-6.48719 -7.83998,-10.56585 -0.98103,-2.51292 -1.68478,-5.30723 -1.1086,-7.99752 0.55909,-1.87124 1.39651,-3.64631 2.11642,-5.45833 1.12463,-2.3775 3.275,-3.99459 5.05736,-5.84928 0.98124,-0.87616 1.84709,-1.93595 3.10813,-2.40799 1.22368,-0.7646 2.46999,-1.48998 3.84681,-1.94515 2.05247,-0.81139 4.17097,-1.6516 6.41923,-1.56771 0.70704,-0.0257 1.41361,-0.008 2.12068,0.007 z m -176.07812,0.0664 c 2.2709,0.1267 4.65773,0.21355 6.69635,1.33399 1.10244,0.54182 2.31807,0.79893 3.48615,1.10467 2.4285,1.29492 4.34365,3.34756 6.21077,5.3279 1.80055,1.94656 3.29921,4.15209 4.49184,6.5169 0.40293,0.75568 0.0982,1.67734 0.19301,2.50404 0,2.78047 0,5.56094 0,8.34141 -1.58959,3.16882 -3.38715,6.37622 -6.25346,8.57149 -2.80448,2.36535 -5.92908,4.5083 -9.53983,5.39642 -5.6194,1.47496 -11.691991,0.99975 -17.107303,-1.04791 -3.837495,-1.4504 -7.267621,-3.93783 -9.7986,-7.17142 -1.272513,-1.48254 -2.334582,-3.159 -2.937247,-5.02594 -0.624483,-1.44624 -1.506773,-2.86294 -1.433871,-4.49803 -0.189387,-3.55797 0.894278,-7.10109 2.814413,-10.07934 0.815479,-1.33055 1.555169,-2.75856 2.609482,-3.90684 1.90151,-1.42133 3.522021,-3.20904 5.608344,-4.38219 1.164537,-0.81061 2.545982,-1.13743 3.87137,-1.56667 1.258959,-0.52557 2.517537,-1.1095 3.903031,-1.17824 2.381172,-0.30154 4.789826,-0.33875 7.185551,-0.24024 z" />
  </g>
</svg>
