<?xml version="1.0" encoding="UTF-8" standalone="no"?>
<svg
   id="svg"
   version="1.1"
   width="400"
   height="400"
   viewBox="0, 0, 400,400"
   sodipodi:docname="restrooms.svg"
   inkscape:version="1.4 (86a8ad7, 2024-10-11)"
   inkscape:export-filename="restrooms.png"
   inkscape:export-xdpi="96"
   inkscape:export-ydpi="96"
   xmlns:inkscape="http://www.inkscape.org/namespaces/inkscape"
   xmlns:sodipodi="http://sodipodi.sourceforge.net/DTD/sodipodi-0.dtd"
   xmlns="http://www.w3.org/2000/svg"
   xmlns:svg="http://www.w3.org/2000/svg">
  <defs
     id="defs1" />
  <sodipodi:namedview
     id="namedview1"
     pagecolor="#ffffff"
     bordercolor="#000000"
     borderopacity="0.25"
     inkscape:showpageshadow="2"
     inkscape:pageopacity="0.0"
     inkscape:pagecheckerboard="0"
     inkscape:deskcolor="#d1d1d1"
     inkscape:zoom="1.615"
     inkscape:cx="199.6904"
     inkscape:cy="200"
     inkscape:window-width="1440"
     inkscape:window-height="890"
     inkscape:window-x="-6"
     inkscape:window-y="-6"
     inkscape:window-maximized="1"
     inkscape:current-layer="svgg" />
  <g
     id="svgg">
    <path
       id="path1"
       d="M55.200 29.472 C 48.078 30.234,38.668 35.362,34.934 40.518 C 34.105 41.663,33.316 42.690,33.182 42.800 C 33.048 42.910,32.348 44.440,31.627 46.200 C 30.906 47.960,29.994 49.940,29.601 50.600 C 27.742 53.720,27.800 48.753,27.800 203.800 C 27.800 359.116,27.737 353.819,29.632 357.111 C 30.046 357.832,30.961 359.812,31.665 361.511 C 34.085 367.358,38.056 371.332,45.000 374.856 C 52.630 378.728,36.745 378.372,201.800 378.372 C 356.735 378.372,351.741 378.430,355.288 376.590 C 356.009 376.216,358.036 375.189,359.791 374.307 C 365.272 371.557,369.930 366.773,371.817 361.957 C 372.305 360.711,373.265 358.547,373.951 357.146 C 376.037 352.885,375.986 356.734,375.992 203.600 C 375.998 48.746,376.087 54.946,373.798 50.166 C 373.051 48.608,372.074 46.402,371.625 45.264 C 369.881 40.839,364.844 35.701,360.107 33.516 C 358.618 32.829,356.945 31.953,356.388 31.569 C 353.024 29.248,364.976 29.420,203.600 29.369 C 122.750 29.344,55.970 29.390,55.200 29.472 M192.806 57.943 C 195.233 59.236,195.218 59.123,195.104 75.468 L 195.000 90.337 194.000 91.406 C 192.601 92.903,191.421 93.426,188.200 93.978 C 184.463 94.618,182.955 95.380,182.428 96.892 C 181.799 98.697,181.833 179.149,182.464 181.255 C 182.754 182.223,183.465 183.213,184.364 183.901 L 185.800 185.000 201.200 185.100 C 209.670 185.155,249.540 185.245,289.800 185.300 C 369.874 185.409,365.151 185.267,366.406 187.611 C 367.413 189.494,366.699 208.938,365.503 212.200 C 364.938 213.740,364.265 216.440,364.008 218.200 C 363.080 224.539,362.777 225.795,361.828 227.230 C 361.297 228.031,360.544 230.172,360.154 231.988 C 359.710 234.053,358.993 235.983,358.238 237.144 C 357.575 238.165,356.732 239.935,356.366 241.078 C 356.000 242.221,355.048 244.045,354.250 245.132 C 353.453 246.218,352.797 247.263,352.793 247.454 C 352.785 247.886,348.801 253.879,346.422 257.038 C 343.876 260.420,331.986 272.817,329.556 274.624 C 328.982 275.051,327.505 276.165,326.273 277.100 C 325.042 278.035,323.937 278.800,323.819 278.800 C 323.701 278.800,322.487 279.700,321.122 280.800 C 319.757 281.900,318.434 282.800,318.182 282.800 C 317.930 282.800,317.381 283.187,316.962 283.660 C 316.543 284.134,315.030 285.051,313.600 285.699 C 312.170 286.347,310.550 287.281,310.000 287.775 C 309.450 288.268,308.370 288.908,307.600 289.196 C 304.877 290.215,303.387 290.959,302.312 291.838 C 301.714 292.327,300.274 293.034,299.112 293.409 C 297.951 293.784,295.920 294.681,294.600 295.402 C 293.280 296.123,291.120 296.932,289.800 297.200 C 288.480 297.468,286.065 298.388,284.433 299.244 C 282.802 300.100,280.912 300.802,280.233 300.805 C 278.356 300.812,275.118 301.779,272.184 303.208 C 270.385 304.084,268.587 304.602,266.545 304.831 C 263.391 305.185,261.400 306.102,260.462 307.632 C 257.985 311.675,258.220 309.372,258.000 331.800 C 257.783 353.890,257.883 352.954,255.487 355.486 C 253.370 357.724,255.684 357.659,183.000 357.524 C 106.785 357.383,113.959 357.730,111.407 354.066 L 110.200 352.333 110.084 339.116 C 109.965 325.529,110.659 318.453,112.435 315.134 C 113.208 313.690,117.554 308.495,118.806 307.519 C 120.373 306.298,132.292 294.315,134.352 291.891 C 136.760 289.056,136.868 288.269,136.726 274.589 C 136.582 260.681,136.733 261.279,132.787 259.041 L 130.600 257.800 121.000 257.568 C 100.003 257.062,95.765 254.981,86.400 240.577 C 85.630 239.393,84.139 237.204,83.087 235.712 C 79.994 231.326,79.501 230.587,77.400 227.173 C 76.300 225.386,75.019 223.446,74.553 222.862 C 72.954 220.855,69.128 215.063,68.756 214.085 C 68.551 213.546,67.752 212.272,66.981 211.253 C 62.002 204.678,60.800 202.504,60.800 200.073 C 60.800 199.509,59.855 197.146,58.700 194.823 L 56.600 190.600 56.400 144.400 C 56.213 101.169,56.154 98.117,55.492 96.904 C 54.410 94.924,53.227 94.378,49.200 94.000 C 41.957 93.321,41.800 92.939,41.800 76.000 C 41.800 61.226,42.066 59.480,44.543 57.970 C 46.481 56.788,190.589 56.761,192.806 57.943 M55.800 67.085 C 55.360 67.191,54.505 67.744,53.900 68.314 L 52.800 69.350 52.800 75.301 C 52.800 84.972,48.989 83.998,86.880 84.011 C 121.890 84.023,124.874 84.167,126.445 85.922 C 128.560 88.285,128.267 91.791,125.844 93.119 C 124.717 93.736,122.007 93.819,97.000 94.000 C 68.214 94.209,68.331 94.201,67.385 96.029 C 66.657 97.436,66.489 186.730,67.211 188.628 C 67.437 189.223,68.652 191.227,69.911 193.082 C 71.170 194.938,72.494 196.906,72.852 197.457 C 73.211 198.008,73.623 199.353,73.768 200.446 C 74.069 202.710,74.673 204.246,75.717 205.396 C 76.114 205.834,77.064 207.311,77.829 208.679 C 78.594 210.046,79.392 211.271,79.603 211.402 C 79.814 211.532,80.792 212.845,81.776 214.319 C 82.760 215.794,84.487 218.350,85.613 220.000 C 86.739 221.650,88.093 223.842,88.622 224.872 C 89.152 225.901,89.781 226.865,90.022 227.013 C 90.422 227.261,92.341 230.029,95.400 234.773 C 98.158 239.050,102.298 243.680,104.853 245.344 C 105.473 245.748,107.412 246.198,109.571 246.439 C 111.587 246.664,113.971 247.107,114.869 247.424 C 116.087 247.854,118.597 248.000,124.780 248.000 C 137.655 248.000,143.267 250.200,145.789 256.236 C 149.250 264.518,147.910 292.293,143.832 296.800 C 143.334 297.350,142.550 298.430,142.089 299.200 C 141.627 299.970,140.474 301.318,139.525 302.195 C 131.099 309.987,123.307 317.755,122.084 319.583 L 120.600 321.800 120.600 332.731 L 120.600 343.661 122.100 345.036 L 123.599 346.410 184.138 346.305 C 237.257 346.213,244.766 346.126,245.402 345.600 C 247.461 343.895,247.582 342.868,247.589 327.000 C 247.597 308.231,247.279 306.810,243.282 307.755 C 239.575 308.631,212.017 308.347,210.645 307.418 C 209.298 306.506,208.400 304.598,208.400 302.646 C 208.400 298.723,208.682 298.651,225.200 298.360 C 236.335 298.164,239.422 297.990,241.187 297.458 C 242.390 297.096,244.482 296.800,245.837 296.800 C 247.191 296.800,248.997 296.557,249.850 296.260 C 250.702 295.963,253.595 295.598,256.277 295.450 C 261.986 295.134,268.777 293.966,271.488 292.834 C 272.539 292.395,274.992 291.770,276.938 291.446 C 279.294 291.053,280.983 290.521,281.993 289.852 C 282.827 289.300,284.565 288.556,285.855 288.198 C 289.211 287.267,290.439 286.766,291.800 285.775 C 292.460 285.294,294.080 284.508,295.400 284.027 C 296.720 283.546,298.474 282.712,299.297 282.173 C 300.121 281.634,301.821 280.738,303.077 280.183 C 304.332 279.628,305.908 278.756,306.579 278.245 C 307.251 277.734,308.579 276.919,309.531 276.434 C 314.136 274.088,322.552 267.499,327.951 262.012 C 334.966 254.884,342.064 245.972,343.807 242.105 C 344.326 240.953,345.190 239.423,345.725 238.705 C 346.261 237.987,347.013 236.435,347.397 235.255 C 348.135 232.984,348.579 232.046,349.717 230.354 C 350.104 229.779,350.618 228.159,350.859 226.754 C 351.101 225.349,351.746 223.240,352.294 222.066 C 353.869 218.692,354.402 216.164,354.671 210.800 C 354.833 207.581,355.185 205.030,355.661 203.637 C 356.988 199.755,356.389 197.071,353.893 195.707 C 352.668 195.037,347.958 195.000,264.200 195.000 L 175.800 195.000 174.514 194.083 C 172.361 192.547,172.405 193.581,172.402 144.087 C 172.400 93.668,172.494 95.702,170.119 94.743 C 169.504 94.494,166.480 94.164,163.400 94.009 C 155.582 93.615,154.365 92.858,154.918 88.731 C 155.454 84.737,156.395 84.468,170.672 84.218 C 183.897 83.987,183.400 84.350,183.400 74.926 L 183.400 69.253 182.225 68.026 L 181.050 66.800 118.825 66.846 C 84.601 66.872,56.240 66.979,55.800 67.085 M362.845 159.199 C 368.272 160.203,367.674 166.792,362.007 168.430 C 359.778 169.074,196.865 168.752,195.728 168.101 C 191.476 165.668,192.367 159.831,197.090 159.173 C 200.301 158.726,360.423 158.751,362.845 159.199 "
       stroke="none"
       fill="#dadada"
       fill-rule="evenodd"
       style="fill:#ffffff;fill-opacity:1" />
    <path
       id="path0"
       d="m 33.697266,5.8378906 c -0.996781,1.0399439 -1.939315,2.1332125 -2.765625,3.3144532 -1.488822,0.027564 -3.021701,0.1322314 -4.361329,0.8574222 -1.374854,0.691961 -2.645749,1.788759 -3.171874,3.271484 -2.31428,0.283989 -4.275826,1.766894 -5.951758,3.293179 -0.820857,0.787643 -1.578642,1.723967 -1.831446,2.853305 -0.891178,1.120224 -2.056927,2.13316 -2.43164,3.5625 -0.758551,0.710052 -1.354564,1.60907 -1.654297,2.607422 -1.259358,0.527039 -1.9369988,1.816946 -2.2893825,3.065942 -0.5137253,1.012755 -1.2481446,1.920739 -1.513352,3.053199 C 7.5080667,32.361703 7.4300153,33.040134 7.28125,33.701172 6.1600026,34.295102 5.582782,35.49421 5.2511122,36.661415 4.9635657,37.284373 4.399507,37.757773 4.4260376,38.499732 4.1529638,43.835162 4.1910296,49.183731 4.1058978,54.525332 3.8099987,91.197819 3.7719161,127.87182 3.7211986,164.5453 c -0.04209,54.26536 -0.029888,108.53107 0.2148596,162.79598 0.084166,13.32784 0.087595,26.6578 0.3855759,39.98298 0.094412,1.05693 -0.1000281,2.23274 0.4112244,3.19049 0.8046881,0.96358 0.8257125,2.3168 1.5640165,3.33095 0.4504252,0.88697 1.3949253,1.53744 1.4238281,2.59961 0.4164886,1.51342 1.5994632,2.63462 2.1679688,4.08203 0.5000751,0.82554 1.2440321,1.51338 2.1367191,1.89063 0.339305,2.06829 2.017711,3.53246 3.30997,5.05554 2.032314,2.1263 3.950357,4.3874 6.227139,6.26087 0.644978,0.48941 1.368964,0.92446 2.183594,1.03906 0.477956,0.9503 1.424476,1.48304 2.34377,1.91561 0.992661,0.81524 1.966825,1.77943 3.296855,1.99064 0.697526,0.12363 1.463611,0.0565 2.011541,0.60505 0.53395,0.29113 0.746432,0.81539 0.720628,1.40189 -0.175576,0.86693 0.671422,0.7332 1.269914,0.84265 2.424292,0.25872 4.87599,0.14302 7.311946,0.21285 30.951803,0.21491 61.904672,0.19665 92.857062,0.23448 62.08164,0.0258 124.16331,0.0356 186.24492,-0.0266 14.82876,-0.0608 29.65936,0.004 44.48635,-0.25989 1.62158,-0.1044 3.30772,0.0577 4.87604,-0.40932 0.50796,-0.24238 0.8344,-0.62891 1.39723,-0.72416 0.98022,-0.30458 1.69847,-1.05849 2.47281,-1.67574 0.9572,-0.14267 1.98791,-0.1314 2.83593,-0.69141 1.78502,-0.93594 2.7991,-2.98437 4.75977,-3.61133 1.69692,-0.24297 3.00781,-1.54094 3.82031,-2.94335 0.78782,-1.23473 2.30063,-1.6504 3.17015,-2.8087 0.70994,-0.86473 1.15704,-1.92886 2.03102,-2.66396 0.72816,-0.85316 1.11161,-1.97097 1.17578,-3.06836 1.74284,-1.23448 3.75368,-2.72486 3.94922,-5.03906 -0.11744,-1.38053 1.18895,-2.23972 1.48438,-3.50391 0.25259,-1.05608 1.45106,-1.52352 1.89648,-2.49805 0.9429,-1.56368 0.45451,-3.44894 0.76563,-5.15429 0.74199,-0.83715 0.47555,-2.09311 0.58411,-3.13402 0.26945,-12.29707 0.27649,-24.59845 0.3507,-36.89792 0.23925,-55.34651 0.24879,-110.69378 0.20153,-166.04071 -0.0476,-34.04369 -0.0837,-68.087813 -0.34189,-102.130683 -0.0765,-5.443142 -0.0435,-10.891537 -0.29679,-16.329747 0.0295,-0.614223 -0.40682,-1.047657 -0.55821,-1.572391 -0.15645,-1.856417 0.17898,-3.977289 -1.15857,-5.496739 -1.20463,-1.07276 -1.44776,-2.71143 -1.88049,-4.177089 -0.44326,-1.328661 -1.16599,-2.5427 -1.76758,-3.802735 -0.43593,-0.752074 -1.05752,-1.486018 -1.93555,-1.6875 -0.66592,-0.613476 -1.3616,-1.340985 -1.46093,-2.277344 -0.79016,-1.887047 -2.3206,-3.335828 -3.65929,-4.841486 -1.77048,-1.782745 -3.52224,-3.665003 -5.70342,-4.949668 -0.60407,-0.337241 -1.36795,-0.274458 -1.81646,-0.885928 -1.02194,-0.814831 -1.30439,-2.316881 -2.58255,-2.8424488 -1.32866,-0.5787099 -2.81312,-0.4890375 -4.22852,-0.59375 -0.41745,-1.7080367 -1.82693,-2.8462482 -3.00586,-4.0390624 -111.79101,0 -223.58203,-10e-8 -335.373044,0 C 34.093099,5.4121094 33.895182,5.625 33.697266,5.8378906 Z M 126.52734,31.203125 c 61.91672,0.0423 123.83359,0.168373 185.74951,0.496453 13.14704,0.09819 26.29576,0.112761 39.44081,0.375902 1.25956,-0.04637 2.40781,0.61159 3.51615,1.130893 2.50363,1.59838 5.42072,2.489002 7.71592,4.423721 3.18063,2.495148 5.93889,5.699517 7.30502,9.551443 0.7675,1.895166 1.74877,3.699017 2.51679,5.589748 0.70221,3.073588 0.64391,6.257131 0.80658,9.390824 0.32133,12.53068 0.31201,25.220402 0.36777,37.813208 0.0832,53.337603 0.0374,106.675313 0.0386,160.012963 -0.0365,25.53046 0.0391,51.06199 -0.23957,76.59135 -0.11637,5.29337 -0.097,10.50118 -0.55379,15.77539 -0.10033,1.46845 -0.42158,2.9265 -1.17535,4.20503 -1.1926,2.31084 -1.95486,4.82351 -3.26192,7.07472 -2.62971,4.27215 -6.71686,7.49234 -11.23632,9.58258 -1.45295,0.69184 -2.8457,1.52737 -4.33018,2.14114 -2.35699,0.50981 -4.89299,0.48126 -7.22647,0.6044 -14.07294,0.36283 -28.15244,0.30786 -42.22891,0.36953 -56.98187,0.0677 -113.9638,0.0277 -170.9457,0.0465 -21.65094,-0.0257 -43.303212,0.0433 -64.952717,-0.24609 -5.102107,-0.11571 -10.133852,-0.15122 -15.229108,-0.63496 -1.855036,-0.17628 -3.779347,-0.48425 -5.305836,-1.63904 -2.52212,-1.42141 -5.150754,-2.70192 -7.392518,-4.56408 -3.046152,-2.3733 -5.304498,-5.64236 -6.685975,-9.23187 -0.692151,-1.68624 -1.508559,-3.32187 -2.370483,-4.92156 -0.493774,-2.00159 -0.47447,-4.16455 -0.594138,-6.13014 -0.281167,-8.26519 -0.295043,-16.70102 -0.35183,-25.03492 -0.13642,-32.71061 -0.0884,-65.42167 -0.102944,-98.1325 0.01534,-45.51547 -0.04367,-91.03107 0.07445,-136.546439 0.05731,-9.892401 0.05773,-19.786979 0.339617,-29.676217 0.119352,-2.259111 0.09475,-4.69921 0.578125,-6.978516 0.462203,-1.055775 1.137463,-2.020399 1.562422,-3.102955 0.879871,-1.844298 1.531943,-3.800067 2.490485,-5.600565 1.39434,-1.774005 2.642058,-3.698896 4.432359,-5.116133 3.945978,-3.294916 8.662009,-5.680351 13.647546,-6.930347 2.788072,-0.713382 5.686474,-0.443725 8.532721,-0.54602 21.689039,-0.162311 43.379338,-0.132477 65.068838,-0.143433 z m -21.59375,23.882813 c -17.939449,0.07114 -35.881738,0.09408 -53.817084,0.502424 -2.338675,0.123535 -4.710327,0.0295 -7.021325,0.431041 -1.719482,0.616258 -2.991616,2.224171 -3.460544,3.971281 -0.824727,3.247987 -0.707803,6.636835 -0.805127,9.962366 -0.003,5.714297 -0.150232,11.437274 0.184467,17.144752 0.212581,2.524064 0.538584,5.419463 2.634461,7.132667 2.233695,1.73446 5.216952,1.53001 7.869953,1.933906 1.212731,0.155904 2.692932,0.399646 3.208171,1.687187 0.368128,2.075266 0.2952,4.204728 0.379611,6.254728 0.251608,16.49986 0.238018,33.00251 0.333891,49.50378 0.05381,12.48805 0.107785,24.9761 0.161498,37.46415 1.43487,3.02913 3.164834,5.94428 4.201172,9.14453 0.05458,3.23662 2.073544,5.95445 3.836202,8.50891 1.563668,2.31495 3.524125,4.38471 4.685283,6.95007 1.938418,3.30956 4.174284,6.43111 6.431826,9.52631 2.283809,3.47081 4.369302,7.07258 6.830354,10.42582 3.136933,4.30633 5.812667,8.9385 9.147976,13.10061 2.821436,3.55749 6.398208,6.64422 10.712985,8.20894 5.47402,2.00872 11.37665,2.26621 17.14385,2.52232 4.15221,0.14205 8.30615,0.22152 12.45957,0.32733 1.26461,0.78924 2.68264,1.36267 3.82813,2.32422 0.7088,1.21437 0.57791,2.71179 0.70395,4.07059 0.15329,5.55332 0.19016,11.11108 0.16658,16.66647 -0.11019,2.08376 0.0654,4.29648 -0.8221,6.23866 -1.23636,1.97011 -3.03104,3.50815 -4.58948,5.21528 -3.88595,3.95604 -7.73949,7.9539 -11.832,11.69767 -2.20644,2.02908 -4.07919,4.39816 -5.89515,6.77536 -2.07676,2.65864 -2.52993,6.13524 -2.95078,9.37982 -0.88828,8.56189 -0.51628,17.18453 -0.49922,25.77535 0.0149,1.6781 0.0287,3.35622 0.0444,5.03432 0.84917,1.20915 1.7173,2.40671 2.41406,3.71093 1.32402,1.82508 3.76676,2.00111 5.82549,2.22929 6.24649,0.48217 12.51937,0.42244 18.78033,0.50393 25.55634,0.10744 51.11306,0.10927 76.66957,0.15875 11.56191,-0.0181 23.12724,0.0967 34.68617,-0.20679 2.71455,-0.15185 5.50825,-0.0594 8.12797,-0.88293 1.5143,-0.51518 2.47435,-1.88926 3.49055,-3.03857 1.47937,-2.09611 1.37021,-4.79254 1.54788,-7.23895 0.31342,-10.62751 0.20388,-21.26352 0.44748,-31.8927 0.11425,-1.82663 4.5e-4,-3.73868 0.66675,-5.47382 0.59293,-0.96471 1.05884,-2.07844 1.93903,-2.81822 2.1291,-1.40264 4.82157,-1.03582 7.16448,-1.82241 2.61239,-0.73641 4.92751,-2.26146 7.57527,-2.90441 1.17711,-0.40634 2.42402,-0.42637 3.63739,-0.61232 2.96496,-0.71702 5.47499,-2.61217 8.43107,-3.3669 2.42094,-0.50412 4.8438,-1.5074 7.06027,-2.71705 2.36459,-1.23842 5.13313,-1.68733 7.21788,-3.44229 2.31225,-1.64287 5.33259,-1.96752 7.46818,-3.90101 2.34563,-1.70926 5.36985,-2.38048 7.40487,-4.53649 1.6924,-0.64463 3.02632,-1.9605 4.46412,-3.02834 1.25399,-1.05007 2.73647,-1.75733 3.99983,-2.80095 2.23422,-1.67375 4.52326,-3.29759 6.46655,-5.31792 4.58764,-4.5282 9.06844,-9.1746 13.29203,-14.04601 2.5095,-3.08382 4.69207,-6.42109 6.83801,-9.76381 0.687,-1.08569 1.1081,-2.3072 1.94269,-3.30295 1.32269,-1.76851 2.19695,-3.80953 2.93618,-5.87474 0.78462,-1.88381 2.10448,-3.50561 2.66657,-5.48976 0.86629,-2.52322 1.07846,-5.3136 2.61379,-7.57176 1.18197,-2.41377 1.35789,-5.15393 1.81907,-7.76425 0.31413,-2.6029 0.98972,-5.14342 1.80532,-7.62837 0.78465,-3.80687 0.91758,-7.71287 1.129,-11.58402 0.14021,-4.09573 0.3183,-8.21634 -0.11574,-12.29977 -0.23304,-1.54381 -0.98001,-3.27028 -2.59076,-3.77936 -2.35848,-0.74337 -4.87785,-0.66434 -7.32333,-0.80986 -12.10445,-0.33314 -24.21612,-0.25126 -36.32416,-0.30489 -40.55731,-0.074 -81.1148,-0.0953 -121.6719,-0.25172 -4.74154,-0.0308 -9.48308,-0.0616 -14.22462,-0.0925 -1.00588,-0.72703 -2.26957,-1.63832 -2.1272,-3.04437 -0.32152,-9.84862 -0.29794,-19.70509 -0.35806,-29.55796 -0.0331,-16.50508 -0.0688,-33.01217 0.22833,-49.51521 0.0483,-1.162051 0.0297,-2.342203 0.16318,-3.491839 0.81616,-0.881952 2.13999,-0.993851 3.24989,-1.274321 2.57747,-0.463749 5.40758,-0.881669 7.32486,-2.850944 0.6863,-0.726136 1.48792,-1.436995 2.03147,-2.236451 0.0319,-8.925625 0.19609,-17.85198 0.11114,-26.77729 -0.1309,-2.152083 0.0328,-4.522795 -1.20899,-6.399462 -0.73577,-0.968911 -1.85332,-1.700068 -3.04157,-1.951766 -4.00749,-0.37414 -8.0417,-0.348557 -12.06302,-0.457686 -25.28386,-0.390254 -50.57261,-0.386832 -75.85886,-0.360673 z m 75.84571,14.322265 c 0.53301,0.385176 0.73813,0.902148 0.62109,1.548438 -0.0553,3.077542 0.12733,6.166469 -0.13167,9.236055 -0.026,0.702774 -0.37636,1.437722 -1.16014,1.505192 -2.01884,0.449883 -4.15174,0.391009 -6.12989,0.459216 -4.96883,0.147804 -9.95918,0.03079 -14.9052,0.593837 -2.08431,0.250008 -4.4574,0.961905 -5.42505,3.012731 -0.70721,1.618059 -0.90065,3.445604 -0.80664,5.197266 0.10202,1.914882 1.54032,3.542362 3.3457,4.085937 3.47846,1.079433 7.17699,0.803765 10.7574,1.229169 0.91989,0.115933 1.87036,0.14059 2.75237,0.444659 0.38425,1.572885 0.39418,3.315487 0.47622,4.816427 0.304,9.92925 0.18627,19.86547 0.22735,29.79803 0.0261,16.43086 -0.057,32.8624 0.0957,49.29275 0.10152,3.78779 0.0241,7.60329 0.58114,11.36003 0.1982,1.52917 0.9834,3.00764 2.35721,3.78112 0.61504,0.38927 1.17817,0.94021 1.82527,1.23094 49.80558,0.0106 99.61122,-0.0274 149.41677,0.0382 8.69701,0.0523 17.39755,-0.019 26.09113,0.2629 0.97111,0.14206 2.17808,-0.15459 2.88624,0.7009 1.16221,1.3546 0.62527,3.30889 0.15958,4.83995 -1.76639,5.54636 -0.4669,11.64954 -2.76319,17.07325 -1.06957,2.2719 -1.87938,4.66644 -2.29427,7.14706 -0.22434,1.18577 -0.68338,2.30378 -1.40282,3.27403 -1.56988,2.38492 -1.80862,5.40256 -3.5796,7.67558 -1.36607,2.07127 -2.18997,4.44971 -3.67523,6.45014 -4.05364,5.84373 -8.76636,11.20939 -13.72498,16.29818 -4.60785,4.56373 -9.63737,8.71946 -15.04631,12.30094 -2.09968,1.37251 -4.41834,2.38223 -6.42388,3.90342 -2.29709,1.37448 -4.84838,2.27716 -7.08441,3.76244 -2.49778,1.39703 -5.38787,2.02398 -7.69773,3.77012 -2.5162,1.48104 -5.55024,1.66436 -8.11214,3.05853 -1.16827,0.66738 -2.35105,1.34045 -3.69787,1.57599 -2.81257,0.55829 -5.66851,1.02902 -8.33639,2.12511 -2.72245,0.85686 -5.77566,1.32518 -8.42818,1.68862 -2.1525,0.28182 -4.13786,0.44141 -6.29846,0.56676 -2.31169,0.16705 -4.63103,0.41398 -6.86548,1.04746 -2.05667,0.36943 -4.17318,0.14754 -6.21874,0.62116 -1.49355,0.33032 -2.97323,0.75557 -4.51652,0.78357 -6.1451,0.3784 -12.28372,0.34828 -18.46585,0.51616 -3.07738,0.13324 -6.2052,0.0581 -9.22136,0.76378 -1.70687,0.36374 -3.23744,1.70433 -3.4507,3.49408 -0.4553,2.91002 0.30319,6.21748 2.70117,8.10742 1.298,1.01783 3.07496,0.81076 4.61935,1.02552 7.90562,0.45192 15.83323,0.4949 23.74822,0.30636 2.38366,-0.074 4.78258,-0.15284 7.12266,-0.63656 0.74004,2.10376 0.64095,4.3886 0.78563,6.58825 0.15303,7.27375 0.13626,14.55183 0.007,21.82581 -0.1159,1.78567 -0.0255,3.65165 -0.66797,5.34765 -0.3409,0.81336 -1.33494,0.48952 -2.02765,0.62516 -9.35534,0.29952 -18.71801,0.23965 -28.07703,0.3062 -30.11479,0.0845 -60.22969,0.11606 -90.34454,0.17411 -0.56618,-0.58756 -1.33476,-1.08643 -1.77734,-1.7289 0,-6.75769 0,-13.51537 0,-20.27305 1.48025,-2.49049 3.61289,-4.47698 5.60838,-6.54374 4.34618,-4.42101 8.89054,-8.64069 13.39027,-12.90217 1.25679,-1.22123 2.17515,-2.71181 3.17075,-4.13699 1.12531,-1.2301 1.94321,-2.70535 2.42483,-4.30092 1.52482,-4.84342 2.00093,-9.9412 2.35658,-14.98361 0.35811,-6.5855 0.38322,-13.24309 -0.72425,-19.76343 -0.58163,-3.50291 -1.9986,-7.03714 -4.78977,-9.35887 -3.44116,-2.90319 -8.05794,-3.74109 -12.4129,-4.15026 -5.0786,-0.50293 -10.20116,-0.0178 -15.27584,-0.55142 -1.51377,-0.35332 -3.01172,-0.79785 -4.56242,-0.98928 -1.99141,-0.35582 -4.10365,-0.34251 -5.9788,-1.1555 -2.82408,-2.10271 -5.07475,-4.87114 -7.189379,-7.66077 -0.571814,-0.7768 -1.093909,-1.53574 -1.65604,-2.40491 -1.744715,-2.60102 -3.344927,-5.31873 -5.342619,-7.73682 -1.043803,-1.09324 -1.525175,-2.59767 -2.384657,-3.83319 -2.139292,-3.4308 -4.475357,-6.73603 -6.735333,-10.0879 -0.776188,-1.19077 -1.860955,-2.13468 -2.503074,-3.41595 -0.981514,-1.74581 -2.014028,-3.47189 -3.278541,-5.02818 -1.143949,-1.96944 -0.826776,-4.39342 -1.854775,-6.41425 -1.431476,-2.4644 -3.196201,-4.72781 -4.679307,-7.16507 -0.446154,-0.83518 -1.211442,-1.59367 -1.097016,-2.60955 -0.316307,-9.58133 -0.274072,-19.17057 -0.330315,-28.75605 -0.01259,-18.46491 -0.0057,-36.93161 0.323811,-55.39406 0.05192,-2.13214 0.06945,-4.166863 0.219633,-6.309454 2.182846,-0.482294 4.52758,-0.420277 6.678308,-0.519021 14.888129,-0.303401 29.782824,-0.172887 44.670004,-0.521154 1.96866,-0.12857 4.03172,0.01587 5.89856,-0.715004 2.70858,-1.227183 3.90175,-4.607786 3.05375,-7.368794 -0.58847,-2.152689 -2.18505,-4.192204 -4.46477,-4.651315 -3.2351,-0.725206 -6.58123,-0.663905 -9.87743,-0.798741 C 103.46606,81.962937 91.671624,82.02573 79.878913,82.021689 73.107216,81.987055 66.327623,82.166357 59.5625,81.802734 58.034018,81.634955 56.392584,81.641969 55.013672,80.888672 54.505913,80.23332 54.757538,79.277917 54.710938,78.5 c 0.139579,-2.75942 0.0761,-5.523221 0.08984,-8.285156 0.456018,-0.418488 0.83598,-0.976525 1.533203,-0.908203 4.772745,-0.393847 9.570321,-0.306929 14.355445,-0.379669 27.045391,-0.10958 54.091171,-0.06698 81.136731,-0.105424 9.45704,-0.0069 18.91407,-0.01384 28.37111,-0.02077 0.19401,0.202474 0.38802,0.404948 0.58203,0.607422 z m 69.52734,87.458987 c -17.30066,0.0629 -34.60275,0.004 -51.90205,0.2508 -2.31886,-0.10907 -4.76745,0.76004 -6.15459,2.69451 -1.97435,2.5791 -1.53257,6.5148 0.79212,8.73015 0.87214,0.82885 1.89748,1.69826 3.17663,1.61555 8.57792,0.28056 17.16302,0.26257 25.74453,0.36 38.86292,0.24071 77.72707,0.32525 116.59059,0.20951 7.70473,-0.0572 15.41307,-0.0147 23.11445,-0.25641 1.98604,-0.18268 3.83716,-1.2969 5.16371,-2.75841 1.95,-2.11863 2.44745,-5.62038 0.64083,-7.97903 -1.37689,-1.87698 -3.78838,-2.70738 -6.05581,-2.59585 -17.47646,-0.24621 -34.95565,-0.19827 -52.43346,-0.26215 -19.559,-0.0268 -39.11794,-0.0278 -58.67695,-0.009 z" />
  </g>
</svg>
